<svg xmlns="http://www.w3.org/2000/svg" xmlns:xlink="http://www.w3.org/1999/xlink" viewBox="0 0 758.07 267.04"><defs><style>.cls-1{fill:none;}.cls-2{fill:#fff;}.cls-3{clip-path:url(#clip-path);}</style><clipPath id="clip-path" transform="translate(-23.61 -129.31)"><rect class="cls-1" width="841.89" height="595.28"/></clipPath></defs><title>Спектр РГ</title><g id="Слой_2" data-name="Слой 2"><g id="Слой_1-2" data-name="Слой 1"><rect class="cls-2" x="82.67" y="248.67" width="62.42" height="1.5" transform="translate(-66.16 -105.07) rotate(-10.25)"/><rect class="cls-2" x="82.65" y="252.34" width="62.37" height="1.5" transform="translate(-65.89 -105.65) rotate(-10.01)"/><rect class="cls-2" x="82.63" y="256.02" width="62.32" height="1.5" transform="translate(-65.58 -106.24) rotate(-9.78)"/><rect class="cls-2" x="82.61" y="259.7" width="62.28" height="1.5" transform="translate(-65.11 -106.91) rotate(-9.52)"/><rect class="cls-2" x="82.59" y="263.37" width="62.23" height="1.5" transform="translate(-64.74 -107.49) rotate(-9.29)"/><rect class="cls-2" x="82.57" y="267.05" width="62.18" height="1.5" transform="matrix(0.99, -0.16, 0.16, 0.99, -64.33, -108.08)"/><rect class="cls-2" x="82.55" y="270.72" width="62.14" height="1.5" transform="translate(-63.73 -108.77) rotate(-8.78)"/><rect class="cls-2" x="82.53" y="274.4" width="62.1" height="1.5" transform="translate(-63.43 -109.26) rotate(-8.59)"/><rect class="cls-2" x="82.5" y="278.07" width="62.06" height="1.5" transform="matrix(0.99, -0.15, 0.15, 0.99, -62.93, -109.84)"/><rect class="cls-2" x="82.48" y="281.75" width="62.02" height="1.5" transform="translate(-62.39 -110.43) rotate(-8.12)"/><rect class="cls-2" x="82.46" y="285.42" width="61.98" height="1.5" transform="matrix(0.99, -0.14, 0.14, 0.99, -61.65, -111.12)"/><rect class="cls-2" x="82.43" y="289.1" width="61.94" height="1.5" transform="translate(-61.08 -111.69) rotate(-7.63)"/><rect class="cls-2" x="82.41" y="292.77" width="61.9" height="1.5" transform="matrix(0.99, -0.13, 0.13, 0.99, -60.44, -112.27)"/><rect class="cls-2" x="82.38" y="296.45" width="61.87" height="1.5" transform="translate(-59.78 -112.86) rotate(-7.16)"/><rect class="cls-2" x="82.36" y="300.13" width="61.83" height="1.5" transform="translate(-59.11 -113.42) rotate(-6.94)"/><rect class="cls-2" x="82.33" y="303.8" width="61.8" height="1.5" transform="translate(-58.17 -114.12) rotate(-6.66)"/><path class="cls-2" d="M81.4,319.74l.82-69.07L145.65,239l-.87,74.18Zm2.8-67.4-.77,65.18,59.37-6.19.82-70Z" transform="translate(-23.61 -129.31)"/><rect class="cls-2" x="104.4" y="276.01" width="71.76" height="1.5" transform="translate(-161.75 284.41) rotate(-89.31)"/><rect class="cls-2" x="100.73" y="276.56" width="71.45" height="1.5" transform="translate(-166.07 281.14) rotate(-89.31)"/><rect class="cls-2" x="97.1" y="277.11" width="71.15" height="1.5" transform="translate(-170.36 277.89) rotate(-89.31)"/><rect class="cls-2" x="93.5" y="277.65" width="70.85" height="1.5" transform="translate(-174.61 274.67) rotate(-89.31)"/><rect class="cls-2" x="89.93" y="278.19" width="70.55" height="1.5" transform="translate(-178.83 271.49) rotate(-89.31)"/><rect class="cls-2" x="86.39" y="278.72" width="70.25" height="1.5" transform="translate(-183 268.32) rotate(-89.31)"/><rect class="cls-2" x="82.87" y="279.25" width="69.95" height="1.5" transform="translate(-187.15 265.19) rotate(-89.31)"/><rect class="cls-2" x="79.39" y="279.78" width="69.66" height="1.5" transform="translate(-191.26 262.08) rotate(-89.31)"/><rect class="cls-2" x="75.94" y="280.3" width="69.37" height="1.5" transform="translate(-195.33 258.99) rotate(-89.31)"/><rect class="cls-2" x="72.51" y="280.81" width="69.09" height="1.5" transform="translate(-199.37 255.93) rotate(-89.31)"/><rect class="cls-2" x="69.12" y="281.32" width="68.8" height="1.5" transform="translate(-203.38 252.9) rotate(-89.31)"/><rect class="cls-2" x="65.75" y="281.83" width="68.52" height="1.5" transform="translate(-207.36 249.89) rotate(-89.31)"/><rect class="cls-2" x="62.41" y="282.34" width="68.24" height="1.5" transform="translate(-211.3 246.91) rotate(-89.31)"/><rect class="cls-2" x="59.09" y="282.83" width="67.96" height="1.5" transform="translate(-215.21 243.95) rotate(-89.31)"/><rect class="cls-2" x="55.81" y="283.33" width="67.69" height="1.5" transform="translate(-219.09 241.01) rotate(-89.31)"/><rect class="cls-2" x="52.55" y="283.82" width="67.41" height="1.5" transform="translate(-222.94 238.1) rotate(-89.31)"/><rect class="cls-2" x="82.59" y="307.44" width="61.81" height="1.5" transform="translate(-57.42 -114.65) rotate(-6.43)"/><rect class="cls-2" x="82.56" y="311.12" width="61.78" height="1.5" transform="translate(-56.61 -115.24) rotate(-6.2)"/><rect class="cls-2" x="24.89" y="259.88" width="53.79" height="1.5" transform="translate(-69.14 -115.94) rotate(-10.25)"/><rect class="cls-2" x="24.87" y="263.29" width="53.75" height="1.5" transform="translate(-68.74 -116.28) rotate(-10.01)"/><rect class="cls-2" x="24.85" y="266.7" width="53.71" height="1.5" transform="translate(-68.13 -116.69) rotate(-9.75)"/><rect class="cls-2" x="24.83" y="270.12" width="53.67" height="1.5" transform="translate(-67.69 -117.03) rotate(-9.52)"/><rect class="cls-2" x="24.81" y="273.53" width="53.63" height="1.5" transform="translate(-67.19 -117.38) rotate(-9.29)"/><rect class="cls-2" x="24.79" y="276.94" width="53.59" height="1.5" transform="matrix(0.99, -0.16, 0.16, 0.99, -66.66, -117.73)"/><rect class="cls-2" x="24.77" y="280.35" width="53.55" height="1.5" transform="translate(-65.93 -118.14) rotate(-8.78)"/><rect class="cls-2" x="24.74" y="283.76" width="53.52" height="1.5" transform="translate(-65.52 -118.42) rotate(-8.59)"/><rect class="cls-2" x="24.72" y="287.17" width="53.48" height="1.5" transform="translate(-64.91 -118.77) rotate(-8.36)"/><rect class="cls-2" x="24.7" y="290.59" width="53.45" height="1.5" transform="translate(-64.27 -119.11) rotate(-8.12)"/><rect class="cls-2" x="24.68" y="294" width="53.41" height="1.5" transform="matrix(0.99, -0.14, 0.14, 0.99, -63.41, -119.52)"/><rect class="cls-2" x="24.65" y="297.41" width="53.38" height="1.5" transform="translate(-62.73 -119.85) rotate(-7.63)"/><rect class="cls-2" x="24.63" y="300.82" width="53.35" height="1.5" transform="translate(-61.97 -120.2) rotate(-7.39)"/><rect class="cls-2" x="24.6" y="304.23" width="53.32" height="1.5" transform="translate(-61.24 -120.53) rotate(-7.16)"/><rect class="cls-2" x="24.58" y="307.65" width="53.28" height="1.5" transform="translate(-60.47 -120.86) rotate(-6.94)"/><rect class="cls-2" x="24.55" y="311.06" width="53.26" height="1.5" transform="translate(-59.43 -121.26) rotate(-6.66)"/><path class="cls-2" d="M23.61,325.78l.75-64.43L79.3,251.21l-.8,68.84ZM26.34,263l-.71,60.53,50.89-5.31.76-64.63Z" transform="translate(-23.61 -129.31)"/><rect class="cls-2" x="41.29" y="285.52" width="66.47" height="1.5" transform="translate(-236.22 228.05) rotate(-89.31)"/><rect class="cls-2" x="38.15" y="285.99" width="66.2" height="1.5" transform="translate(-239.93 225.24) rotate(-89.31)"/><rect class="cls-2" x="35.03" y="286.46" width="65.94" height="1.5" transform="translate(-243.61 222.46) rotate(-89.31)"/><rect class="cls-2" x="31.93" y="286.93" width="65.68" height="1.5" transform="translate(-247.26 219.69) rotate(-89.31)"/><rect class="cls-2" x="28.86" y="287.39" width="65.43" height="1.5" transform="translate(-250.89 216.95) rotate(-89.31)"/><rect class="cls-2" x="25.82" y="287.85" width="65.17" height="1.5" transform="translate(-254.48 214.23) rotate(-89.31)"/><rect class="cls-2" x="22.79" y="288.3" width="64.92" height="1.5" transform="translate(-258.05 211.53) rotate(-89.31)"/><rect class="cls-2" x="19.79" y="288.75" width="64.66" height="1.5" transform="translate(-261.59 208.85) rotate(-89.31)"/><rect class="cls-2" x="16.82" y="289.2" width="64.41" height="1.5" transform="translate(-265.1 206.19) rotate(-89.31)"/><rect class="cls-2" x="13.86" y="289.65" width="64.17" height="1.5" transform="translate(-268.59 203.55) rotate(-89.31)"/><rect class="cls-2" x="10.93" y="290.09" width="63.92" height="1.5" transform="translate(-272.05 200.94) rotate(-89.31)"/><rect class="cls-2" x="8.02" y="290.53" width="63.68" height="1.5" transform="translate(-275.48 198.34) rotate(-89.31)"/><rect class="cls-2" x="5.14" y="290.96" width="63.44" height="1.5" transform="translate(-278.89 195.76) rotate(-89.31)"/><rect class="cls-2" x="2.27" y="291.39" width="63.2" height="1.5" transform="translate(-282.27 193.2) rotate(-89.31)"/><rect class="cls-2" x="-0.57" y="291.82" width="62.96" height="1.5" transform="translate(-285.62 190.66) rotate(-89.31)"/><rect class="cls-2" x="-3.39" y="292.25" width="62.72" height="1.5" transform="translate(-288.95 188.14) rotate(-89.31)"/><rect class="cls-2" x="24.78" y="314.44" width="53.26" height="1.5" transform="translate(-58.6 -121.56) rotate(-6.43)"/><rect class="cls-2" x="24.75" y="317.85" width="53.24" height="1.5" transform="translate(-57.7 -121.9) rotate(-6.2)"/><path class="cls-2" d="M165.12,260.61l.07-5.93,6.08-1-.07,5.95Zm2-4.22,0,1.87,2.07-.33,0-1.88Z" transform="translate(-23.61 -129.31)"/><path class="cls-2" d="M165.17,256.71l.07-5.92,6.08-1-.07,5.95Zm2.05-4.23,0,1.88,2.08-.34,0-1.88Z" transform="translate(-23.61 -129.31)"/><polygon class="cls-2" points="145.68 122.83 145.76 116.43 149.65 122.17 145.68 122.83"/><path class="cls-2" d="M169.24,256.05l.07-6,2.71-.45,3.62,5.35Zm2-3.91,0,1.55,1-.16Z" transform="translate(-23.61 -129.31)"/><path class="cls-2" d="M164.89,280.08l.07-5.92,6.08-.87-.07,5.94Zm2.05-4.18,0,1.88,2.07-.29,0-1.89Z" transform="translate(-23.61 -129.31)"/><path class="cls-2" d="M165.08,264.5l.07-5.92,6.08-1-.07,5.95Zm2-4.21,0,1.87,2.08-.32,0-1.88Z" transform="translate(-23.61 -129.31)"/><path class="cls-2" d="M172.9,294.66l.07-6,6.15-.77-.07,6Zm2-4.18,0,1.92,2.15-.26,0-1.93Z" transform="translate(-23.61 -129.31)"/><path class="cls-2" d="M164.71,295.65l.07-5.91,6.08-.77-.07,5.94Zm2-4.15,0,1.89,2.07-.25,0-1.9Z" transform="translate(-23.61 -129.31)"/><path class="cls-2" d="M181.23,293.65l.07-6,6.23-.78-.07,6Zm2.05-4.22,0,2,2.22-.27,0-2Z" transform="translate(-23.61 -129.31)"/><path class="cls-2" d="M164.76,291.76l.07-5.92,6.07-.79-.07,5.94Zm2-4.16,0,1.89,2.07-.26,0-1.9Z" transform="translate(-23.61 -129.31)"/><path class="cls-2" d="M177.05,294.15l.07-6,6.18-.78-.07,6Zm2-4.19,0,1.93,2.18-.26,0-1.95Z" transform="translate(-23.61 -129.31)"/><path class="cls-2" d="M168.78,295.16l.07-5.93,6.12-.77-.07,6Zm2.05-4.17,0,1.91,2.11-.26,0-1.91Z" transform="translate(-23.61 -129.31)"/><path class="cls-2" d="M165,272.29l.07-5.92,6.08-.92-.07,5.95Zm2.05-4.2,0,1.88,2.07-.3,0-1.89Z" transform="translate(-23.61 -129.31)"/><path class="cls-2" d="M164.8,287.86l.07-5.91,6.08-.82-.07,5.94Zm2-4.16,0,1.88,2.07-.27,0-1.89Z" transform="translate(-23.61 -129.31)"/><path class="cls-2" d="M164.94,276.18l.07-5.92,6.08-.89-.07,5.95ZM167,272l0,1.88,2.07-.29,0-1.89Z" transform="translate(-23.61 -129.31)"/><path class="cls-2" d="M165,268.4l.07-5.93,6.08-.94-.07,6Zm2.05-4.21,0,1.88,2.07-.32,0-1.88Z" transform="translate(-23.61 -129.31)"/><path class="cls-2" d="M164.85,284l.07-5.92,6.08-.84-.07,5.94Zm2.05-4.17,0,1.88,2.08-.28,0-1.89Z" transform="translate(-23.61 -129.31)"/><path class="cls-2" d="M185.45,293.14l.07-6,6.27-.78-.07,6Zm2.05-4.24,0,2,2.26-.28,0-2Z" transform="translate(-23.61 -129.31)"/><path class="cls-2" d="M194.16,280l.07-6,6.34-.87-.07,6.06Zm2.05-4.29,0,2,2.33-.31,0-2Z" transform="translate(-23.61 -129.31)"/><path class="cls-2" d="M194.21,276l.07-6,1.5-.21,4.81,2.07,0,3.31Zm2-3.87,0,1.58,2.34-.33v-.25Z" transform="translate(-23.61 -129.31)"/><path class="cls-2" d="M198.36,291.57l.07-6.05,6.38-.8-.07,6.08Zm2-4.29,0,2,2.38-.29,0-2Z" transform="translate(-23.61 -129.31)"/><path class="cls-2" d="M161.17,253.5l.07-5.91,6-1-.07,5.93Zm2.05-4.22,0,1.85,2-.34,0-1.86Z" transform="translate(-23.61 -129.31)"/><path class="cls-2" d="M165.21,252.82l.07-5.93,4.36-.75,1.69,2.5,0,3.16Zm2-4.24,0,1.87,2.07-.35v-.86l-.61-.91Z" transform="translate(-23.61 -129.31)"/><path class="cls-2" d="M160.81,284.51l.07-5.9,6-.83-.07,5.92Zm2.05-4.15,0,1.86,2-.27,0-1.87Z" transform="translate(-23.61 -129.31)"/><path class="cls-2" d="M160.85,280.63l.07-5.9,6.05-.86-.07,5.93Zm2.05-4.16,0,1.86,2-.28,0-1.87Z" transform="translate(-23.61 -129.31)"/><path class="cls-2" d="M160.76,288.39l.07-5.9,6-.81-.07,5.92Zm2.05-4.15,0,1.87,2-.27,0-1.87Z" transform="translate(-23.61 -129.31)"/><path class="cls-2" d="M160.72,292.26l.07-5.89,6-.79-.07,5.92Zm2-4.13,0,1.86,2-.25,0-1.88Z" transform="translate(-23.61 -129.31)"/><path class="cls-2" d="M160.94,272.88,161,267l6.05-.91L167,272ZM163,268.7l0,1.86,2-.3,0-1.87Z" transform="translate(-23.61 -129.31)"/><path class="cls-2" d="M161.08,261.25l.07-5.9,6-1-.06,5.93Zm2-4.2,0,1.85,2-.32,0-1.87Z" transform="translate(-23.61 -129.31)"/><path class="cls-2" d="M160.9,276.76l.07-5.9,6-.89-.07,5.93Zm2-4.17,0,1.86,2-.29,0-1.87Z" transform="translate(-23.61 -129.31)"/><path class="cls-2" d="M161,265.13l.07-5.91,6.05-1-.07,5.93Zm2.05-4.2,0,1.86,2-.32,0-1.86Z" transform="translate(-23.61 -129.31)"/><path class="cls-2" d="M160.67,296.14l.07-5.9,6-.75-.07,5.92Zm2.05-4.13,0,1.87,2-.25,0-1.87Z" transform="translate(-23.61 -129.31)"/><path class="cls-2" d="M198.45,283.5l.07-6.06,6.39-.85-.07,6.08Zm2.05-4.31,0,2,2.38-.31,0-2Z" transform="translate(-23.61 -129.31)"/><path class="cls-2" d="M194,292.1l.07-6,6.34-.79-.07,6.06Zm2-4.27,0,2,2.34-.29,0-2Z" transform="translate(-23.61 -129.31)"/><path class="cls-2" d="M194.11,284.06l.07-6,6.35-.85-.07,6.07Zm2-4.29,0,2,2.34-.3,0-2Z" transform="translate(-23.61 -129.31)"/><path class="cls-2" d="M198.41,287.54l.07-6.06,6.38-.83-.07,6.08Zm2.05-4.3,0,2,2.38-.29,0-2Z" transform="translate(-23.61 -129.31)"/><path class="cls-2" d="M198.5,279.46l.07-6.06,4.27-.59,2.1.91-.06,4.89Zm2.05-4.31,0,2,2.37-.32,0-1.82-.37-.16Z" transform="translate(-23.61 -129.31)"/><path class="cls-2" d="M189.72,292.62l.07-6,6.3-.79-.07,6Zm2.05-4.25,0,2,2.3-.28,0-2Z" transform="translate(-23.61 -129.31)"/><path class="cls-2" d="M161.13,257.38l.07-5.91,6-1-.07,5.94Zm2.05-4.22,0,1.86,2-.34,0-1.86Z" transform="translate(-23.61 -129.31)"/><path class="cls-2" d="M185.59,281.19l.08-6,6.26-.87-.07,6Zm2-4.26,0,2,2.26-.3,0-2Z" transform="translate(-23.61 -129.31)"/><path class="cls-2" d="M185.64,277.21l.07-6,6.27-.89-.07,6Zm2.05-4.27,0,2,2.26-.31,0-2Z" transform="translate(-23.61 -129.31)"/><path class="cls-2" d="M185.69,273.23l.07-6,3.06-.45,3.18,1.37-.05,4.19Zm2.05-4.28,0,2,2.26-.32v-1.15l-1.44-.62Z" transform="translate(-23.61 -129.31)"/><path class="cls-2" d="M173.22,267.16l.07-6,6.15-.95-.07,6Zm2.05-4.24,0,1.91,2.14-.32,0-1.92Z" transform="translate(-23.61 -129.31)"/><path class="cls-2" d="M173.17,271.09l.07-6,6.16-.93-.07,6Zm2.05-4.23,0,1.91,2.15-.32,0-1.92Z" transform="translate(-23.61 -129.31)"/><path class="cls-2" d="M173,282.87l.08-5.95,6.15-.85-.07,6Zm2.05-4.2,0,1.91,2.15-.29,0-1.92Z" transform="translate(-23.61 -129.31)"/><path class="cls-2" d="M173.08,278.94l.07-5.95,6.15-.87-.07,6Zm2-4.21,0,1.92,2.14-.3,0-1.93Z" transform="translate(-23.61 -129.31)"/><path class="cls-2" d="M181.37,281.76l.07-6,6.23-.86-.07,6Zm2-4.24,0,2,2.22-.3,0-2Z" transform="translate(-23.61 -129.31)"/><path class="cls-2" d="M173.27,263.23l.07-6,3.46-.55,2.64,3.89,0,1.67Zm2-4.25,0,1.91,1.74-.27-1.17-1.72Z" transform="translate(-23.61 -129.31)"/><polygon class="cls-2" points="149.71 130 149.79 122.39 154.44 129.24 149.71 130"/><path class="cls-2" d="M173.13,275l.07-6,6.15-.9-.07,6Zm2.05-4.23,0,1.92,2.15-.31,0-1.92Z" transform="translate(-23.61 -129.31)"/><path class="cls-2" d="M181.46,273.83l.07-6,6.23-.91-.07,6Zm2-4.26,0,1.95,2.22-.32,0-1.95Z" transform="translate(-23.61 -129.31)"/><path class="cls-2" d="M181.51,269.86l.07-6.21,6.19,2.67,0,2.63Zm2-3.18v.87l1.51-.23Z" transform="translate(-23.61 -129.31)"/><path class="cls-2" d="M181.42,277.79l.07-6,6.23-.88-.08,6Zm2.05-4.25,0,1.95,2.22-.3,0-2Z" transform="translate(-23.61 -129.31)"/><polygon class="cls-2" points="174.94 146.12 174.99 141.68 182.78 145.04 174.94 146.12"/><polygon class="cls-2" points="162.13 139.94 162.17 136.15 168.71 138.97 162.13 139.94"/><path class="cls-2" d="M177.28,274.42l.07-6,6.19-.9-.07,6Zm2.05-4.24,0,1.94,2.19-.31,0-1.94Z" transform="translate(-23.61 -129.31)"/><path class="cls-2" d="M177.32,270.48l.07-6,4.58-.69,1.6.69-.06,5.06Zm2.05-4.25,0,1.93,2.18-.32,0-1.94Z" transform="translate(-23.61 -129.31)"/><path class="cls-2" d="M177.18,282.32l.07-6,6.19-.86-.07,6Zm2-4.23,0,1.94,2.18-.3,0-1.94Z" transform="translate(-23.61 -129.31)"/><path class="cls-2" d="M177.23,278.37l.07-6,6.19-.88-.07,6Zm2.05-4.23,0,1.93,2.18-.3,0-1.94Z" transform="translate(-23.61 -129.31)"/><path class="cls-2" d="M177.37,266.53l.07-6,1.78-.28,2.24,3.32,4,1.71Zm2-2.41v.08h0Z" transform="translate(-23.61 -129.31)"/><polygon class="cls-2" points="153.81 133.28 153.87 128.41 156.85 132.81 153.81 133.28"/><path class="cls-2" d="M169.2,260l.07-5.94,5.13-.84,1,1.42-.06,4.38Zm2.05-4.24,0,1.89,2.1-.34,0-1.9Z" transform="translate(-23.61 -129.31)"/><path class="cls-2" d="M169.11,267.78l.07-5.94,6.11-.95-.07,6Zm2-4.22,0,1.89,2.11-.32,0-1.9Z" transform="translate(-23.61 -129.31)"/><path class="cls-2" d="M169.06,271.69l.07-5.94,6.12-.92-.07,6Zm2.05-4.21,0,1.89,2.11-.31,0-1.9Z" transform="translate(-23.61 -129.31)"/><path class="cls-2" d="M169,275.6l.07-5.93,6.12-.9-.07,6Zm2.05-4.2,0,1.89,2.11-.3,0-1.9Z" transform="translate(-23.61 -129.31)"/><path class="cls-2" d="M169.15,263.87l.07-5.94,6.12-1-.07,6Zm2-4.23,0,1.89,2.11-.33,0-1.9Z" transform="translate(-23.61 -129.31)"/><path class="cls-2" d="M181.28,289.68l.07-6,6.22-.81-.07,6Zm2.05-4.22,0,2,2.22-.28,0-2Z" transform="translate(-23.61 -129.31)"/><path class="cls-2" d="M173,286.8l.07-5.95,6.15-.82-.07,6Zm2-4.2,0,1.92,2.14-.28,0-1.92Z" transform="translate(-23.61 -129.31)"/><path class="cls-2" d="M177.09,290.21l.07-6,6.19-.8-.07,6Zm2-4.21,0,1.94,2.18-.28,0-1.94Z" transform="translate(-23.61 -129.31)"/><path class="cls-2" d="M189.76,288.62l.07-6,6.31-.82-.07,6.05Zm2.05-4.26,0,2,2.3-.29,0-2Z" transform="translate(-23.61 -129.31)"/><path class="cls-2" d="M168.92,283.42l.07-5.93,6.12-.84-.07,6Zm2.05-4.18,0,1.89,2.11-.28,0-1.91Z" transform="translate(-23.61 -129.31)"/><path class="cls-2" d="M169,279.51l.07-5.93,6.11-.87-.07,6Zm2.05-4.19,0,1.89,2.11-.29,0-1.9Z" transform="translate(-23.61 -129.31)"/><path class="cls-2" d="M168.88,287.33l.07-5.93,6.11-.82-.07,6Zm2.05-4.18,0,1.9,2.11-.27,0-1.91Z" transform="translate(-23.61 -129.31)"/><path class="cls-2" d="M168.83,291.24l.07-5.93,6.11-.79-.06,6Zm2-4.17,0,1.9,2.11-.26,0-1.91Z" transform="translate(-23.61 -129.31)"/><path class="cls-2" d="M172.94,290.73l.07-6,6.15-.8-.07,6Zm2.05-4.19,0,1.92,2.14-.27,0-1.93Z" transform="translate(-23.61 -129.31)"/><path class="cls-2" d="M185.5,289.15l.07-6,6.27-.81-.07,6Zm2.05-4.24,0,2,2.26-.28,0-2Z" transform="translate(-23.61 -129.31)"/><path class="cls-2" d="M189.9,276.62l.08-6,6.3-.9-.07,6.05Zm2-4.29,0,2,2.3-.32,0-2Z" transform="translate(-23.61 -129.31)"/><path class="cls-2" d="M189.86,280.62l.07-6,6.3-.87-.07,6Zm2-4.28,0,2,2.3-.31,0-2Z" transform="translate(-23.61 -129.31)"/><path class="cls-2" d="M190,272.62l.06-5.33,6.27,2.7,0,1.73Zm2-2.31Z" transform="translate(-23.61 -129.31)"/><polygon class="cls-2" points="170.65 142.7 170.68 139.82 175.7 141.99 170.65 142.7"/><path class="cls-2" d="M181.32,285.72l.07-6,6.23-.83-.07,6Zm2.05-4.23,0,1.95,2.22-.29,0-2Z" transform="translate(-23.61 -129.31)"/><path class="cls-2" d="M185.55,285.17l.07-6,6.26-.84-.07,6Zm2-4.25,0,2,2.26-.29,0-2Z" transform="translate(-23.61 -129.31)"/><path class="cls-2" d="M189.81,284.62l.07-6,6.31-.85-.08,6.05Zm2.05-4.27,0,2,2.3-.3,0-2Z" transform="translate(-23.61 -129.31)"/><path class="cls-2" d="M177.14,286.26l.07-6,6.19-.83-.07,6Zm2.05-4.21,0,1.93,2.19-.28,0-1.94Z" transform="translate(-23.61 -129.31)"/><path class="cls-2" d="M194.06,288.08l.08-6,6.34-.82-.07,6.06Zm2.05-4.28,0,2,2.34-.29,0-2Z" transform="translate(-23.61 -129.31)"/><path class="cls-2" d="M161,269l.07-5.9,6-.94-.07,5.93Zm2-4.18,0,1.86,2-.31,0-1.87Z" transform="translate(-23.61 -129.31)"/><path class="cls-2" d="M153.24,251l.07-5.88,6-1.05-.07,5.9Zm2-4.2,0,1.82,2-.34,0-1.83Z" transform="translate(-23.61 -129.31)"/><path class="cls-2" d="M153.19,254.84l.07-5.88,6-1-.07,5.9Zm2.05-4.19,0,1.82,2-.33,0-1.83Z" transform="translate(-23.61 -129.31)"/><path class="cls-2" d="M157.26,246.45l.07-5.89,6-1.09-.07,5.92Zm2.05-4.22,0,1.84,2-.36,0-1.84Z" transform="translate(-23.61 -129.31)"/><path class="cls-2" d="M161.26,245.75l.07-5.92,3.6-.65,2.4,3.55,0,2Zm2.05-4.24,0,1.85,1.83-.33L164,241.38Z" transform="translate(-23.61 -129.31)"/><path class="cls-2" d="M153.15,258.68l.07-5.87,6-1-.07,5.9Zm2-4.18,0,1.82,2-.32,0-1.83Z" transform="translate(-23.61 -129.31)"/><polygon class="cls-2" points="137.7 112.56 137.79 104.67 142.55 111.69 137.7 112.56"/><path class="cls-2" d="M153.28,247.15l.07-5.88,6-1.07-.07,5.9Zm2.05-4.2,0,1.81,2-.34,0-1.83Z" transform="translate(-23.61 -129.31)"/><path class="cls-2" d="M152.79,289.42l.07-5.86,6-.8-.07,5.89Zm2.05-4.11,0,1.83,2-.25,0-1.84Z" transform="translate(-23.61 -129.31)"/><path class="cls-2" d="M152.83,285.58l.07-5.87,6-.82-.07,5.89Zm2-4.12,0,1.83,2-.27,0-1.83Z" transform="translate(-23.61 -129.31)"/><path class="cls-2" d="M152.88,281.73l.07-5.86,6-.85-.07,5.89Zm2.05-4.12,0,1.83,2-.28,0-1.83Z" transform="translate(-23.61 -129.31)"/><path class="cls-2" d="M152.74,293.26l.07-5.86,6-.77-.07,5.88Zm2-4.1,0,1.83,2-.24,0-1.84Z" transform="translate(-23.61 -129.31)"/><path class="cls-2" d="M207.06,298.65l.07-6.09,6.47-.75-.07,6.11Zm2.05-4.31,0,2.07,2.46-.28,0-2.07Z" transform="translate(-23.61 -129.31)"/><path class="cls-2" d="M153.06,266.37l.07-5.88,6-.95-.07,5.9Zm2.05-4.17,0,1.83,2-.31,0-1.83Z" transform="translate(-23.61 -129.31)"/><path class="cls-2" d="M153,270.21l.07-5.87,6-.93-.07,5.9Zm2.05-4.16,0,1.83,2-.3,0-1.83Z" transform="translate(-23.61 -129.31)"/><path class="cls-2" d="M153,274.05l.07-5.87,6-.9-.07,5.89Zm2.05-4.14,0,1.82,2-.29,0-1.83Z" transform="translate(-23.61 -129.31)"/><path class="cls-2" d="M152.92,277.89,153,272l6-.88L158.9,277Zm2.05-4.13,0,1.82,2-.28,0-1.83Z" transform="translate(-23.61 -129.31)"/><path class="cls-2" d="M207.16,290.51l.07-6.1,6.46-.81-.07,6.12Zm2.05-4.33,0,2.07,2.46-.3,0-2.08Z" transform="translate(-23.61 -129.31)"/><path class="cls-2" d="M152.7,297.1l.07-5.86,6-.75-.07,5.89Zm2.05-4.09,0,1.83,2-.23,0-1.85Z" transform="translate(-23.61 -129.31)"/><path class="cls-2" d="M207.11,294.58l.07-6.09,6.47-.79-.07,6.12Zm2-4.32,0,2.07,2.46-.29,0-2.08Z" transform="translate(-23.61 -129.31)"/><path class="cls-2" d="M207.21,286.43l.07-6.09,6.46-.84-.07,6.12Zm2-4.33,0,2.06,2.46-.31,0-2.07Z" transform="translate(-23.61 -129.31)"/><path class="cls-2" d="M207.25,282.36l.08-6.1,2.67-.36,3.77,1.63-.05,4Zm2.06-4.34,0,2.06,2.46-.32v-.92l-2-.88Z" transform="translate(-23.61 -129.31)"/><path class="cls-2" d="M153.1,262.52l.07-5.87,6-1-.07,5.9Zm2.05-4.17,0,1.82,2-.31,0-1.83Z" transform="translate(-23.61 -129.31)"/><path class="cls-2" d="M148.82,286.12l.56-47.86,6-1.11-.22,19.17-.34,29Zm2-4.11,0,1.82,2-.27,0-1.83Zm0-3.83,0,1.81,2-.28,0-1.82Zm0-3.83,0,1.81,2-.29,0-1.82Zm.05-3.84,0,1.81,2-.3,0-1.81Zm0-3.83,0,1.81,2-.31,0-1.81Zm.05-3.84,0,1.81,2-.31,0-1.82Zm0-3.83,0,1.8,2-.32,0-1.81Zm.05-3.83,0,1.8,2-.33,0-1.81Zm0-3.84,0,1.8,2-.33,0-1.81Zm.05-3.83,0,1.8,2-.35,0-1.81Zm0-3.83,0,1.79,2-.35,0-1.81Zm.05-3.75,0,1.71,2-.37,0-1.71Z" transform="translate(-23.61 -129.31)"/><path class="cls-2" d="M148.77,289.94l.07-5.85,6-.8-.07,5.87Zm2-4.09,0,1.81,2-.26,0-1.82Z" transform="translate(-23.61 -129.31)"/><path class="cls-2" d="M148.5,312.74l.29-24.82,6-.78,0,3.85-.18,15.41,8-.86h0l4-.44-.07,5.76Zm2.05-3.89,0,1.67,2-.21,0-1.68Zm4-.43,0,1.68,2-.2,0-1.7Zm4-.43,0,1.7,2-.21,0-1.71Zm4-.44,0,1.72,2-.21,0-1.73ZM150.59,305l0,1.82,2-.22,0-1.83Zm0-3.84,0,1.82,2-.22,0-1.83Zm0-3.83,0,1.82,2-.24,0-1.83Zm0-3.83,0,1.81,2-.24,0-1.83Zm0-3.84,0,1.82,2-.26,0-1.82Z" transform="translate(-23.61 -129.31)"/><path class="cls-2" d="M153.33,243.31l.07-5.79,6-1.1-.06,5.81Zm2-4.12,0,1.72,2-.35,0-1.73Z" transform="translate(-23.61 -129.31)"/><path class="cls-2" d="M157.3,242.59l.07-5.8,5.28-1,.72,1.06-.06,4.64Zm2-4.13,0,1.74,2-.37,0-1.74Z" transform="translate(-23.61 -129.31)"/><polygon class="cls-2" points="188.11 152.47 188.17 147.36 190.83 148.51 194.66 147.72 194.62 151.63 188.11 152.47"/><path class="cls-2" d="M164.53,311.07l.07-5.75,6.07-.66h0l8.26-.9-.07,5.81Zm2.05-4,0,1.74,2.07-.22,0-1.74Zm4.07-.44,0,1.75,2.11-.22,0-1.76Zm4.11-.44,0,1.76,2.15-.22,0-1.78Z" transform="translate(-23.61 -129.31)"/><path class="cls-2" d="M216.22,281.19l.05-3.75,6.65-1.36,0,4.25Zm4.67-2.66-.51.11Z" transform="translate(-23.61 -129.31)"/><path class="cls-2" d="M216,297.64l.12-10.24,6.64-.8-.12,10.29Zm2.05-4.34,0,2.1,2.64-.3,0-2.11Zm0-4.12,0,2.1,2.64-.31,0-2.11Z" transform="translate(-23.61 -129.31)"/><path class="cls-2" d="M216.12,289.42l.13-10.25,6.64-.86-.12,10.3Zm2.06-4.36,0,2.1,2.64-.32,0-2.12Zm0-4.13,0,2.11,2.64-.33,0-2.12Z" transform="translate(-23.61 -129.31)"/><path class="cls-2" d="M211.67,285.87l.07-6.11,6.51-.85-.07,6.15Zm2.05-4.35,0,2.08,2.5-.31,0-2.1Z" transform="translate(-23.61 -129.31)"/><path class="cls-2" d="M216,301.75l.07-6.12,6.65-.75-.08,6.15Zm2.05-4.33,0,2.1,2.63-.28,0-2.12Z" transform="translate(-23.61 -129.31)"/><path class="cls-2" d="M193.83,308l.07-5.87,6.34-.69h0l4.38-.47-.07,5.91Zm2-4.07,0,1.85,2.33-.25,0-1.86Zm4.34-.48,0,1.88,2.37-.25,0-1.88Z" transform="translate(-23.61 -129.31)"/><path class="cls-2" d="M189.53,308.46l.07-5.86,6.3-.68-.07,5.88Zm2.05-4.06,0,1.84,2.29-.24,0-1.85Z" transform="translate(-23.61 -129.31)"/><path class="cls-2" d="M176.86,309.78l.07-5.8,14.67-1.59-.07,5.86Zm2-4,0,1.79,2.18-.23,0-1.79Zm4.18-.45,0,1.8,2.22-.23,0-1.81Zm4.23-.46,0,1.82,2.25-.23,0-1.83Z" transform="translate(-23.61 -129.31)"/><path class="cls-2" d="M211.43,306.17l.07-5.94,6.51-.71h0l4.64-.5-.07,6Zm2-4.14,0,1.92,2.5-.26,0-1.93Zm4.5-.49,0,1.94,2.64-.27,0-2Z" transform="translate(-23.61 -129.31)"/><path class="cls-2" d="M202.55,307.1l.07-5.91L213.5,300l-.07,5.95Zm2-4.11,0,1.89,2.41-.25,0-1.9Zm4.42-.48,0,1.91,2.45-.26,0-1.92Z" transform="translate(-23.61 -129.31)"/><path class="cls-2" d="M189.57,304.62l.08-6,6.3-.71-.07,6.05Zm2.05-4.23,0,2,2.3-.25,0-2Z" transform="translate(-23.61 -129.31)"/><path class="cls-2" d="M168.65,306.89l.07-5.93,6.11-.69-.07,6Zm2-4.14,0,1.91,2.11-.23,0-1.92Z" transform="translate(-23.61 -129.31)"/><path class="cls-2" d="M211.62,290l.07-6.11,6.51-.81-.07,6.14Zm2-4.34,0,2.08,2.5-.3,0-2.09Z" transform="translate(-23.61 -129.31)"/><path class="cls-2" d="M176.91,306l.07-6,6.18-.7-.07,6Zm2.05-4.17,0,1.94,2.19-.24,0-1.95Z" transform="translate(-23.61 -129.31)"/><path class="cls-2" d="M164.57,307.33l.07-5.91,6.08-.68-.07,5.93Zm2.05-4.12,0,1.89,2.07-.23,0-1.89Z" transform="translate(-23.61 -129.31)"/><path class="cls-2" d="M181.09,305.54l.07-6,6.23-.7-.07,6Zm2-4.19,0,2,2.22-.24,0-2Z" transform="translate(-23.61 -129.31)"/><path class="cls-2" d="M152.56,308.63l.07-5.86,6-.67-.07,5.88Zm2.05-4.07,0,1.84,2-.21,0-1.85Z" transform="translate(-23.61 -129.31)"/><path class="cls-2" d="M152.61,304.79l.07-5.86,6-.7-.07,5.89Zm2-4.08,0,1.84,2-.22,0-1.85Z" transform="translate(-23.61 -129.31)"/><path class="cls-2" d="M160.53,307.77l.07-5.89,6-.68-.06,5.91Zm2.05-4.1,0,1.87,2-.22,0-1.88Z" transform="translate(-23.61 -129.31)"/><path class="cls-2" d="M160.63,300l.06-5.89,6.05-.73-.07,5.92Zm2-4.11,0,1.86,2-.23,0-1.88Z" transform="translate(-23.61 -129.31)"/><path class="cls-2" d="M172.76,306.44l.07-5.94,6.15-.69-.07,6Zm2.05-4.15,0,1.92,2.15-.23,0-1.93Z" transform="translate(-23.61 -129.31)"/><path class="cls-2" d="M211.52,298.15l.08-6.11,6.5-.76-.07,6.14Zm2.06-4.33,0,2.09,2.5-.28,0-2.1Z" transform="translate(-23.61 -129.31)"/><path class="cls-2" d="M211.48,302.24l.07-6.11,6.5-.73-.07,6.14Zm2.05-4.32,0,2.09,2.5-.27,0-2.1Z" transform="translate(-23.61 -129.31)"/><path class="cls-2" d="M207,302.73l.08-6.09,6.46-.73-.07,6.12Zm2.06-4.3,0,2.07,2.46-.27,0-2.08Z" transform="translate(-23.61 -129.31)"/><path class="cls-2" d="M211.57,294.06l.07-6.11,6.51-.79-.07,6.14Zm2.05-4.34,0,2.09,2.5-.3,0-2.09Z" transform="translate(-23.61 -129.31)"/><path class="cls-2" d="M185.31,305.08l.07-6,6.27-.7-.07,6Zm2.05-4.21,0,2,2.26-.25,0-2Z" transform="translate(-23.61 -129.31)"/><path class="cls-2" d="M152.65,301l.07-5.86,6-.73-.07,5.89Zm2-4.09,0,1.84,2-.23,0-1.85Z" transform="translate(-23.61 -129.31)"/><path class="cls-2" d="M193.88,304.15l.07-6,6.34-.72-.07,6.06Zm2.05-4.24,0,2,2.34-.25,0-2Z" transform="translate(-23.61 -129.31)"/><path class="cls-2" d="M202.6,303.21l.07-6.07,6.42-.73-.07,6.1Zm2.05-4.28,0,2,2.42-.26,0-2.06Z" transform="translate(-23.61 -129.31)"/><path class="cls-2" d="M198.22,303.68l.07-6.05,6.38-.72L204.6,303Zm2.05-4.26,0,2,2.38-.26,0-2Z" transform="translate(-23.61 -129.31)"/><path class="cls-2" d="M156.53,308.2l.07-5.87,6-.68-.07,5.9Zm2.05-4.08,0,1.85,2-.22,0-1.86Z" transform="translate(-23.61 -129.31)"/><path class="cls-2" d="M189.67,296.62l.07-6,6.3-.76-.07,6Zm2.05-4.24,0,2,2.29-.27,0-2Z" transform="translate(-23.61 -129.31)"/><path class="cls-2" d="M202.83,282.93l.07-6.08,6.43-.86-.07,6.11Zm2-4.32,0,2,2.42-.31,0-2.06Z" transform="translate(-23.61 -129.31)"/><path class="cls-2" d="M185.41,297.12l.07-6,6.26-.76-.07,6Zm2.05-4.23,0,2,2.26-.27,0-2Z" transform="translate(-23.61 -129.31)"/><path class="cls-2" d="M194,296.12l.07-6,6.34-.77-.07,6.06Zm2.05-4.27,0,2,2.33-.27,0-2Z" transform="translate(-23.61 -129.31)"/><path class="cls-2" d="M202.64,299.15l.07-6.07,6.43-.75-.07,6.1Zm2.05-4.29,0,2.05,2.42-.27,0-2.06Z" transform="translate(-23.61 -129.31)"/><polygon class="cls-2" points="183.69 148.98 183.74 145.45 189.97 148.14 183.69 148.98"/><path class="cls-2" d="M181.18,297.61l.07-6,6.23-.75-.07,6Zm2-4.21,0,2,2.22-.26,0-2Z" transform="translate(-23.61 -129.31)"/><path class="cls-2" d="M202.88,278.88l.07-6,6.38,2.76,0,2.4Zm2-3v.7l1.24-.17Z" transform="translate(-23.61 -129.31)"/><path class="cls-2" d="M202.79,287l.07-6.08,6.42-.83-.07,6.1Zm2.05-4.32,0,2.05,2.42-.31,0-2.05Z" transform="translate(-23.61 -129.31)"/><path class="cls-2" d="M202.74,291l.07-6.07,6.42-.81-.07,6.1Zm2-4.31,0,2,2.42-.29,0-2.06Z" transform="translate(-23.61 -129.31)"/><path class="cls-2" d="M202.69,295.1l.07-6.08,6.43-.78-.08,6.1Zm2.05-4.3,0,2,2.41-.28,0-2.06Z" transform="translate(-23.61 -129.31)"/><path class="cls-2" d="M198.31,295.61l.07-6.06,6.38-.77-.07,6.08Zm2.05-4.28,0,2,2.37-.28,0-2Z" transform="translate(-23.61 -129.31)"/><path class="cls-2" d="M156.58,304.34l.07-5.87,6-.71-.07,5.91Zm2-4.09,0,1.85,2-.22,0-1.86Z" transform="translate(-23.61 -129.31)"/><path class="cls-2" d="M156.62,300.48l.07-5.87,6-.73-.07,5.9Zm2-4.1,0,1.85,2-.23,0-1.86Z" transform="translate(-23.61 -129.31)"/><path class="cls-2" d="M160.58,303.89l.07-5.89,6-.71-.07,5.92Zm2-4.11,0,1.87,2-.23,0-1.88Z" transform="translate(-23.61 -129.31)"/><path class="cls-2" d="M164.62,303.44l.07-5.91,6.08-.71-.07,5.93Zm2-4.13,0,1.89,2.07-.24,0-1.89Z" transform="translate(-23.61 -129.31)"/><path class="cls-2" d="M168.74,299.07l.07-5.93,6.11-.74-.07,6Zm2-4.16,0,1.91,2.1-.25,0-1.91Z" transform="translate(-23.61 -129.31)"/><path class="cls-2" d="M156.76,288.9l.07-5.88,6-.8-.07,5.91Zm2.05-4.12,0,1.85,2-.26,0-1.86Z" transform="translate(-23.61 -129.31)"/><path class="cls-2" d="M168.69,303l.07-5.93,6.12-.72-.07,6Zm2.05-4.15,0,1.91,2.11-.24,0-1.92Z" transform="translate(-23.61 -129.31)"/><path class="cls-2" d="M156.67,296.62l.07-5.87,6-.76-.07,5.91Zm2.05-4.11,0,1.85,2-.24,0-1.86Z" transform="translate(-23.61 -129.31)"/><path class="cls-2" d="M156.71,292.76l.07-5.87,6-.78-.07,5.9Zm2-4.11,0,1.84,2-.25,0-1.85Z" transform="translate(-23.61 -129.31)"/><path class="cls-2" d="M193.92,300.13l.07-6,6.35-.74-.07,6.06Zm2.05-4.25,0,2,2.34-.26,0-2Z" transform="translate(-23.61 -129.31)"/><path class="cls-2" d="M172.8,302.51l.07-5.94,6.15-.72-.07,6Zm2-4.16,0,1.92L177,300l0-1.93Z" transform="translate(-23.61 -129.31)"/><path class="cls-2" d="M164.66,299.54l.07-5.91,6.08-.73-.07,5.93Zm2.05-4.13,0,1.88,2.07-.24,0-1.89Z" transform="translate(-23.61 -129.31)"/><path class="cls-2" d="M156.8,285.05l.07-5.89,6-.83-.07,5.91Zm2-4.14,0,1.85,2-.27,0-1.86Z" transform="translate(-23.61 -129.31)"/><path class="cls-2" d="M198.26,299.64l.07-6.05,6.39-.75-.07,6.09Zm2.05-4.27,0,2,2.38-.26,0-2Z" transform="translate(-23.61 -129.31)"/><path class="cls-2" d="M189.62,300.62l.07-6,6.31-.74-.07,6.05Zm2-4.24,0,2,2.3-.26,0-2Z" transform="translate(-23.61 -129.31)"/><path class="cls-2" d="M177,302.05l.07-6,6.19-.72-.07,6Zm2.05-4.18,0,1.94,2.18-.25,0-1.95Z" transform="translate(-23.61 -129.31)"/><path class="cls-2" d="M181.14,301.58l.07-6,6.22-.72-.07,6Zm2.05-4.2,0,1.95,2.22-.25,0-2Z" transform="translate(-23.61 -129.31)"/><path class="cls-2" d="M185.36,301.1l.07-6,6.27-.73-.08,6Zm2-4.22,0,2,2.26-.26,0-2Z" transform="translate(-23.61 -129.31)"/><path class="cls-2" d="M157,265.75l.07-5.89,6-1-.07,5.92Zm2.05-4.18,0,1.84,2-.31,0-1.85Z" transform="translate(-23.61 -129.31)"/><path class="cls-2" d="M157.16,254.17l.07-5.89,6-1-.07,5.92Zm2.05-4.2,0,1.83,2-.33,0-1.85Z" transform="translate(-23.61 -129.31)"/><path class="cls-2" d="M157.07,261.89l.07-5.89,6-1-.07,5.91Zm2.05-4.19,0,1.84,2-.32,0-1.84Z" transform="translate(-23.61 -129.31)"/><path class="cls-2" d="M157.21,250.31l.07-5.89,6-1.06-.07,5.92Zm2-4.21,0,1.83,2-.34,0-1.84Z" transform="translate(-23.61 -129.31)"/><path class="cls-2" d="M157.12,258l.07-5.89,6-1-.07,5.92Zm2-4.2,0,1.84,2-.33,0-1.84Z" transform="translate(-23.61 -129.31)"/><path class="cls-2" d="M161.22,249.62l.07-5.91,6-1.06-.07,5.93Zm2.05-4.23,0,1.85,2-.35,0-1.86Z" transform="translate(-23.61 -129.31)"/><path class="cls-2" d="M165.26,248.93l.07-5.93,1.95-.35,3.59,5.31Zm2-2.69v.31l.19,0Z" transform="translate(-23.61 -129.31)"/><path class="cls-2" d="M177,298.1l.07-6,6.19-.75-.07,6Zm2.05-4.19,0,1.94,2.19-.26,0-1.94Z" transform="translate(-23.61 -129.31)"/><polygon class="cls-2" points="141.7 115.73 141.76 110.52 144.9 115.16 141.7 115.73"/><path class="cls-2" d="M172.85,298.59l.07-5.95,6.15-.75-.07,6Zm2.05-4.18,0,1.93,2.14-.26,0-1.93Z" transform="translate(-23.61 -129.31)"/><path class="cls-2" d="M156.94,273.47l.07-5.89,6-.9-.07,5.91Zm2.05-4.16,0,1.84,2-.29,0-1.86Z" transform="translate(-23.61 -129.31)"/><path class="cls-2" d="M156.89,277.33l.07-5.89,6-.88-.07,5.91Zm2.05-4.16,0,1.85,2-.29,0-1.85Z" transform="translate(-23.61 -129.31)"/><path class="cls-2" d="M157,269.61l.07-5.89,6-.93L163,268.7Zm2.05-4.17,0,1.84,2-.3,0-1.85Z" transform="translate(-23.61 -129.31)"/><path class="cls-2" d="M156.85,281.19l.07-5.89,6-.85-.07,5.91ZM158.9,277l0,1.85,2-.28,0-1.85Z" transform="translate(-23.61 -129.31)"/><polygon class="cls-2" points="158.23 135.54 158.96 135.86 158.96 135.43 158.23 135.54"/><polygon class="cls-2" points="138.58 107.61 138.76 107.87 138.76 107.58 138.58 107.61"/><g class="cls-3"><path class="cls-2" d="M197.11,248.13c-5.52,0-10-6-10-13.32s4.5-13.32,10-13.32,10,6,10,13.32-4.5,13.32-10,13.32m0-25.14c-4.7,0-8.52,5.3-8.52,11.82s3.82,11.82,8.52,11.82,8.53-5.3,8.53-11.82S201.81,223,197.11,223" transform="translate(-23.61 -129.31)"/><path class="cls-2" d="M197.08,232a4.32,4.32,0,0,0-.62,2.61c0,1.62.49,2.52.69,2.61a4.29,4.29,0,0,0,.62-2.61,3.67,3.67,0,0,0-.69-2.61" transform="translate(-23.61 -129.31)"/><path class="cls-2" d="M205.88,234.47l-4.6-.26,4.5-1.57-.18-.65-4.44,1,4.14-2.81-.35-.57-4.06,2.2,3.55-3.85-.47-.47-3.53,3.2,2.82-4.64-.56-.37-2.88,4,2-5.17-.62-.27L199,229l1.12-5.46-.66-.16-1.38,5.11.25-5.53-.67,0-.58,5.41-.58-5.41-.67,0,.26,5.53-1.39-5.11-.65.16L195.2,229,193,224.3l-.62.27,2,5.17-2.88-4-.56.37,2.81,4.64-3.52-3.2-.47.47,3.55,3.85-4.06-2.2-.35.57,4.14,2.81-4.44-1-.19.65,4.5,1.57-4.6.26v.68l4.6.25-4.5,1.58.19.64,4.44-1-4.14,2.81.35.57,4.06-2.2-3.55,3.85.47.47,3.52-3.2L191,243.53l.56.37,2.88-4-2,5.17.62.26,2.16-4.65-1.12,5.46.65.16,1.39-5.11-.26,5.53.67.05.58-5.41.58,5.41.67-.05-.25-5.53,1.38,5.11.66-.16L199,240.66l2.15,4.65.62-.26-2-5.17,2.88,4,.56-.37-2.82-4.64,3.53,3.2.47-.47-3.55-3.85L205,240l.35-.57-4.14-2.81,4.44,1,.18-.64-4.5-1.58,4.6-.25Zm-8.77,4.11c-1.37,0-2-2.05-2-4s.63-3.94,2-3.94,2,2,2,3.94-.62,4-2,4" transform="translate(-23.61 -129.31)"/><path class="cls-2" d="M208.19,270.94c-5.53,0-10-6-10-13.32s4.5-13.32,10-13.32,10,6,10,13.32-4.5,13.32-10,13.32m0-25.14c-4.7,0-8.53,5.31-8.53,11.82s3.83,11.82,8.53,11.82,8.52-5.3,8.52-11.82-3.82-11.82-8.52-11.82" transform="translate(-23.61 -129.31)"/><path class="cls-2" d="M208.15,254.84a4.26,4.26,0,0,0-.62,2.61,3.67,3.67,0,0,0,.69,2.61,4.32,4.32,0,0,0,.62-2.61c0-1.62-.49-2.53-.69-2.61" transform="translate(-23.61 -129.31)"/><path class="cls-2" d="M217,257.29l-4.61-.26,4.51-1.58-.19-.64-4.44,1,4.14-2.81-.35-.57-4.06,2.2,3.55-3.84-.47-.48-3.52,3.21,2.81-4.65-.56-.37-2.88,4,2-5.17-.61-.26-2.16,4.65,1.12-5.46-.65-.16-1.39,5.11.26-5.52-.67-.05-.58,5.4-.59-5.4-.66.05.25,5.52-1.39-5.11-.65.16,1.12,5.46-2.16-4.65-.61.26,2,5.17-2.88-4-.56.37,2.81,4.65-3.52-3.21-.47.48,3.55,3.84-4.06-2.2L200,253l4.14,2.81-4.44-1-.19.64L204,257l-4.61.26V258l4.61.26-4.51,1.57.19.65,4.44-1-4.14,2.8.35.58,4.06-2.21-3.55,3.85.47.48,3.52-3.21L202,266.34l.56.37,2.88-4-2,5.18.61.26,2.16-4.65-1.12,5.46.65.15,1.39-5.11-.25,5.53.66.05.59-5.4.58,5.4.67-.05-.26-5.53,1.39,5.11.65-.15-1.12-5.46,2.16,4.65.61-.26-2-5.18,2.88,4,.56-.37-2.81-4.64,3.52,3.21.47-.48L212,260.58l4.06,2.21.35-.58-4.14-2.8,4.44,1,.19-.65-4.51-1.57L217,258Zm-8.77,4.1c-1.38,0-2-2-2-3.94s.62-3.95,2-3.95,2,2,2,3.95-.62,3.94-2,3.94" transform="translate(-23.61 -129.31)"/><path class="cls-2" d="M217.35,246.25c-5.53,0-10-6-10-13.32s4.49-13.32,10-13.32,10,6,10,13.32-4.5,13.32-10,13.32m0-25.14c-4.7,0-8.52,5.3-8.52,11.82s3.82,11.82,8.52,11.82,8.53-5.3,8.53-11.82-3.83-11.82-8.53-11.82" transform="translate(-23.61 -129.31)"/><path class="cls-2" d="M217.32,230.14a4.26,4.26,0,0,0-.63,2.61c0,1.62.5,2.52.7,2.61a4.37,4.37,0,0,0,.62-2.61,3.73,3.73,0,0,0-.69-2.61" transform="translate(-23.61 -129.31)"/><path class="cls-2" d="M226.12,232.59l-4.6-.26,4.5-1.57-.18-.65-4.45,1,4.14-2.8-.34-.57-4.07,2.2,3.56-3.85-.47-.47-3.53,3.2,2.81-4.64-.56-.37-2.87,4,2-5.18-.62-.26-2.15,4.65,1.11-5.46-.65-.15-1.39,5.11.26-5.53-.67,0-.58,5.4-.58-5.4-.67,0,.26,5.53L215,221.46l-.65.15,1.11,5.46-2.15-4.65-.62.26,2,5.18-2.87-4-.56.37,2.81,4.64-3.52-3.2-.48.47,3.56,3.85-4.06-2.2-.35.57,4.14,2.8-4.44-1-.19.65,4.5,1.57-4.6.26v.67l4.6.26-4.5,1.58.19.64,4.44-1-4.14,2.81.35.57,4.06-2.2L210,239.73l.48.48L214,237l-2.81,4.64.56.37,2.87-4-2,5.17.62.26,2.15-4.65-1.11,5.46.65.16,1.39-5.11-.26,5.52.67.06.58-5.41.58,5.41.67-.06-.26-5.52,1.39,5.11.65-.16-1.11-5.46,2.15,4.65.62-.26-2-5.17,2.87,4,.56-.37L220.68,237l3.53,3.2.47-.48-3.56-3.84,4.07,2.2.34-.57-4.14-2.81,4.45,1,.18-.64-4.5-1.58,4.6-.26Zm-8.77,4.11c-1.37,0-2-2-2-3.95s.63-3.95,2-3.95,2,2,2,3.95-.62,3.95-2,3.95" transform="translate(-23.61 -129.31)"/><path class="cls-2" d="M204.85,223.62c-5.26,0-9.53-6-9.53-13.32S199.59,197,204.85,197s9.52,6,9.52,13.32-4.27,13.32-9.52,13.32m0-25.14c-4.43,0-8,5.3-8,11.82s3.6,11.82,8,11.82,8-5.3,8-11.82-3.6-11.82-8-11.82" transform="translate(-23.61 -129.31)"/><path class="cls-2" d="M204.81,207.51a4.56,4.56,0,0,0-.58,2.61c0,1.62.46,2.52.65,2.61a4.48,4.48,0,0,0,.59-2.61,3.8,3.8,0,0,0-.66-2.61" transform="translate(-23.61 -129.31)"/><path class="cls-2" d="M213.15,210l-4.36-.26,4.26-1.58-.17-.64-4.21,1,3.92-2.81-.33-.57-3.84,2.2,3.36-3.84-.45-.48-3.33,3.2,2.66-4.64-.53-.37-2.72,4,1.87-5.17-.58-.26-2,4.65,1.06-5.46-.62-.16-1.31,5.11.24-5.52-.63-.06-.55,5.41-.55-5.41-.64.06.25,5.52-1.32-5.11L202,199l1.05,5.46-2-4.65-.58.26,1.87,5.17-2.72-4-.53.37,2.66,4.64-3.33-3.2-.45.48,3.37,3.84-3.85-2.2-.33.57,3.92,2.81-4.2-1-.18.64,4.26,1.58-4.35.26v.67l4.35.26-4.26,1.57.18.65,4.2-1-3.92,2.8.33.57,3.85-2.2-3.37,3.85.45.47,3.33-3.2L199,219l.53.37,2.72-4-1.87,5.18.58.26,2-4.65L202,221.62l.61.15,1.32-5.11-.25,5.53.64.05.55-5.4.55,5.4.63-.05-.24-5.53,1.31,5.11.62-.15-1.06-5.46,2,4.65.58-.26-1.87-5.18,2.72,4,.53-.37L208,214.38l3.33,3.2.45-.47-3.36-3.85,3.84,2.2.33-.57-3.92-2.8,4.21,1,.17-.65-4.26-1.57,4.36-.26Zm-8.3,4.1c-1.3,0-1.9-2-1.9-3.95s.6-3.94,1.9-3.94,1.89,2,1.89,3.94-.59,3.95-1.89,3.95" transform="translate(-23.61 -129.31)"/><path class="cls-2" d="M236.88,259.26a14.17,14.17,0,0,0,.37-1.65l-.15,0-.84,1.27Z" transform="translate(-23.61 -129.31)"/><path class="cls-2" d="M234.93,263.29a10.93,10.93,0,0,0,.79-1.24l-1-.9-.57.87Z" transform="translate(-23.61 -129.31)"/><path class="cls-2" d="M231.93,265.93a8.38,8.38,0,0,0,1.06-.65l-.41-.88-.74,1.1Z" transform="translate(-23.61 -129.31)"/><path class="cls-2" d="M233.53,264.82a8.62,8.62,0,0,0,.95-1l-.8-1.12-.6.9Z" transform="translate(-23.61 -129.31)"/><path class="cls-2" d="M236.06,261.41a13.06,13.06,0,0,0,.6-1.48l-.83-.44-.65,1Z" transform="translate(-23.61 -129.31)"/><path class="cls-2" d="M228.94,241.55c-5.51,0-10,6-10,13.29s4.48,13.28,10,13.28a7.33,7.33,0,0,0,1.24-.11l1.66-2.51-1-4.81,1.72,3.71.5-.76-1.43-3.74,2,2.84.47-.72-1.88-3.11,2.46,2.24.45-.68-2.46-2.68,3.11,1.7.43-.65L233,256.62l4.11.95,1.83-2.76c0-7.31-4.48-13.26-10-13.26m1.25,1.57a7.08,7.08,0,0,1,1.11.33l-1.36,5Zm-1.25-.14a5.27,5.27,0,0,1,.57,0l-.57,5.28-.56-5.28a5.09,5.09,0,0,1,.56,0m-1.24.14.25,5.36-1.36-5a7.08,7.08,0,0,1,1.11-.33m-1.74.62L227,249l-2.13-4.59a7.72,7.72,0,0,1,1.06-.65m-1.61,1.11,1.89,4.92-2.83-4a9.5,9.5,0,0,1,.94-1M223,246.38l2.65,4.38-3.44-3.14a10.45,10.45,0,0,1,.79-1.24m-1.13,1.88,3.34,3.62-3.94-2.14a13.86,13.86,0,0,1,.6-1.48m-.82,2.15,3.89,2.64-4.27-1c.1-.56.23-1.11.38-1.65m-.48,2.34,4.24,1.49-4.37.25a14.25,14.25,0,0,1,.13-1.74m-.13,2.43,4.37.25-4.24,1.49a14.25,14.25,0,0,1-.13-1.74m.23,2.43,4.27-1L221,259.26a16.57,16.57,0,0,1-.38-1.65m.6,2.32,3.94-2.14-3.34,3.62a13.06,13.06,0,0,1-.6-1.48m.94,2.12,3.44-3.14L223,263.29a9.7,9.7,0,0,1-.79-1.24m1.24,1.81,2.83-4-1.89,4.92a9.5,9.5,0,0,1-.94-1m1.49,1.42,2.13-4.59L226,265.93a7.72,7.72,0,0,1-1.06-.65m2.8,1.27a6.15,6.15,0,0,1-1.11-.33l1.36-5Zm1.24.14a5.09,5.09,0,0,1-.56,0l.56-5.28.57,5.28a5.27,5.27,0,0,1-.57,0m2.36-.47a6.15,6.15,0,0,1-1.11.33l-.25-5.35Zm-2.36-7.62c-1.37,0-2-2-2-3.94s.63-3.95,2-3.95,2,2,2,3.95-.62,3.94-2,3.94m1.92-9.62,1.07-5.24a8.38,8.38,0,0,1,1.06.65Zm.79.79,1.88-4.92a8.62,8.62,0,0,1,.95,1Zm5.71,7.15-4.25-1.49,4.38-.25a16.56,16.56,0,0,1-.13,1.74m.13-2.43-4.38-.25,4.25-1.49a16.56,16.56,0,0,1,.13,1.74m-.24-2.43-4.26,1,3.89-2.64a15.16,15.16,0,0,1,.37,1.65m-.59-2.32-3.94,2.14,3.34-3.62c.22.47.42,1,.6,1.48m-4.39,1,2.66-4.38a11.9,11.9,0,0,1,.79,1.24Z" transform="translate(-23.61 -129.31)"/><path class="cls-2" d="M225.26,212.82l-.06-.13-15.84-14.56L180,187l-13.54,5.32-9.67,17.12L159.56,233l21.12,31.19.12.17,33.32,14.37.21.09,12-2.46,6-9.1,6.31-9.5,4.35-6.56Zm11.84,44.75.15,0a14.17,14.17,0,0,1-.37,1.65l-.62-.42-.43.65.83.44a13.06,13.06,0,0,1-.6,1.48l-.88-.94-.45.68,1,.9a10.93,10.93,0,0,1-.79,1.24l-.77-1.27-.48.72.8,1.12a8.62,8.62,0,0,1-.95,1l-.45-1.18-.5.76.41.88a8.38,8.38,0,0,1-1.06.65l-.09-.43L230.18,268l-4.71,7.1-11,2.25-32.73-14.11-20.81-30.73-2.67-22.8,9.19-16.27L180,188.52l28.59,10.85L224,213.55l17.38,37.56-2.46,3.7Z" transform="translate(-23.61 -129.31)"/><path class="cls-2" d="M228.91,252.05a4.29,4.29,0,0,0-.62,2.61,3.67,3.67,0,0,0,.69,2.61,4.32,4.32,0,0,0,.62-2.61c0-1.62-.49-2.52-.69-2.61" transform="translate(-23.61 -129.31)"/><rect class="cls-2" x="200.19" y="82.65" width="55.36" height="1.5"/><rect class="cls-2" x="184.97" y="68.61" width="61.52" height="1.5"/><rect class="cls-2" x="218.24" y="120.99" width="43.95" height="1.5"/><polygon class="cls-2" points="156.41 57.75 156.41 59.18 173.19 59.18 171.59 57.75 156.41 57.75"/><path class="cls-2" d="M279.54,212.58a.77.77,0,0,0-.1-.25L270.71,198a.71.71,0,0,0-.38-.3l-29.68-10.6a.93.93,0,0,0-.24,0H207.67l1.85,1.44h30.77L269.61,199l8.54,14,6.74,37.8-29.7,24.45-40.59,2.08.07,1.43,40.83-2.09a.67.67,0,0,0,.42-.16l30.21-24.87a.72.72,0,0,0,.25-.68Z" transform="translate(-23.61 -129.31)"/><rect class="cls-2" x="226.27" y="274.08" width="31.9" height="1.5" transform="matrix(1, -0.03, 0.03, 1, -32.81, -120.91)"/><path class="cls-2" d="M213.15,192H199.91a.78.78,0,0,1-.51-.19L190.65,184a.76.76,0,0,1-.2-.83.75.75,0,0,1,.7-.48H203a.69.69,0,0,1,.45.16l10.2,7.89a.77.77,0,0,1,.25.84.76.76,0,0,1-.71.5m-13-1.5H211l-8.25-6.39h-9.6Z" transform="translate(-23.61 -129.31)"/><rect class="cls-2" x="191.87" y="172.31" width="1.5" height="19.28" transform="translate(-39.84 215.71) rotate(-81.35)"/><path class="cls-2" d="M93.9,194.89h-.11l-14.37-2a.76.76,0,0,1-.3-1.38l12.48-8a.64.64,0,0,1,.31-.11l54.15-7.11a.57.57,0,0,1,.13,0l32.68,1.42a.55.55,0,0,1,.28.07l5.53,2.52a.72.72,0,0,1,.36.37l1.19,2.52a.77.77,0,0,1,0,.63.74.74,0,0,1-.47.41l-17.29,5.11a.4.4,0,0,1-.15,0L123,192.83l-29.06,2h0m-12.28-3.27,12.3,1.76,29-2,45.23-3.56,16.38-4.84-.7-1.49-5.14-2.35-32.47-1.41-53.92,7.07Z" transform="translate(-23.61 -129.31)"/><rect class="cls-2" x="162.11" y="186.34" width="1.5" height="10.08" transform="translate(-102.17 131.81) rotate(-65.72)"/><rect class="cls-2" x="166.25" y="186.86" width="1.5" height="6.5" transform="translate(-96.65 140.89) rotate(-67.15)"/><rect class="cls-2" x="187.23" y="179.36" width="1.5" height="11.14" transform="matrix(0.11, -0.99, 0.99, 0.11, -39.91, 222.36)"/><path class="cls-2" d="M276.92,202.71a.63.63,0,0,0,.11.12.33.33,0,0,1-.11-.15v0" transform="translate(-23.61 -129.31)"/><path class="cls-2" d="M276.9,202.57a.33.33,0,0,1,0-.17.33.33,0,0,0,0,.17" transform="translate(-23.61 -129.31)"/><path class="cls-2" d="M276.9,202.36s0,0,0,0a.21.21,0,0,1,0-.1s0,0,0,.06" transform="translate(-23.61 -129.31)"/><path class="cls-2" d="M276.92,202.68a.22.22,0,0,1,0-.11.22.22,0,0,0,0,.11" transform="translate(-23.61 -129.31)"/><polygon class="cls-2" points="259.63 56.57 259.99 56.35 255.08 56.1 254.68 56.32 259.63 56.57"/><path class="cls-2" d="M277,202.21a.18.18,0,0,0,0,.09.46.46,0,0,1,.41-.27h1l11.45-14.62-1.17-.06Z" transform="translate(-23.61 -129.31)"/><path class="cls-2" d="M276.1,186.12a.48.48,0,0,0,.44.38l6.79.34a.45.45,0,0,0,.28-.07l1.69-1-1.7-.08-.36.22-5-.25.4-.22-1.82-.1-.53.29a.48.48,0,0,0-.23.52" transform="translate(-23.61 -129.31)"/><path class="cls-2" d="M277.35,203h4.43a.47.47,0,0,0,.38-.19l.3-.39-.41-.29a.53.53,0,0,0-.27-.08h-4.43a.46.46,0,0,0-.41.27.21.21,0,0,0,0,.1.33.33,0,0,0,0,.17.22.22,0,0,0,0,.11.33.33,0,0,0,.11.15.44.44,0,0,0,.32.15" transform="translate(-23.61 -129.31)"/><path class="cls-2" d="M322.08,284.92h-.14l-52.72-10.09a.77.77,0,0,1-.59-.54.76.76,0,0,1,.23-.76l26.29-23a.72.72,0,0,1,.66-.16l47.64,11.11a.74.74,0,0,1,.55.52.73.73,0,0,1-.18.73l-21.2,21.95a.77.77,0,0,1-.54.22M271,273.63l50.81,9.73,20-20.7-46-10.73Z" transform="translate(-23.61 -129.31)"/><path class="cls-2" d="M264.5,185.62l-1.37-.61,3.75-8.39a.76.76,0,0,1,.42-.39.69.69,0,0,1,.58,0l14.06,6.47-.63,1.36-13.37-6.15Z" transform="translate(-23.61 -129.31)"/><path class="cls-2" d="M276.55,186,270,183.08l-.12,1.89-1.5-.09.2-3a.71.71,0,0,1,.36-.59.73.73,0,0,1,.69,0l7.5,3.36Z" transform="translate(-23.61 -129.31)"/><path class="cls-2" d="M327.36,340.45a.77.77,0,0,1-.7-.48.76.76,0,0,1,0-.47l2.05-7.44a.73.73,0,0,1,.24-.38l22.15-18.9L338,307.56a.77.77,0,0,1-.47-.78l.48-4.26a.71.71,0,0,1,.35-.55.75.75,0,0,1,.65-.07l19,7.1a.75.75,0,0,1,.48.7v5.69a.76.76,0,0,1-.28.59L329.7,338.8l73.46-4.87L408.34,322a.76.76,0,0,1,.3-.34L422,313.5l-14.93-37.12c-1.81.67-6.82,1.54-19.64-.81a.75.75,0,0,1-.4-1.26c20.27-21-1.37-44.76-1.59-45l-59.89-58.77-17.38,6.82-.55-1.39,17.83-7a.76.76,0,0,1,.8.16l60.26,59.14c.25.27,22.15,24.3,2.55,46.07,14.78,2.55,17.91.45,17.94.42a.8.8,0,0,1,.66-.12.77.77,0,0,1,.5.43l15.47,38.46a.75.75,0,0,1-.3.92l-13.7,8.4L404.35,335a.75.75,0,0,1-.64.45l-76.3,5.05h-.05m2.71-7.77-1.37,5L357.05,315v-4.8l-17.64-6.59-.3,2.74,13.68,5.47a.78.78,0,0,1,.46.57.77.77,0,0,1-.26.7Z" transform="translate(-23.61 -129.31)"/><path class="cls-2" d="M167,396.34a.72.72,0,0,1-.29-.06l-18.79-7.89a.74.74,0,0,1-.38-.36L139,370.66a.73.73,0,0,1-.08-.33v-6.95a.8.8,0,0,1,.3-.6l10.11-7.57a.76.76,0,0,1,.78-.08l20.2,9.79a.74.74,0,0,1,.38.42l6,16.74a.62.62,0,0,1,0,.38l-1.26,7a.74.74,0,0,1-.26.45l-7.73,6.31a.78.78,0,0,1-.48.17m-18.24-9.22,18.12,7.61,7.17-5.86,1.17-6.48-5.83-16.25-19.52-9.46-9.44,7.08v6.4Z" transform="translate(-23.61 -129.31)"/><path class="cls-2" d="M176,360h-8.54a.75.75,0,0,1-.74-.61.74.74,0,0,1,.45-.83l8.21-3.34,3.83-12.63-7.3-13.85-4.9-5.18-15.63-6.88a.76.76,0,0,1-.44-.78.74.74,0,0,1,.61-.65l15.77-2.84a.79.79,0,0,1,.4,0l12.56,4.73a.72.72,0,0,1,.29.2l7.82,8.52a.74.74,0,0,1,.2.51v24.63a.75.75,0,0,1-.32.62l-11.85,8.21a.77.77,0,0,1-.42.13m-4.71-1.5h4.47l11.33-7.85V326.73l-7.51-8.18L167.39,314l-13.16,2.37,13.53,6a.81.81,0,0,1,.24.17l5.07,5.37.12.16,7.49,14.21a.75.75,0,0,1,0,.57l-4,13.26a.71.71,0,0,1-.43.48Z" transform="translate(-23.61 -129.31)"/><path class="cls-2" d="M167.19,360l-13.25-5.05a.8.8,0,0,1-.35-.28l-6.31-9.15a.66.66,0,0,1-.12-.3l-3.79-20.84a.72.72,0,0,1,.18-.64l7.58-8.21,1.1,1-7.32,7.93,3.69,20.32,6.09,8.83,13,5Z" transform="translate(-23.61 -129.31)"/><path class="cls-2" d="M159.89,353.4c-2.72,0-4.86-3.63-4.86-8.25s2.14-8.25,4.86-8.25,4.86,3.62,4.86,8.25-2.13,8.25-4.86,8.25m0-15c-1.62,0-3.36,2.71-3.36,6.75s1.74,6.75,3.36,6.75,3.36-2.71,3.36-6.75-1.73-6.75-3.36-6.75" transform="translate(-23.61 -129.31)"/><path class="cls-2" d="M168.41,359.24a.74.74,0,0,1-.65-.38,11.87,11.87,0,0,1-1.33-5.71c0-4.63,2.14-8.25,4.87-8.25s4.86,3.62,4.86,8.25a14.4,14.4,0,0,1-.28,2.81.74.74,0,0,1-.46.54l-6.73,2.69a.66.66,0,0,1-.28.05m2.89-12.84c-1.63,0-3.37,2.71-3.37,6.75a10.91,10.91,0,0,0,.85,4.39l5.7-2.28a12.18,12.18,0,0,0,.18-2.11c0-4-1.74-6.75-3.36-6.75" transform="translate(-23.61 -129.31)"/><path class="cls-2" d="M158.83,337.22c-2.73,0-4.86-3.63-4.86-8.25s2.13-8.25,4.86-8.25,4.86,3.62,4.86,8.25-2.13,8.25-4.86,8.25m0-15c-1.62,0-3.36,2.71-3.36,6.75s1.74,6.75,3.36,6.75,3.36-2.72,3.36-6.75-1.74-6.75-3.36-6.75" transform="translate(-23.61 -129.31)"/><path class="cls-2" d="M169.76,343.41c-2.73,0-4.86-3.62-4.86-8.25s2.13-8.25,4.86-8.25,4.86,3.63,4.86,8.25-2.13,8.25-4.86,8.25m0-15c-1.62,0-3.36,2.72-3.36,6.75s1.74,6.75,3.36,6.75,3.36-2.71,3.36-6.75-1.74-6.75-3.36-6.75" transform="translate(-23.61 -129.31)"/><path class="cls-2" d="M177.92,350.32a.77.77,0,0,1-.46-.15c-1.7-1.32-2.8-4.26-2.8-7.51a11.34,11.34,0,0,1,1.7-6.31A.73.73,0,0,1,177,336a.74.74,0,0,1,.62.4l3,5.76a.75.75,0,0,1,0,.57l-2.09,7a.79.79,0,0,1-.49.5.91.91,0,0,1-.23,0m-1-12a11.33,11.33,0,0,0-.8,4.3,10,10,0,0,0,1.41,5.44l1.64-5.48Z" transform="translate(-23.61 -129.31)"/><path class="cls-2" d="M162.57,361.64h-1.5v-4l-6.18-2.36-.16,2.59-1.5-.09.23-3.61a.75.75,0,0,1,.34-.58.74.74,0,0,1,.68-.07l7.61,2.9a.75.75,0,0,1,.48.7Z" transform="translate(-23.61 -129.31)"/><path class="cls-2" d="M176.07,360l-.15-1.5,149.39-14.95c1.48-3.58,11.89-30.83-5.47-51.07L168.18,314.15l-.21-1.48L320,291a.78.78,0,0,1,.67.25c19.54,22.37,5.94,53.07,5.8,53.38a.76.76,0,0,1-.61.44Z" transform="translate(-23.61 -129.31)"/><path class="cls-2" d="M187.89,342.66l-.1-1.5,11.29-.74.07-13.15-11.24,1.14-.15-1.49,12.07-1.23a.74.74,0,0,1,.58.2.73.73,0,0,1,.25.55l-.08,14.69a.74.74,0,0,1-.7.74Z" transform="translate(-23.61 -129.31)"/><path class="cls-2" d="M199.91,337a.78.78,0,0,1-.5-.19.75.75,0,0,1-.25-.56V329a.76.76,0,0,1,.65-.75L323.2,312.43a.76.76,0,0,1,.7.3c1.11,1.48,2.54,5-.06,7.75a.68.68,0,0,1-.44.23L200,337h-.09m.75-7.35v5.74l122.27-16.11c1.69-2,.54-4.39,0-5.28Z" transform="translate(-23.61 -129.31)"/><path class="cls-2" d="M339,324.77l-1.48-.2c2.08-15.37-4.38-24.21-5.24-25.31L321,293.84l.65-1.35L333.12,298a.88.88,0,0,1,.24.19c.33.38,8,9.57,5.68,26.6" transform="translate(-23.61 -129.31)"/><rect class="cls-2" x="328.2" y="168.94" width="14.19" height="1.5" transform="translate(15.81 272.06) rotate(-64.91)"/><rect class="cls-2" x="326.37" y="168.1" width="8.03" height="1.5" transform="translate(1.52 250.44) rotate(-61.71)"/><rect class="cls-2" x="311.65" y="168.25" width="1.5" height="6.5" transform="translate(-65.27 82.74) rotate(-35.3)"/><rect class="cls-2" x="305.33" y="166.61" width="1.5" height="10.77" transform="translate(-58.69 125.61) rotate(-42.99)"/><path class="cls-2" d="M289.65,358.68a.74.74,0,0,1-.49-.18l-6.05-5.29a.74.74,0,0,1-.21-.84l1.7-4.31,1.4.55-1.51,3.82,4.92,4.29,2.42-5a.79.79,0,0,1,.61-.42l28.17-2.43v-3.74h1.5v4.42a.75.75,0,0,1-.69.75L293,352.78l-2.67,5.48a.75.75,0,0,1-.52.41h-.15" transform="translate(-23.61 -129.31)"/><polygon class="cls-2" points="394.52 72.57 394.32 71.09 483.07 54.59 483.28 56.07 394.52 72.57"/><polygon class="cls-2" points="395.32 77.82 395.12 76.34 483.94 60.27 484.14 61.75 395.32 77.82"/><polygon class="cls-2" points="396.11 83.07 395.92 81.58 484.8 65.95 485 67.44 396.11 83.07"/><polygon class="cls-2" points="396.9 88.31 396.71 86.83 485.67 71.64 485.86 73.12 396.9 88.31"/><polygon class="cls-2" points="397.7 93.56 397.51 92.08 486.54 77.32 486.72 78.81 397.7 93.56"/><polygon class="cls-2" points="398.49 98.81 398.31 97.33 487.4 83 487.58 84.49 398.49 98.81"/><polygon class="cls-2" points="399.29 104.06 399.11 102.57 488.27 88.69 488.44 90.17 399.29 104.06"/><polygon class="cls-2" points="400.08 109.31 399.91 107.82 489.13 94.37 489.3 95.86 400.08 109.31"/><polygon class="cls-2" points="400.88 114.55 400.71 113.07 490 100.06 490.16 101.54 400.88 114.55"/><polygon class="cls-2" points="401.67 119.8 401.51 118.31 490.87 105.74 491.02 107.23 401.67 119.8"/><polygon class="cls-2" points="402.46 125.05 402.31 123.56 491.73 111.42 491.88 112.91 402.46 125.05"/><polygon class="cls-2" points="403.26 130.3 403.11 128.81 492.6 117.11 492.74 118.6 403.26 130.3"/><polygon class="cls-2" points="404.05 135.55 403.91 134.06 493.46 122.79 493.6 124.28 404.05 135.55"/><polygon class="cls-2" points="404.85 140.79 404.71 139.3 494.33 128.47 494.46 129.97 404.85 140.79"/><polygon class="cls-2" points="405.64 146.04 405.51 144.55 495.19 134.16 495.32 135.65 405.64 146.04"/><polygon class="cls-2" points="406.43 151.29 406.31 149.8 496.06 139.84 496.18 141.34 406.43 151.29"/><path class="cls-2" d="M431.62,296.46,416.25,195.19l90.39-17.26.15,1L523.3,287.63Zm-13.37-99.63,14.8,97.48,88.22-8.5-16-105.58Z" transform="translate(-23.61 -129.31)"/><polygon class="cls-2" points="413.09 165.73 397.93 65.89 399.21 65.64 414.37 165.47 413.09 165.73"/><polygon class="cls-2" points="418.03 165.25 402.8 64.97 404.08 64.7 419.31 164.99 418.03 165.25"/><polygon class="cls-2" points="423.02 164.77 407.72 64.03 409 63.77 424.29 164.51 423.02 164.77"/><polygon class="cls-2" points="428.05 164.29 412.68 63.08 413.95 62.82 429.32 164.03 428.05 164.29"/><polygon class="cls-2" points="433.13 163.8 417.69 62.12 418.96 61.86 434.4 163.54 433.13 163.8"/><polygon class="cls-2" points="438.25 163.3 422.74 61.16 424.01 60.9 439.52 163.04 438.25 163.3"/><polygon class="cls-2" points="443.42 162.81 427.84 60.19 429.11 59.93 444.69 162.54 443.42 162.81"/><polygon class="cls-2" points="448.64 162.3 432.99 59.2 434.26 58.94 449.92 162.04 448.64 162.3"/><polygon class="cls-2" points="453.91 161.79 438.18 58.21 439.46 57.95 455.19 161.53 453.91 161.79"/><polygon class="cls-2" points="459.23 161.28 443.43 57.21 444.7 56.95 460.5 161.02 459.23 161.28"/><polygon class="cls-2" points="464.6 160.76 448.72 56.2 450 55.94 465.87 160.5 464.6 160.76"/><polygon class="cls-2" points="470.02 160.24 454.07 55.18 455.34 54.92 471.3 159.98 470.02 160.24"/><polygon class="cls-2" points="475.49 159.72 459.46 54.15 460.74 53.89 476.77 159.46 475.49 159.72"/><polygon class="cls-2" points="481.02 159.18 464.91 53.11 466.19 52.85 482.29 158.92 481.02 159.18"/><polygon class="cls-2" points="486.6 158.65 470.41 52.06 471.69 51.8 487.87 158.39 486.6 158.65"/><polygon class="cls-2" points="492.23 158.1 475.97 51 477.24 50.74 493.5 157.84 492.23 158.1"/><polygon class="cls-2" points="406.81 156.58 406.69 155.09 496.44 145.58 496.56 147.07 406.81 156.58"/><polygon class="cls-2" points="407.61 161.83 407.49 160.33 497.3 151.26 497.42 152.75 407.61 161.83"/><polygon class="cls-2" points="491.64 54.51 491.44 53.03 597.89 33.24 598.1 34.72 491.64 54.51"/><polygon class="cls-2" points="492.51 60.24 492.31 58.76 598.84 39.49 599.04 40.97 492.51 60.24"/><polygon class="cls-2" points="493.38 65.96 493.18 64.48 599.79 45.73 599.99 47.22 493.38 65.96"/><polygon class="cls-2" points="494.24 71.69 494.06 70.2 600.75 51.98 600.93 53.47 494.24 71.69"/><polygon class="cls-2" points="495.11 77.41 494.93 75.93 601.7 58.23 601.88 59.72 495.11 77.41"/><polygon class="cls-2" points="495.98 83.14 495.8 81.66 602.65 64.48 602.83 65.97 495.98 83.14"/><polygon class="cls-2" points="496.84 88.87 496.67 87.38 603.6 70.73 603.77 72.22 496.84 88.87"/><polygon class="cls-2" points="497.71 94.59 497.54 93.11 604.55 76.98 604.72 78.46 497.71 94.59"/><polygon class="cls-2" points="498.58 100.32 498.42 98.83 605.5 83.22 605.66 84.71 498.58 100.32"/><polygon class="cls-2" points="499.44 106.04 499.29 104.55 606.45 89.47 606.61 90.96 499.44 106.04"/><polygon class="cls-2" points="500.31 111.77 500.16 110.28 607.41 95.72 607.55 97.21 500.31 111.77"/><polygon class="cls-2" points="501.18 117.49 501.03 116 608.36 101.97 608.5 103.46 501.18 117.49"/><polygon class="cls-2" points="502.04 123.22 501.9 121.73 609.31 108.22 609.45 109.71 502.04 123.22"/><polygon class="cls-2" points="502.91 128.95 502.77 127.45 610.26 114.47 610.39 115.96 502.91 128.95"/><polygon class="cls-2" points="503.77 134.67 503.65 133.18 611.21 120.72 611.34 122.21 503.77 134.67"/><polygon class="cls-2" points="504.64 140.4 504.52 138.9 612.16 126.96 612.29 128.46 504.64 140.4"/><path class="cls-2" d="M530.05,287,513.3,176.66,621.38,156l.14,1,18.13,119.41ZM515.3,178.31l16.17,106.52,106.16-10.22L620,158.33Z" transform="translate(-23.61 -129.31)"/><polygon class="cls-2" points="512.47 156.15 495.92 47.19 497.2 46.93 513.74 155.89 512.47 156.15"/><polygon class="cls-2" points="518.36 155.59 501.73 46.08 503 45.82 519.63 155.33 518.36 155.59"/><polygon class="cls-2" points="524.3 155.01 507.59 44.96 508.87 44.7 525.58 154.75 524.3 155.01"/><polygon class="cls-2" points="530.31 154.44 513.51 43.83 514.79 43.57 531.58 154.18 530.31 154.44"/><polygon class="cls-2" points="536.38 153.85 519.5 42.69 520.77 42.43 537.65 153.59 536.38 153.85"/><polygon class="cls-2" points="542.5 153.26 525.54 41.54 526.82 41.28 543.78 153 542.5 153.26"/><polygon class="cls-2" points="548.69 152.66 531.64 40.37 532.92 40.11 549.97 152.41 548.69 152.66"/><polygon class="cls-2" points="554.95 152.06 537.81 39.2 539.08 38.94 556.22 151.8 554.95 152.06"/><polygon class="cls-2" points="561.26 151.46 544.04 38.01 545.31 37.75 562.54 151.19 561.26 151.46"/><polygon class="cls-2" points="567.65 150.84 550.33 36.8 551.61 36.55 568.92 150.58 567.65 150.84"/><polygon class="cls-2" points="574.1 150.22 556.69 35.59 557.97 35.33 575.37 149.96 574.1 150.22"/><polygon class="cls-2" points="580.62 149.59 563.12 34.37 564.39 34.1 581.89 149.33 580.62 149.59"/><polygon class="cls-2" points="587.2 148.96 569.61 33.13 570.89 32.87 588.48 148.7 587.2 148.96"/><polygon class="cls-2" points="593.86 148.31 576.17 31.87 577.45 31.61 595.13 148.06 593.86 148.31"/><polygon class="cls-2" points="600.58 147.67 582.81 30.61 584.08 30.35 601.86 147.41 600.58 147.67"/><polygon class="cls-2" points="607.38 147.01 589.51 29.33 590.78 29.07 608.65 146.75 607.38 147.01"/><polygon class="cls-2" points="505.02 146.17 504.9 144.68 612.53 133.27 612.65 134.77 505.02 146.17"/><polygon class="cls-2" points="505.88 151.9 505.77 150.4 613.48 139.52 613.59 141.01 505.88 151.9"/><polygon class="cls-2" points="608.21 32.84 608.01 31.36 738.03 7.18 738.24 8.66 608.21 32.84"/><polygon class="cls-2" points="609.17 39.14 608.97 37.66 739.09 14.12 739.29 15.6 609.17 39.14"/><polygon class="cls-2" points="610.12 45.44 609.93 43.95 740.14 21.06 740.34 22.54 610.12 45.44"/><polygon class="cls-2" points="611.07 51.73 610.88 50.25 741.2 27.99 741.39 29.48 611.07 51.73"/><polygon class="cls-2" points="612.03 58.03 611.84 56.55 742.26 34.93 742.44 36.42 612.03 58.03"/><polygon class="cls-2" points="612.98 64.33 612.8 62.85 743.31 41.87 743.49 43.35 612.98 64.33"/><polygon class="cls-2" points="613.93 70.63 613.76 69.15 744.37 48.81 744.54 50.29 613.93 70.63"/><polygon class="cls-2" points="614.89 76.93 614.72 75.44 745.43 55.74 745.59 57.23 614.89 76.93"/><polygon class="cls-2" points="615.84 83.23 615.68 81.74 746.48 62.68 746.64 64.17 615.84 83.23"/><polygon class="cls-2" points="616.79 89.53 616.64 88.04 747.54 69.62 747.69 71.11 616.79 89.53"/><polygon class="cls-2" points="617.75 95.83 617.6 94.34 748.6 76.56 748.75 78.05 617.75 95.83"/><polygon class="cls-2" points="618.7 102.13 618.56 100.64 749.65 83.49 749.8 84.98 618.7 102.13"/><polygon class="cls-2" points="619.66 108.42 619.52 106.93 750.71 90.43 750.85 91.92 619.66 108.42"/><polygon class="cls-2" points="620.61 114.72 620.48 113.23 751.76 97.37 751.9 98.86 620.61 114.72"/><polygon class="cls-2" points="621.56 121.02 621.43 119.53 752.82 104.31 752.95 105.8 621.56 121.02"/><polygon class="cls-2" points="622.52 127.32 622.39 125.83 753.88 111.24 754 112.74 622.52 127.32"/><path class="cls-2" d="M648.18,275.6l-18.4-121.17,131.64-25.12.14,1,20.12,132.46ZM631.79,156.08l17.82,117.37,130-12.52L760,131.6Z" transform="translate(-23.61 -129.31)"/><polygon class="cls-2" points="631.86 144.66 613.64 24.72 614.92 24.46 633.13 144.4 631.86 144.66"/><polygon class="cls-2" points="638.99 143.97 620.68 23.38 621.96 23.12 640.27 143.71 638.99 143.97"/><polygon class="cls-2" points="646.21 143.27 627.8 22.02 629.07 21.76 647.48 143.01 646.21 143.27"/><polygon class="cls-2" points="653.5 142.57 634.99 20.65 636.26 20.39 654.78 142.31 653.5 142.57"/><polygon class="cls-2" points="660.88 141.86 642.26 19.26 643.54 19 662.15 141.6 660.88 141.86"/><polygon class="cls-2" points="668.34 141.14 649.62 17.86 650.89 17.6 669.61 140.88 668.34 141.14"/><polygon class="cls-2" points="675.88 140.41 657.05 16.44 658.33 16.18 677.15 140.16 675.88 140.41"/><polygon class="cls-2" points="683.5 139.68 664.57 15 665.85 14.74 684.78 139.42 683.5 139.68"/><polygon class="cls-2" points="691.22 138.94 672.18 13.55 673.45 13.29 692.49 138.68 691.22 138.94"/><polygon class="cls-2" points="699.02 138.19 679.87 12.08 681.15 11.82 700.29 137.93 699.02 138.19"/><polygon class="cls-2" points="706.91 137.43 687.65 10.6 688.93 10.34 708.19 137.17 706.91 137.43"/><polygon class="cls-2" points="714.9 136.66 695.53 9.09 696.8 8.83 716.17 136.4 714.9 136.66"/><polygon class="cls-2" points="722.97 135.88 703.49 7.57 704.76 7.31 724.25 135.62 722.97 135.88"/><polygon class="cls-2" points="731.14 135.09 711.55 6.03 712.82 5.78 732.42 134.83 731.14 135.09"/><polygon class="cls-2" points="739.41 134.3 719.7 4.48 720.97 4.22 740.68 134.04 739.41 134.3"/><polygon class="cls-2" points="747.77 133.49 727.95 2.9 729.22 2.65 749.05 133.23 747.77 133.49"/><polygon class="cls-2" points="622.88 133.68 622.76 132.19 754.21 118.26 754.33 119.75 622.88 133.68"/><polygon class="cls-2" points="623.83 139.98 623.72 138.49 755.26 125.19 755.38 126.69 623.83 139.98"/><path class="cls-2" d="M422.2,291.87a1.17,1.17,0,0,1-.93-.46l-23.22-30.58-.07-.31-4.45-25.32.09-.3,11.22-34.23a1.13,1.13,0,0,1,.91-.77l5.73-.93a1.16,1.16,0,0,1,1.32.92l15.86,90.19a1.14,1.14,0,0,1-1,1.32l-5.33.47h-.1m4.49-1.45h0Zm-3.82-.22Zm-.74-.32ZM399.92,260l22.67,29.85,3.93-.35L411,201.08l-4.4.71-11,33.53Zm27.54,29.42Zm-21.39-87.53Zm14,79a1.16,1.16,0,0,1-.93-.46l-16.24-21.57-.07-.3-4-22.63.08-.3,8.05-24.4a1.16,1.16,0,0,1,1.18-.78,1.14,1.14,0,0,1,1,.94l12,68.17a1.14,1.14,0,0,1-.66,1.24,1.25,1.25,0,0,1-.46.09M404.72,258l13.84,18.38-10.78-61.32-6.92,21Z" transform="translate(-23.61 -129.31)"/><rect class="cls-2" x="401.75" y="228.36" width="9.49" height="2" transform="translate(-51.3 -71.2) rotate(-7.91)"/><rect class="cls-2" x="399.78" y="234.18" width="12.46" height="2" transform="translate(-51.37 -72.99) rotate(-7.67)"/><rect class="cls-2" x="403.75" y="256.73" width="12.46" height="2" transform="translate(-50.43 -80.64) rotate(-6.58)"/><rect class="cls-2" x="407.68" y="262.12" width="9.5" height="2" transform="translate(-50.15 -82.12) rotate(-6.34)"/><rect class="cls-2" x="400.66" y="239.19" width="12.46" height="2" transform="translate(-51.2 -74.79) rotate(-7.41)"/><rect class="cls-2" x="402.85" y="251.69" width="12.47" height="2" transform="translate(-50.68 -79.02) rotate(-6.81)"/><path class="cls-2" d="M226,301a1.06,1.06,0,0,1-.67-.26A1,1,0,0,1,225,300l-.79-22.64a1,1,0,0,1,1-1h5.45a1,1,0,0,1,1,1V288l6.27-11.78a1,1,0,0,1,.76-.53l5-.6a1,1,0,0,1,1,1.47l-12.95,23.58a1,1,0,0,1-.82.52L226,301H226m.25-22.65.72,20.59,3.32-.21L242,277.3l-2.59.32-7.91,14.85a1,1,0,0,1-1.88-.47V278.31Z" transform="translate(-23.61 -129.31)"/><rect class="cls-2" x="261.43" y="270.11" width="11.99" height="1.5" transform="translate(-44.26 -107.23) rotate(-4.55)"/><path class="cls-2" d="M273.57,158.19c6.67,3.52,22.3,10.6,40.17,10.6a63.44,63.44,0,0,0,11.45-1c21.09-3.91,33.25-15.1,38.62-21.41a3.13,3.13,0,0,0,.5-3.25,3.17,3.17,0,0,0-2.69-1.92,294.9,294.9,0,0,0-36.61-.25l-.21,1-1.47-.32.12-.55c-2.31.17-4.62.37-6.89.63l.24.43-1.3.75-.55-1c-16.41,2.08-32.67,7.49-41,10.58a3.14,3.14,0,0,0-.38,5.72m.9-4.32c8.46-3.13,25.14-8.69,41.77-10.64A212.76,212.76,0,0,1,340.5,142c9.05,0,16.83.42,21,.71a1.6,1.6,0,0,1,1.4,1,1.57,1.57,0,0,1-.26,1.68c-5.23,6.17-17.11,17.09-37.74,20.91-21.93,4.06-42.72-5.24-50.65-9.43a1.64,1.64,0,0,1,.2-3" transform="translate(-23.61 -129.31)"/><path class="cls-2" d="M316.56,141.68l-3.38-5.91,11.59-.8-1.32,6.08,1.56-.11,1.65-7.61-16,1.11,4.26,7.45c.37,0,.74-.11,1.12-.15l.49-.06" transform="translate(-23.61 -129.31)"/><path class="cls-2" d="M316.8,142.11l-.24-.43-.49.06-1.12.14.55,1Z" transform="translate(-23.61 -129.31)"/><path class="cls-2" d="M323.33,141.6l1.47.32.21-1-1.56.11Z" transform="translate(-23.61 -129.31)"/><path class="cls-2" d="M344.51,246.79l-.83-.58a8.77,8.77,0,0,0-.21,3.29l1.09.79a8.45,8.45,0,0,1-.05-3.5" transform="translate(-23.61 -129.31)"/><polygon class="cls-2" points="312.02 115.73 310.44 114.59 310.88 118.26 261.41 119.75 261.45 121.18 284.65 120.48 312.4 118.87 312.02 115.73"/><path class="cls-2" d="M336,248.17l-.19.57h0a.76.76,0,0,0,.17-.56" transform="translate(-23.61 -129.31)"/><polygon class="cls-2" points="309.08 93.42 309.39 94.01 309.18 92.24 308.87 91.72 309.08 93.42"/><path class="cls-2" d="M285.3,185.74l-1.69,1a.45.45,0,0,1-.28.07l-6.79-.34a.47.47,0,0,1-.44-.38.48.48,0,0,1,.23-.52l.53-.28-33.8-1.72a.74.74,0,0,0-.55.22l-3.3,3.45,1,1,3.08-3.21,45.29,2.3,1.08-1.38Z" transform="translate(-23.61 -129.31)"/><polygon class="cls-2" points="291.57 65.89 291.57 65.89 291.81 66.26 291.57 65.89"/><path class="cls-2" d="M311.48,193.76c0-.08-.12-.2-.21-.36.09.16.17.28.21.36" transform="translate(-23.61 -129.31)"/><path class="cls-2" d="M315.42,195.56l-.24-.37-3.91-1.79c.09.16.17.28.21.36Z" transform="translate(-23.61 -129.31)"/><polygon class="cls-2" points="270.4 57.84 271.1 56.91 271.1 56.91 270.4 57.84"/><path class="cls-2" d="M334.89,238.92l-1.58-1.1Z" transform="translate(-23.61 -129.31)"/><path class="cls-2" d="M310.35,193.72l0-.05,0,.05" transform="translate(-23.61 -129.31)"/><path class="cls-2" d="M317.08,196.41l-.31-.49Z" transform="translate(-23.61 -129.31)"/><path class="cls-2" d="M333.32,226l-1.52-2.86a.37.37,0,0,1-.05-.17l-.5-4.08a.5.5,0,0,1,.32-.51.49.49,0,0,1,.57.21l.35.61-2-16.59a.7.7,0,0,0-.41-.56l-13.3-6.09.31.49a.47.47,0,0,1,0,.57.48.48,0,0,1-.56.12L311,194.57a.48.48,0,0,1-.21-.19l-.39-.66,0-.05-.57-1-13.94-6.38a.77.77,0,0,0-.26-.07l-.84,0-.7.93-.35.45,1.68.09,33.77,15.46,4.2,34.67,1.58,1.1Z" transform="translate(-23.61 -129.31)"/><path class="cls-2" d="M344.79,251.66v0l-1.07-.77c0,.08,0,.16,0,.23l-9.57,2.47-.36,1.08,10.65-2.74a.54.54,0,0,0,.3-.24" transform="translate(-23.61 -129.31)"/><path class="cls-2" d="M382.61,271.33c-4.17-2.92-18.06-12.65-24.06-16.94a10.21,10.21,0,0,0-.66-6.33l21.18-19.66a3.2,3.2,0,0,0,.82-2.15,2.13,2.13,0,0,0-.88-1.54,2.54,2.54,0,0,0-3.46,0L355.05,244a10,10,0,0,0-2.81-1.85l-4.31-41.31a.83.83,0,0,0,0-.15l-2.85-6a.45.45,0,0,0-.22-.23c-.32-.15-31.19-15-38.74-18.72.12-1.74-.42-3.72-4.18-6.26a4.33,4.33,0,0,0-2.33-.8,6.67,6.67,0,0,0-4.76,1.91,6.56,6.56,0,0,0-2,4.73,6.36,6.36,0,0,0,.12,1.21l-16.09,8.75,1.83.1,15-8.18a.48.48,0,0,0,.24-.53,5.87,5.87,0,0,1-.17-1.35,5.69,5.69,0,0,1,5.78-5.68,3.39,3.39,0,0,1,1.81.63c3.75,2.54,3.89,4.28,3.73,5.7a.46.46,0,0,0,.26.48c6.76,3.36,36.48,17.65,38.89,18.8l2.74,5.77,4.33,41.52a.44.44,0,0,0,.3.39,8.89,8.89,0,0,1,3.09,2.07.48.48,0,0,0,.67,0l20.83-19.62a1.6,1.6,0,0,1,2.21,0,1.27,1.27,0,0,1,.52.87,2.32,2.32,0,0,1-.55,1.41h0L357,247.6a.47.47,0,0,0-.1.55,9.19,9.19,0,0,1,.67,6.3.46.46,0,0,0,.18.52c5.84,4.19,20.1,14.18,24.33,17.15a.85.85,0,0,1,.33,1l-1.23,4-42.23,24.44-1.54-2.5,40.77-22.92a1.65,1.65,0,0,0,.18-2.76l-21.89-16.21a.49.49,0,0,0-.59,0,4.18,4.18,0,0,1-.61.44,5.39,5.39,0,0,1-4.87.1.48.48,0,0,0-.64.3l-13.37,40.39h-2.46l14-41.86a.48.48,0,0,0-.13-.5,10.79,10.79,0,0,1-2.07-2.61.47.47,0,0,0-.56-.22L333,257.08l-.38,1.13,12.47-4a12.3,12.3,0,0,0,1.82,2.29l-14.13,42.2a.47.47,0,0,0,.07.43.49.49,0,0,0,.39.2h3.2l1.92,3.09a.47.47,0,0,0,.4.22.5.5,0,0,0,.24-.06l42.79-24.77a.42.42,0,0,0,.21-.27l1.29-4.13a1.82,1.82,0,0,0-.69-2m-32.12-12.62a6.25,6.25,0,0,0,5.24-.34l.44-.3,21.6,16a.7.7,0,0,1,.28.6.71.71,0,0,1-.35.56l-40.14,22.56Z" transform="translate(-23.61 -129.31)"/><path class="cls-2" d="M323,257.38l6.81,1.69a.46.46,0,0,0,.26,0l.59-.19-8-1.88a.45.45,0,0,0,.33.39" transform="translate(-23.61 -129.31)"/><path class="cls-2" d="M293.71,177.23l-15,8.18Z" transform="translate(-23.61 -129.31)"/><path class="cls-2" d="M295.53,179.45l-.3-.37a.49.49,0,0,0-.62-.11l-11,6.69,1.7.08,8.7-5.28L289.69,186l1.17.06,4.68-6a.48.48,0,0,0,0-.6" transform="translate(-23.61 -129.31)"/><polygon class="cls-2" points="265 58.04 266.17 58.1 267.25 56.72 266.09 56.66 265 58.04"/><path class="cls-2" d="M333.32,226l10,18.81,1.49,1a.47.47,0,0,0,0-.33L333,223.31Z" transform="translate(-23.61 -129.31)"/><path class="cls-2" d="M344.73,245.47,333,223.32Z" transform="translate(-23.61 -129.31)"/><polygon class="cls-2" points="309.71 96.66 309.71 96.66 319.67 115.47 309.71 96.66"/><path class="cls-2" d="M316.77,195.92l-9.6-15.18L341.56,197l2.11,4.82,3.88,40a6,6,0,0,0-1.09.48l-.3.19-13.67-23.34.29,2.39,12.83,21.9a.45.45,0,0,0,.32.22.46.46,0,0,0,.39-.1,4.11,4.11,0,0,1,.62-.43,4.52,4.52,0,0,1,1.24-.49.46.46,0,0,0,.36-.51l-3.92-40.47a.83.83,0,0,0,0-.15l-2.21-5a.47.47,0,0,0-.24-.24l-36-17.07a.48.48,0,0,0-.56.12.47.47,0,0,0,0,.57l9.69,15.33Z" transform="translate(-23.61 -129.31)"/><path class="cls-2" d="M332.78,221.55l12.83,21.9Z" transform="translate(-23.61 -129.31)"/><path class="cls-2" d="M346.16,242.5l-13.67-23.34Z" transform="translate(-23.61 -129.31)"/><path class="cls-2" d="M292.51,187.54l-11,14.49h.24a.53.53,0,0,1,.27.08l.41.29,11.2-14.8Z" transform="translate(-23.61 -129.31)"/><path class="cls-2" d="M292.51,187.54l-11,14.49Z" transform="translate(-23.61 -129.31)"/><path class="cls-2" d="M293.66,187.6l-11.2,14.8Z" transform="translate(-23.61 -129.31)"/><path class="cls-2" d="M294.71,186.22l3.33-4.4a6.49,6.49,0,0,0,4.85-.8l.51.86h0c.13.21.26.44.39.67s.18.29.26.44l1.09,1.86.13.21.53.91.06.09c.18.32.37.64.56,1l.32.55,2.33,4,.66,1.12,0,0,1.51.69-.43-.73-1.9-3.24-.19-.32-1-1.65-.18-.31L306,184.41l-.08-.13-1-1.72-.29-.5-.22-.37-.34-.58-.14-.25-.45-.76a.46.46,0,0,0-.31-.23.56.56,0,0,0-.38.08,5.57,5.57,0,0,1-4.8.87.48.48,0,0,0-.51.18l-3.91,5.16Z" transform="translate(-23.61 -129.31)"/><path class="cls-2" d="M304.9,182.56l1,1.72-1-1.72" transform="translate(-23.61 -129.31)"/><path class="cls-2" d="M297.47,181l-3.92,5.16Z" transform="translate(-23.61 -129.31)"/><path class="cls-2" d="M307.78,187.46l1,1.65-1-1.65" transform="translate(-23.61 -129.31)"/><path class="cls-2" d="M308.94,189.43l1.9,3.24-1.9-3.24" transform="translate(-23.61 -129.31)"/><path class="cls-2" d="M303.91,180.86l.14.25-.14-.25" transform="translate(-23.61 -129.31)"/><path class="cls-2" d="M304.39,181.69l.22.37-.22-.37" transform="translate(-23.61 -129.31)"/><path class="cls-2" d="M306,184.41l1.61,2.74L306,184.41" transform="translate(-23.61 -129.31)"/><path class="cls-2" d="M304.06,183l1.08,1.86L304.06,183" transform="translate(-23.61 -129.31)"/><path class="cls-2" d="M303.4,181.89c.13.21.26.44.39.67-.13-.23-.26-.46-.39-.67" transform="translate(-23.61 -129.31)"/><path class="cls-2" d="M302.89,181l.51.86-.51-.86" transform="translate(-23.61 -129.31)"/><path class="cls-2" d="M305.86,186.07c.18.32.37.64.56,1-.19-.32-.38-.64-.56-1" transform="translate(-23.61 -129.31)"/><path class="cls-2" d="M309.73,192.67a.08.08,0,0,1,0,0l0,0" transform="translate(-23.61 -129.31)"/><path class="cls-2" d="M305.27,185.07l.53.91-.53-.91" transform="translate(-23.61 -129.31)"/><path class="cls-2" d="M306.74,187.58l2.33,4-2.33-4" transform="translate(-23.61 -129.31)"/><polygon class="cls-2" points="271.1 56.91 269.95 56.85 268.9 58.24 270.05 58.3 270.4 57.84 271.1 56.91"/><path class="cls-2" d="M293.55,186.16l-1,1.38Z" transform="translate(-23.61 -129.31)"/><polygon class="cls-2" points="270.05 58.3 270.05 58.3 270.4 57.84 270.05 58.3"/><path class="cls-2" d="M315.18,195.19l.24.37-3.94-1.8c0-.08-.12-.21-.21-.36l-1.52-.69.57,1,0,.05.39.66a.48.48,0,0,0,.21.19l5.53,2.53A.48.48,0,0,0,317,197a.47.47,0,0,0,0-.57l-.31-.49Z" transform="translate(-23.61 -129.31)"/><path class="cls-2" d="M310.74,194.38l-.39-.66c.24.42.39.66.39.66" transform="translate(-23.61 -129.31)"/><path class="cls-2" d="M309.75,192.71l.57,1-.57-1" transform="translate(-23.61 -129.31)"/><path class="cls-2" d="M333,223.31l-.31-.58-.21-1.7.3.52-.29-2.39-.35-.61a.48.48,0,0,0-.56-.21.5.5,0,0,0-.33.51l.5,4.08a.37.37,0,0,0,.05.17l1.52,2.86Z" transform="translate(-23.61 -129.31)"/><path class="cls-2" d="M332.48,221l.3.52Z" transform="translate(-23.61 -129.31)"/><polygon class="cls-2" points="309.39 94.01 309.39 94.01 309.08 93.42 309.39 94.01"/><path class="cls-2" d="M332.49,219.16l-.35-.61Z" transform="translate(-23.61 -129.31)"/><path class="cls-2" d="M331.8,223.1l1.52,2.86Z" transform="translate(-23.61 -129.31)"/><path class="cls-2" d="M343.28,244.77l-8.39-5.85.15,1.28,8.64,6c0-.16.06-.33.11-.48Z" transform="translate(-23.61 -129.31)"/><polygon class="cls-2" points="311.44 110.89 311.44 110.89 320.07 116.91 311.44 110.89"/><path class="cls-2" d="M333.31,237.82,282.46,202.4l-.3.39a.47.47,0,0,1-.38.19h-.15l51.84,36.12Z" transform="translate(-23.61 -129.31)"/><path class="cls-2" d="M333.47,239.1,281.63,203Z" transform="translate(-23.61 -129.31)"/><polygon class="cls-2" points="311.28 109.62 309.7 108.52 309.86 109.79 311.44 110.89 311.28 109.62"/><polygon class="cls-2" points="309.86 109.79 309.86 109.79 311.44 110.89 309.86 109.79"/><path class="cls-2" d="M343.47,249.5l-8-5.75.16,1.29,8.09,5.82a11.15,11.15,0,0,1-.25-1.36" transform="translate(-23.61 -129.31)"/><path class="cls-2" d="M278.83,203h-1.48a.44.44,0,0,1-.32-.15s0,0,0,.06l57,41-.16-1.29Z" transform="translate(-23.61 -129.31)"/><path class="cls-2" d="M333.89,242.61,278.83,203Z" transform="translate(-23.61 -129.31)"/><polygon class="cls-2" points="311.87 114.44 311.35 114.06 310.28 113.3 310.44 114.59 312.02 115.73 311.87 114.44"/><path class="cls-2" d="M333.89,242.61l1.06.76Z" transform="translate(-23.61 -129.31)"/><path class="cls-2" d="M343.79,245.73c-.05.15-.07.32-.11.48l.83.58a5.91,5.91,0,0,1,.25-.94.11.11,0,0,1,0,0l-1.49-1Z" transform="translate(-23.61 -129.31)"/><path class="cls-2" d="M344.82,251.29a9.84,9.84,0,0,1-.26-1l-1.09-.79a11.15,11.15,0,0,0,.25,1.36l1.07.77a.41.41,0,0,0,0-.34" transform="translate(-23.61 -129.31)"/><polygon class="cls-2" points="308.68 129.95 309.03 128.91 307.02 129.56 308.68 129.95"/><path class="cls-2" d="M335.82,248.74l.19-.57-27.75,1.62,27.06-.81a.74.74,0,0,0,.5-.24" transform="translate(-23.61 -129.31)"/><path class="cls-2" d="M332.61,259.85l-40.93-9.6,16.55-1,27.33-.82.16.2c.19.24.29.37-1,5Zm-34-9L332,258.67l1.77-5.27c.41-1.47.85-3.1,1-3.91l-26.48.8Z" transform="translate(-23.61 -129.31)"/><rect class="cls-2" x="520.89" y="280.45" width="8.51" height="1.5" transform="translate(-49.11 -75.35) rotate(-5.74)"/><rect class="cls-2" x="522.13" y="283.57" width="8.51" height="1.5" transform="translate(-49.41 -75.21) rotate(-5.74)"/><rect class="cls-2" x="505.15" y="178.52" width="10.24" height="1.5" transform="translate(-48.15 -30.58) rotate(-10.79)"/><rect class="cls-2" x="506.61" y="181.66" width="8.51" height="1.5" transform="translate(-48.27 -33.28) rotate(-10.49)"/><rect class="cls-2" x="621.4" y="157.45" width="8.9" height="1.5" transform="translate(-42.66 0.4) rotate(-11.66)"/><rect class="cls-2" x="621.41" y="160.85" width="10.29" height="1.5" transform="translate(-42.55 -12.57) rotate(-10.49)"/><rect class="cls-2" x="638.2" y="267.15" width="8.9" height="1.5" transform="translate(-42.27 -79.2) rotate(-4.4)"/><rect class="cls-2" x="637.77" y="270.62" width="10.29" height="1.5" transform="translate(-38.12 -91.96) rotate(-3.29)"/></g></g></g></svg>