<svg xmlns="http://www.w3.org/2000/svg" xmlns:xlink="http://www.w3.org/1999/xlink" viewBox="0 0 775.41 170.54"><defs><style>.cls-1{fill:none;}.cls-2{fill:#fff;}.cls-3{clip-path:url(#clip-path);}</style><clipPath id="clip-path" transform="translate(-46.19 -206.85)"><rect class="cls-1" width="841.89" height="595.28"/></clipPath></defs><title>Экспресс МД</title><g id="Слой_2" data-name="Слой 2"><g id="Слой_1-2" data-name="Слой 1"><path class="cls-2" d="M332,238V217l25.61-4.21v20.67Zm1.5-19.74v18l22.61-4V214.54Z" transform="translate(-46.19 -206.85)"/><polygon class="cls-2" points="271.03 128.89 270.9 99.8 272.4 99.8 272.52 127.28 302.4 125.05 302.4 35.6 272.52 34.02 272.52 75.42 271.02 75.42 271.02 32.43 303.9 34.18 303.9 126.44 271.03 128.89"/><g class="cls-3"><path class="cls-2" d="M532.88,370.56a2.51,2.51,0,0,1-1.62-.54c-2.27-1.84-.14-7,3-10.85s7.73-7,10-5.2.14,7-3,10.85c-2.51,3.11-5.93,5.74-8.37,5.74m9.75-15.62c-1.45,0-4.33,1.64-7.19,5.17-3.45,4.25-4.21,8-3.24,8.74s4.44-.72,7.89-5,4.2-8,3.23-8.74a1,1,0,0,0-.69-.2" transform="translate(-46.19 -206.85)"/><path class="cls-2" d="M544.44,365.65a1.57,1.57,0,0,1-.89-.26c-.84-.58-.95-1.83-.34-3.72a21.61,21.61,0,0,1,2.72-5.2,21.2,21.2,0,0,1,3.91-4.38c1.54-1.24,2.75-1.57,3.59-1s1,1.82.34,3.71a21.26,21.26,0,0,1-2.72,5.2c-2,2.93-4.75,5.64-6.61,5.64m8-13.34c-.59,0-2.77,1.34-5.31,5-2.7,3.9-3.07,6.5-2.76,6.82s2.71-1.09,5.41-5,3.07-6.5,2.75-6.83l-.09,0" transform="translate(-46.19 -206.85)"/><path class="cls-2" d="M531.12,369.87l-14.21-19.79,0-.16c0-.17-.25-1.7,1.39-3.72a6.89,6.89,0,0,1,3.48-2.45l.25-.06,22.11,10.18-.63,1.36-21.61-10a6,6,0,0,0-2.43,1.86,4,4,0,0,0-1.08,2.38l14,19.48Z" transform="translate(-46.19 -206.85)"/><path class="cls-2" d="M528.41,363.85l-1.49-.15c.94-9.37,9.94-12.62,10.32-12.76l.5,1.42c-.08,0-8.48,3.08-9.33,11.49" transform="translate(-46.19 -206.85)"/><path class="cls-2" d="M524.25,358.07l-1.49-.2c1.13-8.32,8-9.91,8.12-9.93l.32,1.47-.16-.73.16.73c-.24,0-6,1.41-7,8.66" transform="translate(-46.19 -206.85)"/><path class="cls-2" d="M520.37,352.6l-1.5-.07c.21-4.45,5.59-7.18,5.82-7.29l.67,1.34c-.05,0-4.82,2.45-5,6" transform="translate(-46.19 -206.85)"/><polygon class="cls-2" points="506.27 145.51 485.12 138.5 483.09 141.19 481.89 140.28 484.58 136.74 506.74 144.08 506.27 145.51"/><rect class="cls-2" x="542.14" y="362.36" width="1.5" height="2.91" transform="translate(-134.65 325.71) rotate(-48.79)"/><path class="cls-2" d="M375.63,303.58c-5.09,0-8.19-1.2-9-3.5-.91-2.57,1.25-5.86,6.25-9.51a85.39,85.39,0,0,1,39.25-13.88c6.18-.31,9.94.88,10.85,3.45s-1.26,5.86-6.26,9.5a85.25,85.25,0,0,1-39.25,13.89c-.64,0-1.25.05-1.84.05m38.27-25.44c-.54,0-1.11,0-1.69.05a83.6,83.6,0,0,0-38.44,13.6c-4.23,3.08-6.37,6-5.73,7.79s4.13,2.71,9.35,2.45a83.6,83.6,0,0,0,38.44-13.6c4.23-3.08,6.37-6,5.73-7.79-.56-1.6-3.38-2.5-7.66-2.5" transform="translate(-46.19 -206.85)"/><path class="cls-2" d="M367.85,300.38l-1-1.1c.18-.17,18.82-17.28,54.42-20.93l.15,1.49c-35.06,3.6-53.36,20.37-53.54,20.54" transform="translate(-46.19 -206.85)"/><polygon class="cls-2" points="383.75 146.46 373.38 146.46 348.74 133.44 347.86 121.82 347.9 121.69 358 88.36 359.44 88.8 349.37 121.98 350.17 132.5 373.75 144.96 383.2 144.96 404.38 126.66 404.84 119.6 371.85 60.64 367.24 61.46 364.92 70.89 363.46 70.53 366.02 60.15 372.64 58.98 406.37 119.25 405.84 127.39 383.75 146.46"/><polygon class="cls-2" points="375.41 146.12 359.89 121.55 367.81 83.11 369.28 83.41 361.48 121.26 376.68 145.31 375.41 146.12"/><path class="cls-2" d="M427.56,352.84l-1.4-.54,10.12-26.49c-1.59-3.54-17.3-38.47-17.56-39l.67-.33.23-.72c.33.11.33.11,9.31,20.08l9,19.95Z" transform="translate(-46.19 -206.85)"/><polygon class="cls-2" points="385.73 129.96 378.7 122.19 371.65 122.79 366.38 129.91 365.17 129.01 370.85 121.35 379.31 120.63 386.84 128.96 385.73 129.96"/><path class="cls-2" d="M406.63,343.21,395.27,339l.52-1.4,9.34,3.43v-4.68l-6.17.77-.51-3.83,5.79-1.55-1.47-4c-2,2-6.49,6.28-7.18,6.72l-.8-1.27c.49-.32,4.37-4,7.76-7.33l.83-.81,2.83,7.7-6.1,1.63.14,1.05,6.38-.8Z" transform="translate(-46.19 -206.85)"/><path class="cls-2" d="M441.25,337.76l-.88-8.48,6.43.13,0-1.05-6.23-1,2-7.95.91.72c3.72,2.94,8,6.22,8.48,6.48l-.67,1.35c-.72-.36-5.59-4.17-7.83-5.94l-1.05,4.11,5.92.94-.12,3.86-6.21-.12.48,4.65,8.94-4.38.66,1.35Z" transform="translate(-46.19 -206.85)"/><path class="cls-2" d="M330.34,269.12l.29-13.92,4.38.09-.28,13.92Zm1.75-12.39-.22,10.92,1.39,0,.22-10.92Z" transform="translate(-46.19 -206.85)"/><path class="cls-2" d="M320.9,261.93a1.28,1.28,0,0,1,.42-2.39l9.42-1.43.22,1.49-8.69,1.31,9.2,4.19-.62,1.37L321,262l-.08,0" transform="translate(-46.19 -206.85)"/><rect class="cls-2" x="325.58" y="256.23" width="1.5" height="9.98" transform="translate(-38.31 325.15) rotate(-79.05)"/><polygon class="cls-2" points="287.9 55.41 288 53.91 294.84 53.9 294.74 55.4 287.9 55.41"/><polygon class="cls-2" points="287.84 57.6 287.97 56.11 294.79 56.3 294.67 57.8 287.84 57.6"/><path class="cls-2" d="M482.52,363.6h-3.86V335.87h3.86Zm-2.36-1.5H481V337.37h-.86Z" transform="translate(-46.19 -206.85)"/><path class="cls-2" d="M484.45,377.4h-7.72V362.1h7.72Zm-6.22-1.5H483V363.6h-4.72Z" transform="translate(-46.19 -206.85)"/><rect class="cls-2" x="428.85" y="154.39" width="11.1" height="1.5"/><path class="cls-2" d="M470.43,361.12h-3.86V336.19h3.86Zm-2.36-1.5h.86V337.69h-.86Z" transform="translate(-46.19 -206.85)"/><path class="cls-2" d="M472.36,373.43h-7.72V359.62h7.72Zm-6.22-1.5h4.72V361.12h-4.72Z" transform="translate(-46.19 -206.85)"/><rect class="cls-2" x="416.76" y="152" width="11.1" height="1.5"/><path class="cls-2" d="M445.27,361.25a27.34,27.34,0,0,1-11.65-2.34l-.48-.24,1.75-11.92h31.76v1.5H455.91l2.37,10.47-.61.22a35.37,35.37,0,0,1-12.4,2.31m-10.49-3.46c2.08.87,10.65,3.88,21.75,0l-2.16-9.51H436.18Z" transform="translate(-46.19 -206.85)"/><path class="cls-2" d="M446.86,357.35a53.61,53.61,0,0,1-12-1.46l.37-1.46c.13,0,12.79,3.22,21.21-.11l.55,1.39a27.79,27.79,0,0,1-10.09,1.64" transform="translate(-46.19 -206.85)"/><rect class="cls-2" x="303.01" y="140.64" width="1.5" height="12.87"/><rect class="cls-2" x="312.91" y="140.64" width="1.5" height="12.87"/><path class="cls-2" d="M364.32,364.52H345.48v-4.79h18.84ZM347,363h15.84v-1.79H347Z" transform="translate(-46.19 -206.85)"/><polygon class="cls-2" points="270.93 31.33 270.93 3.83 299.34 0 299.34 6.8 297.84 6.8 297.84 1.72 272.43 5.15 272.43 29.17 277.58 27.24 278.11 28.64 270.93 31.33"/><path class="cls-2" d="M332.71,218.37l-12-.33a.75.75,0,0,1-.11-1.49l20.47-3.63h15.77v1.5H341.27l-13.17,2.33,4.65.13Z" transform="translate(-46.19 -206.85)"/><polygon class="cls-2" points="286.54 28.69 273.79 28.69 273.79 10.44 275.29 10.44 275.29 27.19 286.54 27.19 286.54 28.69"/><path class="cls-2" d="M317.77,240.82l-5.28-.66a.74.74,0,0,1-.65-.63.75.75,0,0,1,.44-.8l5.28-2.31.61,1.37L315.38,239l2.58.32Z" transform="translate(-46.19 -206.85)"/><path class="cls-2" d="M469.68,300.58H454.6a.75.75,0,0,1-.75-.75v-5.52a.75.75,0,0,1,.75-.75h15.08a.75.75,0,0,1,.75.75v5.52a.75.75,0,0,1-.75.75m-14.33-1.5h13.58v-4H455.35Z" transform="translate(-46.19 -206.85)"/><path class="cls-2" d="M463,315.47H451.79a.76.76,0,0,1-.75-.75v-5.1a.75.75,0,0,1,.75-.75H463a.75.75,0,0,1,.75.75v5.1a.76.76,0,0,1-.75.75M452.54,314h9.66v-3.6h-9.66Z" transform="translate(-46.19 -206.85)"/><path class="cls-2" d="M448.31,317.91h-1.5V289.46a.75.75,0,0,1,.75-.75h11.33a.75.75,0,0,1,.75.75v4.85h-1.5v-4.1h-9.83Z" transform="translate(-46.19 -206.85)"/><path class="cls-2" d="M458.89,321.47H449.2V320h8.94v-4.81h1.5v5.56a.74.74,0,0,1-.75.75" transform="translate(-46.19 -206.85)"/><rect class="cls-2" x="411.96" y="92.98" width="1.5" height="9.79"/><path class="cls-2" d="M451.14,289.83l-2.07-3.64v3.27h-1.5v-6.12a.75.75,0,0,1,.56-.72.76.76,0,0,1,.85.35l3.46,6.12Z" transform="translate(-46.19 -206.85)"/><polygon class="cls-2" points="427.11 140.65 425.84 40.55 303.02 35.63 303.08 34.13 427.32 39.11 428.61 140.63 427.11 140.65"/><rect class="cls-2" x="472.4" y="240.6" width="77.47" height="1.5" transform="translate(-74.61 -133.98) rotate(-7.94)"/><path class="cls-2" d="M386.78,340.9h0l-92.69-2.2a.75.75,0,0,1-.11-1.49l23.78-4.07.25,1.48-16.16,2.76,81.85,1.95L372.05,333l-22.83-.72,0-1.5,23,.73a.69.69,0,0,1,.34.09l14.53,7.86a.75.75,0,0,1-.36,1.41" transform="translate(-46.19 -206.85)"/><path class="cls-2" d="M291.88,348.81a.75.75,0,0,1-.33-1.42l7.53-3.76.21-5.57,1.5.06-.23,6a.75.75,0,0,1-.41.64l-5,2.51,91.8-.53-6.36-6.07,1-1.08,7.7,7.34a.76.76,0,0,1-.51,1.3l-96.88.56Z" transform="translate(-46.19 -206.85)"/><path class="cls-2" d="M313.9,343.83H302.68a.75.75,0,0,1-.75-.75v-4.93h1.5v4.18h9.72v-3.91h1.5v4.66a.75.75,0,0,1-.75.75" transform="translate(-46.19 -206.85)"/><path class="cls-2" d="M324.31,343.83h-7.76a.75.75,0,0,1-.75-.75v-4.6h1.5v3.85h6.26v-3.85h1.5v4.6a.76.76,0,0,1-.75.75" transform="translate(-46.19 -206.85)"/><path class="cls-2" d="M331.41,343.83h-4a.76.76,0,0,1-.75-.75v-4.34h1.5v3.59h2.46v-3.49h1.5v4.24a.76.76,0,0,1-.75.75" transform="translate(-46.19 -206.85)"/><path class="cls-2" d="M338.78,343.83h-5.23a.76.76,0,0,1-.75-.75v-4.19h1.5v3.44H338V339h1.5v4.07a.75.75,0,0,1-.75.75" transform="translate(-46.19 -206.85)"/><path class="cls-2" d="M347.59,343.83h-5.77a.76.76,0,0,1-.75-.75v-4h1.5v3.25h4.27v-3.11h1.5v3.86a.76.76,0,0,1-.75.75" transform="translate(-46.19 -206.85)"/><path class="cls-2" d="M356.84,343.83h-5.62a.76.76,0,0,1-.75-.75v-2.93H352v2.18h4.12v-2.89h1.5v3.64a.76.76,0,0,1-.75.75" transform="translate(-46.19 -206.85)"/><path class="cls-2" d="M322.28,291h-3.44l.16-.89a11.54,11.54,0,0,0,0-4.17l-.16-.89h3.44a2.62,2.62,0,0,1,2.62,2.62v.71a2.62,2.62,0,0,1-2.62,2.62m-1.67-1.5h1.67a1.12,1.12,0,0,0,1.12-1.12v-.71a1.12,1.12,0,0,0-1.12-1.12h-1.67a12.12,12.12,0,0,1,.08,1.48,12,12,0,0,1-.08,1.47" transform="translate(-46.19 -206.85)"/><path class="cls-2" d="M318,293.86c-1.79,0-2.73-3-2.73-5.87s.94-5.87,2.73-5.87c1.18,0,2.1,1.27,2.52,3.5a13.42,13.42,0,0,1,0,4.73c-.42,2.23-1.34,3.51-2.52,3.51m0-10.24c-.32,0-1.23,1.5-1.23,4.37s.91,4.37,1.23,4.37c.14,0,.71-.55,1-2.29a11.54,11.54,0,0,0,0-4.17c-.33-1.74-.9-2.28-1-2.28" transform="translate(-46.19 -206.85)"/><path class="cls-2" d="M322.16,304.83h-3.44l.16-.89a11,11,0,0,0,0-4.18l-.16-.88h3.44a2.61,2.61,0,0,1,2.62,2.61v.72a2.62,2.62,0,0,1-2.62,2.62m-1.67-1.5h1.67a1.12,1.12,0,0,0,1.12-1.12v-.72a1.12,1.12,0,0,0-1.12-1.11h-1.67a11.84,11.84,0,0,1,.09,1.47,12.12,12.12,0,0,1-.09,1.48" transform="translate(-46.19 -206.85)"/><path class="cls-2" d="M317.84,307.72c-1.79,0-2.73-3-2.73-5.87s.94-5.87,2.73-5.87c1.18,0,2.1,1.28,2.52,3.51a12.77,12.77,0,0,1,0,4.72c-.42,2.23-1.34,3.51-2.52,3.51m0-10.24c-.31,0-1.23,1.5-1.23,4.37s.92,4.37,1.23,4.37c.14,0,.72-.55,1-2.28a11,11,0,0,0,0-4.18c-.32-1.73-.9-2.28-1-2.28" transform="translate(-46.19 -206.85)"/><path class="cls-2" d="M332.16,312.92H320v-9.56h2.16a1.12,1.12,0,0,0,1.12-1.12v-.71a1.12,1.12,0,0,0-1.12-1.12H320v-11h2.16a1.12,1.12,0,0,0,1.12-1.12v-.71a1.12,1.12,0,0,0-1.12-1.12H320v-7.11h12.18Zm-10.68-1.5h9.18V280.88h-9.18V285h.66a2.62,2.62,0,0,1,2.62,2.62v.71a2.62,2.62,0,0,1-2.62,2.62h-.66v8h.66a2.62,2.62,0,0,1,2.62,2.62v.71a2.62,2.62,0,0,1-2.62,2.62h-.66Z" transform="translate(-46.19 -206.85)"/><path class="cls-2" d="M309.05,293.16c-1.92,0-2-4.31-2-5.18h0a12.2,12.2,0,0,1,.39-3.34c.34-1.22.89-1.84,1.61-1.85h0c1.92,0,2,4.32,2,5.18a13.12,13.12,0,0,1-.39,3.35c-.35,1.22-.89,1.84-1.62,1.84Zm-.53-5.18a9.24,9.24,0,0,0,.53,3.44,9.64,9.64,0,0,0,.51-3.44,9.46,9.46,0,0,0-.53-3.44A9.15,9.15,0,0,0,308.52,288Z" transform="translate(-46.19 -206.85)"/><path class="cls-2" d="M309.3,293.12l-.5-1.42,7.6-2.66a3.63,3.63,0,0,0,.15-1.08,2.87,2.87,0,0,0-.12-.88l-7.67-2.83.52-1.41,8.12,3,.12.15a2.9,2.9,0,0,1,.53,2,4.51,4.51,0,0,1-.43,2.06l-.14.24Z" transform="translate(-46.19 -206.85)"/><path class="cls-2" d="M308.68,307c-1.92,0-2-4.32-2-5.18a12.66,12.66,0,0,1,.4-3.35c.34-1.22.89-1.84,1.61-1.84h0c1.92,0,2,4.31,2,5.17a12.66,12.66,0,0,1-.4,3.35c-.34,1.22-.89,1.84-1.61,1.85Zm-.54-5.19a9.4,9.4,0,0,0,.54,3.44,11.64,11.64,0,0,0,0-6.88,9.35,9.35,0,0,0-.52,3.44" transform="translate(-46.19 -206.85)"/><path class="cls-2" d="M308.93,307l-.5-1.41,7.6-2.67a3.52,3.52,0,0,0,.15-1.08,2.87,2.87,0,0,0-.12-.88l-7.67-2.83.52-1.41,8.12,3,.12.15a2.92,2.92,0,0,1,.53,2,4.49,4.49,0,0,1-.43,2.05l-.14.24Z" transform="translate(-46.19 -206.85)"/><rect class="cls-2" x="316.09" y="294.17" width="3.63" height="1.5" transform="translate(-33.43 396.17) rotate(-88.13)"/><rect class="cls-2" x="293.75" y="54.37" width="1" height="2.58"/><rect class="cls-2" x="352.61" y="265.38" width="46.66" height="1.5" transform="translate(62.38 434.33) rotate(-89.81)"/><rect class="cls-2" x="328.93" y="95.97" width="1.5" height="31.42"/><polygon class="cls-2" points="320.65 125.24 319.15 125.24 319.15 117.75 311.4 117.75 311.4 124.71 309.9 124.71 309.9 116.25 320.65 116.25 320.65 125.24"/><rect class="cls-2" x="312.91" y="117" width="1.5" height="8.04"/><polygon class="cls-2" points="328.93 148.05 328.93 140.72 330.43 140.72 330.43 146.23 362.48 139.98 362.77 141.45 328.93 148.05"/><rect class="cls-2" x="390.77" y="241.39" width="1.5" height="39.41" transform="translate(-118.6 -24.66) rotate(-24.05)"/><rect class="cls-2" x="386.6" y="241.51" width="1.5" height="40.21" transform="translate(-117.53 -35.15) rotate(-22.94)"/><rect class="cls-2" x="373.52" y="266.45" width="15.61" height="1.5" transform="translate(-122.53 146.02) rotate(-45.62)"/><rect class="cls-2" x="373.03" y="269.63" width="18.09" height="1.5" transform="translate(-122.96 155.96) rotate(-46.68)"/><rect class="cls-2" x="373.63" y="275.87" width="19.67" height="1.5" transform="translate(-134.62 99.42) rotate(-39.4)"/><rect class="cls-2" x="373.65" y="278.52" width="20.23" height="1.5" transform="translate(-135.95 104.69) rotate(-39.94)"/><rect class="cls-2" x="409.75" y="269.29" width="49.76" height="1.5" transform="translate(112.05 493.81) rotate(-89.16)"/><rect class="cls-2" x="416.01" y="39.83" width="1.5" height="46.42"/><rect class="cls-2" x="415.2" y="92.77" width="1.5" height="9.99"/><polygon class="cls-2" points="417.51 138.39 393.34 137.93 393.37 136.43 416.01 136.86 416.01 107.87 417.51 107.87 417.51 138.39"/><polygon class="cls-2" points="472.17 168.53 470.67 168.53 470.67 156.2 458.5 134.83 459.8 134.08 472.17 155.8 472.17 168.53"/><path class="cls-2" d="M521.62,368.87h-8.76V364h8.76Zm-7.26-1.5h5.76v-1.85h-5.76Z" transform="translate(-46.19 -206.85)"/><polygon class="cls-2" points="427.98 141.39 423.5 141.39 423.5 139.89 427.75 139.89 432.99 138.2 433.45 139.63 427.98 141.39"/><path class="cls-2" d="M500.28,237.85c-60.62-10-132.14-1.25-132.85-1.16l-.19-1.48c.72-.09,72.45-8.87,133.28,1.16Z" transform="translate(-46.19 -206.85)"/><path class="cls-2" d="M500.18,237.82c-69.85-21.15-132-2.5-132.63-2.31l-.44-1.43c.63-.2,63.2-19,133.51,2.31Z" transform="translate(-46.19 -206.85)"/><polygon class="cls-2" points="445.27 27.97 444.68 14.27 419.95 14.27 419.95 22.55 418.45 22.55 418.45 12.77 446.12 12.77 446.77 27.91 445.27 27.97"/><rect class="cls-2" x="502.04" y="22.74" width="2.52" height="12.83"/><path class="cls-2" d="M551.59,231.09H547.4v-7.46h4.19Zm-2.69-1.5h1.19v-4.46H548.9Z" transform="translate(-46.19 -206.85)"/><rect class="cls-2" x="500.91" y="23.11" width="4.8" height="1.5"/><path class="cls-2" d="M494.54,221.12H461.39v-8.21h33.15Zm-31.65-1.5H493v-5.21H462.89Z" transform="translate(-46.19 -206.85)"/><path class="cls-2" d="M509.51,235.06c-3.25-5.8-17.87-10.65-18-10.7l.46-1.42c.63.2,15.32,5.08,18.86,11.39Z" transform="translate(-46.19 -206.85)"/><rect class="cls-2" x="520.39" y="207.39" width="1.5" height="54.7" transform="translate(239.27 548.61) rotate(-89.9)"/><rect class="cls-2" x="371.06" y="214.77" width="1.5" height="29.97" transform="matrix(0.04, -1, 1, 0.04, 81.55, 385.48)"/><path class="cls-2" d="M497.18,240.84h-.76c-124.49-1.43-124.68-1.48-124.79-1.51l-.57-.14v-3.73h1.5v2.41c9.62.15,113.17,1.34,123.12,1.46V236h1.5Z" transform="translate(-46.19 -206.85)"/><rect class="cls-2" x="433.37" y="173.96" width="1.5" height="124.64" transform="translate(145.9 460.36) rotate(-89.24)"/><path class="cls-2" d="M503,223.1H493v-8.21H503Zm-8.44-1.5h6.94v-5.21h-6.94Z" transform="translate(-46.19 -206.85)"/><path class="cls-2" d="M511.42,224.4h-9.94v-7.49h9.94ZM503,222.9h6.94v-4.49H503Z" transform="translate(-46.19 -206.85)"/><rect class="cls-2" x="455.29" y="13.8" width="1.5" height="7.53"/><rect class="cls-2" x="461.83" y="16.8" width="1.5" height="9.2"/><rect class="cls-2" x="387.99" y="258.54" width="33.41" height="1.5" transform="translate(-50.9 304.22) rotate(-64.24)"/><rect class="cls-2" x="394.99" y="260.51" width="35.49" height="1.5" transform="translate(-16.46 357.58) rotate(-70.7)"/><rect class="cls-2" x="409.29" y="257.74" width="26.79" height="1.5" transform="translate(76.24 445.75) rotate(-84.15)"/><rect class="cls-2" x="409.13" y="260.84" width="32.87" height="1.5" transform="translate(97.67 467.26) rotate(-87.25)"/><rect class="cls-2" x="537.39" y="296.49" width="97.67" height="1.5" transform="matrix(0.05, -1, 1, 0.05, 215.76, 662.1)"/><rect class="cls-2" x="552.64" y="297.2" width="97.67" height="1.5" transform="matrix(0.05, -1, 1, 0.05, 229.6, 678.01)"/><rect class="cls-2" x="567.89" y="297.9" width="97.67" height="1.5" transform="matrix(0.05, -1, 1, 0.05, 243.43, 693.92)"/><rect class="cls-2" x="583.14" y="298.61" width="97.67" height="1.5" transform="matrix(0.05, -1, 1, 0.05, 257.26, 709.82)"/><rect class="cls-2" x="598.39" y="299.32" width="97.67" height="1.5" transform="matrix(0.05, -1, 1, 0.05, 271.09, 725.73)"/><rect class="cls-2" x="613.64" y="300.02" width="97.67" height="1.5" transform="matrix(0.05, -1, 1, 0.05, 284.93, 741.64)"/><rect class="cls-2" x="628.89" y="300.73" width="97.67" height="1.5" transform="matrix(0.05, -1, 1, 0.05, 298.76, 757.55)"/><rect class="cls-2" x="632.36" y="213.9" width="1.5" height="122.13" transform="translate(282.92 687.81) rotate(-87.35)"/><rect class="cls-2" x="631.22" y="238.3" width="1.5" height="122.12" transform="matrix(0.05, -1, 1, 0.05, 257.47, 709.93)"/><rect class="cls-2" x="630.1" y="262.68" width="1.5" height="122.13" transform="translate(232.04 732.07) rotate(-87.35)"/><path class="cls-2" d="M691.67,352l-124-5.75,4.62-99.56,124,5.75Zm-121.91-7.65,120,5.56,4.44-95.56-120-5.57Z" transform="translate(-46.19 -206.85)"/><rect class="cls-2" x="662.7" y="302.3" width="97.67" height="1.5" transform="matrix(0.05, -1, 1, 0.05, 329.42, 792.81)"/><rect class="cls-2" x="677.95" y="303.01" width="97.67" height="1.5" transform="matrix(0.05, -1, 1, 0.05, 343.25, 808.72)"/><rect class="cls-2" x="693.2" y="303.71" width="97.67" height="1.5" transform="matrix(0.05, -1, 1, 0.05, 357.08, 824.63)"/><rect class="cls-2" x="708.45" y="304.42" width="97.67" height="1.5" transform="matrix(0.05, -1, 1, 0.05, 370.92, 840.53)"/><rect class="cls-2" x="723.7" y="305.13" width="97.67" height="1.5" transform="matrix(0.05, -1, 1, 0.05, 384.75, 856.44)"/><rect class="cls-2" x="738.95" y="305.83" width="97.67" height="1.5" transform="matrix(0.05, -1, 1, 0.05, 398.58, 872.35)"/><rect class="cls-2" x="754.2" y="306.54" width="97.67" height="1.5" transform="matrix(0.05, -1, 1, 0.05, 412.41, 888.26)"/><rect class="cls-2" x="757.67" y="219.71" width="1.5" height="122.13" transform="translate(396.62 818.52) rotate(-87.35)"/><rect class="cls-2" x="756.53" y="244.11" width="1.5" height="122.12" transform="translate(371.17 840.65) rotate(-87.35)"/><rect class="cls-2" x="755.4" y="268.49" width="1.5" height="122.13" transform="translate(345.74 862.78) rotate(-87.35)"/><path class="cls-2" d="M817,357.83l-124-5.75,4.61-99.57,124,5.75Zm-121.91-7.66,120,5.57,4.43-95.57-120-5.57Z" transform="translate(-46.19 -206.85)"/><polygon class="cls-2" points="466.37 86.37 463.68 82.89 523.01 43.9 523.84 45.16 465.86 83.25 466.69 84.34 522.89 46.38 523.73 47.62 466.37 86.37"/><polygon class="cls-2" points="518.78 134.85 463.75 90 466.78 86.81 519.88 131.23 518.91 132.38 466.89 88.87 465.95 89.86 519.73 133.69 518.78 134.85"/><polygon class="cls-2" points="518.22 92.24 466.13 88.54 465.8 83.04 518.44 88.91 518.27 90.41 467.4 84.73 467.54 87.14 518.32 90.75 518.22 92.24"/><path class="cls-2" d="M573.58,256.62l-5-.23.38-8.1,4.94.23ZM570.2,255l1.95.09.24-5.1-1.95-.09Z" transform="translate(-46.19 -206.85)"/><path class="cls-2" d="M570.37,302.85l-6.85-.32.47-10.17,6.86.32Zm-5.29-1.75,3.86.18.34-7.17-3.86-.18Z" transform="translate(-46.19 -206.85)"/><path class="cls-2" d="M568.41,345.31l-3.88-.18.47-10.24,3.88.18Zm-2.31-1.61.88.05.33-7.25-.88,0Z" transform="translate(-46.19 -206.85)"/><rect class="cls-2" x="232.72" y="268.71" width="97.67" height="1.5" transform="matrix(0.05, -1, 1, 0.05, -46.93, 331.28)"/><rect class="cls-2" x="217.47" y="268" width="97.67" height="1.5" transform="matrix(0.05, -1, 1, 0.05, -60.76, 315.37)"/><rect class="cls-2" x="202.22" y="267.29" width="97.67" height="1.5" transform="translate(-74.6 299.46) rotate(-87.33)"/><rect class="cls-2" x="186.97" y="266.58" width="97.67" height="1.5" transform="translate(-88.43 283.55) rotate(-87.33)"/><rect class="cls-2" x="171.72" y="265.88" width="97.67" height="1.5" transform="translate(-102.26 267.65) rotate(-87.33)"/><rect class="cls-2" x="156.47" y="265.17" width="97.67" height="1.5" transform="translate(-116.09 251.74) rotate(-87.33)"/><rect class="cls-2" x="141.22" y="264.46" width="97.67" height="1.5" transform="translate(-129.93 235.83) rotate(-87.33)"/><rect class="cls-2" x="233.92" y="230.66" width="1.5" height="122.13" transform="translate(-113.8 305.78) rotate(-87.35)"/><rect class="cls-2" x="235.06" y="206.28" width="1.5" height="122.12" transform="matrix(0.05, -1, 1, 0.05, -88.34, 283.66)"/><rect class="cls-2" x="236.19" y="181.88" width="1.5" height="122.13" transform="translate(-62.91 261.52) rotate(-87.34)"/><path class="cls-2" d="M295.5,320l-1-.05-123-5.7,4.61-99.56,124,5.75Zm-121.91-7.65,120,5.56L298,222.33l-120-5.56Z" transform="translate(-46.19 -206.85)"/><rect class="cls-2" x="107.41" y="262.9" width="97.67" height="1.5" transform="translate(-160.59 200.57) rotate(-87.33)"/><rect class="cls-2" x="92.16" y="262.19" width="97.67" height="1.5" transform="translate(-174.42 184.66) rotate(-87.33)"/><rect class="cls-2" x="76.91" y="261.48" width="97.67" height="1.5" transform="translate(-188.25 168.75) rotate(-87.33)"/><rect class="cls-2" x="61.66" y="260.77" width="97.67" height="1.5" transform="translate(-202.09 152.84) rotate(-87.33)"/><rect class="cls-2" x="46.41" y="260.07" width="97.67" height="1.5" transform="translate(-215.92 136.94) rotate(-87.33)"/><rect class="cls-2" x="31.16" y="259.36" width="97.67" height="1.5" transform="translate(-229.75 121.03) rotate(-87.33)"/><rect class="cls-2" x="15.91" y="258.65" width="97.67" height="1.5" transform="translate(-243.58 105.12) rotate(-87.33)"/><rect class="cls-2" x="108.62" y="224.85" width="1.5" height="122.13" transform="translate(-227.5 175.07) rotate(-87.35)"/><rect class="cls-2" x="109.75" y="200.47" width="1.5" height="122.12" transform="matrix(0.05, -1, 1, 0.05, -202.05, 152.94)"/><rect class="cls-2" x="110.88" y="176.07" width="1.5" height="122.13" transform="translate(-176.61 130.8) rotate(-87.35)"/><path class="cls-2" d="M170.19,314.18l-1-.05-123-5.7,4.61-99.56,124,5.75ZM48.28,306.52l120,5.57,4.43-95.57L52.71,211Z" transform="translate(-46.19 -206.85)"/><path class="cls-2" d="M298.77,318.41l-4.94-.23.37-8.1,4.95.23Zm-3.37-1.66,2,.09.23-5.1-1.95-.09Z" transform="translate(-46.19 -206.85)"/><path class="cls-2" d="M303.79,274.33l-6.86-.31.48-10.18,6.86.32Zm-5.29-1.74,3.87.18.33-7.18-3.86-.18Z" transform="translate(-46.19 -206.85)"/><path class="cls-2" d="M302.78,231.8l-3.88-.18.48-10.24,3.87.18Zm-2.31-1.61.88,0,.33-7.24-.88,0Z" transform="translate(-46.19 -206.85)"/><path class="cls-2" d="M512.34,305.47c-5.12,0-9.28-6.33-9.28-14.11s4.16-14.11,9.28-14.11c4.16,0,6.38,1.95,7.67,6.72l-1.44.4c-1.27-4.7-3.25-5.62-6.23-5.62-4.29,0-7.78,5.66-7.78,12.61S508.05,304,512.34,304c2.54,0,4-.94,4.39-1.53l1.29.76c-.67,1.13-2.68,2.27-5.68,2.27" transform="translate(-46.19 -206.85)"/><polygon class="cls-2" points="487.14 138.13 485.64 138.13 485.64 135.37 482.32 135.09 482.32 131.24 483.82 131.24 483.82 133.72 487.14 134 487.14 138.13"/><polygon class="cls-2" points="471.43 143.68 466.67 143.62 466.67 139.51 463.35 138.76 462.34 134.08 463.81 133.77 464.61 137.51 468.17 138.31 468.17 142.14 471.44 142.18 471.43 143.68"/><rect class="cls-2" x="509.99" y="342.37" width="19.45" height="1.5" transform="translate(-102.22 -101.12) rotate(-11.03)"/><rect class="cls-2" x="275.1" y="87.68" width="9.05" height="1.5"/><rect class="cls-2" x="308.01" y="223.3" width="1.5" height="17.76" transform="translate(-120.97 71.53) rotate(-43.81)"/><rect class="cls-2" x="309.32" y="225.39" width="1.5" height="22.93" transform="translate(-124.07 71.64) rotate(-43.5)"/><rect class="cls-2" x="310.14" y="261.43" width="1.5" height="15.22" transform="translate(-38.2 340.19) rotate(-83.42)"/><rect class="cls-2" x="310.02" y="264.06" width="1.5" height="15.22" transform="translate(-40.97 342.34) rotate(-83.41)"/><rect class="cls-2" x="297.23" y="307.89" width="20.68" height="1.5" transform="translate(-150.15 -41.39) rotate(-25.92)"/><rect class="cls-2" x="297.53" y="310.07" width="19.59" height="1.5" transform="translate(-149.5 -45.81) rotate(-25.29)"/><path class="cls-2" d="M520.94,291.38l-1.5,0c0-1.85,0-3.81,0-3.83l1.5,0s0,2,0,3.88" transform="translate(-46.19 -206.85)"/><path class="cls-2" d="M520,299.84l-1.44-.43a16.25,16.25,0,0,0,.87-4.19l1.5,0a16.11,16.11,0,0,1-.93,4.66" transform="translate(-46.19 -206.85)"/><polygon class="cls-2" points="507.25 55.65 505.75 55.65 505.75 29.49 503.44 29.89 503.18 28.42 507.25 27.7 507.25 55.65"/><rect class="cls-2" x="505.75" y="58.35" width="1.5" height="29.98"/><rect class="cls-2" x="505.75" y="91.09" width="1.5" height="29.93"/><polygon class="cls-2" points="435.69 138.37 435.49 136.88 505.75 127.43 505.75 123.88 507.25 123.88 507.25 128.74 506.6 128.83 435.69 138.37"/><rect class="cls-2" x="534.59" y="328.35" width="14.42" height="1.5" transform="matrix(0.01, -1, 1, 0.01, 163.63, 662.29)"/><rect class="cls-2" x="531.05" y="307.19" width="21.74" height="1.5" transform="matrix(0.01, -1, 1, 0.01, 184.91, 641.36)"/><rect class="cls-2" x="531.53" y="282.72" width="21.06" height="1.5" transform="translate(209.17 616.97) rotate(-89.66)"/><rect class="cls-2" x="526.3" y="252.29" width="31.87" height="1.5" transform="translate(239.77 586.9) rotate(-89.66)"/><path class="cls-2" d="M552.75,272.71l-.15-1.49c8.86-.92,14.5-3.81,15.87-8.16.71-2.26.27-4.85-1.32-7.69l1.31-.73c1.8,3.21,2.28,6.2,1.44,8.88-1.56,5-7.65,8.21-17.15,9.19" transform="translate(-46.19 -206.85)"/><path class="cls-2" d="M565.91,253.41c-2.74-3.63-8-8.28-13.54-11.86l.82-1.26c5.62,3.67,11.08,8.46,13.92,12.22Z" transform="translate(-46.19 -206.85)"/><path class="cls-2" d="M540.81,235.14a135.55,135.55,0,0,0-16.62-6.36A140.44,140.44,0,0,0,509.26,225l.28-1.47a145.21,145.21,0,0,1,31.91,10.28Z" transform="translate(-46.19 -206.85)"/><path class="cls-2" d="M553,290.14l-.52-1.41c4.19-1.52,4.32-4.55,4-6.21-.47-2.67-2.5-4.81-3.86-4.81v-1.5c2.27,0,4.77,2.83,5.34,6.05.63,3.57-1.24,6.51-5,7.88" transform="translate(-46.19 -206.85)"/><path class="cls-2" d="M552.88,308.72l-.42-1.44.21.72-.22-.72c.18,0,4.27-1.42,4.19-8.92l1.5,0c.09,8.7-5,10.31-5.26,10.38" transform="translate(-46.19 -206.85)"/></g></g></g></svg>