<svg xmlns="http://www.w3.org/2000/svg" xmlns:xlink="http://www.w3.org/1999/xlink" viewBox="0 0 736.8 441.48"><defs><style>.cls-1{fill:none;}.cls-2{fill:#fff;}.cls-3{clip-path:url(#clip-path);}</style><clipPath id="clip-path" transform="translate(-30.92 -45.99)"><rect class="cls-1" width="841.89" height="595.28"/></clipPath></defs><title>Монитор Е</title><g id="Слой_2" data-name="Слой 2"><g id="Слой_1-2" data-name="Слой 1"><rect class="cls-2" x="199.67" y="379.1" width="1.5" height="4.36" transform="matrix(0.36, -0.93, 0.93, 0.36, -258.42, 384.56)"/><rect class="cls-2" x="265.86" y="417.33" width="1.5" height="15.24"/><g class="cls-3"><path class="cls-2" d="M196.27,446.41l-.53-.56c-1.92-2-7.38-7.39-9.54-7.83-5.75-1.15-9-3.17-9-5.54,0-4.2,9.86-6.47,19.13-6.47s19.12,2.27,19.12,6.47c0,2.32-3,4.26-8.53,5.44-2.25.48-8,5.9-10.06,7.94Zm0-18.9c-10.39,0-17.63,2.62-17.63,5,0,1.25,2.42,3,7.83,4.07,2.64.53,8,5.87,9.81,7.71,1.88-1.84,7.55-7.22,10.27-7.81,5.42-1.16,7.34-2.87,7.34-4,0-2.35-7.24-5-17.62-5" transform="translate(-30.92 -45.99)"/><path class="cls-2" d="M196.29,459.21c-9.51,0-19.13-2-19.13-5.85s9.62-5.84,19.13-5.84,19.12,2,19.12,5.84-9.62,5.85-19.12,5.85m0-10.19c-10.92,0-17.63,2.53-17.63,4.34s6.71,4.35,17.63,4.35,17.62-2.53,17.62-4.35-6.7-4.34-17.62-4.34" transform="translate(-30.92 -45.99)"/><polygon class="cls-2" points="171.41 381.04 169.91 380.98 171.94 320.4 165.84 321.28 157.77 335.71 161.14 337.16 160.01 380.79 158.52 380.75 159.62 338.14 155.64 336.44 164.9 319.9 173.5 318.67 171.41 381.04"/><polygon class="cls-2" points="156.81 336.82 156.6 335.33 166.91 333.82 172.01 319.29 173.43 319.78 168.03 335.18 156.81 336.82"/><rect class="cls-2" x="147.93" y="388.88" width="1.5" height="16.35"/><rect class="cls-2" x="177.14" y="386.97" width="1.5" height="16.68"/><rect class="cls-2" x="168.75" y="395.48" width="1.5" height="6.8"/><path class="cls-2" d="M309.07,476l-.53-.56c-2.39-2.52-6.82-6.65-8.52-7-3-.61-8.16-2.08-8.16-5.05,0-3.81,8.87-5.87,17.22-5.87s17.22,2.06,17.22,5.87c0,2.13-2.73,3.89-7.7,4.95-2,.44-7.17,5.27-9,7.1Zm0-17c-9.74,0-15.72,2.54-15.72,4.37,0,1.09,2.15,2.61,7,3.58,2.36.47,7.11,5.17,8.78,6.87,1.73-1.7,6.75-6.44,9.18-7,4.51-1,6.52-2.45,6.52-3.49,0-1.83-6-4.37-15.72-4.37" transform="translate(-30.92 -45.99)"/><path class="cls-2" d="M309.08,487.48c-8.55,0-17.22-1.83-17.22-5.32s8.67-5.31,17.22-5.31,17.22,1.82,17.22,5.31-8.66,5.32-17.22,5.32m0-9.13c-9.59,0-15.72,2.26-15.72,3.81s6.13,3.82,15.72,3.82,15.72-2.26,15.72-3.82-6.12-3.81-15.72-3.81" transform="translate(-30.92 -45.99)"/><rect class="cls-2" x="292.76" y="436.24" width="43.09" height="1.5" transform="translate(-160.41 695.62) rotate(-88.74)"/><rect class="cls-2" x="292" y="415.95" width="1.5" height="17.43"/><rect class="cls-2" x="271" y="423.29" width="1.5" height="8.31"/><path class="cls-2" d="M269.78,423.18l-.53-.56c-2.05-2.16-7.87-7.87-10.17-8.33-6.08-1.22-9.56-3.35-9.56-5.84,0-4.44,10.44-6.83,20.27-6.83s20.27,2.39,20.27,6.83c0,2.44-3.2,4.48-9,5.73-2.41.52-8.55,6.28-10.72,8.45Zm0-20.06c-11.06,0-18.77,2.81-18.77,5.33,0,1.34,2.58,3.21,8.35,4.37,2.81.56,8.56,6.28,10.43,8.21,2-1.92,8-7.69,10.92-8.32,5.79-1.24,7.84-3.07,7.84-4.26,0-2.52-7.71-5.33-18.77-5.33" transform="translate(-30.92 -45.99)"/><path class="cls-2" d="M269.79,436.8c-9.83,0-20.27-2.16-20.27-6.16s10.44-6.17,20.27-6.17,20.27,2.16,20.27,6.17-10.44,6.16-20.27,6.16m0-10.83c-11.63,0-18.77,2.72-18.77,4.67s7.14,4.66,18.77,4.66,18.77-2.72,18.77-4.66S281.42,426,269.79,426" transform="translate(-30.92 -45.99)"/><polygon class="cls-2" points="245.24 356.66 243.74 356.61 245.9 292.19 239.35 293.13 230.73 308.53 234.34 310.08 233.14 356.4 231.64 356.36 232.81 311.06 228.61 309.26 238.4 291.75 247.46 290.45 245.24 356.66"/><polygon class="cls-2" points="229.78 309.64 229.56 308.15 240.55 306.54 245.97 291.07 247.39 291.57 241.66 307.9 229.78 309.64"/><rect class="cls-2" x="273.43" y="351.73" width="1.5" height="4.64" transform="translate(-185.9 435.89) rotate(-68.83)"/><rect class="cls-2" x="220.4" y="365" width="1.5" height="17.38"/><rect class="cls-2" x="251.43" y="358.02" width="1.5" height="22.67"/><rect class="cls-2" x="242.51" y="372.01" width="1.5" height="7.22"/><path class="cls-2" d="M296.06,404.79a.77.77,0,0,1-.69-.45c-1-2.22-5.55-4.3-11.93-5.43a61.66,61.66,0,0,0-7.89-.86l.08-1.5a66.44,66.44,0,0,1,8.07.88c5.4,1,9.46,2.53,11.61,4.44v-9.56a.81.81,0,0,1,.06-.31,2.05,2.05,0,0,0,.22-.84c0-2.93-7.22-6.38-19.29-7.09l.09-1.49c10,.58,20.7,3.52,20.7,8.58a3.43,3.43,0,0,1-.28,1.3V404a.75.75,0,0,1-.6.73l-.15,0" transform="translate(-30.92 -45.99)"/><path class="cls-2" d="M248,404.79l-.16,0a.74.74,0,0,1-.59-.73V392.46a3.43,3.43,0,0,1-.28-1.3c0-3.81,6.57-7,16.74-8.24l.18,1.49c-8.94,1-15.42,3.89-15.42,6.75a2.19,2.19,0,0,0,.21.84.82.82,0,0,1,.07.31v9.56c2.15-1.91,6.2-3.48,11.61-4.44.95-.17,1.94-.32,3-.44l.19,1.49c-1,.12-2,.27-2.89.43-6.39,1.13-11,3.21-11.94,5.43a.75.75,0,0,1-.68.45" transform="translate(-30.92 -45.99)"/><path class="cls-2" d="M249.79,409c-1.4-1.15-2.83-2.5-2.83-3.85a3.46,3.46,0,0,1,.34-1.45c1.21-2.75,6-5,13.05-6.3.58-.1,1.18-.2,1.79-.28l.21,1.48-1.74.28c-6.39,1.13-11,3.21-11.94,5.43a2,2,0,0,0-.21.84c0,.31.29,1.07,2.28,2.69Z" transform="translate(-30.92 -45.99)"/><path class="cls-2" d="M288.89,410.72l-.46-1.43c4.05-1.33,7.16-2.47,7.16-4.11a2.05,2.05,0,0,0-.22-.84c-1-2.22-5.55-4.3-11.93-5.43a63.7,63.7,0,0,0-6.49-.78l.11-1.49a61.29,61.29,0,0,1,6.64.79c7.08,1.26,11.83,3.55,13,6.3a3.52,3.52,0,0,1,.35,1.45c0,2.85-4,4.16-8.2,5.54" transform="translate(-30.92 -45.99)"/><path class="cls-2" d="M251.72,381.16c-.12-.07-2.93-1.55-3.26-3.82a3.6,3.6,0,0,1,1.29-3.16c3.38-3.28,13.84-4.88,14.28-4.95l.23,1.48c-.11,0-10.43,1.6-13.47,4.54a2.15,2.15,0,0,0-.84,1.87c.18,1.26,1.84,2.38,2.46,2.71Z" transform="translate(-30.92 -45.99)"/><path class="cls-2" d="M292.76,381.23l-.26-1.48a3,3,0,0,0,1.84-1.16,2.16,2.16,0,0,0,0-1.89c-1.22-3.1-11.6-5-17.86-5.44l.11-1.49c1.75.13,17.18,1.39,19.15,6.38a3.6,3.6,0,0,1,0,3.18,4.51,4.51,0,0,1-2.89,1.9" transform="translate(-30.92 -45.99)"/><path class="cls-2" d="M250.64,388.09l-1.41-.5,4-11.16a.77.77,0,0,1,.79-.49.74.74,0,0,1,.66.66l1.07,8.8-1.49.18-.68-5.65Z" transform="translate(-30.92 -45.99)"/><path class="cls-2" d="M257.39,385.17l-1.46-.36,2.63-10.67a.75.75,0,0,1,.82-.56.74.74,0,0,1,.66.74v9.35h-1.5V380.5Z" transform="translate(-30.92 -45.99)"/><path class="cls-2" d="M293.91,388.47l-2.88-8.2-1,5.43-1.48-.27,1.48-8.22a.75.75,0,0,1,.68-.62.77.77,0,0,1,.77.5L295.32,388Z" transform="translate(-30.92 -45.99)"/><path class="cls-2" d="M286,385l-1.8-6.38-.89,5.16-1.48-.25,1.45-8.43a.75.75,0,0,1,1.46-.08l2.7,9.58Z" transform="translate(-30.92 -45.99)"/><path class="cls-2" d="M251.9,379.73l-1.49-.14c.68-7.12,12.85-7.33,13.37-7.33l0,1.5c-.12,0-11.35.19-11.9,6" transform="translate(-30.92 -45.99)"/><path class="cls-2" d="M293.33,379.93l-1.4-.54a1.28,1.28,0,0,0-.12-1.23c-1.71-2.73-11.31-4.1-14.87-4.4l.13-1.5c1.38.12,13.59,1.25,16,5.1a2.79,2.79,0,0,1,.25,2.57" transform="translate(-30.92 -45.99)"/><path class="cls-2" d="M305.77,403.86l-.55-1.39c4.22-1.67,6.78-3.77,7.39-6.09a5.1,5.1,0,0,0-.87-4.13c-4-6.22-18.2-6.69-18.35-6.69l.05-1.5c.61,0,15.15.5,19.51,7.32a6.43,6.43,0,0,1,1.12,5.36c-.74,2.85-3.53,5.24-8.3,7.12" transform="translate(-30.92 -45.99)"/><path class="cls-2" d="M306,400.46l-1-1.08c1.85-1.78,2.56-3.32,2.13-4.58-1.08-3.1-8.69-4.5-11.52-4.77l.14-1.5c1.14.11,11.21,1.22,12.79,5.78.65,1.85-.19,3.92-2.5,6.15" transform="translate(-30.92 -45.99)"/><path class="cls-2" d="M306.24,442.87h-1.5V397.5c-.15-.4-1.46-3.11-8.82-4.46l.27-1.47c8.92,1.63,9.95,5.25,10,5.66a.41.41,0,0,1,0,.16Z" transform="translate(-30.92 -45.99)"/><path class="cls-2" d="M282.72,460.2c-14.49,0-29.89-2.82-29.89-8,0-4.81,14-9,29.88-9s29.9,4.21,29.9,9c0,5.22-15.4,8-29.89,8m0-15.56c-17.06,0-28.38,4.52-28.38,7.52s11.66,6.54,28.39,6.54,28.39-3.45,28.39-6.54-11.33-7.52-28.4-7.52" transform="translate(-30.92 -45.99)"/><path class="cls-2" d="M282.71,456.65c-5,0-14.37-.81-14.37-3.88s9.4-3.88,14.37-3.88,14.38.82,14.38,3.88-9.4,3.88-14.38,3.88m0-6.26c-8.1,0-12.75,1.57-12.87,2.38.12.81,4.77,2.38,12.87,2.38s12.75-1.57,12.88-2.38c-.13-.81-4.78-2.38-12.88-2.38" transform="translate(-30.92 -45.99)"/><path class="cls-2" d="M312.61,452.16h-1.5V447a1.71,1.71,0,0,0-1-1.57c-27.88-11.49-48.94-3-54.73-.15a1.83,1.83,0,0,0-1,1.65v5.27h-1.5v-5.27a3.31,3.31,0,0,1,1.85-3c5.93-2.94,27.5-11.62,56,.1a3.2,3.2,0,0,1,2,3Z" transform="translate(-30.92 -45.99)"/><rect class="cls-2" x="252.72" y="419.11" width="12.61" height="1.5" transform="translate(-199.99 619.03) rotate(-88.13)"/><rect class="cls-2" x="254.79" y="438.35" width="7.92" height="1.5" transform="translate(-229.51 618.06) rotate(-85.68)"/><path class="cls-2" d="M248.46,439H247V421.71l-3.16-12.4a3.23,3.23,0,0,1-1.84-.38,3.61,3.61,0,0,1-1.65-2.56,2.68,2.68,0,0,1,.43-2.08c1.53-2.26,6.3-3.18,6.83-3.27l.27,1.47c-1.29.24-4.86,1.16-5.85,2.64a1.15,1.15,0,0,0-.21.93,2.2,2.2,0,0,0,.92,1.57,2,2,0,0,0,1.41.11.74.74,0,0,1,.6.05.73.73,0,0,1,.37.47l3.35,13.17a.57.57,0,0,1,0,.18Z" transform="translate(-30.92 -45.99)"/><rect class="cls-2" x="244.36" y="407.08" width="5.91" height="1.5" transform="matrix(0.99, -0.16, 0.16, 0.99, -94.21, -0.12)"/><path class="cls-2" d="M248.16,464.65H248l-1.14-.06a2.38,2.38,0,0,1-2.25-2.5l1-18.95a2.4,2.4,0,0,1,2.5-2.25l1.14.06a2.39,2.39,0,0,1,2.25,2.5l-1,19a2.38,2.38,0,0,1-2.37,2.24m0-1.5a.86.86,0,0,0,.92-.82l1-19a.87.87,0,0,0-.83-.92l-1.14-.06a.89.89,0,0,0-.92.83l-1,18.95a.87.87,0,0,0,.83.92Z" transform="translate(-30.92 -45.99)"/><path class="cls-2" d="M253.52,442.68h0l-10.16-.55a.79.79,0,0,1-.52-.24.78.78,0,0,1-.19-.54l.14-2.56a.73.73,0,0,1,.79-.71l10.16.55a.74.74,0,0,1,.7.79l-.13,2.55a.74.74,0,0,1-.25.52.78.78,0,0,1-.5.19m-9.37-2,8.66.46.06-1.05-8.66-.47Z" transform="translate(-30.92 -45.99)"/><rect class="cls-2" x="247.21" y="434.77" width="6.66" height="1.5" transform="translate(-254.44 556.01) rotate(-79.44)"/><path class="cls-2" d="M201.27,419.18l.49-14.9,2.73-7.16c-1.76-.77-2.62-1.72-2.44-2.71.1-.58.61-1.34,2.45-1.6a13.4,13.4,0,0,1,4.18.16c3,.54,6,1.92,5.71,3.68-.28,1.58-3,1.92-5.73,1.57Zm1.93-14.49-.14,4.91,4.6-13.05.62.1c2.88.48,4.47,0,4.65-.3-.08-.28-1.52-1.36-4.51-1.9s-4.73,0-4.91.26a4.86,4.86,0,0,0,2.21,1.29l.71.26Z" transform="translate(-30.92 -45.99)"/><path class="cls-2" d="M214.67,424.3l-.28,0-.38-.07a1.75,1.75,0,0,1-1.15-.7,1.81,1.81,0,0,1-.31-1.31l3.82-23.46a1.76,1.76,0,0,1,2-1.46l.39.07a1.77,1.77,0,0,1,1.45,2l-3.82,23.45a1.76,1.76,0,0,1-1.74,1.48m3.44-25.54a.24.24,0,0,0-.15.05.25.25,0,0,0-.11.17L214,422.44a.29.29,0,0,0,.05.19.25.25,0,0,0,.17.1h0l.38.07a.26.26,0,0,0,.3-.22l3.82-23.45a.27.27,0,0,0-.05-.2.23.23,0,0,0-.17-.1l-.38-.06h0" transform="translate(-30.92 -45.99)"/><path class="cls-2" d="M220.53,424.72l-.29,0-.38-.06a1.76,1.76,0,0,1-1.46-2l3.82-23.46a1.81,1.81,0,0,1,.71-1.15,1.75,1.75,0,0,1,1.31-.3l.39.06a1.72,1.72,0,0,1,1.14.71,1.7,1.7,0,0,1,.31,1.31l-3.82,23.45a1.76,1.76,0,0,1-1.73,1.48M224,399.18a.26.26,0,0,0-.15.05.27.27,0,0,0-.1.17l-3.82,23.46a.25.25,0,0,0,0,.19.27.27,0,0,0,.17.1l.38.07a.27.27,0,0,0,.3-.22l3.82-23.45a.23.23,0,0,0,0-.2.22.22,0,0,0-.16-.1l-.39-.06h0" transform="translate(-30.92 -45.99)"/><rect class="cls-2" x="212.61" y="412.9" width="1.5" height="2.5" transform="translate(-266.8 491.54) rotate(-78.1)"/><rect class="cls-2" x="217.58" y="413.79" width="1.5" height="2.83" transform="translate(-260.49 508.68) rotate(-79.56)"/><rect class="cls-2" x="223" y="415.23" width="1.5" height="2.21" transform="translate(-258.26 511.5) rotate(-79.12)"/><rect class="cls-2" x="201.03" y="371.31" width="65.12" height="1.5" transform="translate(-145.19 57.76) rotate(-20.23)"/><rect class="cls-2" x="211.08" y="395.19" width="1.5" height="9.45" transform="translate(-260.28 454.68) rotate(-74.96)"/><rect class="cls-2" x="219.77" y="400.03" width="1.5" height="3.45" transform="translate(-253.83 471.51) rotate(-75.87)"/><rect class="cls-2" x="232.09" y="396.02" width="1.5" height="16.8" transform="translate(-242.9 499.52) rotate(-77.67)"/><polygon class="cls-2" points="284.62 316.3 259.46 307.13 246.31 311.19 245.87 309.76 259.5 305.55 285.13 314.89 284.62 316.3"/><path class="cls-2" d="M322.69,388.59h-4a.75.75,0,0,1-.75-.69l-4-50.52a.71.71,0,0,1,.2-.57.72.72,0,0,1,.55-.24h2.62a.75.75,0,0,1,.7.48l4.14,10.89a.64.64,0,0,1,0,.24l1.19,39.64a.73.73,0,0,1-.22.54.72.72,0,0,1-.53.23m-3.28-1.5h2.5l-1.15-38.74-3.91-10.28h-1.29Z" transform="translate(-30.92 -45.99)"/><path class="cls-2" d="M326.48,390a.75.75,0,0,1-.26,0l-3.8-1.44a.75.75,0,0,1,.53-1.4l2.76,1-.9-39.82L321,339.31,317.13,338a.75.75,0,0,1,.48-1.42l4.13,1.38a.72.72,0,0,1,.45.42l4.05,9.5a.67.67,0,0,1,.06.28l.93,41.07a.74.74,0,0,1-.31.63.77.77,0,0,1-.44.14" transform="translate(-30.92 -45.99)"/><path class="cls-2" d="M325.55,349a.58.58,0,0,1-.26-.05l-4.05-1.54a.75.75,0,0,1-.44-1,.76.76,0,0,1,1-.44l4.05,1.54a.75.75,0,0,1,.43,1,.73.73,0,0,1-.7.48" transform="translate(-30.92 -45.99)"/><path class="cls-2" d="M326.48,390h-3.79a.75.75,0,0,1-.26,0l-4-1.43a.75.75,0,1,1,.51-1.41l3.85,1.39h3.66a.75.75,0,0,1,0,1.5" transform="translate(-30.92 -45.99)"/><path class="cls-2" d="M337.85,439.72h-4.34a.75.75,0,0,1-.75-.75V424.85H331a.74.74,0,0,1-.75-.75v-2.49a.75.75,0,0,1,.75-.75h1.8V396.41l-7-18a.75.75,0,0,1,.31-.91l1.1-.67a15.25,15.25,0,0,1,14.89-1,.59.59,0,0,1,.17.1l2.76,2.21a.78.78,0,0,1,.22.89l-7.61,17.39.56,24.45h2a.76.76,0,0,1,.75.75v2.49a.75.75,0,0,1-.75.75h-1.94L338.6,439a.79.79,0,0,1-.22.54.75.75,0,0,1-.53.22m-3.59-1.5h2.82l-.33-14.1a.77.77,0,0,1,.22-.54.72.72,0,0,1,.53-.23h2v-1h-2a.74.74,0,0,1-.75-.73l-.59-25.35a.91.91,0,0,1,.06-.32l7.45-17-2.23-1.8a13.85,13.85,0,0,0-13.42,1l-.56.34,6.8,17.55a.66.66,0,0,1,.05.28v25.34a.74.74,0,0,1-.75.75h-1.8v1h1.8a.75.75,0,0,1,.75.75Z" transform="translate(-30.92 -45.99)"/><path class="cls-2" d="M342.26,384.68a.74.74,0,0,1-.72-.54.76.76,0,0,1,.52-.93c3.73-1,6-2.87,6-4.77,0-3.05-5.76-5.63-12.59-5.63a21.65,21.65,0,0,0-9.11,1.8.75.75,0,0,1-.64-1.36,23.18,23.18,0,0,1,9.75-1.94c7.9,0,14.09,3.13,14.09,7.13,0,2.64-2.67,5-7.14,6.22a.65.65,0,0,1-.2,0" transform="translate(-30.92 -45.99)"/><path class="cls-2" d="M373.82,405h-3.88a.75.75,0,0,1-.75-.69L365.31,355a.78.78,0,0,1,.2-.57.72.72,0,0,1,.55-.24h2.56a.75.75,0,0,1,.7.48l4,10.63a.7.7,0,0,1,.05.25l1.15,38.71a.74.74,0,0,1-.74.77m-3.19-1.5H373l-1.12-37.81-3.81-10h-1.24Z" transform="translate(-30.92 -45.99)"/><path class="cls-2" d="M377.52,406.39a.75.75,0,0,1-.26-.05l-3.71-1.4a.75.75,0,1,1,.53-1.41l2.67,1-.88-38.86-3.77-8.83-3.72-1.25a.75.75,0,1,1,.48-1.42l4,1.35a.75.75,0,0,1,.45.42l3.95,9.28a.63.63,0,0,1,.06.27l.91,40.12a.74.74,0,0,1-.31.63.77.77,0,0,1-.44.14" transform="translate(-30.92 -45.99)"/><path class="cls-2" d="M376.62,366.27a.86.86,0,0,1-.27,0l-4-1.5a.75.75,0,1,1,.53-1.4l3.95,1.5a.75.75,0,0,1-.26,1.45" transform="translate(-30.92 -45.99)"/><path class="cls-2" d="M377.52,406.39h-3.7a.75.75,0,0,1-.26-.05l-3.88-1.4a.75.75,0,1,1,.51-1.41l3.76,1.36h3.57a.75.75,0,0,1,0,1.5" transform="translate(-30.92 -45.99)"/><path class="cls-2" d="M383.23,456.52l-.53-.56c-2.69-2.84-7.37-7.19-9.23-7.56-5.57-1.12-8.77-3.09-8.77-5.4,0-4.08,9.55-6.28,18.54-6.28s18.54,2.2,18.54,6.28c0,2.27-2.94,4.15-8.28,5.29-2.17.47-7.76,5.71-9.73,7.68Zm0-18.3c-9.75,0-17,2.52-17,4.78,0,1.2,2.34,2.88,7.56,3.93,2.55.51,7.74,5.64,9.49,7.45,1.84-1.8,7.31-7,9.94-7.55,4.89-1.06,7.09-2.68,7.09-3.83,0-2.26-7.29-4.78-17-4.78" transform="translate(-30.92 -45.99)"/><path class="cls-2" d="M383.24,468.9c-9.21,0-18.54-1.95-18.54-5.68s9.33-5.68,18.54-5.68,18.54,1.95,18.54,5.68-9.33,5.68-18.54,5.68m0-9.86c-10.56,0-17,2.44-17,4.18s6.48,4.18,17,4.18,17-2.43,17-4.18-6.48-4.18-17-4.18" transform="translate(-30.92 -45.99)"/><rect class="cls-2" x="344.95" y="360.22" width="1.5" height="31.25"/><rect class="cls-2" x="338.27" y="397.54" width="1.5" height="16.36"/><rect class="cls-2" x="367.93" y="398.09" width="1.5" height="16.15"/><rect class="cls-2" x="346.92" y="405.67" width="1.5" height="6.58"/><rect class="cls-2" x="357.3" y="351.39" width="1.5" height="40.08"/><path class="cls-2" d="M388.42,398.64a4.4,4.4,0,1,1,4.39-4.4,4.4,4.4,0,0,1-4.39,4.4m0-7.29a2.9,2.9,0,1,0,2.89,2.89,2.9,2.9,0,0,0-2.89-2.89" transform="translate(-30.92 -45.99)"/><polygon class="cls-2" points="357.39 367.13 349.59 352.14 346.61 352.14 346.61 350.64 350.5 350.64 358.72 366.44 357.39 367.13"/><path class="cls-2" d="M357.26,426l-1.24-.85c5.46-7.92,13-13.41,20.07-14.69l.26,1.48c-6.72,1.2-13.86,6.46-19.09,14.06" transform="translate(-30.92 -45.99)"/><path class="cls-2" d="M363,466.1a13.94,13.94,0,0,1-7-1.8c-4.61-2.67-7.33-7.91-7.66-14.78S350,435.23,354,428.3l1.3.75c-3.87,6.69-5.82,13.93-5.51,20.39s2.75,11.16,6.91,13.56a12.92,12.92,0,0,0,8.6,1.42l.23,1.49a17.26,17.26,0,0,1-2.56.19" transform="translate(-30.92 -45.99)"/><path class="cls-2" d="M380,458.3l-1-1.1c.92-.86,1.82-1.78,2.68-2.74l1.12,1c-.89,1-1.82,2-2.78,2.84" transform="translate(-30.92 -45.99)"/><path class="cls-2" d="M392.44,437.91,391,437.5c2.49-8.75,1.59-16.81-2.41-21.56l1.15-1c4.32,5.14,5.33,13.72,2.7,22.94" transform="translate(-30.92 -45.99)"/><polygon class="cls-2" points="302.1 364.57 299.27 362.03 288.06 358.89 298.34 355.39 302.26 356.79 301.75 358.21 298.32 356.98 293.12 358.75 300.01 360.68 303.1 363.45 302.1 364.57"/><polygon class="cls-2" points="334.05 394.81 329.83 392.65 330.85 389.74 305.77 365.75 306.81 364.67 332.58 389.32 331.67 391.91 333.49 392.84 336.08 388.59 334.39 387.13 332.69 387.85 305.77 362.38 306.8 361.3 333.01 386.08 334.67 385.38 338.02 388.29 334.05 394.81"/><rect class="cls-2" x="346.2" y="349.88" width="1.5" height="44.57" transform="translate(-150.19 529.92) rotate(-70.61)"/><polygon class="cls-2" points="360.94 346.11 359.52 345.6 360.2 343.7 345.79 337.47 346.38 336.1 362.08 342.88 360.94 346.11"/><rect class="cls-2" x="305.08" y="413.43" width="28.84" height="1.5" transform="translate(-119.67 41.15) rotate(-13.66)"/><rect class="cls-2" x="338.01" y="403.83" width="32.28" height="1.5" transform="translate(-132.83 73.77) rotate(-16.82)"/><path class="cls-2" d="M291.41,364.77h-4V362.2c-1.57-.2-3.57-.7-3.57-2,0-2,4.79-2.13,5.75-2.13s5.76.11,5.76,2.13c0,1.41-2.38,1.88-3.95,2Zm-2.49-1.5h1v-2.42l.71,0a8.43,8.43,0,0,0,3-.6,10.54,10.54,0,0,0-4-.63,10.32,10.32,0,0,0-4,.63,8,8,0,0,0,2.67.57l.69.06Z" transform="translate(-30.92 -45.99)"/><path class="cls-2" d="M181.63,264.71c-.49,0-1,0-1.48,0a19.53,19.53,0,0,1-5.08-.9c-1.68-.59-2.51-1.35-2.45-2.27.08-1.34,2-1.91,3.81-2.14l1.07-18.08a3.25,3.25,0,0,1,3.43-3.05l1.57.1a3.22,3.22,0,0,1,2.23,1.08,3.17,3.17,0,0,1,.81,2.35l-1.06,18.07c1.77.45,3.6,1.24,3.52,2.58-.05.92-1,1.58-2.7,2a17.32,17.32,0,0,1-3.67.35m-7.49-3.12c.33.42,2.32,1.35,6.1,1.58s5.87-.47,6.24-.86a6.2,6.2,0,0,0-2.95-1.17l-.63-.13,1.15-19.35a1.76,1.76,0,0,0-1.64-1.85l-1.57-.09a1.7,1.7,0,0,0-1.26.44,1.75,1.75,0,0,0-.59,1.2l-1.14,19.35-.64.06a5.94,5.94,0,0,0-3.07.82" transform="translate(-30.92 -45.99)"/><path class="cls-2" d="M198.16,277.9a2.16,2.16,0,0,1-.71-.12l-20.62-7.71V264h1.5V269L198,276.37a.5.5,0,0,0,.48-.06.52.52,0,0,0,.23-.43v-1.19a.52.52,0,0,0-.36-.5l-17.46-6.08V264h1.5v3.09l16.46,5.72a2,2,0,0,1,1.36,1.92v1.19a2,2,0,0,1-2,2" transform="translate(-30.92 -45.99)"/><path class="cls-2" d="M198.47,281.2h-.23c-1.44-.14-2.54-1.65-2.87-3.94l1.48-.22c.22,1.5.85,2.6,1.54,2.67.45.05,1-.33,1.43-1a7.89,7.89,0,0,0,1.09-3.38,7.77,7.77,0,0,0-.39-3.53c-.31-.79-.75-1.26-1.19-1.31-.66-.05-1.49.83-2,2.18l-1.4-.53c.79-2.08,2.15-3.29,3.55-3.14a3.12,3.12,0,0,1,2.43,2.24,10,10,0,0,1-.83,8.29,3.24,3.24,0,0,1-2.61,1.72" transform="translate(-30.92 -45.99)"/><path class="cls-2" d="M263.17,221l-1.05,0c-.58,0-5.64-.39-5.52-2.47,0-.86,1-1.44,2.7-1.69l.74-12.56a2.51,2.51,0,0,1,2.65-2.35l1.11.06a2.5,2.5,0,0,1,2.35,2.65l-.74,12.56c1.68.46,2.53,1.14,2.48,2s-.75,1.29-2.08,1.58a12.27,12.27,0,0,1-2.64.25m-4.88-2.39a12.66,12.66,0,0,0,7.91.47,5.5,5.5,0,0,0-1.73-.59l-.63-.14.82-13.82a1,1,0,0,0-.26-.73,1,1,0,0,0-.69-.34l-1.11-.07a1,1,0,0,0-.73.26,1,1,0,0,0-.33.69l-.82,13.83-.64.06a5.71,5.71,0,0,0-1.79.38" transform="translate(-30.92 -45.99)"/><path class="cls-2" d="M279.72,241.71a2.16,2.16,0,0,1-.71-.12l-20.66-7.73,1.13-13.64,1.49.13-1,12.5,19.59,7.33a.53.53,0,0,0,.72-.49V238.5a.53.53,0,0,0-.36-.5l-17.51-6.1,1.14-11.69,1.49.15-1,10.51,16.41,5.71a2,2,0,0,1,1.36,1.92v1.19a2,2,0,0,1-.88,1.66,2,2,0,0,1-1.15.36" transform="translate(-30.92 -45.99)"/><path class="cls-2" d="M280,245h-.23c-1.44-.14-2.54-1.65-2.88-3.94l1.49-.22c.22,1.5.85,2.6,1.54,2.67.46.05,1-.34,1.43-1a7.75,7.75,0,0,0,1.08-3.38c.27-2.65-.61-4.74-1.58-4.84-.67-.06-1.48.83-2,2.18l-1.41-.53c.79-2.08,2.16-3.29,3.55-3.14,2,.2,3.28,3,2.93,6.48a9.32,9.32,0,0,1-1.32,4A3.24,3.24,0,0,1,280,245" transform="translate(-30.92 -45.99)"/><path class="cls-2" d="M213.64,242.77c-6.36,0-11.35-2.64-11.35-6s5-6,11.35-6,11.36,2.63,11.36,6a3.67,3.67,0,0,1-.62,2l-1.26-.81a2.2,2.2,0,0,0,.38-1.19c0-2.18-4-4.5-9.86-4.5s-9.85,2.32-9.85,4.5,4,4.5,9.85,4.5H214l.34,0v0h.19v0l.78.73c0,.52-.24.68-.79.73h-.91" transform="translate(-30.92 -45.99)"/><path class="cls-2" d="M224.25,255.11a.76.76,0,0,1-.75-.87l.05-.26c-.88-1.88-7-9.38-10.07-13.09-4-4.93-4-4.93-3.64-5.48a.78.78,0,0,1,.9-.26c.6.22,9.92,2.45,16,3.91a.76.76,0,0,1,.57.85l-2.27,14a1,1,0,0,1,0,.74.88.88,0,0,1-.8.5m-11.91-18,2.3,2.82c5.19,6.34,7.91,9.8,9.27,11.8l1.85-11.39c-2.75-.65-9.82-2.33-13.42-3.23" transform="translate(-30.92 -45.99)"/><path class="cls-2" d="M245.77,227.55c-5.78,0-10.31-2.41-10.31-5.49s4.53-5.48,10.31-5.48,10.32,2.41,10.32,5.48a3.37,3.37,0,0,1-.57,1.85l-1.26-.81a1.9,1.9,0,0,0,.33-1c0-1.88-3.62-4-8.82-4s-8.81,2.1-8.81,4,3.62,4,8.81,4h.83v.09l.78.67c0,.52-.26.68-.79.72v0h-.82" transform="translate(-30.92 -45.99)"/><path class="cls-2" d="M255.34,238.68a.73.73,0,0,1-.57-.26.75.75,0,0,1-.17-.61l0-.2c-.82-1.71-6.33-8.44-9.06-11.77-3.68-4.5-3.68-4.5-3.29-5.05a.78.78,0,0,1,.9-.25c.56.2,9,2.21,14.46,3.52a.75.75,0,0,1,.57.85l-2,12.59a.92.92,0,0,1,0,.69.86.86,0,0,1-.79.49M244.79,222.5c.56.7,1.26,1.55,1.94,2.39,4.55,5.55,7,8.66,8.26,10.5l1.63-10c-2.83-.67-8.65-2.06-11.83-2.86" transform="translate(-30.92 -45.99)"/><rect class="cls-2" x="141.72" y="325.42" width="101.09" height="1.5" transform="translate(-170.93 461.68) rotate(-88.13)"/><polygon class="cls-2" points="163.73 224.56 162.23 224.56 162.23 207.9 185.14 196.6 185.81 197.95 163.73 208.83 163.73 224.56"/><rect class="cls-2" x="223.68" y="232.86" width="25.99" height="1.5" transform="translate(-106.24 72.52) rotate(-24.38)"/><rect class="cls-2" x="266.26" y="214.57" width="17.71" height="1.5" transform="translate(-97.05 94.48) rotate(-25.68)"/><rect class="cls-2" x="256.74" y="222.68" width="3.28" height="1.5" transform="translate(-101.85 268.19) rotate(-56.26)"/><rect class="cls-2" x="188.3" y="297.97" width="103.04" height="1.5" transform="translate(-127.36 69.21) rotate(-22.62)"/><rect class="cls-2" x="198.49" y="304.27" width="12.37" height="1.5" transform="matrix(0.93, -0.36, 0.36, 0.93, -127.21, 48.43)"/><rect class="cls-2" x="266.58" y="274.32" width="12.95" height="1.5" transform="translate(-118.99 88.32) rotate(-23.92)"/><rect class="cls-2" x="255" y="171.33" width="1.5" height="135.88"/><rect class="cls-2" x="260.29" y="171.33" width="1.5" height="135.58"/><path class="cls-2" d="M282.35,218.85l.11-7.07a4.6,4.6,0,0,1,4.58-4.51h8.27l.5,6.88a3.83,3.83,0,0,1-3.61,4.11ZM287,208.77a3.09,3.09,0,0,0-3.08,3l-.09,5.45,8.25-.49a2.34,2.34,0,0,0,2.19-2.51l-.4-5.49Z" transform="translate(-30.92 -45.99)"/><rect class="cls-2" x="304.45" y="204.7" width="1.5" height="23.32" transform="translate(-49.9 357.08) rotate(-65.27)"/><path class="cls-2" d="M317.66,229.27,311.18,225l10.9-14.84.09.06.16-.25,6.14,4Zm-4.34-4.67,4,2.62,9.07-12.89-3.72-2.4Z" transform="translate(-30.92 -45.99)"/><polygon class="cls-2" points="282.16 192.75 282.16 179.84 283.66 179.84 283.66 188.8 290.97 180.57 290.27 176.04 291.75 175.81 292.56 181.04 282.16 192.75"/><polygon class="cls-2" points="291 192.69 282.12 192.69 282.12 191.19 290.17 191.19 295.85 182.07 294.82 170.43 296.31 170.3 297.39 182.44 291 192.69"/><rect class="cls-2" x="324.36" y="224.99" width="1.5" height="5.06" transform="translate(-16.5 428.37) rotate(-73.45)"/><path class="cls-2" d="M332.42,229.44l-.59-1.38,33.79-14.45a2,2,0,0,0,1.13-1.25,2.11,2.11,0,0,0-2.84-2.61l-36.07,15.73-.6-1.38,36.07-15.72a3.61,3.61,0,0,1,2.91,6.61Z" transform="translate(-30.92 -45.99)"/><path class="cls-2" d="M344.86,234.29l-.64-1.36,32.84-15.31a2.34,2.34,0,0,0-.53-3.86L365,209.53l.51-1.41,11.65,4.26a3.88,3.88,0,0,1,2.23,3.48,3.83,3.83,0,0,1-1.41,3l-.16.09Z" transform="translate(-30.92 -45.99)"/><polygon class="cls-2" points="331.39 164.04 329.9 163.89 331.27 150.39 338.1 151.58 337.84 153.06 332.6 152.14 331.39 164.04"/><path class="cls-2" d="M341.2,219.23l-1.49-.15.57-5.79-.91-1.06a4.42,4.42,0,0,1,.59-6.39l.83-.61,21.78-8.67.56,1.4-21.69,8.62-.55.44a2.91,2.91,0,0,0-.39,4.23l1.34,1.54Z" transform="translate(-30.92 -45.99)"/><path class="cls-2" d="M348.32,202.73l-1.49-.12.69-8.51,11.57-5.1a5.48,5.48,0,0,1,4.91.25l6.05,3.42-.74,1.3-6.05-3.42a4,4,0,0,0-3.57-.18l-10.75,4.75Z" transform="translate(-30.92 -45.99)"/><path class="cls-2" d="M374.92,207a6.07,6.07,0,0,1-3.68-2,10.38,10.38,0,0,1-3-5.56c-.78-4.52,2-9.08,4.07-9.43l11.57-2h0l.26,1.48c-.24,0-.67.6-.9,2a16.61,16.61,0,0,0,.15,5.35c.75,4.34,2.45,6.78,3.15,6.67l.26,1.47h0l-11.57,2a1.55,1.55,0,0,1-.31,0m7.19-17.14-9.54,1.64c-.95.17-3.54,3.69-2.85,7.71a8.92,8.92,0,0,0,2.56,4.74,4.63,4.63,0,0,0,2.69,1.55l9.55-1.65a15.49,15.49,0,0,1-2.61-6.75,18.32,18.32,0,0,1-.15-5.86,7.67,7.67,0,0,1,.35-1.38" transform="translate(-30.92 -45.99)"/><path class="cls-2" d="M386.5,205c-2.12,0-3.9-3.89-4.59-7.91a18.32,18.32,0,0,1-.15-5.86c.4-2.42,1.38-3.08,2.12-3.21s1.89.17,3.08,2.32a18.23,18.23,0,0,1,1.81,5.57c.73,4.21.28,8.67-2,9.06a1.53,1.53,0,0,1-.3,0m-2.33-15.5h0c-.24,0-.67.6-.9,2a16.61,16.61,0,0,0,.15,5.35c.75,4.34,2.45,6.78,3.16,6.66s1.49-3,.74-7.33a16.89,16.89,0,0,0-1.64-5.1c-.65-1.16-1.22-1.56-1.48-1.56" transform="translate(-30.92 -45.99)"/><rect class="cls-2" x="377.43" y="205.79" width="1.5" height="9.08" transform="translate(-48.68 -10.28) rotate(-5.28)"/><polygon class="cls-2" points="360.39 343.31 356.76 207.16 296.33 181.5 296.91 180.12 358.23 206.15 361.89 343.27 360.39 343.31"/><rect class="cls-2" x="367.96" y="289.5" width="1.5" height="42.31" transform="translate(-87.82 491.19) rotate(-68.14)"/><rect class="cls-2" x="308.57" y="269.7" width="1.5" height="34.28" transform="translate(-102.98 421.11) rotate(-68.14)"/><path class="cls-2" d="M436.2,293.3,412,284.53,491.39,248l24.17,11.45Zm-18.94-9,18.88,6.84,74.55-31.78-19.31-9.16Z" transform="translate(-30.92 -45.99)"/><rect class="cls-2" x="432.54" y="273.3" width="1.5" height="23.05" transform="translate(-15.73 545.53) rotate(-69.58)"/><rect class="cls-2" x="441.51" y="269.25" width="1.5" height="23.2" transform="translate(-9.45 546.95) rotate(-68.98)"/><rect class="cls-2" x="450.79" y="265.06" width="1.5" height="23.35" transform="translate(-3.19 548.33) rotate(-68.35)"/><rect class="cls-2" x="460.41" y="260.73" width="1.5" height="23.49" transform="translate(3.03 549.6) rotate(-67.68)"/><rect class="cls-2" x="470.37" y="256.24" width="1.5" height="23.64" transform="translate(9.19 550.76) rotate(-66.97)"/><rect class="cls-2" x="480.7" y="251.59" width="1.5" height="23.78" transform="translate(15.25 551.78) rotate(-66.21)"/><rect class="cls-2" x="491.42" y="246.77" width="1.5" height="23.93" transform="translate(21.18 552.62) rotate(-65.41)"/><rect class="cls-2" x="425.35" y="272" width="83.95" height="1.5" transform="translate(-101.1 164.48) rotate(-23.66)"/><rect class="cls-2" x="417.91" y="268.95" width="84.24" height="1.5" transform="translate(-101.02 166.03) rotate(-24.17)"/><path class="cls-2" d="M414.26,285.35,388.55,276l78.81-39.43,26,12.31Zm-20.65-9.6,20.55,7.44L488.6,248.9l-21.22-10.06Z" transform="translate(-30.92 -45.99)"/><rect class="cls-2" x="409.71" y="263.94" width="1.5" height="24.77" transform="translate(-22.64 518.59) rotate(-69.58)"/><rect class="cls-2" x="418.61" y="259.57" width="1.5" height="24.96" transform="translate(-15.92 519.94) rotate(-68.98)"/><rect class="cls-2" x="427.83" y="255.04" width="1.5" height="25.16" transform="translate(-9.2 521.24) rotate(-68.35)"/><rect class="cls-2" x="437.39" y="250.35" width="1.5" height="25.35" transform="translate(-2.49 522.46) rotate(-67.68)"/><rect class="cls-2" x="447.31" y="245.49" width="1.5" height="25.54" transform="translate(4.18 523.58) rotate(-66.97)"/><rect class="cls-2" x="457.62" y="240.44" width="1.5" height="25.74" transform="translate(10.79 524.59) rotate(-66.21)"/><rect class="cls-2" x="468.32" y="235.2" width="1.5" height="25.93" transform="translate(17.31 525.45) rotate(-65.41)"/><rect class="cls-2" x="402.29" y="262.53" width="84.79" height="1.5" transform="translate(-100.85 170.08) rotate(-25.39)"/><rect class="cls-2" x="394.28" y="259.24" width="85.07" height="1.5" transform="translate(-100.66 171.52) rotate(-25.97)"/><path class="cls-2" d="M390.69,276.82l-27.38-9.91,77.87-42.7,28,13.27Zm-22.54-10.29,22.42,8.12,74.05-37.12-23.37-11.08Z" transform="translate(-30.92 -45.99)"/><rect class="cls-2" x="385.14" y="253.83" width="1.5" height="26.7" transform="translate(-30.05 489.62) rotate(-69.58)"/><rect class="cls-2" x="393.93" y="249.1" width="1.5" height="26.94" transform="translate(-22.89 490.83) rotate(-68.98)"/><rect class="cls-2" x="403.05" y="244.19" width="1.5" height="27.18" transform="translate(-15.7 491.99) rotate(-68.35)"/><rect class="cls-2" x="412.52" y="239.1" width="1.5" height="27.43" transform="translate(-8.48 493.11) rotate(-67.68)"/><rect class="cls-2" x="422.36" y="233.81" width="1.5" height="27.69" transform="translate(-1.25 494.17) rotate(-66.97)"/><rect class="cls-2" x="432.6" y="228.31" width="1.5" height="27.94" transform="translate(5.94 495.1) rotate(-66.21)"/><rect class="cls-2" x="443.25" y="222.6" width="1.5" height="28.2" transform="translate(13.11 495.96) rotate(-65.41)"/><rect class="cls-2" x="377.42" y="252.29" width="85.59" height="1.5" transform="translate(-100.17 174.93) rotate(-27.3)"/><rect class="cls-2" x="368.77" y="248.72" width="85.86" height="1.5" transform="translate(-99.86 176.78) rotate(-28.04)"/><path class="cls-2" d="M365.33,267.64,336.07,257l76.49-46.4L442.9,225Zm-24.65-11.06,24.48,8.87,73.35-40.3-25.83-12.24Z" transform="translate(-30.92 -45.99)"/><rect class="cls-2" x="358.62" y="242.88" width="1.5" height="28.85" transform="translate(-38.07 458.33) rotate(-69.58)"/><rect class="cls-2" x="367.26" y="237.74" width="1.5" height="29.16" transform="translate(-30.43 459.36) rotate(-68.98)"/><rect class="cls-2" x="376.23" y="232.4" width="1.5" height="29.47" transform="translate(-22.73 460.34) rotate(-68.35)"/><rect class="cls-2" x="385.56" y="226.86" width="1.5" height="29.79" transform="translate(-14.96 461.31) rotate(-67.68)"/><rect class="cls-2" x="395.27" y="221.08" width="1.5" height="30.11" transform="translate(-7.15 462.22) rotate(-66.97)"/><rect class="cls-2" x="405.39" y="215.07" width="1.5" height="30.44" transform="translate(0.69 463.06) rotate(-66.21)"/><rect class="cls-2" x="415.94" y="208.81" width="1.5" height="30.77" transform="translate(8.52 463.82) rotate(-65.41)"/><rect class="cls-2" x="350.52" y="241.18" width="86.36" height="1.5" transform="translate(-99.03 179.96) rotate(-29.59)"/><rect class="cls-2" x="341.13" y="237.29" width="86.62" height="1.5" transform="translate(-98.53 181.49) rotate(-30.43)"/><path class="cls-2" d="M513.78,260.23,489.7,248.79l107.06-49.26,22.7,15.64Zm-19.36-11.42,19.4,9.22,101.51-43.28-18.77-12.92Z" transform="translate(-30.92 -45.99)"/><rect class="cls-2" x="512.65" y="237.23" width="1.5" height="24.19" transform="translate(31.87 553.6) rotate(-63.76)"/><rect class="cls-2" x="524.61" y="231.85" width="1.5" height="24.34" transform="translate(37.25 553.74) rotate(-62.8)"/><rect class="cls-2" x="537.06" y="226.27" width="1.5" height="24.48" transform="translate(42.31 553.46) rotate(-61.76)"/><rect class="cls-2" x="550.02" y="220.45" width="1.5" height="24.62" transform="translate(47.03 552.78) rotate(-60.65)"/><rect class="cls-2" x="563.53" y="214.39" width="1.5" height="24.76" transform="translate(51.32 551.55) rotate(-59.46)"/><rect class="cls-2" x="577.63" y="208.07" width="1.5" height="24.9" transform="translate(55.14 549.72) rotate(-58.18)"/><rect class="cls-2" x="592.34" y="201.48" width="1.5" height="25.04" transform="translate(58.36 547.12) rotate(-56.8)"/><rect class="cls-2" x="501.69" y="232.15" width="113.48" height="1.5" transform="translate(-77.44 197.7) rotate(-23.66)"/><rect class="cls-2" x="494.11" y="228" width="114.34" height="1.5" transform="translate(-76.26 199.44) rotate(-24.14)"/><path class="cls-2" d="M491.63,249.7l-25.87-12.29,107.73-53.9,24.77,17.06Zm-21.31-12.34,21.32,10.13,102.59-47.26-20.91-14.4Z" transform="translate(-30.92 -45.99)"/><rect class="cls-2" x="489.58" y="224.8" width="1.5" height="26.3" transform="translate(29.2 526.57) rotate(-63.76)"/><rect class="cls-2" x="501.58" y="218.93" width="1.5" height="26.5" transform="translate(35.26 526.8) rotate(-62.79)"/><rect class="cls-2" x="514.1" y="212.82" width="1.5" height="26.7" transform="translate(41.08 526.73) rotate(-61.76)"/><rect class="cls-2" x="527.15" y="206.45" width="1.5" height="26.9" transform="translate(46.57 526.27) rotate(-60.65)"/><rect class="cls-2" x="540.78" y="199.79" width="1.5" height="27.11" transform="translate(51.71 525.38) rotate(-59.46)"/><rect class="cls-2" x="555.03" y="192.84" width="1.5" height="27.31" transform="translate(56.37 523.89) rotate(-58.18)"/><rect class="cls-2" x="569.93" y="185.57" width="1.5" height="27.53" transform="translate(60.48 521.72) rotate(-56.8)"/><rect class="cls-2" x="478.08" y="219.21" width="116.08" height="1.5" transform="translate(-73.45 205.1) rotate(-25.39)"/><rect class="cls-2" x="469.81" y="214.67" width="116.98" height="1.5" transform="translate(-71.93 206.74) rotate(-25.93)"/><path class="cls-2" d="M467.59,238.28,439.69,225l108-59.24,27.19,18.72Zm-23.51-13.39,23.49,11.17L571,184.22l-23.38-16.1Z" transform="translate(-30.92 -45.99)"/><rect class="cls-2" x="464.45" y="211.22" width="1.5" height="28.69" transform="translate(26.29 497.12) rotate(-63.76)"/><rect class="cls-2" x="476.46" y="204.79" width="1.5" height="28.96" transform="translate(33.12 497.47) rotate(-62.8)"/><rect class="cls-2" x="489" y="198.07" width="1.5" height="29.23" transform="translate(39.73 497.52) rotate(-61.76)"/><rect class="cls-2" x="502.1" y="191.06" width="1.5" height="29.51" transform="translate(46.09 497.28) rotate(-60.65)"/><rect class="cls-2" x="515.81" y="183.72" width="1.5" height="29.8" transform="translate(52.11 496.62) rotate(-59.46)"/><rect class="cls-2" x="530.18" y="176.03" width="1.5" height="30.1" transform="translate(57.72 495.48) rotate(-58.18)"/><rect class="cls-2" x="545.24" y="167.97" width="1.5" height="30.41" transform="translate(62.84 493.75) rotate(-56.8)"/><rect class="cls-2" x="452.29" y="205.04" width="118.81" height="1.5" transform="translate(-68.34 211.29) rotate(-27.27)"/><rect class="cls-2" x="443.22" y="200.04" width="119.76" height="1.5" transform="translate(-66.26 214.03) rotate(-28.04)"/><path class="cls-2" d="M441.41,225.84l-30.23-14.36L519.06,146l30,20.66Zm-26-14.58,26,12.34,103.92-57.09L519,148.42Z" transform="translate(-30.92 -45.99)"/><rect class="cls-2" x="436.99" y="196.32" width="1.5" height="31.42" transform="translate(23.11 464.94) rotate(-63.76)"/><rect class="cls-2" x="448.94" y="189.23" width="1.5" height="31.78" transform="translate(30.75 465.3) rotate(-62.79)"/><rect class="cls-2" x="461.45" y="181.82" width="1.5" height="32.15" transform="translate(38.25 465.46) rotate(-61.76)"/><rect class="cls-2" x="474.55" y="174.06" width="1.5" height="32.53" transform="translate(45.54 465.36) rotate(-60.65)"/><rect class="cls-2" x="488.29" y="165.92" width="1.5" height="32.93" transform="translate(52.56 464.93) rotate(-59.46)"/><rect class="cls-2" x="502.72" y="157.38" width="1.5" height="33.33" transform="translate(59.21 464.09) rotate(-58.18)"/><rect class="cls-2" x="517.88" y="148.4" width="1.5" height="33.76" transform="matrix(0.55, -0.84, 0.84, 0.55, 65.44, 462.77)"/><rect class="cls-2" x="423.98" y="189.42" width="121.7" height="1.5" transform="translate(-61.64 217.91) rotate(-29.56)"/><rect class="cls-2" x="413.99" y="183.91" width="122.72" height="1.5" transform="translate(-58.94 220.35) rotate(-30.45)"/><path class="cls-2" d="M618.21,215.7l-22.62-15.63,153.24-70.5,18.08,22.73Zm-18.6-15.28,18.83,13,145.27-61.94L748.24,132Z" transform="translate(-30.92 -45.99)"/><rect class="cls-2" x="621.77" y="188.29" width="1.5" height="25.33" transform="translate(62.49 539.61) rotate(-53.91)"/><rect class="cls-2" x="638.52" y="180.78" width="1.5" height="25.49" transform="translate(63.49 533.85) rotate(-52.18)"/><rect class="cls-2" x="656.08" y="172.9" width="1.5" height="25.67" transform="translate(63.48 526.52) rotate(-50.31)"/><rect class="cls-2" x="674.5" y="164.64" width="1.5" height="25.87" transform="translate(62.38 517.36) rotate(-48.27)"/><rect class="cls-2" x="693.86" y="155.94" width="1.5" height="26.08" transform="translate(60.06 505.96) rotate(-46.07)"/><rect class="cls-2" x="714.22" y="146.79" width="1.5" height="26.33" transform="translate(56.42 491.91) rotate(-43.67)"/><rect class="cls-2" x="735.67" y="137.13" width="1.5" height="26.63" transform="translate(51.39 474.69) rotate(-41.06)"/><rect class="cls-2" x="604.56" y="176.55" width="161.92" height="1.5" transform="translate(-44.44 244.04) rotate(-23.66)"/><rect class="cls-2" x="597.16" y="170.58" width="164.09" height="1.5" transform="translate(-41.59 246.75) rotate(-24.14)"/><path class="cls-2" d="M597.09,201.11,572.4,184.05,729.61,105.4l20.17,25.36Zm-20.77-16.78,21,14.49L746.63,130l-17.58-22.1Z" transform="translate(-30.92 -45.99)"/><rect class="cls-2" x="599.84" y="170.98" width="1.5" height="27.96" transform="translate(66.41 515.32) rotate(-53.91)"/><rect class="cls-2" x="616.91" y="162.65" width="1.5" height="28.21" transform="translate(68.37 510.28) rotate(-52.18)"/><rect class="cls-2" x="634.85" y="153.89" width="1.5" height="28.48" transform="translate(69.37 503.83) rotate(-50.31)"/><rect class="cls-2" x="653.73" y="144.66" width="1.5" height="28.77" transform="translate(69.25 495.66) rotate(-48.27)"/><rect class="cls-2" x="673.62" y="134.94" width="1.5" height="29.09" transform="translate(67.9 485.41) rotate(-46.07)"/><rect class="cls-2" x="694.6" y="124.67" width="1.5" height="29.46" transform="translate(65.17 472.66) rotate(-43.66)"/><rect class="cls-2" x="716.77" y="113.8" width="1.5" height="29.88" transform="translate(60.99 456.94) rotate(-41.06)"/><rect class="cls-2" x="581.4" y="157.82" width="168.62" height="1.5" transform="translate(-34.62 254.73) rotate(-25.39)"/><rect class="cls-2" x="573.19" y="151.16" width="171.01" height="1.5" transform="translate(-31.02 257.36) rotate(-25.93)"/><path class="cls-2" d="M573.83,185l-27.09-18.72L707.81,78l22.69,28.53Zm-23.29-18.52L574,182.72,727.4,105.84,707.3,80.56Z" transform="translate(-30.92 -45.99)"/><rect class="cls-2" x="575.56" y="151.75" width="1.5" height="31.03" transform="translate(70.73 488.42) rotate(-53.91)"/><rect class="cls-2" x="592.93" y="142.44" width="1.5" height="31.38" transform="translate(73.81 484.15) rotate(-52.18)"/><rect class="cls-2" x="611.24" y="132.64" width="1.5" height="31.77" transform="translate(75.91 478.57) rotate(-50.31)"/><rect class="cls-2" x="630.56" y="122.29" width="1.5" height="32.19" transform="translate(76.93 471.46) rotate(-48.27)"/><rect class="cls-2" x="650.97" y="111.34" width="1.5" height="32.65" transform="translate(76.67 462.41) rotate(-46.06)"/><rect class="cls-2" x="672.58" y="99.74" width="1.5" height="33.17" transform="translate(75.02 451.07) rotate(-43.66)"/><rect class="cls-2" x="695.48" y="87.41" width="1.5" height="33.76" transform="translate(71.81 436.94) rotate(-41.06)"/><rect class="cls-2" x="555.62" y="136.88" width="176.04" height="1.5" transform="translate(-22.45 264.17) rotate(-27.27)"/><rect class="cls-2" x="546.42" y="129.4" width="178.7" height="1.5" transform="translate(-17.49 268.1) rotate(-28.04)"/><path class="cls-2" d="M548.08,167.25l-29.91-20.67L682.9,46.66,708.65,79Zm-26.24-20.56L548.2,164.9,705.61,78.43,682.43,49.28Z" transform="translate(-30.92 -45.99)"/><rect class="cls-2" x="548.54" y="130.25" width="1.5" height="34.62" transform="translate(75.55 458.5) rotate(-53.91)"/><rect class="cls-2" x="566.17" y="119.8" width="1.5" height="35.13" transform="translate(79.86 454.97) rotate(-52.18)"/><rect class="cls-2" x="584.81" y="108.75" width="1.5" height="35.67" transform="translate(83.25 450.31) rotate(-50.31)"/><rect class="cls-2" x="604.54" y="97.05" width="1.5" height="36.26" transform="translate(85.55 444.28) rotate(-48.27)"/><rect class="cls-2" x="625.46" y="84.63" width="1.5" height="36.91" transform="translate(86.57 436.51) rotate(-46.06)"/><rect class="cls-2" x="647.68" y="71.41" width="1.5" height="37.64" transform="translate(86.14 426.66) rotate(-43.66)"/><rect class="cls-2" x="671.32" y="57.33" width="1.5" height="38.46" transform="translate(84.09 414.25) rotate(-41.06)"/><rect class="cls-2" x="526.7" y="113.3" width="184.34" height="1.5" transform="translate(-6.64 274.13) rotate(-29.56)"/><rect class="cls-2" x="516.33" y="104.83" width="187.35" height="1.5" transform="translate(-0.38 277.48) rotate(-30.43)"/><path class="cls-2" d="M436.22,293.84,334.91,257.16,683,46,767.72,152.5Zm-94.39-37.37,94.3,34.14L762.92,151.28,682.32,49.93Z" transform="translate(-30.92 -45.99)"/><rect class="cls-2" x="420.78" y="202.74" width="3" height="107.55" transform="translate(-6.31 503.74) rotate(-67.68)"/><rect class="cls-2" x="509.58" y="152.81" width="3" height="115.26" transform="translate(46.25 506.8) rotate(-60.65)"/><rect class="cls-2" x="636.83" y="82.24" width="3" height="124.8" transform="translate(74.61 478.79) rotate(-48.27)"/><path class="cls-2" d="M187.83,377.1l-4.07-1,4-1.72,2.95.74.05-1.45-.87-.22.89-.38.06-1.61-3.25,1.42-5.29-1.33,4.15-1.86,4.41,1.14.05-1.46-2.39-.61,2.45-1.1.11-2.9-3-.79,3.1-1.43.09-2.5-.92.42-5.8-1.57,4.78-2.28,2,.56,0-1.46-.14,0,.14-.07.06-1.64-2.33,1.12-6.24-1.73,5-2.48,3.63,1,0-1.46-1.79-.51,1.84-.91.06-1.66-4,2L182,347.73l4.33-2.22,5.35,1.57.1-2.94-1.76-.52,1.82-.92L192,339l-5.62-1.7,5.79-3.08.06-1.69-.24.13-7.37-2.3,6.08-3.36,1.71.55,0-1.49h0l0,0,.06-1.71-2,1.11-6.85-2.2,4.8-2.75,4.16,1.38.11-3-35.31-11.68L30.92,389.46l93.73,17.44,65.86-27.8.12-3.18Zm-2.43-3.28-4,1.72-5.21-1.27,3.93-1.77Zm-134,11.71,2-1.26,6.17,1.22-2,1.22Zm4.32,2.27L53.75,389l-6-1.15,1.9-1.18Zm-.55-4.62,1.26-.79,6.23,1.25-1.27.76Zm13.26-1.26,1.38-.83,6,1.23-1.4.81Zm2.3,3.34-1.27.73-5.9-1.16,1.26-.75Zm26.56-6.71,2-1.12,6,1.3-2,1.09Zm4,2.3-2.66,1.41L92.75,381l2.62-1.45Zm.79-5,2.16-1.19,6.08,1.35-2.18,1.16Zm4-2.23,3.07-1.69,6.17,1.4L112.23,375Zm13.34-.81,3.27-1.74,5.92,1.38-3.31,1.7Zm3.92,2.34-3.14,1.61-5.79-1.29,3.1-1.64Zm1.25-5.09,2.5-1.33,6,1.43-2.52,1.29Zm6.28-3.34,2.69-1.43,6.12,1.49L137,368.21Zm4.57-2.43,3.84-2,6.21,1.55-3.89,2Zm1,6.67,5,1.2L139,373.45l-5-1.17Zm3.88-2,2.69-1.37,5.14,1.25-2.71,1.34Zm4.62-2.36,3.87-2,5.22,1.3-3.91,1.93Zm2.45-3.79-6.26-1.57,4-2.15,6.31,1.62Zm-.36-4.71,3.38-1.8,6.39,1.68-3.42,1.75Zm-2.67-5.64,3.57-2,6.83,1.84-3.6,1.92Zm4,3.3-3.4,1.8-6.69-1.71,3.37-1.86Zm-5.26,2.79L139,360.76l-6.59-1.65,4-2.21Zm-5.93,3.16-3.85,2-6.5-1.58,3.81-2.1Zm-5.73,3.05-2.7,1.44-6.43-1.54,2.68-1.48ZM125,368.26l-2.51,1.34-6.31-1.47,2.49-1.38Zm-4.42,2.35-3.28,1.74L111,370.94l3.24-1.79Zm-8,5.93,5.73,1.27-2.19,1.13-5.71-1.25Zm4,4.65,4.71,1-2,1-4.7-1Zm2.94-1.5,2.17-1.12,4.8,1.07-2.2,1.09Zm4.15-2.13,3.12-1.59,4.88,1.11-3.16,1.56Zm5.08-2.6,3.29-1.68,5,1.16-3.33,1.64Zm10.49,0,5.62,1.3-3.35,1.61-5.58-1.27Zm2-1,2.5-1.24,5.68,1.35-2.51,1.2Zm6.48-3.21,2.69-1.33,5.78,1.41-2.7,1.3Zm4.66-2.31,3.89-1.92,5.87,1.46-3.93,1.88ZM156,365l-5.26-1.32,4.07-2.08,5.3,1.36Zm.71-4.37,3.4-1.74,5.38,1.41-3.43,1.7Zm3-4.1-6.45-1.69,3.58-1.91,6.49,1.75Zm-3.1-5.14-6.88-1.85,4.67-2.58,6.93,1.92Zm-2.45-6-6.34-1.75,4.88-2.8,6.4,1.82Zm-1.78,1L147.72,349l-6.23-1.68,4.63-2.65ZM145.93,350l-3.58,2-6.15-1.62,3.54-2Zm-6.35,3.51-3.38,1.87-6-1.55,3.34-1.92Zm-5.2,2.87-4,2.22-6-1.49,4-2.27Zm-5.85,3.23-3.81,2.11-5.85-1.43,3.77-2.16Zm-5.65,3.12-2.7,1.49-5.77-1.38,2.67-1.53Zm-6.38,3.52L114,367.63l-5.66-1.32,2.49-1.42Zm-4.37,2.41-3.25,1.8-5.56-1.26,3.21-1.84ZM107,371.48l-3.09,1.7L98.47,372l3-1.75Zm-5,2.74-2.17,1.19-5.39-1.17L96.64,373Zm-5,2.73-2,1.13L89.77,377l2-1.15Zm-3.92,2.17-2.63,1.46-5.21-1.09L87.93,378Zm-2.32,3,5.82,1.22-2.52,1.34-5.78-1.19Zm8.06,1.69,5.47,1.14-2.53,1.3-5.44-1.11Zm2-1,2.64-1.4,5.56,1.18-2.68,1.38Zm4.58-2.44,2-1.08,5.64,1.23-2.06,1.05Zm7.08,3,4.65,1-2.7,1.34-4.61-1Zm2.21,3.83,5.23,1.09-2.56,1.22-5.2-1.06Zm2.05-1,2.68-1.33,5.31,1.14-2.71,1.29Zm4.72-2.34,2-1,5.38,1.17-2.06,1Zm5-2.49,2.18-1.08,5.46,1.21-2.2,1.05Zm4.2-2.08,3.14-1.56,5.54,1.26-3.18,1.52Zm5.74,2.72,5.1,1.13-2.2,1-5.09-1.1Zm2.07-1,3.15-1.51,5.18,1.18L143.71,382Zm5.21-2.49,3.33-1.6,5.27,1.23L149,379.57Zm5.38-2.58,2.49-1.19,5.33,1.27-2.51,1.16Zm6.56-3.14,2.69-1.29,5.43,1.33L161.13,374Zm4.71-2.25,3.9-1.87,5.52,1.38-3.95,1.82Zm3.69-3.39-5.91-1.48,4.1-2,5.95,1.52Zm.14-4.47,3.41-1.69,6,1.58-3.44,1.65ZM163,357.41l3.6-1.84,5.47,1.48-3.63,1.79Zm2.21-3.69L158.71,352l4.7-2.5,6.59,1.83Zm-2.07-5.8-7-1.93,4.92-2.72,7,2Zm-2.29-6.2-6.43-1.83,4.29-2.45,6.48,1.89Zm1.29-6.25,4.57-2.62,6.6,2-4.61,2.54Zm3.15-4.54-7.82-2.36,5.68-3.39,7.89,2.45Zm-1.7,1-4.6,2.64-7.72-2.26,4.55-2.73Zm-8,4.6L151.29,339l-7.58-2.16,4.27-2.55Zm-6,3.47-4.9,2.82-7.47-2.07,4.84-2.89Zm-6.64,3.81-4.65,2.67-7.34-2,4.58-2.74Zm-6.39,3.67L133,349.51l-7.25-1.91,3.51-2.1Zm-6.26,3.6L126.92,353l-7.13-1.83,3.31-2ZM125.15,354l-4,2.29-7-1.76,3.93-2.35Zm-5.76,3.31-3.79,2.17-6.91-1.68,3.73-2.23Zm-5.57,3.2-2.69,1.54-6.83-1.62,2.66-1.6Zm-6.28,3.6L105,365.55,98.34,364l2.48-1.48Zm-4.31,2.47L100,368.43l-6.59-1.49,3.17-1.9Zm-5,2.89-3.06,1.76-6.48-1.44,3-1.8Zm-4.88,2.8-2.16,1.24-6.39-1.39,2.13-1.28Zm-4.87,2.8-2,1.16-6.29-1.34,2-1.19Zm-3.86,2.22L82,378.78l-6.19-1.29L78.35,376Zm-4.46,2.55-2.46,1.42L71.58,380,74,378.56Zm-6.06,6.1,5,1-1.26.7-5-1Zm3.73-2.14,1.38-.79,5.08,1-1.4.77ZM81,382l2.45-1.41,5.16,1.08L86.16,383Zm5.43,2.55,5.74,1.18-1.39.74-5.73-1.15ZM89.15,389,94.42,390l-1.24.64-5.27-1Zm3.93-2.09,1.38-.73,5.39,1.1-1.39.71Zm4.84,3.85,4.39.88-1.24.61-4.38-.86Zm4-2.07,1.36-.69,4.49.91-1.37.68Zm3.38-1.72,2.51-1.29,4.57.95-2.55,1.26Zm4.8,2.42,5.15,1-1.36.65-5.15-1Zm1.92,4.21,4.69.94-1.21.56-4.68-.92Zm4.25-2,1.34-.64,4.79,1-1.35.62Zm4.06,3.7,3.85.77-1.19.53-3.85-.75Zm-.61-5.35,2.55-1.22,4.86,1-2.57,1.19Zm4.65-2.23,2.69-1.29,5,1.06-2.73,1.26Zm4.78-2.29,2.05-1,5,1.09-2.06.95Zm6.43,2.82,4.09.87L137,390.28l-4.06-.85Zm2.14-1,2-.94,4.14.9-2,.92ZM143,384.8l2.18-1,4.23.94-2.2,1Zm4.3-2,3.17-1.46,4.3,1-3.2,1.44Zm5.28-2.44,3.34-1.54,4.37,1-3.37,1.51Zm5.43-2.51,2.49-1.15,4.43,1.06-2.5,1.12Zm6.65-3.07,2.68-1.24,4.52,1.1-2.69,1.21Zm4.75-2.19,3.92-1.82,4.6,1.15-4,1.78ZM171.9,369l-5.56-1.39,4.12-2,5.6,1.43Zm.55-4.32,3.42-1.63,5.67,1.49-3.44,1.59Zm-1.82-5.25,3.61-1.79,6.11,1.64L176.71,361Zm3.41-3.32-5.51-1.48,4.73-2.42,5.56,1.53Zm-2.17-5.76-6.63-1.84,4.95-2.64,6.7,1.91Zm-1.9-6-7.07-2,4.31-2.38,7.11,2.08Zm.75-6.33,4.6-2.54,7.23,2.18-4.63,2.46Zm4.38-4.1-6.65-2,5.73-3.28,6.71,2.08Zm-2.33-7.22-7.93-2.47,6-3.59,8,2.58Zm-9.83-3.06L154.67,321l5.94-3.71L169,320Zm-1.64,1L155.6,328l-8.15-2.46,5.62-3.51ZM154,329l-4.57,2.73-8-2.36,4.51-2.82Zm-7.9,4.72-4.29,2.57L133.85,334l4.24-2.65Zm-6,3.57-4.85,2.91L127.45,338l4.78-3Zm-6.54,3.91L129,344l-7.67-2.07,4.53-2.83ZM127.26,345l-3.53,2.11-7.58-2,3.48-2.17Zm-6.16,3.69-3.33,2-7.46-1.91,3.28-2.05Zm-5,3-4,2.36-7.34-1.84,3.88-2.42Zm-5.67,3.39-3.74,2.24-7.24-1.77,3.68-2.3Zm-5.47,3.27-2.68,1.6-7.15-1.7,2.64-1.65ZM98.76,362l-2.49,1.49-7-1.63,2.46-1.54Zm-4.24,2.54-3.18,1.9-6.91-1.57,3.13-1.95Zm-4.94,2.95-3,1.81-6.8-1.51,3-1.86Zm-4.78,2.87-2.15,1.28-6.72-1.47L78,368.87ZM80,373.24l-2,1.2L71.4,373l2-1.24Zm-3.79,2.26-2.57,1.55-6.52-1.37,2.53-1.58Zm-4.36,2.62-2.44,1.45L63,378.26l2.39-1.5Zm-4.23,2.53-1.4.83-6.35-1.27,1.39-.86Zm-5.92,5.26,5.84,1.15-2.08,1.19-5.8-1.12ZM67,390l4.82.93-2,1.09-4.79-.91Zm1.87-1.08L71,387.73l4.9,1-2.1,1.16Zm5.2,2.44,5.48,1.06-2,1.06-5.45-1ZM76,390.28l2.08-1.15,5.56,1.1-2.11,1.12Zm4-2.21,1.25-.69,5.62,1.13-1.25.67Zm5.92,2.61,5.21,1L89,392.79l-5.18-1Zm4.57,3.84,4.26.82-2,1-4.23-.8Zm2-1,2.12-1.08,4.33.85-2.14,1.06Zm4.59,2.33,4.92.95-2,1-4.9-.93Zm2.09-1,2.13-1.05,5,1-2.15,1Zm4.21-2.08,1.22-.61,5,1-1.23.58Zm5.3,2.48,4.64.91-2.17,1-4.6-.89Zm3.93,3.63,3.74.72-2,.92-3.72-.7Zm2.2-1,2.14-1,3.81.75-2.17,1Zm4,2.21,4.4.85-2,.89-4.39-.83Zm2.24-1,2.15-1,4.48.88-2.18,1Zm4.38-2,1.18-.53,4.52.91-1.17.51Zm3.17-3-3.94-.79,1.32-.61,4,.8Zm-.45-2.4,2.55-1.18,4,.83-2.59,1.16Zm9,.16,4.69,1-2.59,1.13-4.66-1Zm2.2-1,2.72-1.22,4.75,1-2.74,1.19Zm4.9-2.2,2-.92,4.81,1.05-2.05.89Zm5.24-2.35,2.19-1,4.88,1.08-2.2,1Zm4.35-1.95,3.18-1.43,5,1.13-3.22,1.39Zm5.33-2.39,3.36-1.51,5,1.17L164.22,383Zm5.49-2.47,2.48-1.11,5.08,1.21-2.49,1.08Zm6.72-3,2.68-1.21,5.18,1.27-2.69,1.16ZM180,371l-4.64-1.16,4.14-1.91,4.67,1.2Zm9.69-4.35-3.44,1.54L181.5,367l3.42-1.58Zm-1.39-5.25-3.64,1.69-5.74-1.51,3.62-1.73ZM187.12,356l-4.8,2.3-6.15-1.65,4.76-2.36Zm-1.35-5.73-5,2.49-5.6-1.55,5-2.55Zm-7-3.48L172,344.89l4.32-2.3,6.77,2Zm12.69-6.51-4.64,2.38-6.86-2,4.61-2.45Zm-1.27-6.73-5.82,3.1-7.28-2.2,5.77-3.18Zm-1.43-7.22-6.11,3.38-6.75-2.1,6-3.47Zm-3.39-6.91-4.82,2.77-8.06-2.58,4.78-2.87Zm-10-3.29-4.8,2.87-8.39-2.69,4.75-3Zm-17.49-5.78,7.22,2.39-4.77,3-7.16-2.3Zm-6.26,4.07,7.12,2.29-6,3.72-7-2.19Zm-7.42,4.83,7,2.18L145.56,325l-6.89-2.08Zm-7.12,4.63L144,326l-4.53,2.83-6.79-2Zm-7.61,5,6.69,2-4.25,2.66-6.64-1.89Zm-5.78,3.76,6.59,1.88-4.79,3-6.51-1.8Zm-6.3,4.1,6.46,1.79-4.55,2.84-6.38-1.72Zm-6.07,3.95,6.34,1.71-3.5,2.18-6.28-1.65Zm-5.93,3.86,6.21,1.63-3.29,2.06-6.16-1.58Zm-4.85,3.16,6.1,1.57-3.89,2.43-6-1.51Zm-5.45,3.55,6,1.49L97.4,355l-5.92-1.44Zm-5.26,3.42,5.87,1.43-2.66,1.66-5.83-1.39ZM84,358.49l5.73,1.37-2.48,1.54-5.69-1.32Zm-4.08,2.66,5.64,1.31-3.15,2-5.58-1.26Zm-4.74,3.08,5.53,1.26-3,1.86-5.47-1.22Zm-4.58,3L76,368.42l-2.12,1.32-5.38-1.17Zm-4.57,3,5.31,1.16-2,1.24L64,371.46Zm-3.62,2.36,5.22,1.12L65,375.25l-5.16-1.08Zm-4.17,2.72,5.11,1.07-2.4,1.5-5.07-1Zm-4,2.63,5,1-1.4.88-5-1ZM49.39,381l4.89,1-1.27.79-4.87-1Zm-3,1.92,4.81.95-2,1.26-4.77-.92Zm-3.68,2.4,4.71.91-1.91,1.19-4.67-.89Zm.45,3.57L38.59,388l.59-.38,4.62.87Zm8.14,1.51-6-1.11.58-.36,6,1.13Zm7.86,1.47-5.66-1.06.57-.34,5.65,1.07Zm-3.27-2.49,1.92-1.15,5.75,1.11-2,1.12Zm11.43,4-4.74-.88.55-.31,4.73.89Zm7.68,1.43-5.4-1,.53-.3,5.4,1Zm7.37,1.37-5.06-.94.52-.27,5,1Zm-2.55-2.27,2-1,5.13,1-2,1Zm10.29,3.72L86,396.84l.49-.25,4.19.79ZM97.41,399l-4.86-.9.47-.23,4.85.91Zm6.92,1.29-4.49-.83.45-.22,4.48.85Zm-1.89-2.08,2-1,4.56.88-2,.94Zm9.26,3.45-3.68-.68.42-.2,3.67.7Zm6.86,1.28-4.36-.81.4-.18,4.34.82Zm5.65,1.05-3.11-.58.37-.16,3.1.59Zm2.71-1.14-3.15-.6,2-.88,3.17.61Zm4.39-1.86-3.22-.62,2.15-.94,3.25.64Zm4.51-1.9-3.3-.65,1.16-.5,3.3.66Zm-.09-3.62-4.61-.93,1.31-.59,4.61.95Zm5.88,1.18-3.4-.68,1.3-.57,3.4.7Zm3.6-1.52-3.45-.71,2.58-1.12,3.47.73ZM150.1,393l-3.52-.73,2.72-1.19,3.56.76Zm5-2.12-3.6-.77,2-.88,3.62.78Zm5.39-2.27-3.69-.81,2.18-.94,3.7.82Zm4.44-1.88-3.74-.83,3.19-1.39,3.78.86Zm5.47-2.31-3.83-.87,3.37-1.46,3.86.9Zm5.62-2.37-3.9-.91,2.47-1.07,3.92.93Zm6.9-2.91-4-1,2.67-1.16,4,1Z" transform="translate(-30.92 -45.99)"/><polygon class="cls-2" points="160.9 329.43 159.74 329.14 159.71 329.93 160.9 329.43"/><polygon class="cls-2" points="161.11 301.19 160.74 301.09 160.73 301.38 161.11 301.19"/><polygon class="cls-2" points="160.8 325.08 159.89 324.84 159.87 325.48 160.8 325.08"/><path class="cls-2" d="M339.07,293.48h-2.15a.75.75,0,0,1-.75-.8l2.15-31.87a.75.75,0,0,1,1-.65l39.78,15.14a.75.75,0,0,1,.49.68.77.77,0,0,1-.46.71l-39.79,16.73a.72.72,0,0,1-.29.06m-1.35-1.5h1.2l37.92-16-37.09-14.11Z" transform="translate(-30.92 -45.99)"/><path class="cls-2" d="M345.51,296a.75.75,0,0,1-.73-.59.76.76,0,0,1,.42-.84l38.31-17.46a.75.75,0,0,1,.55,0l38.31,13.17a.75.75,0,0,1-.19,1.45l-69.1,4.3Zm3.46-1.5H353l65.29-4.06-34.46-11.84Z" transform="translate(-30.92 -45.99)"/><path class="cls-2" d="M345.51,300.28a.7.7,0,0,1-.35-.09l-12.54-6.8a.77.77,0,0,1-.39-.71l2.51-36.88a.75.75,0,0,1,1-.65L435.28,292a.77.77,0,0,1,.47.55.76.76,0,0,1-.2.69l-2.51,2.5a.76.76,0,0,1-.49.22l-87,4.3h0m-11.75-8,11.93,6.47,86.49-4.27,1.48-1.48L336.17,256.9Z" transform="translate(-30.92 -45.99)"/><path class="cls-2" d="M329.93,312.64l-.92-1.18,15.14-11.82-11.27-6.12L322.78,296l-.36-1.46,10.39-2.5a.71.71,0,0,1,.53.07l12.53,6.8a.75.75,0,0,1,.1,1.25Z" transform="translate(-30.92 -45.99)"/><path class="cls-2" d="M335,315.66a.8.8,0,0,1-.26-.05l-1.11-.41a17.07,17.07,0,0,1-11.07-14.15l-.66-5.73,1.5-.17.65,5.73a15.57,15.57,0,0,0,10.1,12.91l.48.18,1.67-3.32a.68.68,0,0,1,.18-.23L349.68,299l1,1.14-13.14,11.35-1.9,3.79a.73.73,0,0,1-.67.42" transform="translate(-30.92 -45.99)"/><rect class="cls-2" x="322.78" y="296.63" width="15.13" height="1.5" transform="translate(-101.78 60.09) rotate(-16.5)"/><rect class="cls-2" x="323.73" y="301.17" width="18.98" height="1.5" transform="translate(-134.69 149.95) rotate(-28.55)"/></g></g></g></svg>