<svg xmlns="http://www.w3.org/2000/svg" xmlns:xlink="http://www.w3.org/1999/xlink" viewBox="0 0 731.63 618.6"><defs><style>.cls-1{fill:none;}.cls-2{fill:#fff;}.cls-3{clip-path:url(#clip-path);}</style><clipPath id="clip-path" transform="translate(0 0)"><rect class="cls-1" width="731.63" height="618.6"/></clipPath></defs><title>Арктика М</title><g id="Слой_2" data-name="Слой 2"><g id="Слой_1-2" data-name="Слой 1"><path class="cls-2" d="M335.33,276.93l-3.06-142.65,23.59-5.17,1.35,140ZM333.8,135.48l3,139.34,18.91-6.73L354.38,131Z" transform="translate(0 0)"/><g class="cls-3"><path class="cls-2" d="M200,82.58a.78.78,0,0,1-.37-.09L180.68,72a.76.76,0,0,1,.24-1.4l26.43-4.44a.78.78,0,0,1,.45.07L228,76.11a.75.75,0,0,1,.41.78.73.73,0,0,1-.6.63l-27.64,5H200M183.29,71.72,200.13,81l25.14-4.58-17.91-8.78Z" transform="translate(0 0)"/><path class="cls-2" d="M199,86.71a.74.74,0,0,1-.36-.09L169.22,70.51a.75.75,0,0,1-.38-.78.74.74,0,0,1,.62-.62l39.42-6.62a.73.73,0,0,1,.46.07l30.1,14.74a.78.78,0,0,1,.41.77.74.74,0,0,1-.6.64l-40.11,8H199M171.84,70.23l27.28,14.94,37.66-7.49L208.89,64Z" transform="translate(0 0)"/><path class="cls-2" d="M237.24,101.43a.71.71,0,0,1-.37-.1l-20-11.25a.74.74,0,0,1-.37-.78.75.75,0,0,1,.61-.62L245,83.92a.73.73,0,0,1,.46.07L266.79,94.6a.75.75,0,0,1,.41.77.77.77,0,0,1-.61.64l-29.21,5.41h-.14M219.41,89.81l18,10.08,26.74-5L245,85.44Z" transform="translate(0 0)"/><path class="cls-2" d="M235,105.37a.77.77,0,0,1-.36-.09l-29.91-16.8a.75.75,0,0,1,.24-1.39L246.63,80a.73.73,0,0,1,.46.07l31.82,15.83a.74.74,0,0,1-.2,1.4l-43.59,8.08H235M207.29,88.21l27.82,15.63,41.12-7.62L246.64,81.5Z" transform="translate(0 0)"/><path class="cls-2" d="M199,98.41a.81.81,0,0,1-.37-.09L170.27,82.48a.73.73,0,0,1-.38-.59l-1.06-12,1.5-.13,1,11.58,26.91,15V86h1.5v11.7a.74.74,0,0,1-.75.75" transform="translate(0 0)"/><rect class="cls-2" x="198.95" y="96.4" width="6.16" height="1.5" transform="translate(-13.41 35.18) rotate(-9.63)"/><path class="cls-2" d="M163.75,81.47a.73.73,0,0,1-.41-.12l-14.07-9.23a.76.76,0,0,1-.33-.78.78.78,0,0,1,.61-.59l55.29-9.67a.8.8,0,0,1,.48.07L208,62.57l-.7,1.32-2.43-1.29-53.17,9.3,12.21,8,6.32-1.61.37,1.46-6.64,1.69-.18,0" transform="translate(0 0)"/><path class="cls-2" d="M235,120.38l-30.31-19.06a.75.75,0,0,1-.35-.64V87.83h1.5v12.44l30,18.84Z" transform="translate(0 0)"/><path class="cls-2" d="M214,79.85l-6.74-4a.76.76,0,0,1-.37-.63l-.15-8.27,1.5,0,.14,7.85,6.39,3.83Z" transform="translate(0 0)"/><rect class="cls-2" x="191.72" y="75.48" width="15.97" height="1.5" transform="translate(-8.31 27.03) rotate(-7.59)"/><path class="cls-2" d="M253.18,98.33l-8.4-4.44a.75.75,0,0,1-.4-.66V84.66h1.5v8.11l8,4.23Z" transform="translate(0 0)"/><rect class="cls-2" x="228.42" y="93.75" width="16.81" height="1.5" transform="translate(-11.65 37.27) rotate(-8.78)"/><rect class="cls-2" x="238.36" y="77.98" width="1.5" height="4.05"/><rect class="cls-2" x="234.46" y="105.03" width="1.5" height="9.68"/><path class="cls-2" d="M248.22,126.55a.8.8,0,0,1-.4-.11l-16.34-10.29a.75.75,0,0,1,.25-1.37l59.2-11.9a.82.82,0,0,1,.49.06L309.37,112a.77.77,0,0,1,.41.77.76.76,0,0,1-.59.63l-60.82,13.12h-.15m-14.36-10.67,14.5,9.13L306.8,112.4l-15.83-8Z" transform="translate(0 0)"/><rect class="cls-2" x="235.18" y="118.07" width="1.5" height="2.02"/><path class="cls-2" d="M196.17,104l-.31-4-9.08-5.47.35,2.21-1.48.24-.6-3.81a.73.73,0,0,1,.32-.74.75.75,0,0,1,.8,0L197,98.94a.71.71,0,0,1,.36.58l.35,4.37Z" transform="translate(0 0)"/><path class="cls-2" d="M199,135.46l-3.09-31.8-9.94-6L188.78,119l-1.49.2-3-22.81a.75.75,0,0,1,1.12-.74l11.6,7a.72.72,0,0,1,.36.57l3.13,32.17Z" transform="translate(0 0)"/><path class="cls-2" d="M193.65,137.65a.76.76,0,0,1-.38-.11l-5.55-3.33a.77.77,0,0,1-.36-.56l-1.72-15.5a.75.75,0,0,1,.35-.71.73.73,0,0,1,.79,0l5.95,3.6a.74.74,0,0,1,.36.57l1.31,15.23a.76.76,0,0,1-.35.7.72.72,0,0,1-.4.12m-4.84-4.53,4,2.38-1.15-13.39-4.33-2.61Z" transform="translate(0 0)"/><path class="cls-2" d="M193.8,136.93l-.3-1.47,3.26-.67-1.49-12.38-4.49-2.9-2.37.31-.2-1.49,2.65-.35a.78.78,0,0,1,.51.12l5,3.24a.75.75,0,0,1,.34.54l1.61,13.41a.75.75,0,0,1-.59.83Z" transform="translate(0 0)"/><path class="cls-2" d="M197.59,136.94a.74.74,0,0,1-.75-.75v-.81h.88c2-.5,10.71-2.66,11.58-2.76l.17,1.49c-.63.07-7.51,1.76-11.7,2.81l-.18,0" transform="translate(0 0)"/><path class="cls-2" d="M205.75,124.64A.76.76,0,0,1,205,124l-1.41-13.12a.75.75,0,0,1,.6-.81l12.85-2.47.29,1.47-.84.16,1.44,12.68a.75.75,0,0,1-.62.83l-11.44,1.92h-.13m-.59-13.26L206.42,123l10-1.66L215,109.48Z" transform="translate(0 0)"/><path class="cls-2" d="M209,134.07a.77.77,0,0,1-.42-.13l-3.14-2.09a.72.72,0,0,1-.31-.47l-.76-3.7a.73.73,0,0,1,.11-.56l2.07-3.15a.8.8,0,0,1,.48-.32l3.69-.75a.75.75,0,0,1,.56.11l3.14,2.09a.77.77,0,0,1,.32.47l.75,3.7a.76.76,0,0,1-.11.57L213.28,133a.76.76,0,0,1-.48.32l-3.68.75-.15,0m-2.47-3.29,2.62,1.74,3.07-.63,1.74-2.62-.63-3.09-2.62-1.75-3.07.63-1.73,2.62Z" transform="translate(0 0)"/><path class="cls-2" d="M200.07,109.83a.77.77,0,0,1-.44-.14L197,107.77a.77.77,0,0,1-.3-.5l-.47-3.21a.77.77,0,0,1,.14-.57l2-2.61a.74.74,0,0,1,.48-.29l3.32-.48a.77.77,0,0,1,.55.13l2.67,1.93a.75.75,0,0,1,.31.5l.47,3.21a.75.75,0,0,1-.15.56l-2,2.61a.76.76,0,0,1-.49.29l-3.31.49h-.11m-2-3.1,2.18,1.57,2.71-.4,1.64-2.12-.38-2.58-2.17-1.56-2.72.39-1.63,2.12Z" transform="translate(0 0)"/><rect class="cls-2" x="205.04" y="105.09" width="7.45" height="1.5" transform="translate(-12.81 30.42) rotate(-8.09)"/><rect class="cls-2" x="203.64" y="106.87" width="11.21" height="1.5" transform="translate(-13.58 32.02) rotate(-8.48)"/><path class="cls-2" d="M192.79,109.28a.74.74,0,0,1-.74-.68l-.46-5.11a.75.75,0,0,1,1.5-.14l.45,5.12a.75.75,0,0,1-.68.81h-.07" transform="translate(0 0)"/><path class="cls-2" d="M190.62,107.45a.76.76,0,0,1-.75-.68l-.45-5.11a.75.75,0,1,1,1.49-.14l.46,5.12a.76.76,0,0,1-.68.81h-.07" transform="translate(0 0)"/><rect class="cls-2" x="187.27" y="92.86" width="3.4" height="1.5" transform="translate(-16.27 45.13) rotate(-13.06)"/><path class="cls-2" d="M233.43,115.36,204.94,99.2c-1.56.27-7.93,1.38-8.26,1.42l-.21-1.48L205,97.68a.74.74,0,0,1,.5.09l28.72,16.29Z" transform="translate(0 0)"/><path class="cls-2" d="M232.36,124.82l-.32-4.15L222.55,115l.37,2.36-1.48.23-.63-4a.75.75,0,0,1,1.13-.76l11.2,6.75a.77.77,0,0,1,.36.59l.36,4.53Z" transform="translate(0 0)"/><path class="cls-2" d="M235.25,157.47l-3.2-33-10.39-6.22,3,22.13-1.48.2L220,116.87a.76.76,0,0,1,.33-.73.77.77,0,0,1,.8,0l12,7.22a.73.73,0,0,1,.36.57l3.25,33.4Z" transform="translate(0 0)"/><path class="cls-2" d="M229.72,159.72a.79.79,0,0,1-.39-.11l-5.76-3.45a.79.79,0,0,1-.36-.57l-1.78-16.09a.75.75,0,0,1,.35-.71.73.73,0,0,1,.79,0l6.18,3.74a.73.73,0,0,1,.35.57l1.37,15.81a.78.78,0,0,1-.35.7.75.75,0,0,1-.4.12m-5.06-4.66,4.19,2.51-1.21-14-4.55-2.75Z" transform="translate(0 0)"/><path class="cls-2" d="M229.87,159l-.3-1.47,3.4-.7-1.54-12.88L226.57,141l-2.32.24-.16-1.49,2.57-.27a.76.76,0,0,1,.47.1l5.39,3.28a.77.77,0,0,1,.35.55l1.68,13.93a.76.76,0,0,1-.6.82Z" transform="translate(0 0)"/><path class="cls-2" d="M233.8,159a.72.72,0,0,1-.46-.16.75.75,0,0,1-.29-.59v-.83h1c2.29-.57,11-2.74,11.91-2.84l.17,1.49c-.66.07-7.63,1.78-12.16,2.91a.55.55,0,0,1-.18,0" transform="translate(0 0)"/><path class="cls-2" d="M242.28,146.21a.74.74,0,0,1-.45-.15.76.76,0,0,1-.29-.52l-1.47-13.61a.75.75,0,0,1,.64-.82l12.16-1.81.13.83.39,0,1.52,13.3a.76.76,0,0,1-.62.82l-11.88,2h-.13m-.64-13.73,1.3,12.11,10.4-1.74L252,131Z" transform="translate(0 0)"/><path class="cls-2" d="M245.62,156a.79.79,0,0,1-.42-.12L242,153.71a.73.73,0,0,1-.32-.48l-.78-3.84a.79.79,0,0,1,.1-.56l2.16-3.26a.75.75,0,0,1,.47-.33l3.83-.77a.74.74,0,0,1,.56.11l3.26,2.16a.77.77,0,0,1,.32.48l.78,3.84a.74.74,0,0,1-.11.56l-2.15,3.27a.77.77,0,0,1-.48.32l-3.82.78h-.15M243,152.63l2.74,1.82,3.22-.65,1.81-2.75-.66-3.23L247.4,146l-3.21.65-1.81,2.75Z" transform="translate(0 0)"/><path class="cls-2" d="M236.38,130.84a.77.77,0,0,1-.44-.14l-2.78-2a.77.77,0,0,1-.3-.5l-.49-3.33a.73.73,0,0,1,.15-.57l2.09-2.71a.77.77,0,0,1,.48-.28l3.44-.51a.72.72,0,0,1,.55.14l2.78,2a.7.7,0,0,1,.31.5l.48,3.33a.74.74,0,0,1-.14.56L240.42,130a.76.76,0,0,1-.49.29l-3.44.5h-.11m-2.09-3.17,2.28,1.64,2.84-.42,1.71-2.22-.39-2.7-2.28-1.64-2.84.42L233.9,125Z" transform="translate(0 0)"/><rect class="cls-2" x="241.54" y="125.98" width="7.73" height="1.5" transform="translate(-15.39 35.78) rotate(-8.09)"/><rect class="cls-2" x="240.09" y="127.82" width="11.64" height="1.5" transform="translate(-16.27 37.65) rotate(-8.48)"/><rect class="cls-2" x="223.1" y="113.36" width="2.85" height="1.5" transform="translate(-19.98 53.7) rotate(-13.06)"/><path class="cls-2" d="M232.86,121.28l-.21-1.48,5.24-.9.26,1.48c-.2,0-4.92.85-5.29.9" transform="translate(0 0)"/><rect class="cls-2" x="183.9" y="69.55" width="1.5" height="32.87" transform="translate(19.59 205.33) rotate(-60.84)"/><rect class="cls-2" x="278.2" y="96.53" width="1.5" height="9.46" transform="translate(-7.16 22.46) rotate(-4.55)"/><rect class="cls-2" x="251.23" y="125.04" width="1.5" height="4.42" transform="translate(-15.72 37.69) rotate(-8.3)"/><path class="cls-2" d="M317.05,127.48a.72.72,0,0,1-.34-.09l-21.48-10.9.68-1.34,21.25,10.79L337,122.05l-36.16-17.64L294.64,106l-.39-1.45,6.42-1.7a.72.72,0,0,1,.52,0l38.43,18.74a.73.73,0,0,1,.41.77.74.74,0,0,1-.59.64l-22.24,4.37-.15,0" transform="translate(0 0)"/><path class="cls-2" d="M247.17,167.74a2.81,2.81,0,0,1-1.54-.46,2.8,2.8,0,0,1,1-5.07l51.54-11a.75.75,0,0,1,.83.41l1.87,3.77a.76.76,0,0,1,0,.66.75.75,0,0,1-.52.41l-52.6,11.24a2.76,2.76,0,0,1-.57.06m50.74-15-51,10.9a1.29,1.29,0,1,0,.5,2.54l51.66-11.05Z" transform="translate(0 0)"/><path class="cls-2" d="M248.32,183.42a.81.81,0,0,1-.45-.15.77.77,0,0,1-.3-.57L246.83,167l1.5-.07.7,14.81,26.58-6.11V160.8h1.5v15.41a.74.74,0,0,1-.58.73l-28,6.46-.17,0" transform="translate(0 0)"/><rect class="cls-2" x="245.93" y="155.05" width="1.5" height="7.9" transform="translate(-3.58 5.7) rotate(-1.31)"/><path class="cls-2" d="M212.45,160.62a.8.8,0,0,1-.45-.14.78.78,0,0,1-.3-.52l-3.06-26.51,1.49-.17,3,25.71,12.71-2.33.27,1.47-13.5,2.48h-.13" transform="translate(0 0)"/><path class="cls-2" d="M212.27,160.6l-2.15-.52a.77.77,0,0,1-.57-.64L206.24,134l1.49-.19L211,158.74l1.66.41Z" transform="translate(0 0)"/><rect class="cls-2" x="208.02" y="137.17" width="1.5" height="2.52" transform="translate(29.83 313.73) rotate(-77.96)"/><rect class="cls-2" x="208.97" y="145.36" width="1.5" height="2.52" transform="translate(22.57 321.13) rotate(-77.96)"/><rect class="cls-2" x="210.02" y="152.18" width="1.5" height="2.52" transform="translate(16.73 327.56) rotate(-77.96)"/><path class="cls-2" d="M209.33,160,200,154.34a.73.73,0,0,1-.35-.56l-1.82-17.51,1.49-.16,1.78,17.15,9,5.45Z" transform="translate(0 0)"/><path class="cls-2" d="M161.82,142.29a2.79,2.79,0,0,1-.55-5.53l26.5-5.56.31,1.46-26.51,5.57a1.29,1.29,0,0,0-.46,2.34,1.29,1.29,0,0,0,1,.19l29.2-6.13.31,1.47-29.2,6.13a2.76,2.76,0,0,1-.57.06" transform="translate(0 0)"/><path class="cls-2" d="M194.19,197c-1.22,0-2.36-1.53-3.09-4.18a.75.75,0,0,1,.15-.67.73.73,0,0,1,.63-.27l.61,0a3.29,3.29,0,0,0-.34-2l-.56.24a.74.74,0,0,1-.69,0,.76.76,0,0,1-.35-.59c-.19-2.92.48-4.79,1.79-5,1.81-.3,3.18,2.79,3.68,5.8a13.25,13.25,0,0,1,.1,4.23c-.31,1.84-1.09,2.35-1.69,2.45l-.24,0m-1.31-3.55c.55,1.47,1.14,2,1.31,2.05.28-.15.87-1.9.36-5s-1.64-4.52-2-4.56c-.13.07-.51.79-.55,2.36a.72.72,0,0,1,.52,0c.19.06,1.11.47,1.42,2.31s-.43,2.53-.59,2.65a.68.68,0,0,1-.49.16" transform="translate(0 0)"/><path class="cls-2" d="M192.91,193.47h-.06L185,192.9a.75.75,0,0,1-.69-.62.77.77,0,0,1,.45-.82l7.23-3.09a.72.72,0,0,1,.54,0c.19.06,1.11.47,1.42,2.31s-.43,2.53-.59,2.65a.7.7,0,0,1-.46.16m-4.72-1.84,4.3.31a3.29,3.29,0,0,0-.34-2l-.56.24Z" transform="translate(0 0)"/><path class="cls-2" d="M191,178.15c-1.21,0-2.35-1.53-3.08-4.18a.79.79,0,0,1,.14-.68.82.82,0,0,1,.64-.27l.61,0a2.88,2.88,0,0,0,0-1,2.68,2.68,0,0,0-.33-1l-.56.24a.77.77,0,0,1-.69-.05.73.73,0,0,1-.35-.59c-.19-2.92.48-4.8,1.79-5,1.81-.3,3.18,2.8,3.68,5.8s.22,6.38-1.59,6.69l-.25,0m-1.3-3.55c.55,1.46,1.14,2,1.31,2.05.28-.15.86-1.91.35-5s-1.63-4.52-2-4.57c-.14.08-.51.8-.55,2.36a.77.77,0,0,1,.52,0c.18.07,1.11.48,1.42,2.32s-.44,2.53-.59,2.65a.74.74,0,0,1-.49.16" transform="translate(0 0)"/><path class="cls-2" d="M189.75,174.6h-.06l-7.84-.57a.77.77,0,0,1-.69-.63.74.74,0,0,1,.45-.81l7.23-3.1a.77.77,0,0,1,.54,0c.18.07,1.11.48,1.42,2.32s-.44,2.53-.59,2.65a.76.76,0,0,1-.46.16M185,172.75l4.3.32a2.88,2.88,0,0,0,0-1,2.68,2.68,0,0,0-.33-1l-.56.24Z" transform="translate(0 0)"/><path class="cls-2" d="M191.1,185.85l-1.14-9,2.67-.34.32,2.53,45.45-8.22.71,4.06-45.64,8.26.3,2.33Zm.87-5.06.14,1.11,45.27-8.19-.19-1.1Z" transform="translate(0 0)"/><path class="cls-2" d="M280.71,141.75a.74.74,0,0,1-.48-.18l-20.87-17.7a.75.75,0,0,1,.33-1.31l2.12-.46a.78.78,0,0,1,.64.16l18.29,15.15a.74.74,0,0,1,.26.47l.46,3a.77.77,0,0,1-.38.77.69.69,0,0,1-.37.1m-19.22-18,18.19,15.42-.12-.75-17.79-14.73Z" transform="translate(0 0)"/><polygon class="cls-2" points="300.73 251.31 299.65 250.28 311.87 237.53 313.57 233.12 312.07 185.11 310.75 179.88 288.91 133.83 282.51 128.28 283.5 127.15 290.13 132.9 312.18 179.44 313.57 184.99 315.08 233.38 313.16 238.35 300.73 251.31"/><polygon class="cls-2" points="284.45 155.1 282.95 155 283.27 150.18 281.56 119.16 283.06 119.08 284.77 150.18 284.45 155.1"/><path class="cls-2" d="M281.54,155.36l-1.49-.12.4-5-1.87-30.54,1.49-.09L282,150.18v.1Z" transform="translate(0 0)"/><path class="cls-2" d="M280.26,180.37a.72.72,0,0,1-.44-.14.75.75,0,0,1-.31-.61V160.38H281v18.2l1.41-.48V159.87h1.5v18.76a.74.74,0,0,1-.51.71l-2.91,1a.67.67,0,0,1-.24,0" transform="translate(0 0)"/><rect class="cls-2" x="252.99" y="144.27" width="1.5" height="16.54" transform="translate(-7.44 13.13) rotate(-2.92)"/><path class="cls-2" d="M256.63,176.18a2.62,2.62,0,0,1-1.5-.48,2.6,2.6,0,0,1-1.07-1.9l-.56-8.22,1.5-.11.56,8.22a1.08,1.08,0,0,0,1.34,1l15.19-3.86a1.11,1.11,0,0,0,.82-1.11l-.43-8.17,1.5-.08.43,8.17a2.6,2.6,0,0,1-2,2.64l-15.19,3.86a2.74,2.74,0,0,1-.64.08" transform="translate(0 0)"/><rect class="cls-2" x="275.36" y="120.5" width="1.5" height="14.32" transform="translate(-11.94 29.89) rotate(-6.07)"/><polygon class="cls-2" points="276.91 156.41 275.61 141.99 275.35 137.12 276.85 137.04 277.11 141.88 278.4 156.28 276.91 156.41"/><path class="cls-2" d="M273.59,156.4c-.59-8.57-1.52-21.59-1.66-22.34l1.45-.37c.17.6,1.25,16,1.71,22.6Z" transform="translate(0 0)"/><path class="cls-2" d="M309.76,241.76l-1.45-.38L310.5,233l-2.21-47.92-1-5.25-7.8-16.58,1.36-.64,7.84,16.67a1.05,1.05,0,0,1,.05.19l1,5.38a.38.38,0,0,1,0,.1L312,233.06a.6.6,0,0,1,0,.23Z" transform="translate(0 0)"/><path class="cls-2" d="M265.69,233.72a.78.78,0,0,1-.48-.17.73.73,0,0,1-.27-.54l-.61-10.81-2.8-2a.75.75,0,0,1-.3-.73.78.78,0,0,1,.52-.6L291.07,210a.77.77,0,0,1,.45,0l6.05,2a.76.76,0,0,1,.52.73.74.74,0,0,1-.55.7l-31.7,8.92.11,1.84,39.67-5.36a.7.7,0,0,1,.59.18.71.71,0,0,1,.26.56V227a.75.75,0,0,1-.64.75l-40,5.92h-.11m.34-8,.36,6.41L305,226.4v-6Zm-2.39-5.84,1.57,1.12,29.57-8.32-3.51-1.17Z" transform="translate(0 0)"/><path class="cls-2" d="M265.21,233.55l-3.72-3.05a.76.76,0,0,1-.27-.58V219.58h1.5v10l3.44,2.83Z" transform="translate(0 0)"/><path class="cls-2" d="M305.4,220.26,297,216.38a.75.75,0,0,1-.43-.68v-3h1.5v2.5l8,3.68Z" transform="translate(0 0)"/><rect class="cls-2" x="265.22" y="218.81" width="32.57" height="1.5" transform="translate(-43.97 72.88) rotate(-13.69)"/><path class="cls-2" d="M160.6,257a3.78,3.78,0,0,1-2.76-1.76,13.92,13.92,0,0,1-2.23-4.79c-1-3.6-.81-7.76,1.46-8.38h0c2.27-.62,4.53,2.87,5.52,6.48a14.1,14.1,0,0,1,.5,5.25c-.21,1.73-.91,2.85-2,3.13a1.93,1.93,0,0,1-.53.07m-3.14-13.49c-.83.23-1.4,2.89-.41,6.55a12.68,12.68,0,0,0,2,4.26c.63.82,1.3,1.28,1.7,1.17s.75-.85.87-1.87a12.55,12.55,0,0,0-.46-4.68c-1-3.65-2.85-5.66-3.68-5.43" transform="translate(0 0)"/><path class="cls-2" d="M161.13,257l-.4-1.44c.4-.12.75-.85.87-1.87a12.55,12.55,0,0,0-.46-4.68c-1-3.65-2.84-5.65-3.68-5.43h0l-.39-1.44L269,211.54c1.57-.43,3.37,1.15,4.68,4.12l.33.75L263.28,220v0l-.16,0-.44,9.2Zm-1.54-14a12.61,12.61,0,0,1,3,5.62,14.1,14.1,0,0,1,.5,5.25,6.69,6.69,0,0,1-.22,1.1l98.38-26.86.44-9.2.5-.14,9.72-3.21c-1-1.94-2.07-2.66-2.56-2.53Z" transform="translate(0 0)"/><path class="cls-2" d="M170,254.13a.75.75,0,0,1-.2-1.48c.83-.22,1.44-2.77.49-6.25a11.47,11.47,0,0,0-1.91-4.05c-.63-.79-1.28-1.2-1.69-1.09a.75.75,0,0,1-.4-1.45c1-.28,2.21.29,3.26,1.61a13.11,13.11,0,0,1,2.19,4.58c1.11,4.08.45,7.56-1.54,8.1l-.2,0" transform="translate(0 0)"/><path class="cls-2" d="M178.39,251.84a.75.75,0,0,1-.72-.55.76.76,0,0,1,.52-.93c.84-.22,1.44-2.77.49-6.25s-2.75-5.37-3.6-5.14a.75.75,0,0,1-.39-1.45c2-.54,4.33,2.12,5.44,6.19s.45,7.56-1.54,8.1a.69.69,0,0,1-.2,0" transform="translate(0 0)"/><path class="cls-2" d="M186.78,249.55a.75.75,0,0,1-.2-1.48c.41-.11.76-.8.9-1.79a12.83,12.83,0,0,0-2.33-8.51c-.62-.78-1.28-1.2-1.68-1.09a.75.75,0,1,1-.4-1.44c1.05-.29,2.2.28,3.26,1.6a14.4,14.4,0,0,1,2.63,9.65c-.23,1.67-.94,2.75-2,3a.63.63,0,0,1-.19,0" transform="translate(0 0)"/><path class="cls-2" d="M195.16,247.26a.75.75,0,0,1-.2-1.47c.84-.23,1.44-2.78.49-6.26s-2.76-5.37-3.6-5.14a.75.75,0,1,1-.39-1.44c2-.54,4.33,2.11,5.44,6.19s.45,7.55-1.54,8.09l-.2,0" transform="translate(0 0)"/><path class="cls-2" d="M203.54,245a.75.75,0,0,1-.19-1.47c.41-.12.75-.8.9-1.8a12.83,12.83,0,0,0-2.33-8.51c-.62-.78-1.27-1.2-1.68-1.09a.75.75,0,0,1-.4-1.44c1-.29,2.2.28,3.26,1.6a13.07,13.07,0,0,1,2.18,4.59,12.82,12.82,0,0,1,.45,5.06c-.24,1.67-.94,2.75-2,3a.64.64,0,0,1-.2,0" transform="translate(0 0)"/><path class="cls-2" d="M211.93,242.68a.75.75,0,0,1-.2-1.47c.41-.12.76-.8.9-1.8a12.9,12.9,0,0,0-2.32-8.51c-.63-.78-1.28-1.2-1.69-1.09a.74.74,0,0,1-.92-.52.75.75,0,0,1,.53-.92c1-.29,2.2.28,3.25,1.6a14.26,14.26,0,0,1,2.63,9.65c-.23,1.67-.94,2.75-2,3l-.2,0" transform="translate(0 0)"/><path class="cls-2" d="M220.31,240.39a.75.75,0,0,1-.19-1.47c.83-.23,1.43-2.78.48-6.26s-2.75-5.36-3.6-5.14a.74.74,0,0,1-.92-.52.75.75,0,0,1,.53-.92c2-.54,4.33,2.12,5.44,6.19s.45,7.55-1.54,8.1l-.2,0" transform="translate(0 0)"/><path class="cls-2" d="M228.7,238.1a.76.76,0,0,1-.73-.55.75.75,0,0,1,.53-.92c.41-.11.76-.8.9-1.8a11.71,11.71,0,0,0-.41-4.46,11.34,11.34,0,0,0-1.92-4c-.62-.79-1.27-1.21-1.68-1.09a.76.76,0,0,1-.92-.53.74.74,0,0,1,.52-.92c1-.29,2.2.28,3.26,1.6a13.07,13.07,0,0,1,2.18,4.59,12.82,12.82,0,0,1,.45,5.06c-.23,1.67-.94,2.75-2,3l-.19,0" transform="translate(0 0)"/><path class="cls-2" d="M237.08,235.81a.75.75,0,0,1-.2-1.47c.84-.23,1.44-2.78.49-6.26a11.5,11.5,0,0,0-1.91-4c-.63-.79-1.28-1.21-1.69-1.09a.75.75,0,0,1-.39-1.45c1-.29,2.2.28,3.25,1.6a12.9,12.9,0,0,1,2.19,4.59c1.11,4.07.45,7.55-1.54,8.1l-.2,0" transform="translate(0 0)"/><path class="cls-2" d="M245.47,233.52a.76.76,0,0,1-.73-.55.75.75,0,0,1,.53-.92c.83-.23,1.44-2.78.49-6.26s-2.76-5.36-3.6-5.13a.75.75,0,0,1-.4-1.45c2-.55,4.33,2.12,5.44,6.19s.45,7.55-1.54,8.1l-.19,0" transform="translate(0 0)"/><path class="cls-2" d="M253.85,231.23a.75.75,0,0,1-.2-1.47c.42-.11.76-.8.9-1.8a12.89,12.89,0,0,0-2.32-8.5c-.63-.79-1.28-1.2-1.69-1.09a.75.75,0,1,1-.39-1.45c1-.29,2.2.28,3.25,1.6a14.33,14.33,0,0,1,2.64,9.65c-.24,1.67-1,2.75-2,3a.71.71,0,0,1-.2,0" transform="translate(0 0)"/><path class="cls-2" d="M263.43,219.86a.75.75,0,0,1-.73-.57,4.78,4.78,0,0,0-3.95-3.19.74.74,0,0,1-.77-.73.76.76,0,0,1,.73-.77,6.18,6.18,0,0,1,5.44,4.33.75.75,0,0,1-.54.91.55.55,0,0,1-.18,0" transform="translate(0 0)"/><rect class="cls-2" x="217.57" y="158.97" width="1.5" height="16.33" transform="translate(-12.58 17.86) rotate(-4.55)"/><polygon class="cls-2" points="253.57 216.65 242.54 192.7 219.55 185.83 218.58 178.47 220.07 178.27 220.91 184.67 243.62 191.46 254.93 216.02 253.57 216.65"/><rect class="cls-2" x="227.56" y="158.2" width="1.5" height="14.61" transform="translate(-14.27 21.72) rotate(-5.28)"/><rect class="cls-2" x="248.78" y="182.67" width="1.5" height="23.42"/><rect class="cls-2" x="241.2" y="156.47" width="1.5" height="35.65" transform="translate(-10.55 15.67) rotate(-3.63)"/><polygon class="cls-2" points="281.3 188.18 251.53 182.63 251.8 181.16 280.13 186.44 280.3 185.63 255.26 181.78 255.49 180.3 282.1 184.39 281.3 188.18"/><path class="cls-2" d="M257.08,281.24a2.43,2.43,0,0,1-1.19-.31,2.57,2.57,0,0,1-1.22-1.5,2.53,2.53,0,0,1,1.64-3.17l42.56-13.45a1.73,1.73,0,0,1,1.32.11,1.7,1.7,0,0,1,.84,1l.45,1.47a1.73,1.73,0,0,1-1.12,2.14l-42.54,13.58a2.65,2.65,0,0,1-.74.11m42.31-17h-.07l-42.56,13.45a1,1,0,0,0-.65,1.3,1.08,1.08,0,0,0,.5.63,1,1,0,0,0,.76.08l42.54-13.58a.23.23,0,0,0,.14-.27l-.45-1.47a.21.21,0,0,0-.11-.13l-.1,0" transform="translate(0 0)"/><path class="cls-2" d="M275.63,261.53h-4a4.66,4.66,0,0,1-4.66-4.66v-24.1a.75.75,0,0,1,.66-.74l11.8-1.44a.75.75,0,0,1,.59.18.77.77,0,0,1,.25.56v25.54a4.66,4.66,0,0,1-4.65,4.66m-7.15-28.09v23.43a3.17,3.17,0,0,0,3.16,3.16h4a3.16,3.16,0,0,0,3.15-3.16V232.18Z" transform="translate(0 0)"/><path class="cls-2" d="M270.61,266.07a.86.86,0,0,1-.38-.1l-11.88-7a.76.76,0,0,1-.37-.73.74.74,0,0,1,.51-.63l9-3,.47,1.43-7.44,2.5,10.17,6,20.4-6.3-11.89-5.68.65-1.35,13.61,6.5a.77.77,0,0,1,.43.74.75.75,0,0,1-.53.66l-22.54,7a.83.83,0,0,1-.22,0" transform="translate(0 0)"/><path class="cls-2" d="M267.08,274.09a.73.73,0,0,1-.35-.09l-7.67-4.08a.75.75,0,0,1-.39-.62L258,258.41a.75.75,0,1,1,1.5-.1l.66,10.48,7.29,3.89a.73.73,0,0,1,.31,1,.75.75,0,0,1-.66.4" transform="translate(0 0)"/><path class="cls-2" d="M293.15,266a.75.75,0,0,1-.75-.75v-6.92a.75.75,0,0,1,1.5,0v6.92a.75.75,0,0,1-.75.75" transform="translate(0 0)"/><path class="cls-2" d="M270.61,273.23a.75.75,0,0,1-.75-.75v-7.16a.75.75,0,0,1,1.5,0v7.16a.76.76,0,0,1-.75.75" transform="translate(0 0)"/><path class="cls-2" d="M245.69,363.05a4.45,4.45,0,0,1-2.4-.69,4.53,4.53,0,0,1-2.08-3.18,4.57,4.57,0,0,1,1.07-3.65l7.25-8.28-1.94-9.31a.67.67,0,0,1,0-.37l18.11-60.19a.75.75,0,0,1,1.44.43l-18.06,60,2,9.49a.77.77,0,0,1-.17.65l-7.5,8.56a3.09,3.09,0,0,0-.72,2.44,3,3,0,0,0,5.46,1.35l2.49-3.44a2.72,2.72,0,0,0,.48-1l4.34-16.26,17.47-64.52a.75.75,0,0,1,1.45.39L256.91,340l-4.34,16.26a4.5,4.5,0,0,1-.71,1.5l-2.5,3.43a4.54,4.54,0,0,1-3.67,1.86" transform="translate(0 0)"/><path class="cls-2" d="M250.34,348.22a1,1,0,0,1-.23,0,.75.75,0,0,1-.48-.95l2.52-7.66,16.37-63.06a.75.75,0,1,1,1.45.37L253.59,340l-2.53,7.71a.76.76,0,0,1-.72.52" transform="translate(0 0)"/><path class="cls-2" d="M242.29,360.92a.71.71,0,0,1-.6-.31.74.74,0,0,1,.16-1l5.11-3.71a5.17,5.17,0,0,0,2.11-3.62l.53-4.85a.74.74,0,0,1,.83-.67.76.76,0,0,1,.66.83l-.53,4.85a6.64,6.64,0,0,1-2.72,4.68l-5.11,3.7a.7.7,0,0,1-.44.14" transform="translate(0 0)"/><path class="cls-2" d="M301.07,272.42c-1.84,0-3.69-1.55-5-4.2a.75.75,0,0,1,.36-1,.76.76,0,0,1,1,.36c1.07,2.24,2.66,3.57,4,3.3.85-.17,1.56-1,2-2.33a10.89,10.89,0,0,0,.13-5.27,10.76,10.76,0,0,0-2.18-4.8,3,3,0,0,0-2.73-1.37c-1.74.35-2.73,3.33-2.25,6.78a.75.75,0,0,1-.64.85.75.75,0,0,1-.84-.64c-.61-4.37.83-7.93,3.43-8.46,1.42-.29,2.89.38,4.17,1.87A13.25,13.25,0,0,1,304.84,269c-.6,1.88-1.7,3.07-3.11,3.35a3,3,0,0,1-.66.07" transform="translate(0 0)"/><path class="cls-2" d="M304.56,264.73l-.29-1.47,1.65-.33-10.71-21.78-1.08.68,7.34,14.06-1.33.7-7.65-14.67a.75.75,0,0,1,.26-1l2.36-1.51a.79.79,0,0,1,.6-.09.74.74,0,0,1,.47.39l11.51,23.41a.79.79,0,0,1,0,.67.73.73,0,0,1-.52.4Z" transform="translate(0 0)"/><rect class="cls-2" x="299.94" y="244.08" width="36.88" height="1.5" transform="translate(-71.92 150.09) rotate(-23.92)"/><rect class="cls-2" x="301.73" y="239.89" width="34.89" height="1.5" transform="translate(-69.82 148.67) rotate(-23.71)"/><rect class="cls-2" x="301.9" y="250.34" width="33.49" height="1.5" transform="translate(-31.33 45.91) rotate(-7.86)"/><rect class="cls-2" x="308.85" y="246.06" width="26.48" height="1.5" transform="translate(-36.01 55.96) rotate(-9.41)"/><path class="cls-2" d="M335.15,281.24a.72.72,0,0,1-.4-.12L305.8,262.45l.81-1.26,28.66,18.48,17.56-5.45-3.91-2.43.79-1.27,5.31,3.29a.76.76,0,0,1,.35.73.74.74,0,0,1-.53.62l-19.46,6a.91.91,0,0,1-.23,0" transform="translate(0 0)"/><rect class="cls-2" x="326.46" y="246.8" width="1.5" height="19.31" transform="translate(-67.85 385.92) rotate(-56.23)"/><path class="cls-2" d="M316.58,262.76a3,3,0,0,1-2.11-.88.76.76,0,0,1-.23-.62l.91-9.3,1.49.14-.87,8.9a1.72,1.72,0,0,0,1.91-.09l1.3-9.16,1.49.21-1.35,9.48a.73.73,0,0,1-.25.47,3.75,3.75,0,0,1-2.29.85" transform="translate(0 0)"/><rect class="cls-2" x="128.39" y="434.71" width="336.03" height="1.5" transform="translate(-172.12 676.23) rotate(-82.96)"/><rect class="cls-2" x="123.82" y="433.55" width="338.37" height="1.5" transform="translate(-173.95 671.84) rotate(-82.96)"/><path class="cls-2" d="M274.17,614.79a16.18,16.18,0,0,1-1.83-.11c-3.32-.4-6.55-1.88-6.31-3.91l1.2-9.88h0l1.49.18h0c0,.23.32.68,1.15,1.13a11,11,0,0,0,3.85,1.11c3.21.39,5.32-.41,5.38-1l1.49.18-1.19,9.88c-.21,1.66-2.56,2.4-5.23,2.4m-5.7-11.7-1,7.86c-.07.57,1.78,1.85,5,2.24s5.32-.42,5.39-1l.95-7.84a11.5,11.5,0,0,1-5.32.44,12.69,12.69,0,0,1-4.39-1.28,5.32,5.32,0,0,1-.68-.43" transform="translate(0 0)"/><path class="cls-2" d="M275.37,604.92a14.17,14.17,0,0,1-1.83-.12,12.69,12.69,0,0,1-4.39-1.28c-1.83-1-2-2.08-1.92-2.63.16-1.35,1.85-2.24,4.51-2.39l.89,0-.32,2.61a5.2,5.2,0,0,0,3.32.31l.3-2.52.86.26c2.54.77,4,2,3.8,3.39-.2,1.66-2.56,2.41-5.22,2.41m-4.45-4.83c-1.44.2-2.16.67-2.2,1s.32.68,1.15,1.13a11,11,0,0,0,3.85,1.11c3.21.39,5.32-.41,5.38-1,0-.31-.55-.94-1.9-1.48l-.21,1.72-.48.14c-.14,0-3.6,1-5.5-.75l-.28-.26Z" transform="translate(0 0)"/><polygon class="cls-2" points="273.93 618.6 268.78 617.89 269.52 613.65 270.99 613.9 270.52 616.62 272.69 616.92 273.17 614.1 274.65 614.36 273.93 618.6"/><path class="cls-2" d="M310.3,294.16a.72.72,0,0,1-.47-.16c-11.21-9.08-21-16.39-27.27-20.92a.75.75,0,0,1,.23-1.32l3.21-1a.8.8,0,0,1,.55.05,190.33,190.33,0,0,1,25,15.2.74.74,0,0,1,.3.7l-.83,6.78a.74.74,0,0,1-.46.6.69.69,0,0,1-.28.05m-25.63-21.41c6.07,4.43,15,11.09,25.05,19.23l.61-5a187.86,187.86,0,0,0-24.19-14.68Z" transform="translate(0 0)"/><path class="cls-2" d="M356.46,336.11a.7.7,0,0,1-.54-.23,490.76,490.76,0,0,0-42.73-39.13.78.78,0,0,1-.27-.68l.93-7a.76.76,0,0,1,.45-.59.78.78,0,0,1,.75.09C332.8,302,347,317.59,357.1,335a.74.74,0,0,1-.19,1,.78.78,0,0,1-.45.15m-42-40.26c14.1,11.61,26.79,23.07,37.8,34.15a159.06,159.06,0,0,0-37.1-39.43Z" transform="translate(0 0)"/><path class="cls-2" d="M309.42,306.68l-1.05-.87c-13.91-11.42-26.31-22.49-34-30.37l-.86-.89,9-2.7.3.2c7.71,5.26,17.65,12.71,28,21l.33.26Zm-33.14-31.41c7.52,7.58,19.06,17.86,32,28.51l1.21-9.84c-10.05-8-19.7-15.28-27.26-20.45Z" transform="translate(0 0)"/><path class="cls-2" d="M357.54,340.05c-1.45,0-5-1.39-14.59-7.93-8.63-5.87-19.79-14.3-31.44-23.75l-.33-.26,1.73-13.33,1,.84,2.4,2c12.11,9.91,23.18,19.63,31.15,27.37,12.84,12.47,11.67,13.9,11.1,14.59a1.18,1.18,0,0,1-1.07.51m-44.76-32.58c25.43,20.6,41.89,31.06,44.59,31.06h0c-.49-2.74-14.94-17.67-42-39.79l-1.36-1.11Z" transform="translate(0 0)"/><path class="cls-2" d="M257.77,215.43c-1-12.92,2.94-23.06,9.34-24.11,6.74-1.11,14.06,8.19,17,21.63l-1.47.32c-2.73-12.44-9.46-21.45-15.3-20.47-5.53.91-9,10.59-8.09,22.51Z" transform="translate(0 0)"/><path class="cls-2" d="M280,243l-1-1.11c2.44-2.19,4.16-6.38,4.85-11.81l1.48.19c-.73,5.78-2.62,10.31-5.32,12.73" transform="translate(0 0)"/><path class="cls-2" d="M267.17,242.85l-4.31-5a.71.71,0,0,1-.12-.18l-3.63-8.11,1.37-.61,3.59,8,4.23,4.92Z" transform="translate(0 0)"/><path class="cls-2" d="M257.79,356.08a.74.74,0,0,1-.65-.37l-3.63-6.24,1.3-.76,2.93,5.06,2.43-4.76-5.34-5.65,1.09-1,5.7,6a.74.74,0,0,1,.12.86l-3.29,6.45a.72.72,0,0,1-.64.41Z" transform="translate(0 0)"/><rect class="cls-2" x="302.43" y="158.53" width="42.51" height="1.5" transform="translate(38.23 379.87) rotate(-63.9)"/><rect class="cls-2" x="293.55" y="149.85" width="61.85" height="1.5" transform="translate(46.47 375.72) rotate(-63.9)"/><rect class="cls-2" x="312.31" y="180.94" width="22.17" height="1.5" transform="translate(-39.55 105.08) rotate(-17.41)"/><rect class="cls-2" x="311.14" y="176.21" width="23.05" height="1.5" transform="translate(-32.19 79.46) rotate(-13.38)"/><path class="cls-2" d="M322.29,114.47l-.34-5.68-14.18-6.91v4.48h-1.5v-5.68a.75.75,0,0,1,1.08-.67L323,107.63a.77.77,0,0,1,.42.63l.36,6.12Z" transform="translate(0 0)"/><rect class="cls-2" x="322.24" y="105.11" width="14.26" height="1.5" transform="translate(-16.33 119.29) rotate(-20.04)"/><rect class="cls-2" x="276.48" y="93.5" width="17.39" height="1.5" transform="translate(23.48 241.64) rotate(-47.68)"/><path class="cls-2" d="M303,102c-2,0-5.86-3.94-7.58-5.82a37.87,37.87,0,0,1-4-5.13c-1.21-1.93-1.44-3.07-.77-3.68s1.78-.28,3.6,1.1A36.67,36.67,0,0,1,299,92.91,37.24,37.24,0,0,1,303,98c1.21,1.94,1.44,3.07.77,3.69a1.1,1.1,0,0,1-.76.27M291.87,88.71a25.45,25.45,0,0,0,4.64,6.45,25.16,25.16,0,0,0,6,5.2,25.56,25.56,0,0,0-4.64-6.44,25.3,25.3,0,0,0-6-5.21" transform="translate(0 0)"/><path class="cls-2" d="M289.12,104.64c-3.45-1.48-5.72-8.33-5.81-8.63l1.43-.46c.58,1.8,2.62,6.7,5,7.71Z" transform="translate(0 0)"/><path class="cls-2" d="M284.8,105.27c-3.06-1.8-4.71-5.66-4.78-5.82l1.38-.59s1.54,3.57,4.16,5.12Z" transform="translate(0 0)"/><path class="cls-2" d="M300.1,104.53a.73.73,0,0,1-.41-.12c-7.39-4.75-10.09-15.06-10.2-15.5l1.45-.37c0,.1,2.56,9.73,9.11,14.31l2.71-2.26,1,1.15-3.14,2.62a.72.72,0,0,1-.48.17" transform="translate(0 0)"/><path class="cls-2" d="M256.19,85.57,255,84.66l5.25-6.89a8.83,8.83,0,0,0-6.21-7.2c-5.33-1.11-7.69.6-8.22,1.07l-2,9.86-1.47-.3,2-10.08a.78.78,0,0,1,.16-.33c.11-.13,2.72-3.17,9.85-1.67a10.53,10.53,0,0,1,7.37,8.8.67.67,0,0,1-.15.51Z" transform="translate(0 0)"/><path class="cls-2" d="M258.67,80.74c-6.11-8.06-13.86-5.68-13.94-5.66l-.46-1.43c.09,0,8.85-2.72,15.6,6.19Z" transform="translate(0 0)"/><path class="cls-2" d="M256.78,83.39a15.8,15.8,0,0,0-12.89-4.67l-.25-1.48a17.11,17.11,0,0,1,14.2,5.09Z" transform="translate(0 0)"/><rect class="cls-2" x="270.75" y="73.83" width="1.5" height="29.22" transform="translate(72.74 293.45) rotate(-63.93)"/><path class="cls-2" d="M388.77,154a35.32,35.32,0,0,1-21.13-7c-7.47-5.54-11.93-13.34-11.93-20.86a30,30,0,0,1,30-30c4.31,0,9.36,1.66,11.34,2.38l-.52,1.41c-1.48-.54-6.64-2.29-10.82-2.29a28.52,28.52,0,0,0-28.49,28.49c0,7.05,4.23,14.4,11.32,19.66a33.91,33.91,0,0,0,30.3,5.23c.34-.1,1.51-.56,2.36-.9.59-.24,1.13-.45,1.36-.53l.51,1.41c-.23.08-.74.29-1.32.52-1.22.47-2.1.82-2.47.93a36,36,0,0,1-10.5,1.58" transform="translate(0 0)"/><path class="cls-2" d="M413.76,135.15l-1.29-.77c1.45-2.43,1.61-7.33,1.61-9.32a34.61,34.61,0,0,0-2.46-11l1.39-.55a35.5,35.5,0,0,1,2.57,11.5c0,2.63-.24,7.43-1.82,10.09" transform="translate(0 0)"/><path class="cls-2" d="M403.46,150.6l-1.31-.74c3.68-6.48,3.88-15.81.55-25.6-4.12-12.08-12.76-22.15-22.56-26.27l.58-1.39c10.18,4.29,19.15,14.7,23.4,27.17,3.47,10.2,3.23,20-.66,26.83" transform="translate(0 0)"/><path class="cls-2" d="M404.49,115.18A.78.78,0,0,1,404,115l-8.16-6.13a.73.73,0,0,1-.3-.68l1.21-10.41a.75.75,0,0,1,1-.61l8.26,3.37a.75.75,0,0,1,.47.77l-1.31,13.16a.75.75,0,0,1-.44.61.67.67,0,0,1-.31.07M397.12,108l6.76,5.07L405,101.75,398.17,99Z" transform="translate(0 0)"/><path class="cls-2" d="M404.55,115.18l-.11-1.5L413,113l1-11H405.8v-1.5h9a.73.73,0,0,1,.55.25.78.78,0,0,1,.2.57l-1.11,12.47a.74.74,0,0,1-.69.68Z" transform="translate(0 0)"/><path class="cls-2" d="M414.55,102l-10.16-4.14-6.76.82-.18-1.49,6.95-.85a1,1,0,0,1,.38,0l10.33,4.22Z" transform="translate(0 0)"/><path class="cls-2" d="M414.51,111.83l-1.15-1,8.76-10.3-4.06-9.1-7.34,8.39-1.13-1,8.11-9.27a.77.77,0,0,1,.67-.25.75.75,0,0,1,.58.44l4.74,10.6a.74.74,0,0,1-.12.79Z" transform="translate(0 0)"/><path class="cls-2" d="M423.14,101.42l-.27-1.48,7.4-1.35-4.46-9.27-7.4,1.5-.3-1.47,8-1.62a.75.75,0,0,1,.82.41l5.15,10.69a.75.75,0,0,1,0,.67.74.74,0,0,1-.53.39Z" transform="translate(0 0)"/><rect class="cls-2" x="409.18" y="109.04" width="27.29" height="1.5" transform="translate(72.55 370.83) rotate(-51.25)"/><path class="cls-2" d="M367.88,157.77a1,1,0,0,1-.6-.2,1,1,0,0,1-.19-1.41l6.8-9a1,1,0,0,1,1.41-.2,1,1,0,0,1,.19,1.4l-6.81,9a1,1,0,0,1-.8.4" transform="translate(0 0)"/><path class="cls-2" d="M372.6,159.2a1,1,0,0,1-.6-.2,1,1,0,0,1-.19-1.4l6.8-9a1,1,0,0,1,1.6,1.21l-6.81,9a1,1,0,0,1-.8.39" transform="translate(0 0)"/><path class="cls-2" d="M377.26,98A.69.69,0,0,1,377,98l-20.6-8.48-33.68,7a.76.76,0,0,1-.89-.59.75.75,0,0,1,.59-.88L356.3,88a.74.74,0,0,1,.44,0l20.81,8.57a.75.75,0,0,1-.29,1.44" transform="translate(0 0)"/><path class="cls-2" d="M371.29,101.37a.75.75,0,0,1-.29-.06L355.85,95l-28.11,4.86a.75.75,0,1,1-.25-1.47l28.32-4.91a.83.83,0,0,1,.41,0l15.36,6.36a.76.76,0,0,1-.29,1.45" transform="translate(0 0)"/><path class="cls-2" d="M355.93,95h-.07a.75.75,0,0,1-.67-.82l.52-5.53a.75.75,0,1,1,1.49.15l-.52,5.52a.75.75,0,0,1-.75.68" transform="translate(0 0)"/><path class="cls-2" d="M343.07,110.62a.71.71,0,0,1-.28-.06L336.36,108a.75.75,0,1,1,.57-1.39l6.21,2.52,22.51-5.19a.76.76,0,0,1,.9.56.75.75,0,0,1-.57.9l-22.74,5.25-.17,0" transform="translate(0 0)"/><path class="cls-2" d="M370,163.7a.73.73,0,0,1-.67-.43l-25.54-53.4a.75.75,0,0,1,1.36-.65l25.53,53.4a.75.75,0,0,1-.35,1,.8.8,0,0,1-.33.08" transform="translate(0 0)"/><path class="cls-2" d="M352.36,131.39a.75.75,0,0,1-.68-.42l-10.07-21.1a.75.75,0,0,1,1.35-.65L353,130.32a.75.75,0,0,1-.36,1,.71.71,0,0,1-.32.07" transform="translate(0 0)"/><path class="cls-2" d="M368.79,166.26a.73.73,0,0,1-.67-.43l-13.61-28.42a.75.75,0,0,1,1.36-.65l13.6,28.43a.75.75,0,0,1-.35,1,.78.78,0,0,1-.33.07" transform="translate(0 0)"/><path class="cls-2" d="M335.89,134.75l-1.32-.71,9.32-17.26a1.48,1.48,0,0,0-.83-.7,1.19,1.19,0,0,0-.88.23l-2.94,5.11-1.3-.75,3-5.24a.78.78,0,0,1,.16-.2,2.83,2.83,0,0,1,2.22-.62,3,3,0,0,1,2.07,1.82.75.75,0,0,1,0,.7Z" transform="translate(0 0)"/><path class="cls-2" d="M370,222.59a.74.74,0,0,1-.45-.15.75.75,0,0,1-.3-.6V171.73a.75.75,0,0,1,.57-.72l28.79-7.2a.74.74,0,0,1,.67.16.73.73,0,0,1,.26.62l-1.85,28,3.14,20.79a.76.76,0,0,1-.54.84l-30.09,8.33a.64.64,0,0,1-.2,0m.75-50.27v48.53l28.5-7.89-3.06-20.21a.92.92,0,0,1,0-.16l1.8-27.07Z" transform="translate(0 0)"/><path class="cls-2" d="M365.81,220.64a.86.86,0,0,1-.37-.1l-9.88-5.71.75-1.3,8.75,5.06v-32.9l-9.82-5.41L356,179l10.22,5.62a.74.74,0,0,1,.38.66v34.64a.76.76,0,0,1-.37.65.86.86,0,0,1-.38.1" transform="translate(0 0)"/><rect class="cls-2" x="314.12" y="228.08" width="21.09" height="1.5" transform="translate(-38.66 68.31) rotate(-11.34)"/><rect class="cls-2" x="313.75" y="231.45" width="21.5" height="1.5" transform="matrix(0.98, -0.19, 0.19, 0.98, -37.98, 65.4)"/><path class="cls-2" d="M356.19,227.49l-.27-1.47,11.94-2.15-.52-2-10.73,2.27-.31-1.47,11.43-2.42a.76.76,0,0,1,.88.54l.91,3.48a.73.73,0,0,1-.1.59.74.74,0,0,1-.5.34Z" transform="translate(0 0)"/><rect class="cls-2" x="324.67" y="179.32" width="1.5" height="20.97" transform="translate(-17.75 345.24) rotate(-54.62)"/><rect class="cls-2" x="322.66" y="180.51" width="1.5" height="25.95" transform="translate(-21.94 344.37) rotate(-54.49)"/><path class="cls-2" d="M317.36,227a.74.74,0,0,1-.49-.18.75.75,0,0,1-.26-.64,12.81,12.81,0,0,0-1.27-6.73.74.74,0,0,1,.46-1.09l18.75-4.93.38,1.45-17.88,4.7a14.56,14.56,0,0,1,1.1,5.69l16.57-4.19.37,1.46L317.54,227a.57.57,0,0,1-.18,0" transform="translate(0 0)"/><rect class="cls-2" x="313.68" y="213.22" width="21.26" height="1.5" transform="translate(-39.4 77.32) rotate(-12.82)"/><path class="cls-2" d="M324.72,214c-3.93-10.42-12.32-19-12.41-19.08l1.07-1.06c.35.36,8.7,8.9,12.74,19.61Z" transform="translate(0 0)"/><polygon class="cls-2" points="292.83 130.85 282.49 122.8 283.41 121.61 293.18 129.22 313.44 124.33 313.79 125.79 292.83 130.85"/><polygon class="cls-2" points="322.64 152.84 321.39 128.41 290.38 135.51 290.05 134.05 322.8 126.55 324.14 152.77 322.64 152.84"/><polygon class="cls-2" points="299.27 154.16 298.87 152.72 302.29 151.75 292.52 116.29 293.97 115.89 304.13 152.79 299.27 154.16"/><rect class="cls-2" x="310.25" y="121.88" width="1.5" height="48.41" transform="translate(-19.8 53.17) rotate(-9.47)"/><path class="cls-2" d="M313.76,158.33l-1.48-.25c3.08-17.66-3.69-24.1-3.76-24.16l1-1.11c.3.28,7.43,7.06,4.22,25.52" transform="translate(0 0)"/><path class="cls-2" d="M314.21,161.86l-1.28-.78c0-.06,3.63-6.11,2.32-16.71-1.3-9-6.62-13.09-6.67-13.13l.9-1.2c.24.18,5.87,4.51,7.26,14.13,1.38,11.17-2.37,17.43-2.53,17.69" transform="translate(0 0)"/><path class="cls-2" d="M298.26,164.88a6.11,6.11,0,0,1-2-.36,5.81,5.81,0,0,1-3.85-7.55l1.42.47a4.33,4.33,0,0,0,2.91,5.66,3.21,3.21,0,0,0,2.86-.11c1.44-.92,1.68-3.24,1.68-3.26l1.49.14c0,.12-.3,3-2.34,4.38a4,4,0,0,1-2.2.63" transform="translate(0 0)"/><polygon class="cls-2" points="355.79 173.51 355.42 172.06 365.06 169.6 365.06 166.51 356.15 169.17 355.72 167.73 366.56 164.5 366.56 170.76 355.79 173.51"/><path class="cls-2" d="M296.09,105.23c-7.52-5.35-8.65-11.73-8.82-13.56L280,88.51a.74.74,0,0,1-.45-.71.75.75,0,0,1,.51-.68l12-4.07a.8.8,0,0,1,.55,0l26.87,12-.61,1.37L292.22,84.56l-9.87,3.35,5.94,2.56a.76.76,0,0,1,.45.69c0,.07.19,7.14,8.22,12.85Z" transform="translate(0 0)"/><path class="cls-2" d="M332.07,119.44l-.45-1.43,5.62-1.76-1.86-12.33-14.5-7.32-13.61,4.79a.77.77,0,0,1-.61,0l-5-2.69.71-1.32,4.67,2.53,13.61-4.79a.78.78,0,0,1,.58,0l15.13,7.64a.76.76,0,0,1,.41.56l2,13.35a.75.75,0,0,1-.51.83Z" transform="translate(0 0)"/><rect class="cls-2" x="279.51" y="87.83" width="1.5" height="4.84"/><path class="cls-2" d="M286.47,86.19,285,85.74l.76-2.47-18.58-8.15V86h-1.5V74a.75.75,0,0,1,1-.69L287,82.17a.74.74,0,0,1,.41.91Z" transform="translate(0 0)"/><path class="cls-2" d="M340.7,92.21l-1.5-.1c0-.4,0-.81,0-1.22,0-12-10.65-21.84-23.73-21.84A24.91,24.91,0,0,0,293,84l-1.38-.57a26.44,26.44,0,0,1,23.94-15.92c13.91,0,25.23,10.47,25.23,23.34,0,.44,0,.88,0,1.32" transform="translate(0 0)"/><path class="cls-2" d="M302.9,69.49a.74.74,0,0,1-.45-.15l-6-4.47a.73.73,0,0,1-.3-.68l.88-7.6a.76.76,0,0,1,.37-.56.73.73,0,0,1,.66-.05l6,2.46a.75.75,0,0,1,.47.77l-1,9.61a.76.76,0,0,1-.45.61.8.8,0,0,1-.3.06m-5.17-5.56,4.55,3.41.77-7.72-4.6-1.88Z" transform="translate(0 0)"/><path class="cls-2" d="M303,69.49l-.11-1.5,6.1-.45.68-7.66h-5.77v-1.5h6.59a.73.73,0,0,1,.55.25.71.71,0,0,1,.2.57l-.81,9.1a.73.73,0,0,1-.69.68Z" transform="translate(0 0)"/><path class="cls-2" d="M310.16,59.83l-7.36-3-4.89.59-.18-1.49,5.08-.62a.79.79,0,0,1,.37,0l7.54,3.08Z" transform="translate(0 0)"/><path class="cls-2" d="M322.35,69l-6.68-15.25-4.74.69,5.88,13.11-1.37.61-6.28-14a.75.75,0,0,1,0-.67.8.8,0,0,1,.55-.38l6.29-.9a.74.74,0,0,1,.79.44l6.91,15.77Z" transform="translate(0 0)"/><path class="cls-2" d="M303.45,56.37l-2.08-4.61a.74.74,0,0,1,.07-.73L305.59,45a.74.74,0,0,1,.52-.32l7.63-1a.76.76,0,0,1,.77.42l3.67,7.56a.74.74,0,0,1-.23.93l-1.38,1-.89-1.21.88-.64-3.16-6.51-6.76.89-3.73,5.43,1.9,4.22Z" transform="translate(0 0)"/><path class="cls-2" d="M306.14,57.29l-.84-1.24,4.12-2.8a.84.84,0,0,1,.31-.12l2.82-.4.22,1.48-2.65.38Z" transform="translate(0 0)"/><rect class="cls-2" x="307.28" y="45.03" width="1.5" height="9.22" transform="translate(5.35 125.36) rotate(-23.2)"/><path class="cls-2" d="M320.49,63.45l-.2-1.48,4.6-.63-3.3-7.55c-2,.28-4,.61-4.37.73l-.25-.64h-.85c0-.75,0-.86,5.82-1.66a.75.75,0,0,1,.79.45l3.94,9a.75.75,0,0,1,0,.67.73.73,0,0,1-.55.38Z" transform="translate(0 0)"/><rect class="cls-2" x="321" y="63.67" width="6.21" height="1.5" transform="matrix(0.6, -0.8, 0.8, 0.6, 76.76, 283.53)"/><path class="cls-2" d="M329.46,94.33C325.75,74.22,312.53,69.05,312.4,69l.52-1.4c.58.21,14.15,5.52,18,26.45Z" transform="translate(0 0)"/><path class="cls-2" d="M369.26,171.84l-1.21-8.79a.75.75,0,0,1,.57-.83l33.1-7.59.33,1.46-32.42,7.44,1.12,8.1Z" transform="translate(0 0)"/><rect class="cls-2" x="445.35" y="115.87" width="1.5" height="62.8" transform="translate(159.7 519.66) rotate(-70.71)"/><rect class="cls-2" x="444.92" y="122.53" width="1.5" height="63.12" transform="translate(146.54 518.62) rotate(-69.7)"/><rect class="cls-2" x="444.49" y="129.17" width="1.5" height="63.46" transform="translate(133.63 517.31) rotate(-68.71)"/><rect class="cls-2" x="444.06" y="135.8" width="1.5" height="63.82" transform="translate(120.98 515.73) rotate(-67.72)"/><rect class="cls-2" x="443.62" y="142.43" width="1.5" height="64.2" transform="translate(108.6 513.91) rotate(-66.75)"/><rect class="cls-2" x="443.19" y="149.04" width="1.5" height="64.59" transform="translate(96.48 511.85) rotate(-65.79)"/><rect class="cls-2" x="442.76" y="155.65" width="1.5" height="65" transform="translate(84.64 509.57) rotate(-64.84)"/><rect class="cls-2" x="442.33" y="162.25" width="1.5" height="65.44" transform="translate(73.07 507.09) rotate(-63.9)"/><rect class="cls-2" x="441.89" y="168.83" width="1.5" height="65.88" transform="translate(61.78 504.41) rotate(-62.98)"/><rect class="cls-2" x="441.46" y="175.42" width="1.5" height="66.35" transform="translate(50.76 501.55) rotate(-62.06)"/><rect class="cls-2" x="441.03" y="181.99" width="1.5" height="66.83" transform="translate(40.02 498.52) rotate(-61.17)"/><rect class="cls-2" x="440.59" y="188.55" width="1.5" height="67.33" transform="translate(29.56 495.34) rotate(-60.28)"/><rect class="cls-2" x="440.16" y="195.11" width="1.5" height="67.84" transform="translate(19.37 492.01) rotate(-59.41)"/><rect class="cls-2" x="439.73" y="201.65" width="1.5" height="68.37" transform="translate(9.45 488.54) rotate(-58.55)"/><rect class="cls-2" x="439.3" y="208.19" width="1.5" height="68.92" transform="matrix(0.53, -0.85, 0.85, 0.53, -0.19, 484.96)"/><rect class="cls-2" x="438.86" y="214.73" width="1.5" height="69.47" transform="translate(-9.56 481.27) rotate(-56.87)"/><path class="cls-2" d="M468.2,292.18l-59.88-42.74,7.62-120,61.3,20.28Zm-57.81-43.72,56,40,8.72-137.31-57.38-19Z" transform="translate(0 0)"/><rect class="cls-2" x="356.35" y="190.69" width="119.49" height="1.5" transform="translate(198.69 594.57) rotate(-86.37)"/><rect class="cls-2" x="358.79" y="192.24" width="120.6" height="1.5" transform="translate(199.93 599.01) rotate(-86.37)"/><rect class="cls-2" x="361.27" y="193.82" width="121.73" height="1.5" transform="translate(201.21 603.53) rotate(-86.37)"/><rect class="cls-2" x="363.8" y="195.44" width="122.88" height="1.5" transform="translate(202.5 608.14) rotate(-86.37)"/><rect class="cls-2" x="366.37" y="197.08" width="124.06" height="1.5" transform="translate(203.82 612.83) rotate(-86.37)"/><rect class="cls-2" x="368.99" y="198.76" width="125.25" height="1.5" transform="translate(205.17 617.62) rotate(-86.37)"/><rect class="cls-2" x="371.67" y="200.47" width="126.48" height="1.5" transform="translate(206.54 622.5) rotate(-86.37)"/><rect class="cls-2" x="374.4" y="202.21" width="127.72" height="1.5" transform="translate(207.94 627.48) rotate(-86.37)"/><rect class="cls-2" x="377.18" y="203.99" width="128.99" height="1.5" transform="translate(209.37 632.55) rotate(-86.37)"/><rect class="cls-2" x="380.02" y="205.8" width="130.28" height="1.5" transform="translate(210.83 637.73) rotate(-86.37)"/><rect class="cls-2" x="382.92" y="207.65" width="131.6" height="1.5" transform="translate(212.31 643.01) rotate(-86.37)"/><rect class="cls-2" x="385.87" y="209.54" width="132.95" height="1.5" transform="translate(213.83 648.4) rotate(-86.37)"/><rect class="cls-2" x="388.89" y="211.46" width="134.33" height="1.5" transform="translate(215.38 653.9) rotate(-86.37)"/><rect class="cls-2" x="391.97" y="213.43" width="135.73" height="1.5" transform="translate(216.66 659.36) rotate(-86.33)"/><rect class="cls-2" x="395.11" y="215.44" width="137.17" height="1.5" transform="translate(218.27 665.09) rotate(-86.33)"/><rect class="cls-2" x="398.33" y="217.49" width="138.63" height="1.5" transform="translate(219.91 670.95) rotate(-86.33)"/><rect class="cls-2" x="438.14" y="221.12" width="1.5" height="69.93" transform="translate(-18.64 477.14) rotate(-56.05)"/><rect class="cls-2" x="437.71" y="227.63" width="1.5" height="70.52" transform="translate(-27.48 473.26) rotate(-55.25)"/><rect class="cls-2" x="525.72" y="128.19" width="1.5" height="94.44" transform="translate(186.95 614.35) rotate(-70.71)"/><rect class="cls-2" x="525.19" y="136.32" width="1.5" height="94.92" transform="translate(171.11 613.29) rotate(-69.7)"/><rect class="cls-2" x="524.66" y="144.43" width="1.5" height="95.43" transform="translate(155.57 611.9) rotate(-68.71)"/><rect class="cls-2" x="524.12" y="152.53" width="1.5" height="95.97" transform="translate(140.34 610.19) rotate(-67.72)"/><rect class="cls-2" x="523.59" y="160.62" width="1.5" height="96.54" transform="translate(125.43 608.18) rotate(-66.75)"/><rect class="cls-2" x="523.06" y="168.69" width="1.5" height="97.13" transform="translate(110.84 605.89) rotate(-65.79)"/><rect class="cls-2" x="522.53" y="176.75" width="1.5" height="97.75" transform="translate(96.58 603.32) rotate(-64.84)"/><rect class="cls-2" x="522" y="184.79" width="1.5" height="98.4" transform="translate(82.64 600.5) rotate(-63.9)"/><rect class="cls-2" x="521.47" y="192.83" width="1.5" height="99.08" transform="translate(69.04 597.44) rotate(-62.98)"/><rect class="cls-2" x="520.94" y="200.85" width="1.5" height="99.77" transform="translate(55.77 594.16) rotate(-62.06)"/><rect class="cls-2" x="520.4" y="208.85" width="1.5" height="100.5" transform="translate(42.83 590.68) rotate(-61.17)"/><rect class="cls-2" x="519.87" y="216.85" width="1.5" height="101.25" transform="translate(30.23 587.01) rotate(-60.28)"/><rect class="cls-2" x="519.34" y="224.83" width="1.5" height="102.02" transform="translate(17.95 583.15) rotate(-59.41)"/><rect class="cls-2" x="518.81" y="232.8" width="1.5" height="102.82" transform="translate(6.01 579.14) rotate(-58.55)"/><rect class="cls-2" x="518.28" y="240.76" width="1.5" height="103.64" transform="translate(-5.61 574.97) rotate(-57.7)"/><rect class="cls-2" x="517.75" y="248.71" width="1.5" height="104.48" transform="translate(-16.91 570.67) rotate(-56.87)"/><path class="cls-2" d="M561.39,358.69l-89.08-63.58,9.14-144,91.21,30.17Zm-87-64.56L559.62,355,570.56,182.7l-87.28-28.87Z" transform="translate(0 0)"/><rect class="cls-2" x="410.18" y="225.06" width="144.04" height="1.5" transform="translate(225.98 692.56) rotate(-86.33)"/><rect class="cls-2" x="413.72" y="227.32" width="145.66" height="1.5" transform="translate(227.8 699.02) rotate(-86.33)"/><rect class="cls-2" x="417.35" y="229.63" width="147.31" height="1.5" transform="translate(229.66 705.63) rotate(-86.33)"/><rect class="cls-2" x="421.06" y="232" width="149" height="1.5" transform="translate(231.55 712.39) rotate(-86.33)"/><rect class="cls-2" x="424.85" y="234.42" width="150.73" height="1.5" transform="translate(233.5 719.3) rotate(-86.33)"/><rect class="cls-2" x="428.73" y="236.9" width="152.5" height="1.5" transform="translate(235.48 726.38) rotate(-86.33)"/><rect class="cls-2" x="432.71" y="239.44" width="154.31" height="1.5" transform="translate(237.52 733.63) rotate(-86.33)"/><rect class="cls-2" x="436.78" y="242.04" width="156.17" height="1.5" transform="translate(239.61 741.05) rotate(-86.33)"/><rect class="cls-2" x="440.95" y="244.7" width="158.07" height="1.5" transform="translate(241.74 748.66) rotate(-86.33)"/><rect class="cls-2" x="445.22" y="247.43" width="160.02" height="1.5" transform="translate(243.93 756.45) rotate(-86.33)"/><rect class="cls-2" x="449.6" y="250.23" width="162.02" height="1.5" transform="translate(246.17 764.43) rotate(-86.33)"/><rect class="cls-2" x="454.09" y="253.1" width="164.07" height="1.5" transform="translate(248.47 772.62) rotate(-86.33)"/><rect class="cls-2" x="458.69" y="256.04" width="166.17" height="1.5" transform="translate(250.83 781.01) rotate(-86.33)"/><rect class="cls-2" x="463.42" y="259.05" width="168.32" height="1.5" transform="translate(253.25 789.63) rotate(-86.33)"/><rect class="cls-2" x="468.27" y="262.15" width="170.53" height="1.5" transform="translate(255.73 798.47) rotate(-86.33)"/><rect class="cls-2" x="473.25" y="265.33" width="172.8" height="1.5" transform="translate(258.28 807.54) rotate(-86.33)"/><rect class="cls-2" x="516.77" y="256.46" width="1.5" height="105.12" transform="translate(-27.83 565.74) rotate(-56.05)"/><rect class="cls-2" x="516.24" y="264.38" width="1.5" height="106" transform="translate(-38.49 561.2) rotate(-55.24)"/><rect class="cls-2" x="654.51" y="141.5" width="1.5" height="158" transform="translate(230.64 766.1) rotate(-70.71)"/><rect class="cls-2" x="653.82" y="151.96" width="1.5" height="158.8" transform="translate(210.49 765.01) rotate(-69.7)"/><rect class="cls-2" x="653.13" y="162.4" width="1.5" height="159.66" transform="translate(190.73 763.5) rotate(-68.71)"/><rect class="cls-2" x="652.44" y="172.81" width="1.5" height="160.56" transform="translate(171.36 761.57) rotate(-67.72)"/><rect class="cls-2" x="651.75" y="183.2" width="1.5" height="161.51" transform="translate(152.4 759.25) rotate(-66.75)"/><rect class="cls-2" x="651.06" y="193.57" width="1.5" height="162.5" transform="translate(133.85 756.58) rotate(-65.79)"/><rect class="cls-2" x="650.37" y="203.91" width="1.5" height="163.54" transform="translate(115.71 753.55) rotate(-64.84)"/><rect class="cls-2" x="649.68" y="214.23" width="1.5" height="164.62" transform="translate(97.98 750.19) rotate(-63.9)"/><rect class="cls-2" x="648.99" y="224.53" width="1.5" height="165.75" transform="translate(80.68 746.54) rotate(-62.98)"/><rect class="cls-2" x="648.3" y="234.81" width="1.5" height="166.92" transform="translate(63.8 742.59) rotate(-62.06)"/><rect class="cls-2" x="647.61" y="245.07" width="1.5" height="168.13" transform="translate(47.34 738.38) rotate(-61.17)"/><rect class="cls-2" x="646.92" y="255.31" width="1.5" height="169.39" transform="translate(31.3 733.91) rotate(-60.28)"/><rect class="cls-2" x="646.23" y="265.52" width="1.5" height="170.68" transform="translate(15.69 729.23) rotate(-59.41)"/><rect class="cls-2" x="645.54" y="275.72" width="1.5" height="172.01" transform="translate(0.49 724.32) rotate(-58.55)"/><rect class="cls-2" x="644.85" y="285.9" width="1.5" height="173.38" transform="translate(-14.3 719.22) rotate(-57.7)"/><rect class="cls-2" x="644.16" y="296.06" width="1.5" height="174.79" transform="translate(-28.68 713.95) rotate(-56.87)"/><path class="cls-2" d="M716.67,469.51,568.93,364.06l11.44-180.22,151.26,50ZM571,363.08,714.9,465.79l14.64-230.5L582.2,186.55Z" transform="translate(0 0)"/><rect class="cls-2" x="491.84" y="277.2" width="181.28" height="1.5" transform="translate(267.8 841.44) rotate(-86.33)"/><rect class="cls-2" x="497.47" y="280.8" width="183.85" height="1.5" transform="translate(270.69 851.71) rotate(-86.33)"/><rect class="cls-2" x="503.26" y="284.5" width="186.49" height="1.5" transform="translate(273.65 862.27) rotate(-86.33)"/><rect class="cls-2" x="509.22" y="288.3" width="189.21" height="1.5" transform="translate(276.7 873.13) rotate(-86.33)"/><rect class="cls-2" x="515.36" y="292.22" width="192.01" height="1.5" transform="translate(279.85 884.32) rotate(-86.33)"/><rect class="cls-2" x="521.68" y="296.26" width="194.89" height="1.5" transform="translate(283.09 895.85) rotate(-86.33)"/><rect class="cls-2" x="528.2" y="300.42" width="197.86" height="1.5" transform="translate(286.42 907.72) rotate(-86.33)"/><rect class="cls-2" x="534.91" y="304.71" width="200.93" height="1.5" transform="translate(289.86 919.97) rotate(-86.33)"/><rect class="cls-2" x="541.84" y="309.13" width="204.09" height="1.5" transform="translate(293.41 932.6) rotate(-86.33)"/><rect class="cls-2" x="548.99" y="313.69" width="207.35" height="1.5" transform="translate(297.07 945.63) rotate(-86.33)"/><rect class="cls-2" x="556.37" y="318.41" width="210.71" height="1.5" transform="translate(300.85 959.08) rotate(-86.33)"/><rect class="cls-2" x="563.99" y="323.28" width="214.19" height="1.5" transform="translate(304.75 972.98) rotate(-86.33)"/><rect class="cls-2" x="571.87" y="328.31" width="217.78" height="1.5" transform="translate(308.79 987.35) rotate(-86.33)"/><rect class="cls-2" x="580.02" y="333.51" width="221.5" height="1.5" transform="translate(312.96 1002.21) rotate(-86.33)"/><rect class="cls-2" x="588.45" y="338.89" width="225.35" height="1.5" transform="translate(317.28 1017.58) rotate(-86.33)"/><rect class="cls-2" x="597.18" y="344.47" width="229.33" height="1.5" transform="translate(321.75 1033.49) rotate(-86.33)"/><rect class="cls-2" x="642.72" y="305.93" width="1.5" height="175.75" transform="translate(-42.56 707.66) rotate(-56.05)"/><rect class="cls-2" x="642.03" y="316.04" width="1.5" height="177.23" transform="translate(-56.11 702.08) rotate(-55.25)"/><path class="cls-2" d="M406.49,241.29,406,241l-2.68-1.85a1.17,1.17,0,0,1-.48-.82l-6.28-43.11V195l1.9-29.4,11-34.07.8-.45.43.14,3,1a1.16,1.16,0,0,1,.74,1.21l-6.77,106.66a1.13,1.13,0,0,1-.61,1Zm-1.75-3.62,1,.68,6.64-104.46-1.43-.49-10.56,32.68-1.84,29Zm.05.32h0m-.38-.55,0,0,0,0M413,134.1h0Zm-8.41,92.15a1.1,1.1,0,0,1-1.07-1L399.13,195v-.2l1.71-26.38,8.08-24.8.93.1a1.13,1.13,0,0,1,.88,1.23l-5.09,80.28a1.09,1.09,0,0,1-1,1.06h0m-3.45-31.42,3.08,21.31L408.29,152l-5.51,16.89Z" transform="translate(0 0)"/><rect class="cls-2" x="405.08" y="161.34" width="2" height="5.24" transform="translate(90.24 467.33) rotate(-65.83)"/><rect class="cls-2" x="403.92" y="166.75" width="2" height="6.91" transform="translate(78.54 464.16) rotate(-64.81)"/><rect class="cls-2" x="402.24" y="193.08" width="2" height="7.11" transform="translate(34.94 452.81) rotate(-60.82)"/><rect class="cls-2" x="402.56" y="200.83" width="2" height="5.48" transform="translate(24.94 450.45) rotate(-59.87)"/><rect class="cls-2" x="403.54" y="172.61" width="2" height="6.95" transform="translate(68.42 461.89) rotate(-63.9)"/><rect class="cls-2" x="402.61" y="187.2" width="2" height="7.07" transform="translate(44.28 455.61) rotate(-61.69)"/><path class="cls-2" d="M57,17.79l4.84,93.91,66.87,31.17L123.28,38.52Zm65,31L119.35,48l-.2-3.89,2.63.84Zm-4-1.33-2.72-.89-.2-3.86,2.72.87Zm-27.8,36L90,79.92l2.38.94.19,3.61ZM92.61,86l.19,3.61-2.39-1L90.23,85ZM91.82,70.6,92,74.23l-2.38-.92-.19-3.61Zm-2.46-2.39-.18-3.61,2.38.88.18,3.63Zm2.73,7.52.18,3.62-2.38-.94-.19-3.6Zm-3.87-3-2.34-.9-.18-3.58,2.34.89Zm.08,1.5.18,3.59-2.33-.92L86,73.37Zm.26,5.1L88.75,83,86.41,82l-.19-3.56Zm5.2,2,2.43,1L96.37,86l-2.43-1Zm-.08-1.51-.19-3.63,2.43.94.19,3.65Zm-.27-5.13-.19-3.64,2.43.92.19,3.66Zm-.26-5.13L93,66l2.43.89.19,3.66Zm-.27-5.14-.19-3.64,2.43.87.19,3.67ZM91.48,64,89.1,63.1l-.19-3.61,2.38.86ZM87.7,62.59l-2.34-.87-.18-3.58,2.33.84Zm.07,1.49.19,3.6-2.34-.88-.18-3.58Zm-3.55,2.19-2.29-.87-.18-3.55L84,62.7Zm.08,1.49.18,3.57-2.29-.89L82,66.9Zm.26,5.07.18,3.56-2.29-.91-.18-3.54Zm.26,5.06L85,81.45l-2.29-.93L82.53,77ZM85.08,83l.18,3.54L83,85.56,82.79,82Zm1.41.56,2.33.94L89,88l-2.34-1Zm2.6,6,.18,3.57-2.34-1-.18-3.55Zm1.4.57,2.39,1,.19,3.61-2.39-1Zm3.79,1.56,2.44,1,.19,3.63-2.44-1Zm-.07-1.52L94,86.55l2.43,1,.19,3.64Zm3.65-2.08,2.48,1,.19,3.67-2.48-1Zm-.08-1.51-.19-3.66,2.48,1,.19,3.67Zm-.27-5.17-.19-3.66,2.48,1,.19,3.68Zm-.26-5.16-.19-3.67,2.47.93.19,3.69ZM97,71.08l-.19-3.67,2.48.91.19,3.7Zm-.27-5.16-.19-3.68,2.48.89.19,3.7Zm-.26-5.17-.19-3.68,2.47.87.19,3.7ZM95,60.24l-2.42-.87-.19-3.65,2.43.86Zm-3.82-1.38L88.84,58l-.19-3.62,2.38.84ZM87.43,57.5l-2.33-.85-.19-3.59,2.34.83ZM83.7,56.15l-2.29-.83-.19-3.56,2.29.81Zm.07,1.49L84,61.21l-2.29-.85-.18-3.55Zm-3.5,2.2L78,59l-.18-3.52,2.24.81Zm.07,1.5.18,3.53L78.28,64l-.18-3.51Zm.26,5,.18,3.53L78.54,69l-.18-3.51Zm.26,5L81,74.93,78.79,74l-.18-3.5Zm.26,5L81.3,80l-2.25-.9-.18-3.51Zm.26,5L81.56,85l-2.25-.92-.18-3.5Zm.26,5L81.82,90l-2.25-.94-.18-3.5Zm1.41.58,2.29.94.18,3.54-2.29-1Zm2.55,6,.19,3.53-2.3-1-.18-3.52Zm1.41.58,2.34,1,.18,3.57-2.34-1Zm3.75,1.57,2.38,1,.19,3.6-2.39-1Zm3.79,1.59,2.43,1,.19,3.64-2.43-1Zm3.84,1.6,2.48,1,.19,3.66-2.48-1.06Zm-.08-1.52-.19-3.65,2.48,1,.19,3.67Zm3.7-2.06,2.53,1,.19,3.7-2.53-1.06Zm-.08-1.51-.19-3.69,2.53,1,.19,3.7Zm-.27-5.2-.19-3.69,2.53,1,.19,3.72Zm-.26-5.2-.19-3.69,2.52,1,.19,3.72Zm-.27-5.2-.19-3.7,2.52,1,.19,3.72Zm-.27-5.19-.19-3.71,2.52.93.19,3.73Zm-.27-5.2-.19-3.71,2.52.91.2,3.73Zm-.27-5.2-.19-3.71,2.52.89.2,3.73Zm-.26-5.2-.2-3.71,2.52.87.2,3.73Zm-1.41-.49-2.47-.87L96,51.9l2.47.85Zm-3.87-1.37-2.43-.86-.19-3.65,2.43.84ZM91,53.74l-2.38-.84-.18-3.62,2.37.82ZM87.17,52.4l-2.33-.82L84.65,48l2.33.8Zm-3.73-1.31-2.29-.81L81,46.72l2.29.79Zm-3.69-1.31L77.5,49l-.18-3.53,2.24.77Zm.07,1.49L80,54.81,77.76,54l-.18-3.52ZM76.36,53.5l-2.2-.8L74,49.2l2.2.78ZM76.44,55l.18,3.51-2.21-.81-.18-3.49Zm.25,5,.18,3.5-2.2-.83-.18-3.49ZM77,65l.18,3.5-2.2-.85-.18-3.48Zm.26,5,.18,3.49-2.2-.87L75,69.15Zm.26,5,.18,3.49-2.21-.89-.18-3.47Zm.26,5,.18,3.49-2.21-.91-.18-3.46ZM78,85l.18,3.48L76,87.57l-.18-3.47Zm.26,5,.18,3.48-2.21-.94L76,89.09Zm1.41.59,2.25.94.18,3.51-2.25-1Zm2.51,6,.18,3.5-2.25-1-.18-3.49Zm1.41.6,2.29,1,.19,3.53-2.3-1Zm3.7,1.58,2.34,1,.19,3.56-2.35-1Zm3.75,1.6,2.39,1,.18,3.59-2.39-1Zm3.8,1.61,2.43,1,.19,3.63L95,105.57Zm3.84,1.64,2.48,1.06.19,3.66-2.48-1.08Zm3.89,1.66,2.53,1.08.19,3.69-2.53-1.1Zm-.08-1.53-.19-3.67,2.53,1,.19,3.7Zm3.75-2,2.58,1.08.19,3.73-2.58-1.1Zm-.08-1.52L106,96.47l2.58,1,.19,3.74ZM105.87,95l-.19-3.72,2.57,1,.2,3.74Zm-.27-5.23L105.41,86,108,87l.2,3.75Zm-.27-5.23-.19-3.73,2.57,1,.19,3.74Zm-.27-5.23-.19-3.73,2.57,1,.19,3.75ZM104.79,74l-.19-3.74,2.57.95.19,3.76Zm-.27-5.23-.19-3.74,2.57.93.19,3.76Zm-.27-5.23-.19-3.75,2.57.91.19,3.77ZM104,58.34l-.19-3.75,2.57.89.19,3.77Zm-.27-5.23-.19-3.76,2.56.87.2,3.78Zm-1.4-.48-2.52-.87L99.6,48l2.52.85Zm-3.92-1.36-2.48-.85-.19-3.69,2.47.83Zm-3.88-1.33-2.42-.84-.19-3.66,2.42.82Zm-3.82-1.32-2.38-.82-.19-3.63,2.38.8Zm-3.78-1.31-2.33-.8-.19-3.6,2.33.79ZM83.17,46l-2.28-.79-.19-3.57,2.29.77Zm-3.68-1.28L77.24,44l-.18-3.53,2.24.75ZM75.84,43.5l-2.2-.76-.18-3.51,2.2.74ZM75.92,45l.18,3.52-2.2-.78-.18-3.5ZM72.5,47.22l-2.16-.76L70.16,43l2.16.75Zm.08,1.49.18,3.48-2.16-.78L70.42,48Zm.25,5L73,57.16l-2.16-.79-.18-3.47Zm.26,5,.18,3.47-2.16-.81-.18-3.46Zm.26,5,.17,3.47-2.16-.83-.17-3.46Zm.25,5,.18,3.47-2.16-.85-.18-3.45Zm.26,5L74,77l-2.17-.87-.17-3.44Zm.25,5L74.29,82l-2.16-.89L72,77.68Zm.26,5L74.55,87l-2.17-.91-.17-3.43Zm.26,5L74.81,92,72.64,91l-.18-3.43Zm.25,5,.18,3.45L72.9,96l-.18-3.43Zm1.41.6L78.5,95l.18,3.48-2.21-1Zm2.47,6,.18,3.46-2.21-1-.18-3.45Zm1.41.61,2.25,1,.18,3.49-2.25-1Zm3.66,1.59,2.3,1,.18,3.52-2.3-1Zm3.7,1.61,2.35,1,.18,3.56-2.34-1Zm3.75,1.63,2.39,1,.19,3.59L91.47,109Zm3.8,1.64,2.44,1.06.18,3.62-2.43-1.08Zm3.84,1.67,2.49,1.08.19,3.65-2.49-1.1Zm3.9,1.69,2.53,1.1.19,3.69L103,114.13Zm3.94,1.71,2.58,1.12.19,3.72L107,115.87Zm-.08-1.53-.19-3.7,2.58,1.1.19,3.72Zm3.79-2,2.64,1.12.19,3.75-2.63-1.14Zm-.07-1.53-.2-3.74,2.63,1.1.2,3.76Zm-.28-5.26-.19-3.75,2.63,1.08.2,3.77Zm-.27-5.27-.19-3.75,2.63,1.06.19,3.77Zm-.27-5.26-.19-3.76,2.62,1,.2,3.78Zm-.27-5.26-.19-3.76,2.62,1,.2,3.78ZM109,80.79l-.2-3.76,2.63,1,.19,3.79Zm-.27-5.26-.2-3.77,2.63,1,.19,3.79Zm-.27-5.26-.2-3.78,2.62,1,.2,3.8ZM108.22,65,108,61.23l2.62.92.2,3.8ZM108,59.74,107.76,56l2.62.9.19,3.81Zm-.27-5.26-.19-3.79,2.62.88.19,3.81Zm-.27-5.27-.2-3.79,2.62.86.2,3.82Zm-1.4-.47-2.57-.86-.19-3.76,2.56.84Zm-4-1.33-2.52-.85-.19-3.73,2.52.83Zm-3.92-1.32-2.47-.84-.19-3.69,2.47.81Zm-3.87-1.31L91.82,44l-.19-3.67,2.43.8Zm-3.83-1.29-2.37-.8-.19-3.63,2.37.78Zm-3.77-1.27-2.34-.78-.18-3.6,2.33.76ZM82.91,41l-2.28-.77-.19-3.57,2.29.75Zm-3.68-1.25L77,39l-.19-3.54,2.24.74ZM75.59,38.5l-2.2-.74-.18-3.51L75.4,35ZM72,37.29l-2.16-.73-.18-3.48,2.16.71Zm.07,1.47.18,3.5-2.15-.75L69.91,38ZM68.69,41l-2.12-.73-.18-3.45,2.12.71Zm.07,1.48L68.94,46l-2.12-.75-.17-3.44ZM69,47.45l.17,3.46-2.11-.77-.18-3.43Zm.25,4.95.18,3.45-2.12-.78-.18-3.44Zm.26,4.94.17,3.45L67.59,60l-.18-3.43Zm.25,4.95L70,65.73l-2.12-.82-.18-3.42ZM70,67.23l.17,3.44-2.12-.84-.17-3.42Zm.25,4.94.18,3.44-2.12-.86-.18-3.41Zm.26,5,.17,3.43-2.12-.87-.17-3.41Zm.25,4.94L71,85.49l-2.12-.89-.18-3.41Zm.26,5,.17,3.41-2.12-.9-.18-3.4ZM71.31,92l.18,3.41-2.13-.92-.17-3.39Zm.26,5,.17,3.4-2.12-.94L69.44,96Zm1.4.61,2.17.94.18,3.43-2.17-.95Zm2.43,5.91.17,3.43-2.16-1-.18-3.42Zm1.41.62L79,105l.18,3.46-2.22-1Zm3.61,1.6,2.26,1,.18,3.49-2.26-1Zm3.67,1.62,2.3,1,.18,3.52-2.3-1Zm3.7,1.64,2.35,1,.18,3.55-2.34-1Zm3.76,1.66,2.39,1.06.18,3.58-2.39-1.07Zm3.8,1.68,2.43,1.08.19,3.62-2.44-1.1Zm3.84,1.7,2.49,1.1.18,3.65-2.48-1.12Zm3.89,1.72,2.54,1.12.19,3.68-2.54-1.14Zm4,1.75,2.58,1.14.19,3.71-2.58-1.16Zm4,1.76,2.63,1.17.2,3.74-2.64-1.18Zm-.08-1.54-.19-3.73,2.63,1.15.19,3.75Zm3.85-2,2.68,1.16.2,3.79L115,119.42Zm-.08-1.53-.2-3.77,2.69,1.14.19,3.79Zm-.28-5.3-.19-3.77,2.68,1.12.2,3.79Zm-.27-5.3L114,99.75l2.68,1.1.19,3.8Zm-.27-5.29-.2-3.79,2.68,1.08.2,3.81Zm-.28-5.3-.19-3.79,2.68,1.06.2,3.81Zm-.27-5.3-.19-3.79,2.67,1,.2,3.82Zm-.27-5.29-.2-3.8,2.68,1,.2,3.82Zm-.27-5.3-.2-3.8,2.67,1,.2,3.82Zm-.28-5.29L112.33,68l2.67,1,.2,3.83Zm-.27-5.3-.2-3.81,2.68.94.19,3.83Zm-.27-5.3-.2-3.81,2.67.92.2,3.84Zm-.28-5.29L111.51,52l2.67.9.19,3.85Zm-.27-5.3-.2-3.83,2.67.88.2,3.85Zm-.27-5.3-.2-3.83,2.67.86.2,3.85Zm-1.4-.46L107.14,44l-.2-3.79,2.62.84Zm-4-1.32-2.57-.84L103,38.89l2.56.82Zm-4-1.3-2.52-.83-.19-3.73,2.52.81ZM97.85,40.9l-2.47-.81-.19-3.7,2.47.79ZM94,39.63l-2.42-.8-.19-3.66,2.42.77Zm-3.82-1.26-2.38-.78L87.6,34l2.37.76Zm-3.78-1.24-2.33-.76-.18-3.61,2.33.75Zm-3.73-1.22-2.28-.75-.19-3.58,2.29.73ZM79,34.7,76.73,34l-.19-3.54,2.24.71Zm-3.64-1.2-2.2-.72L73,29.26l2.19.71Zm-3.6-1.18-2.15-.71-.18-3.49,2.15.69Zm-3.55-1.17-2.12-.7L65.88,27l2.12.68Zm.07,1.47.18,3.47-2.11-.71-.18-3.45ZM64.92,34.9l-2.08-.69-.17-3.43,2.07.69ZM65,36.38l.18,3.44L63.1,39.1l-.18-3.42Zm.26,4.92.17,3.43L63.35,44l-.18-3.41Zm.25,4.91.18,3.43-2.08-.75-.18-3.41Zm.25,4.92.18,3.42-2.08-.77-.17-3.4ZM66,56l.17,3.42-2.07-.79-.18-3.4ZM66.26,61l.18,3.41-2.08-.8-.18-3.4Zm.25,4.91.18,3.41-2.08-.82-.17-3.39Zm.26,4.92.17,3.4-2.08-.84L64.69,70ZM67,75.7l.18,3.4-2.09-.85-.17-3.38Zm.25,4.92L67.45,84l-2.08-.87-.18-3.38Zm.26,4.91.17,3.39L65.62,88l-.17-3.37Zm.25,4.92L68,93.83l-2.09-.9-.17-3.37ZM68,95.36l.18,3.38-2.09-.92L66,94.46Zm.26,4.92.17,3.37-2.08-.94-.18-3.35Zm1.41.62,2.12.94.18,3.4-2.13-1Zm2.38,5.89.17,3.39-2.12-1L70,105.83Zm1.41.63,2.16,1,.18,3.42-2.17-1ZM77.06,109l2.22,1,.17,3.45-2.21-1Zm3.62,1.63,2.26,1,.18,3.48-2.26-1Zm3.67,1.65,2.3,1,.18,3.51-2.3-1ZM88.06,114,90.4,115l.18,3.54-2.34-1.07Zm3.75,1.69,2.39,1.08.19,3.58-2.4-1.1Zm3.8,1.71,2.44,1.1.19,3.61L95.8,121Zm3.85,1.73,2.48,1.12.19,3.65-2.49-1.14Zm3.89,1.76,2.54,1.14.19,3.67-2.54-1.16Zm4,1.77,2.58,1.17.19,3.7-2.58-1.18Zm4,1.8,2.63,1.19.2,3.74-2.64-1.21Zm4,1.82,2.69,1.21.2,3.78L115.53,130Zm-.08-1.54-.19-3.76,2.69,1.19.19,3.78Zm3.9-2,2.74,1.21.2,3.82-2.74-1.24Zm-.08-1.54-.19-3.8,2.74,1.19.19,3.82Zm-.27-5.33-.2-3.8,2.74,1.17.2,3.82Zm-.27-5.33-.2-3.81,2.73,1.15.2,3.83Zm-.28-5.33-.2-3.81,2.74,1.12.2,3.84ZM118,99.91l-.2-3.82,2.73,1.1.2,3.84Zm-.28-5.33-.2-3.82,2.73,1.07.2,3.85Zm-.27-5.33-.2-3.83L120,86.48l.2,3.85Zm-.28-5.33-.2-3.83,2.73,1,.2,3.85Zm-.27-5.33-.2-3.84,2.73,1,.19,3.86Zm-.28-5.33-.2-3.84,2.73,1,.2,3.86Zm-.27-5.33-.2-3.85,2.72,1,.2,3.87Zm-.28-5.33-.2-3.85,2.73.94.2,3.87Zm-.27-5.33-.2-3.85,2.72.91.2,3.88Zm-.28-5.33-.2-3.86L118,49l.2,3.88ZM115,41.28l-.18-3.5,2.72.85.18,3.52Zm-1.4-.45L110.88,40l-.18-3.47,2.67.83Zm-4.07-1.3-2.61-.84-.18-3.43,2.62.81Zm-4-1.29-2.57-.82-.18-3.4,2.57.8Zm-4-1.27L99,36.16l-.17-3.37,2.52.79Zm-3.92-1.26-2.47-.79-.17-3.33,2.47.77Zm-3.86-1.24-2.43-.77-.17-3.31,2.42.76Zm-3.83-1.22-2.37-.76-.17-3.28,2.37.75ZM86.12,32l-2.33-.75-.17-3.24,2.33.73Zm-3.73-1.19-2.28-.74-.17-3.21,2.28.71Zm-3.68-1.18L76.47,29l-.17-3.19,2.24.7ZM75.07,28.5l-2.2-.7-.16-3.16,2.2.69Zm-3.6-1.15-2.15-.69-.16-3.13,2.15.67Zm-3.55-1.14-2.11-.68-.16-3.1,2.11.66Zm-3.51-1.13-2.07-.66-.16-3.07,2.07.65Zm.08,1.47L64.66,30l-2.07-.68-.18-3.42Zm-3.3,2.3-1.87-.61-.17-3.4,1.86.6Zm.08,1.47.17,3.41-1.87-.63-.17-3.39Zm.25,4.89.17,3.41L59.82,38l-.17-3.39Zm.25,4.89L62,43.5l-1.88-.66-.17-3.39ZM62,45l.18,3.4-1.88-.68-.17-3.38Zm.26,4.89.17,3.39-1.87-.69-.18-3.38Zm.25,4.89.17,3.38-1.87-.7-.18-3.38Zm.25,4.88L63,63l-1.87-.73-.18-3.37ZM63,64.53l.18,3.38-1.88-.74-.17-3.36Zm.25,4.88.18,3.38L61.58,72l-.17-3.36Zm.26,4.89.17,3.37-1.88-.77-.17-3.35Zm.25,4.89L64,82.55l-1.88-.78-.17-3.35ZM64,84.07l.17,3.36-1.88-.8-.17-3.34ZM64.29,89l.17,3.35-1.88-.81-.17-3.34Zm.25,4.89.18,3.35-1.88-.84L62.66,93Zm.26,4.88.17,3.35-1.88-.85-.18-3.33Zm-1.63,4,1.88.85.17,3.34-1.88-.86Zm3.29,1.48,2.08.94.18,3.37-2.09-1Zm2.34,5.86L69,113l-2.09-1-.15-2.89Zm1.4.64,2.13,1,.15,2.94-2.12-1Zm3.54,1.63,2.17,1,.15,3-2.17-1ZM77.32,114l2.21,1,.16,3-2.22-1Zm3.62,1.66,2.26,1,.15,3-2.25-1Zm3.67,1.68,2.3,1,.16,3-2.31-1.07Zm3.71,1.7,2.34,1.07.16,3.08-2.34-1.09Zm3.75,1.72,2.4,1.09.16,3.11-2.4-1.11Zm3.81,1.74,2.44,1.12.16,3.14L96,125.64Zm3.84,1.76,2.49,1.14.17,3.18-2.49-1.16Zm3.9,1.79,2.54,1.16.16,3.21-2.54-1.19Zm3.95,1.81,2.58,1.18.17,3.24-2.59-1.21Zm4,1.83,2.64,1.21.17,3.26L111.73,133Zm4,1.85,2.69,1.23.17,3.3-2.69-1.25Zm4.09,1.88,2.75,1.26.17,3.33-2.74-1.28Zm-.08-1.55-.19-3.78,2.74,1.23.2,3.81Zm4-1.92,2.65,1.19.19,3.85-2.64-1.22Zm-.08-1.54-.2-3.83,2.65,1.17.2,3.85Zm-.28-5.36-.2-3.84,2.65,1.15.2,3.86Zm-.28-5.37-.19-3.84,2.64,1.13.2,3.86Zm-.27-5.36-.2-3.84,2.64,1.1.2,3.86Zm-.28-5.37-.2-3.84,2.64,1.08.2,3.87Zm-.28-5.36-.19-3.85,2.64,1.06.2,3.87Zm-.27-5.37-.2-3.85,2.64,1,.2,3.88Zm-.28-5.36-.2-3.86L124,88l.2,3.88Zm-.28-5.36-.19-3.87,2.63,1,.2,3.89ZM121,80.15l-.2-3.87,2.63,1,.21,3.9Zm-.28-5.36-.2-3.88,2.64,1,.2,3.9Zm-.28-5.37-.2-3.88,2.64.93.2,3.9Zm-.27-5.36-.2-3.89,2.63.91.2,3.91Zm-.28-5.37-.2-3.89,2.63.89.2,3.91Zm-.28-5.36-.2-3.89,2.63.86.21,3.91Zm2.08-9.89-2.63-.84-.18-3.53,2.63.82ZM60.78,20.91,60.94,24l-1.87-.6-.16-3Zm2.64,86.73,1.88.87.15,2.88-1.88-.88ZM124,138.69l-.17-3.35,2.64,1.22.18,3.36Z" transform="translate(0 0)"/><path class="cls-2" d="M0,0,4.38,85l54.28,25.29L53.84,16.82ZM52.48,26l-1.78-.58-.17-3.33,1.77.57Zm-3.17-1-1.9-.62L47.24,21l1.89.6ZM27.49,58.34l-.16-3.08,1.65.65L29.14,59Zm1.73,2.17.16,3.09-1.65-.68-.16-3.07Zm-.71-13.8.16,3.1L27,49.17l-.16-3.09Zm-1.73-2.12-.16-3.09,1.65.6.16,3.11Zm2,6.72.16,3.09-1.66-.65-.15-3.08Zm-3.14-2.68L24,48l-.16-3.07,1.62.61Zm.08,1.5.16,3.07-1.62-.64-.16-3.05Zm.24,4.58.16,3.06-1.62-.65-.16-3Zm4.46,1.76,1.68.66.16,3.11-1.68-.67ZM30.31,55l-.16-3.11,1.69.65L32,55.62Zm-.24-4.61-.16-3.11,1.69.63L31.76,51Zm-.23-4.61-.17-3.12,1.69.62.16,3.13Zm-.24-4.61L29.44,38l1.68.61.16,3.13Zm-1.41-.52L26.55,40l-.16-3.09L28,37.5Zm-3.05-1.13-1.61-.59-.16-3.07L25,36.4Zm.08,1.5.16,3.08-1.62-.61-.16-3.07Zm-2.86,1.94-1.59-.6-.15-3,1.58.58Zm.08,1.49.15,3.05L21,46.85l-.16-3ZM22.67,49l.16,3-1.59-.62-.15-3Zm.24,4.55.15,3-1.58-.64-.16-3Zm.23,4.55.16,3-1.59-.65-.16-3Zm1.41.57,1.61.65.16,3.06-1.62-.67Zm1.85,5.22.16,3.06-1.62-.68-.16-3Zm1.41.58,1.65.68.16,3.08L28,67.51Zm3.05,1.25,1.69.69.16,3.11L31,68.79Zm-.07-1.51-.16-3.1,1.68.68.16,3.11Zm2.93-1.86,1.72.69.16,3.14-1.72-.71Zm-.08-1.51-.16-3.13,1.72.68.16,3.14Zm-.24-4.64L33.24,53,35,53.7l.16,3.15Zm-.24-4.63L33,48.4l1.72.65.16,3.15Zm-.24-4.64-.16-3.14,1.72.64.16,3.15Zm-.24-4.63-.16-3.15,1.72.62.16,3.16Zm-.24-4.64-.16-3.15,1.72.61.16,3.16Zm-1.4-.5-1.68-.61-.16-3.13,1.68.6ZM28,36l-1.65-.59-.16-3.1,1.65.58Zm-3.05-1.1-1.62-.58-.16-3.08,1.62.57Zm-3-1.09-1.58-.57-.16-3.05,1.58.56ZM22,35.31l.15,3.06-1.58-.59-.16-3Zm-2.83,2-1.55-.58-.16-3,1.55.56Zm.08,1.49.15,3-1.55-.59-.16-3Zm.23,4.53.15,3-1.55-.6-.15-3Zm.23,4.52.16,3-1.56-.61-.15-3Zm.24,4.53.15,3-1.55-.63-.16-3Zm.23,4.53.15,3-1.55-.64-.15-3Zm.23,4.53.16,3L19,63.75l-.15-3Zm1.41.57,1.59.65.15,3L21.94,65Zm1.82,5.21.16,3-1.59-.67-.16-3Zm1.41.58,1.62.68.15,3-1.62-.69ZM28,69l1.66.69.15,3.08-1.65-.71Zm3.06,1.28,1.69.7.16,3.1-1.69-.71Zm3.1,1.29,1.72.72.16,3.13-1.72-.74Zm-.08-1.52L34,67l1.72.71.16,3.13Zm3-1.84,1.76.72L39,72.12l-1.75-.73ZM37,66.73l-.17-3.15,1.76.7.16,3.17Zm-.25-4.67-.16-3.15,1.76.69.16,3.17Zm-.24-4.66-.16-3.15,1.76.67.16,3.17Zm-.24-4.66-.16-3.16,1.75.66L38,53.42ZM36,48.08l-.16-3.17,1.75.65.17,3.18Zm-.24-4.66-.16-3.17,1.75.63.17,3.19Zm-.24-4.66-.16-3.18,1.75.62.16,3.19Zm-.24-4.66-.16-3.18,1.75.6.16,3.2Zm-1.4-.5L32.2,33,32,29.84l1.72.59ZM30.8,32.5l-1.68-.59L29,28.78l1.68.58Zm-3.08-1.09-1.65-.58-.16-3.1,1.65.57Zm-3-1.07-1.61-.57-.16-3.08,1.61.56Zm-3-1.07-1.58-.55-.15-3.06,1.58.55Zm-3-1.05-1.55-.55-.15-3,1.54.54Zm.08,1.48.15,3-1.55-.56-.15-3Zm-2.8,2-1.52-.55-.15-3,1.52.53ZM16,33.17l.15,3-1.52-.56-.15-3Zm.23,4.5.16,3L14.9,40.1l-.16-3Zm.23,4.5.16,3-1.52-.58-.16-3Zm.24,4.5.15,3-1.52-.6-.16-3ZM17,51.18l.15,3-1.52-.61-.15-3Zm.23,4.5.15,3L15.82,58l-.15-3Zm.23,4.5.16,3-1.53-.64-.15-3Zm.24,4.51.15,3L16.28,67l-.15-3Zm1.4.59,1.56.65.15,3-1.55-.67Zm1.79,5.17.15,3-1.55-.68-.16-3Zm1.41.6,1.58.68.16,3-1.59-.69Zm3,1.28,1.62.69.16,3-1.62-.7Zm3,1.29,1.65.7.16,3.07-1.65-.72Zm3.06,1.3,1.69.72.16,3.1L31.5,78Zm3.1,1.32,1.72.73.16,3.13-1.72-.75Zm3.12,1.33,1.76.75.17,3.15-1.76-.76Zm-.07-1.52-.17-3.14,1.76.73.16,3.16Zm3-1.82,1.79.75.16,3.18-1.79-.76Zm-.08-1.52-.17-3.17,1.8.73.16,3.19ZM40.17,68,40,64.85l1.79.72L42,68.76Zm-.24-4.69-.17-3.18,1.79.71.17,3.19Zm-.25-4.68-.16-3.19,1.79.69.16,3.2ZM39.44,54l-.16-3.19,1.79.68.16,3.2Zm-.24-4.69L39,46.08l1.79.66L41,50ZM39,44.59l-.17-3.2,1.79.64.17,3.22Zm-.24-4.69-.17-3.2,1.79.63.16,3.21Zm-.25-4.69L38.31,32l1.79.61.16,3.22Zm-.24-4.68-.16-3.22,1.78.6L40,31.14ZM36.83,30l-1.75-.6-.16-3.19,1.75.59ZM33.68,29,32,28.36,31.8,25.2l1.72.58Zm-3.12-1.07-1.68-.58-.16-3.13,1.68.56Zm-3.08-1.06-1.64-.57-.16-3.11,1.64.55Zm-3.05-1.05-1.61-.56-.16-3.08,1.62.54Zm-3-1-1.58-.55-.16-3.06,1.58.53Zm-3-1-1.55-.54-.16-3,1.55.52Zm-3-1L14,22.16l-.15-3,1.51.51Zm.07,1.48.16,3-1.52-.54-.15-3Zm-2.76,2-1.49-.53-.15-3,1.49.51Zm.08,1.48.15,3-1.49-.54-.15-3Zm.23,4.48.15,3-1.49-.55-.15-3Zm.23,4.48.15,3L12,39l-.15-3Zm.23,4.48.15,3-1.49-.57-.15-3Zm.23,4.48.15,3-1.49-.59-.15-3ZM14,50l.16,3-1.5-.6-.15-3Zm.23,4.48.16,3-1.5-.61-.15-3ZM14.49,59l.16,3-1.49-.62-.16-3Zm.24,4.48.15,3-1.49-.64-.16-2.94ZM15,67.94l.15,3-1.49-.65-.16-2.93Zm1.4.6,1.53.65.15,3-1.53-.66Zm1.76,5.15.15,3L16.75,76l-.15-3Zm1.41.62,1.55.67.16,3-1.56-.69Zm3,1.28,1.59.69.16,3-1.59-.71Zm3,1.3,1.62.71.16,3-1.63-.72Zm3,1.32,1.65.72L30.33,82l-1.66-.73Zm3.06,1.33,1.69.73.16,3.09-1.69-.75Zm3.09,1.34,1.73.75.16,3.12L34.83,84Zm3.14,1.36,1.75.76.17,3.15L38,85.37ZM41,83.61l1.8.78.16,3.17-1.8-.79Zm-.08-1.53-.16-3.16,1.79.77.17,3.17Zm3-1.79,1.83.78.17,3.2-1.83-.8Zm-.08-1.53-.16-3.19,1.83.76.16,3.21Zm-.24-4.71-.17-3.2,1.83.75.17,3.21Zm-.25-4.72-.16-3.2,1.83.74.16,3.21Zm-.24-4.71L43,61.41l1.82.72L45,65.35Zm-.24-4.71-.17-3.22,1.83.71.17,3.22Zm-.24-4.72L42.47,52l1.82.69.17,3.23Zm-.25-4.71-.16-3.22,1.82.67.17,3.24Zm-.24-4.72L42,42.54l1.83.66L44,46.44Zm-.24-4.71-.17-3.23,1.82.65.17,3.24Zm-.25-4.71L41.5,33.1l1.82.63L43.49,37Zm-.24-4.72-.17-3.23,1.82.61.17,3.25Zm-.24-4.71L41,23.67l1.82.6L43,27.52Zm-1.4-.47L38,25.84l-.16-3.22,1.78.59Zm-3.19-1.07-1.75-.59-.16-3.19,1.75.57ZM33.44,24.3l-1.71-.57-.17-3.17,1.72.57Zm-3.11-1-1.68-.57-.17-3.14,1.68.55Zm-3.08-1-1.65-.56-.16-3.11,1.64.54Zm-3.05-1-1.61-.54-.16-3.09,1.61.53Zm-3-1-1.59-.53-.15-3.07L21,17.1Zm-3-1-1.54-.52-.16-3,1.55.51Zm-2.94-1-1.52-.51-.16-3,1.52.49Zm-2.92-1-1.49-.5-.15-3,1.48.49Zm.07,1.47.16,3-1.49-.51-.15-3Zm-2.73,2-1.45-.5-.16-3,1.46.49Zm.08,1.48.15,3-1.45-.52-.16-3ZM10,26.61l.15,3-1.45-.53L8.53,26.1Zm.23,4.46.15,3-1.46-.54-.15-3Zm.23,4.45.15,3-1.46-.55L9,35ZM10.68,40l.15,3-1.46-.56-.15-2.94Zm.23,4.45.15,3L9.6,46.8l-.15-2.93Zm.23,4.46.15,2.94-1.46-.59-.15-2.93Zm.23,4.45.15,2.94-1.46-.6-.15-2.92Zm.23,4.46.15,2.93-1.46-.61-.15-2.92Zm.23,4.45L12,65.18l-1.46-.62-.15-2.92Zm.23,4.46.15,2.92L10.75,69l-.15-2.91Zm.23,4.45.15,2.92L11,73.43l-.15-2.9Zm1.4.61,1.5.65.15,2.94-1.49-.66Zm1.73,5.13.15,2.94-1.49-.68-.16-2.92Zm1.41.62,1.52.68.15,3L17,80.47Zm2.93,1.3,1.56.69.15,3-1.56-.7Zm3,1.31,1.58.7.16,3-1.59-.71Zm3,1.33,1.63.71.15,3-1.62-.73Zm3,1.34,1.66.73.16,3.06-1.66-.75Zm3.07,1.35,1.69.75L33.67,88,32,87.22Zm3.09,1.37,1.73.76.16,3.11-1.73-.77Zm3.14,1.39,1.76.77L40,90.82,38.21,90Zm3.16,1.4,1.8.79.16,3.16-1.79-.8Zm3.21,1.41,1.83.81.16,3.19-1.83-.82Zm-.08-1.53L44.17,85l1.84.8.16,3.2Zm3.07-1.78,1.87.81.17,3.22-1.87-.82Zm-.08-1.53-.16-3.21,1.86.79.17,3.23Zm-.24-4.74-.17-3.22,1.87.78L49,80.93Zm-.25-4.74-.16-3.23,1.86.77.17,3.24Zm-.24-4.74-.17-3.23,1.87.75.17,3.24Zm-.25-4.74-.16-3.24,1.86.74.17,3.25Zm-.24-4.74-.17-3.24,1.87.72L48,61.91Zm-.24-4.74-.17-3.25,1.86.71.17,3.26Zm-.25-4.74-.17-3.25,1.86.69.17,3.26ZM45.38,47l-.17-3.25,1.86.67.17,3.26Zm-.25-4.74L45,39l1.86.66L47,42.89Zm-.24-4.74-.17-3.26,1.86.64.17,3.27Zm-.25-4.74-.17-3.27,1.86.63.17,3.28ZM44.4,28l-.17-3.27,1.86.61.17,3.28Zm-.25-4.75L44,20l1.85.6L46,23.87Zm-1.4-.46-1.82-.59L40.77,19l1.82.58Zm-3.22-1.05-1.78-.59-.17-3.22,1.79.57Zm-3.18-1-1.75-.57-.16-3.2,1.74.56Zm-3.15-1-1.71-.57-.17-3.17,1.72.55Zm-3.11-1-1.68-.55-.16-3.14,1.68.54Zm-3.08-1-1.65-.54L25.2,14l1.65.53Zm-3.05-1-1.61-.53L22.19,13l1.61.51Zm-3-1-1.58-.52L19.21,12l1.58.51Zm-3-1-1.55-.51-.15-3,1.54.49Zm-2.95-1-1.51-.5-.16-3,1.52.48Zm-2.91-1-1.49-.48-.15-3L12,9.72Zm-2.89-.94L7.77,11.3l-.15-3,1.45.46Zm.08,1.47.15,3L8,15.74l-.15-3Zm-2.7,2-1.43-.48L5,11.84l1.42.47Zm.07,1.47.16,3L5.4,19.2l-.15-2.94Zm.23,4.43.15,2.95-1.42-.5-.15-2.94Zm.23,4.43.15,2.95L5.86,28,5.71,25.1ZM7.36,30,7.51,33l-1.43-.53-.15-2.92Zm.23,4.44.15,2.93-1.43-.54-.15-2.92Zm.23,4.43L8,41.83l-1.43-.56-.15-2.91Zm.23,4.43.15,2.92-1.43-.56-.15-2.91Zm.22,4.43.15,2.92L7,50.1l-.15-2.9Zm.23,4.43.15,2.92-1.43-.59-.15-2.9Zm.23,4.43.15,2.91-1.43-.6L7.3,56ZM9,61.05,9.11,64l-1.43-.61-.15-2.89Zm.23,4.43.15,2.9-1.43-.62-.15-2.88Zm.23,4.44.15,2.89-1.44-.63L8,69.3Zm.23,4.43.14,2.89-1.43-.65-.15-2.87Zm1.4.62,1.47.65.15,2.91-1.47-.66Zm1.7,5.1L12.9,83l-1.47-.67-.15-2.9Zm1.41.64,1.49.67.15,2.93-1.49-.68Zm2.9,1.3,1.52.69.16,3L17.21,85ZM20,83.34l1.56.7.15,3-1.55-.72Zm3,1.33,1.59.72.15,3-1.59-.73ZM26,86l1.62.73.16,3L26.11,89Zm3,1.37,1.66.74.15,3.06-1.65-.76Zm3.06,1.38,1.69.76.16,3.08-1.69-.78Zm3.1,1.39,1.73.78L37,94l-1.73-.79Zm3.14,1.41,1.76.79.16,3.14-1.76-.81ZM41.46,93l1.79.81L43.42,97l-1.8-.83Zm3.2,1.44,1.83.83.17,3.18-1.84-.84ZM47.9,95.9l1.87.84.17,3.22-1.87-.86Zm-.08-1.54-.16-3.2,1.86.82.17,3.22Zm3.11-1.76,1.91.85L53,96.69l-1.91-.86Zm-.08-1.53-.16-3.24,1.9.83.17,3.25Zm-.24-4.77-.17-3.24,1.9.81.17,3.26Zm-.25-4.77-.17-3.24,1.91.79.17,3.26Zm-.24-4.76L50,73.52l1.9.78L52,77.56ZM49.87,72l-.17-3.26,1.9.77.17,3.27Zm-.25-4.77L49.46,64l1.9.75L51.53,68Zm-.24-4.77-.17-3.26,1.9.73.17,3.28Zm-.25-4.76L49,54.43l1.9.71L51,58.43Zm-.24-4.77-.17-3.27,1.9.7.17,3.29Zm-.25-4.77-.17-3.28,1.9.69.17,3.29Zm-.24-4.77-.18-3.28,1.9.67.17,3.3Zm-.25-4.76L48,35.34l1.9.65.17,3.31Zm-.25-4.77-.17-3.29,1.9.64.17,3.3Zm-.24-4.77-.17-3.29,1.89.62.17,3.31Zm-.49-9.53L47,16.61l1.9.59.15,3Zm-1.4-.45-1.86-.6-.15-2.92,1.85.58Zm-3.26-1-1.82-.59-.15-2.89,1.82.57Zm-3.22-1-1.78-.57-.15-2.87,1.78.56Zm-3.18-1-1.75-.56-.15-2.84,1.75.55ZM33,15l-1.71-.55-.15-2.82,1.71.53Zm-3.11-1-1.68-.54L28,10.68l1.67.52Zm-3.08-1-1.64-.53L25,9.73l1.65.51Zm-3-1-1.61-.52L22,8.79l1.61.5Zm-3-1-1.58-.5L19,7.86l1.57.49Zm-3-.95-1.55-.5-.14-2.7,1.55.49Zm-2.95-1L13.28,8.7,13.14,6l1.51.48Zm-2.91-.93-1.49-.48-.13-2.65,1.48.47ZM9,7.33,7.54,6.86,7.41,4.23l1.45.46ZM6.14,6.41,4.72,6l-.14-2.6L6,3.8Zm.08,1.47.15,3-1.43-.47L4.79,7.42Zm-2.67,2-1.22-.4L2.17,6.58,3.39,7Zm.07,1.47.15,2.93L2.55,13.9,2.4,11Zm.23,4.41L4,18.72,2.78,18.3l-.15-2.92Zm.23,4.41.15,2.92L3,22.69l-.16-2.91Zm.22,4.4.15,2.92-1.22-.44-.15-2.91ZM4.53,29l.15,2.92-1.22-.45-.15-2.91Zm.23,4.41.15,2.91-1.22-.46L3.54,33ZM5,37.83l.15,2.9-1.23-.47-.15-2.89Zm.22,4.41.15,2.9-1.22-.49L4,41.76Zm.23,4.4.15,2.9-1.22-.49-.15-2.89Zm.23,4.41.15,2.89-1.23-.5-.15-2.88Zm.23,4.41L6,58.35l-1.22-.52L4.67,55Zm.22,4.41.15,2.88-1.22-.52L4.9,59.36Zm.23,4.41.15,2.87-1.23-.53-.15-2.87Zm.23,4.4.15,2.87L5.5,71l-.15-2.86Zm.22,4.41L7,76,5.73,75.4l-.15-2.85ZM5.8,77,7,77.5l.15,2.86L6,79.8Zm2.64,1.18,1.43.65L10,81.66,8.59,81Zm1.66,5.08.13,2.44L8.79,85l-.12-2.44Zm1.41.65,1.47.67L13.1,87l-1.46-.68Zm2.88,1.31,1.49.69L16,88.35l-1.5-.7Zm2.9,1.33,1.53.7L19,89.72,17.42,89Zm2.94,1.35,1.55.71.14,2.54-1.56-.73Zm3,1.36,1.59.73.14,2.56-1.59-.74Zm3,1.38,1.63.74L28,93.91l-1.62-.75Zm3,1.38,1.65.76L31,95.34l-1.66-.77Zm3.06,1.41,1.69.78.14,2.63L32.43,96Zm3.1,1.42,1.73.79.14,2.66-1.73-.81Zm3.14,1.44,1.76.8.14,2.69-1.76-.82Zm3.17,1.45,1.79.82.14,2.71-1.79-.84Zm3.2,1.47,1.84.84.14,2.73L45,101.88Zm3.25,1.49,1.87.85.14,2.76-1.87-.87Zm3.28,1.5,1.9.87.15,2.79-1.91-.89Zm-.08-1.55-.17-3.22,1.91.86.16,3.24Zm3.14-1.73,1.79.8.16,3.27-1.78-.82Zm-.07-1.54-.17-3.26,1.78.79.17,3.27Zm-.25-4.8L54,89.27l1.78.77L56,93.32Zm-.25-4.79-.17-3.27,1.78.76.17,3.28Zm-.25-4.8-.16-3.27,1.77.74.17,3.29Zm-.24-4.79-.17-3.28L55,75.6l.17,3.29Zm-.25-4.8L53,70.07l1.78.72L55,74.08Zm-.25-4.79-.17-3.29,1.78.7.17,3.3Zm-.25-4.79-.17-3.3,1.78.69.17,3.31ZM52.44,59l-.17-3.3,1.77.67.17,3.32Zm-.25-4.79L52,50.87l1.77.66L54,54.85Zm-.25-4.8-.17-3.3,1.77.64L53.72,50Zm-.25-4.79-.17-3.31,1.78.62.17,3.33Zm-.24-4.8-.17-3.31,1.77.61.17,3.33ZM51.2,35,51,31.68l1.77.59L53,35.61ZM51,30.2l-.17-3.32,1.77.58.17,3.34Zm1.28-9-1.77-.57-.16-3,1.77.55ZM3.18,2.91l.14,2.6L2.1,5.12,2,2.53ZM6,81.34l1.23.57.13,2.42-1.23-.57Zm48.86,25.13-.15-2.8,1.78.82.15,2.81Z" transform="translate(0 0)"/><polygon class="cls-2" points="186.97 93.39 186.82 90.61 185.41 89.86 185.55 92.57 186.93 93.4 186.97 93.39"/><path class="cls-2" d="M187.37,169.21l.14-.94-1.65-.77-.19-3.83,3.63,1.66,0,.79,1.08.86.39.9-.1-1.9,3.71,1.7.2,3.9-2.77-1.29.34.79-.14,1.33,10.82,5,3.6-.63-.19-3.7,3.93,1.8.07,1.23,1.36-.24,0-.35.55.25,2.38-.41-3-1.38-.23-4.55,3.89,1.75.21,4,1.81-.32-.84-16.34-1.84.37h0l.23,4.59-3.89-1.72-.13-2.68-.69,0-.71-.42.13,2.52-3.93-1.74-.17-3.15-1.42-.85.18,3.38-3.85-1.71-.21-4-.08,0-1.81-16.73-.37-.28.13,2.47L194.21,137l-.05-1-1.15.13-.23-.09,0,.41-3.34-1.4-2.41.49.73.3.22,4.38-3.63-1.54-.13-2.59-1.36.28L183,138l-2.76-1.18-2.39.48.26.11.22,4.29-3.49-1.51L174.7,138l-1.37.27.08,1.39-2.21-1-2.54.51.21,4.09-3.36-1.49-.1-2-1.36.28,0,1.06-1.68-.74-1.41.28-1.11-.46-.49-1.39.73-2,.52-.11-.06-1.23,1.93.84,2.67-.55-.2-4,3.36,1.43.09,1.86,1.36-.28-.05-1,1.57.67,3.16-.65-.2-3.76,3.49,1.46.08,1.6,1.36-.28,0-.73,1.18.49,3.66-.75-.18-3.54,2.89,1.18-.17-1.55-2.8-1.15-.23-4.36,2.55,1-.17-1.55-2.45-1-.23-4.36,2.19.86,0-.2,2,.4-.79-5.09.2,4-3.62-1.43-.22-4.37,3.57,1.38-.25-1.57-3.4-1.31-.23-4.38,2.92,1.1-.24-1.56-2.75-1L182.33,99l2.27.84-.24-1.55-2.11-.78L182,93.12l3.51,1.27-.1-1.5L182,91.63l-.19-3.73-1.42-.76.21,4L177,89.85l-.22-4.35,1.45.51-8-4.28L167,80.59l-.07-1.37-1.35.35,0,.53-.88-.31-1.8.46L159.63,78l-2-.72,0-.71-1.42-1,.06,1.19L153,75.64l-.12-2.3-1.42-1,.14,2.78L148.42,74l-.21-4.12,2.27.78,2.79-.49-.59-.2-.21-4.16,3.21,1.08.15,2.84,1.36-.24-.11-2.13,3.28,1.11,0,.46,3.72-.65-2.42-.82-.22-4.24,3.34,1.1.2,3.8,1.36-.24-.16-3.1,3.4,1.12.08,1.4,1.36-.24,0-.7,1.42.46,3.37-.59-.22-4.11,3.54,1.13.12,2.38,1.37-.24-.09-1.69,3.44,1.1,2.92-.51-1.43-.45-.21-4.07L188.91,61l.16,3,1.36-.24-.12-2.31,3.75,1.17,0,.5,4.95-.87-71.38-22.3,5.42,105,52.67,24.55Zm27.51-4.11.24,4.58-3.89-1.75-.24-4.55Zm-4.75,8.27-3.93-1.8-.23-4.5,3.93,1.77Zm-.54-10.61.23,4.53-3.93-1.77-.23-4.5Zm-4.51,13.7-3.86-1.8-.2-4,3.85,1.77Zm-.29-5.54-3.85-1.76-.23-4.46,3.85,1.73Zm-.54-10.52.23,4.49-3.85-1.73-.23-4.47Zm-20.42-101,.21,4.06-3.6-1.16-.21-4Zm-5-1.56.21,4-3.54-1.13-.21-4Zm-4.43,8.25-3.47-1.14-.23-4.32,3.47,1.11Zm-.51-9.79.21,4-3.47-1.11-.21-3.95Zm-4.36,8.19-3.41-1.11-.22-4.29,3.4,1.09Zm-.5-9.72.2,3.94-3.4-1.09-.2-3.91Zm-4.31,8.15-3.34-1.1-.21-4.25,3.33,1.07Zm-.49-9.65.2,3.9-3.34-1.07-.2-3.87ZM160.28,67,157,65.92l-.21-4.21,3.27,1.08Zm-.29-5.7-3.28-1.08L156.49,56l3.28,1Zm-.5-9.56.2,3.86-3.27-1-.2-3.84Zm-.07,61.07,3.29,1.32.22,4.19L159.64,117Zm-.07-1.52-.22-4.16,3.29,1.29.21,4.19Zm.37,7.2,3.28,1.34.22,4.19-3.29-1.38Zm.29,5.67,3.29,1.38.21,4.18-3.29-1.4Zm.51,9.83-.22-4.15,3.29,1.41.22,4.17Zm3.3-25,3.35,1.32.22,4.24L164,113.2Zm.3,5.72,3.35,1.35.22,4.23-3.36-1.38Zm.29,5.72,3.35,1.37L168,126l-3.35-1.4Zm.51,9.91-.21-4.19,3.35,1.4.22,4.22Zm3.66-19.47,3.41,1.34.22,4.27-3.41-1.37Zm.29,5.75,3.42,1.38.22,4.26-3.42-1.4Zm.3,5.76,3.42,1.4.22,4.26-3.42-1.42Zm.52,10-.22-4.23,3.42,1.43.22,4.26Zm4-13.81,3.48,1.4.22,4.31-3.48-1.43Zm.52,10.07-.23-4.27,3.49,1.43.22,4.3Zm8.45,3.53-3.56-1.48-.22-4.32,3.55,1.46Zm-.31-5.86-3.55-1.45-.23-4.33,3.56,1.43Zm-.3-5.86L178.51,119l-.23-4.32,3.56,1.4Zm-.3-5.86-3.55-1.4-.23-4.33,3.55,1.37Zm-.3-5.86-3.55-1.37-.23-4.34,3.55,1.34Zm-.31-5.87-3.55-1.34-.22-4.34,3.55,1.31Zm-.52-10.23.22,4.37-3.55-1.31-.22-4.34Zm-3.53,25.83-3.48-1.4-.22-4.29,3.48,1.37Zm-.3-5.82-3.48-1.37L173.1,107l3.48,1.34Zm-.3-5.82L173,105.46l-.22-4.29,3.48,1.31Zm-.3-5.83-3.48-1.31-.22-4.3L176,96.66Zm-.3-5.82-3.48-1.28-.22-4.31,3.48,1.26ZM175.38,85l.22,4.34-3.48-1.26-.22-4.3Zm-3.47,25.7-3.41-1.34-.22-4.25,3.41,1.31Zm-.3-5.78-3.41-1.32L168,99.35l3.41,1.29Zm-.29-5.78-3.41-1.29-.22-4.26,3.41,1.26Zm-.3-5.78-3.41-1.26-.22-4.26,3.41,1.23Zm-.52-10.08.22,4.3-3.41-1.23-.22-4.27Zm-3.41,25.52-3.35-1.31-.21-4.22,3.34,1.3Zm-.29-5.74-3.35-1.29-.22-4.21,3.35,1.26Zm-.3-5.74-3.35-1.26-.21-4.22,3.34,1.23Zm-.3-5.74-3.34-1.23-.22-4.23L166,87.33Zm-.51-10,.22,4.26-3.35-1.21-.21-4.23Zm-3.35,25.35-3.29-1.29-.21-4.17,3.28,1.26Zm-.29-5.7L158.76,100l-.21-4.17L161.83,97Zm-4,11,.21,4.15L155,115.09,154.8,111Zm-3.3-2.81-.22-4.12,3.23,1.26.21,4.16Zm3.59,8.48.21,4.15-3.22-1.35-.21-4.12Zm.29,5.67.22,4.14-3.23-1.38-.21-4.11Zm3.15-28.07-3.28-1.24-.22-4.18,3.28,1.21Zm-.29-5.7-3.29-1.21L158,84.43l3.28,1.18Zm-.52-9.92.22,4.22-3.28-1.19-.21-4.19Zm-3.29,25.18-3.22-1.27-.22-4.14,3.22,1.25Zm-.29-5.67-3.22-1.24L153.92,94l3.22,1.22Zm-4,11,.21,4.11-3.16-1.29-.21-4.09Zm-3.24-2.78-.21-4.09,3.16,1.24.21,4.12Zm3.53,8.41.21,4.11-3.16-1.32-.21-4.09Zm.29,5.63.21,4.1L151,124.41l-.21-4.07Zm3.09-27.9-3.22-1.21-.21-4.15,3.22,1.19Zm-.29-5.66-3.22-1.19-.21-4.15,3.22,1.16Zm-.51-9.84.22,4.17-3.22-1.16-.21-4.15Zm-3.24,25L149.86,102l-.21-4.09,3.16,1.21Zm-.29-5.63-3.16-1.22-.21-4.1,3.16,1.19ZM152.44,92l-3.16-1.2-.21-4.1,3.16,1.16Zm-3.62,16.55.21,4.07-3.1-1.27-.21-4.05Zm-3.18-2.76-.2-4,3.09,1.22.22,4.08Zm3.47,8.35.21,4.07-3.1-1.3-.21-4Zm3-27.77L149,85.23l-.22-4.11,3.16,1.14Zm-.5-9.76.21,4.14-3.15-1.14-.22-4.12Zm-3.4,20.75.21,4.09-3.1-1.22-.21-4.06Zm-9.8-20,.21,4-3-1.1-.21-4Zm-3-2.56-.21-4,3,1.06.21,4Zm3.33,8.08.21,4-3-1.12-.2-4Zm.29,5.52.2,4-3-1.15-.2-4Zm.28,5.52.21,4-3-1.18-.21-4Zm.29,5.51.2,4-3-1.2-.2-4Zm.18-23-.2-4,3,1.07.21,4.07ZM142.88,79l.21,4.06-3-1.12-.21-4Zm-3,26,.21,4-3-1.22-.2-4Zm.29,5.52.2,4-3-1.24-.21-4Zm.18-23-.2-4,3,1.12.21,4.06Zm3.12,2.64.21,4.06-3-1.18-.21-4Zm.28,5.56.21,4-3-1.2-.2-4Zm.29,5.55.21,4-3-1.22-.21-4Zm.18-23.2L144,73.93,147.09,75l.21,4.1Zm3.17,2.61.21,4.1-3.09-1.15-.21-4.07Zm-3.06,26.15.21,4-3.05-1.24-.2-4Zm.28,5.55.21,4-3-1.27-.21-4Zm.18-23.18-.21-4.07,3.1,1.14.21,4.09ZM148,91.79l.21,4.09-3.1-1.19-.21-4.07Zm7.64-26.34-3.21-1.09-.21-4.16,3.21,1Zm-.29-5.67-3.21-1.05-.22-4.17,3.21,1Zm-.49-9.48.2,3.82-3.21-1-.2-3.8Zm-3.54,19.22-3.15-1.09-.21-4.12,3.15,1.06ZM151,63.89l-3.15-1.06-.21-4.13,3.15,1Zm-.29-5.62-3.15-1-.21-4.13,3.15,1Zm-.48-9.41.19,3.78-3.15-1-.19-3.76ZM147,73.53l-3.1-1.09-.21-4.08,3.09,1.07ZM146.73,68l-3.09-1.07-.21-4.09,3.09,1Zm-.29-5.59-3.09-1-.21-4.09,3.09,1Zm-.29-5.59-3.09-1-.21-4.1,3.09,1Zm-.48-9.33.19,3.75-3.08-1-.2-3.73ZM142.52,72l-3-1.07-.21-4,3,1Zm-.28-5.55-3-1.05-.21-4,3,1ZM142,60.85l-3-1-.21-4.06,3,1Zm-.29-5.55-3-1-.21-4.06,3,1ZM141.19,46l.19,3.71-3-1-.19-3.69Zm-3.1,24.34-3-1-.2-4,3,1Zm-.29-5.51-3-1-.21-4,3,1Zm-.28-5.52-3-1-.21-4,3,1Zm-.29-5.51-3-1-.2-4,3,1Zm-.47-9.19.19,3.68-3-.95-.19-3.66Zm-7.14-2.23,2.77.87.19,3.64L129.81,46Zm.27,5.09,2.77.89.2,4-2.77-.91Zm.28,5.46,2.77.91.21,4L130.37,57Zm.28,5.45,2.77.94.21,4-2.77-1Zm.28,5.46,2.77,1,.21,4-2.77-1Zm.28,5.46,2.78,1,.2,4-2.77-1Zm.28,5.46,2.78,1,.21,4-2.78-1Zm.29,5.46,2.77,1,.21,4-2.78-1Zm.28,5.46,2.78,1,.2,4-2.78-1.07Zm.28,5.45,2.78,1.08.2,4-2.78-1.1Zm.28,5.46,2.78,1.1.21,4-2.79-1.12Zm.28,5.46,2.78,1.12.21,4L132.91,106Zm.28,5.46,2.79,1.14.2,4-2.78-1.17Zm.29,5.46,2.78,1.16.2,4-2.78-1.18Zm.28,5.46,2.78,1.18.21,3.95-2.79-1.21Zm.28,5.45,2.78,1.21.21,4L134,127.84Zm.28,5.46,2.79,1.24.2,3.93-2.79-1.25Zm.28,5.46,2.79,1.26.2,3.93-2.79-1.28Zm.46,8.89-.18-3.43,2.79,1.28.18,3.45Zm2.61-29,3,1.25.21,4-3-1.28Zm.28,5.49,3,1.27.2,4-3-1.3Zm.28,5.5,3,1.29.21,4-3-1.32Zm.29,5.49,3,1.32.2,4-3-1.34Zm.28,5.49,3,1.35.2,4-3-1.37Zm.46,9-.18-3.47,3,1.38.18,3.48Zm2.8-29.1,3,1.28.21,4-3-1.29Zm.28,5.53,3.05,1.3.2,4-3-1.32Zm.29,5.53,3,1.33.21,4-3-1.35Zm.28,5.53,3.05,1.35.21,4-3.05-1.37Zm.29,5.53,3,1.37.2,4-3.05-1.4Zm.46,9-.18-3.5,3,1.4.18,3.52Zm2.85-29.29,3.1,1.3.21,4.07-3.1-1.33Zm.28,5.57,3.11,1.32.21,4.06-3.11-1.35Zm.29,5.57,3.11,1.34.21,4.06-3.11-1.38Zm.29,5.56,3.11,1.38.2,4.05-3.1-1.4Zm.29,5.57,3.1,1.4.21,4-3.11-1.42Zm.46,9.1-.18-3.54,3.11,1.43.19,3.56Zm3.19-23.88,3.16,1.35.21,4.1L151.31,130Zm.28,5.61,3.17,1.37.21,4.09-3.17-1.4Zm.29,5.6,3.17,1.4.21,4.09-3.17-1.43Zm.29,5.6,3.17,1.43.21,4.08-3.17-1.45Zm.48,9.17-.19-3.56,3.17,1.45.19,3.59Zm3.23-24,3.23,1.38.21,4.13-3.23-1.4Zm.29,5.64,3.23,1.4.21,4.13-3.23-1.43Zm.29,5.64,3.23,1.43.21,4.13-3.23-1.46Zm.29,5.64,3.23,1.46.22,4.12-3.24-1.48Zm.48,9.25-.19-3.61,3.24,1.49.18,3.63Zm3.87-12.84,3.29,1.46.22,4.16-3.3-1.48Zm.29,5.68,3.3,1.49.21,4.16-3.3-1.52Zm.48,9.32-.19-3.64,3.3,1.51.19,3.67Zm3.93-12.92,3.36,1.49.22,4.2-3.36-1.51Zm.3,5.72,3.36,1.51.21,4.2-3.36-1.54Zm.48,9.4-.19-3.68,3.36,1.54.19,3.7Zm3.69-18.77,3.42,1.49.22,4.25-3.42-1.52Zm.3,5.76,3.42,1.51.22,4.25-3.42-1.55Zm.3,5.76,3.42,1.54.22,4.24-3.43-1.57Zm.48,9.47-.19-3.71,3.43,1.57.19,3.74ZM199.81,174,196,172.24l-.2-3.91,3.78,1.73Zm-.28-5.49-3.78-1.73-.23-4.42,3.78,1.7Zm-.31-6-3.78-1.7-.23-4.42,3.78,1.67Zm-.31-6-3.78-1.67-.23-4.42,3.78,1.64Zm-.31-6-3.77-1.64-.23-4.43,3.77,1.61Zm-.54-10.45.23,4.47L194.52,143l-.23-4.44Zm-3.72,26-3.71-1.7-.22-4.37,3.7,1.67Zm-.31-5.94-3.7-1.67-.23-4.38,3.7,1.64Zm-.31-5.95L190,152.6l-.22-4.38,3.7,1.61Zm-.3-6-3.7-1.6-.23-4.39,3.7,1.57Zm-.54-10.37.23,4.43-3.7-1.58-.23-4.39Zm-18,3.83,3.49,1.52.22,4.28L175.11,146Zm.3,5.8,3.49,1.54.22,4.28-3.49-1.57Zm.3,5.8,3.49,1.57.22,4.28-3.49-1.61Zm.49,9.55-.19-3.76,3.49,1.6.2,3.79ZM179.49,138l3.56,1.51.22,4.34-3.56-1.55Zm.3,5.84,3.56,1.54.22,4.33L180,148.18Zm.3,5.83,3.56,1.58.22,4.32-3.56-1.6Zm.3,5.84,3.56,1.61.23,4.32-3.57-1.64Zm.5,9.63-.2-3.79,3.57,1.63.19,3.83Zm3.56-25,3.63,1.55.23,4.38-3.63-1.58Zm.31,5.88,3.63,1.58.22,4.37L185,150.37Zm.3,5.88,3.63,1.61.23,4.36-3.64-1.63Zm.3,5.88,3.64,1.64.22,4.36-3.63-1.67Z" transform="translate(0 0)"/></g></g></g></svg>