<svg xmlns="http://www.w3.org/2000/svg" xmlns:xlink="http://www.w3.org/1999/xlink" viewBox="0 0 706.8 430.96"><defs><style>.cls-1{fill:none;}.cls-2{clip-path:url(#clip-path);}.cls-3{fill:#fff;}</style><clipPath id="clip-path" transform="translate(-73.29 -90.47)"><rect class="cls-1" width="841.89" height="595.28"/></clipPath></defs><title>Электро Л</title><g id="Слой_2" data-name="Слой 2"><g id="Слой_1-2" data-name="Слой 1"><g class="cls-2"><path class="cls-3" d="M89.5,201.81a1,1,0,0,1-.75-1.65c.09-.12,9.66-11.31,8.93-19.44a1,1,0,1,1,2-.18c.8,9-9,20.44-9.42,20.92a1,1,0,0,1-.76.35" transform="translate(-73.29 -90.47)"/><path class="cls-3" d="M99.34,207.79a1,1,0,0,1-.65-.25,1,1,0,0,1-.1-1.41c.09-.11,9.67-11.3,8.93-19.43a1,1,0,1,1,2-.18c.8,9-9,20.44-9.42,20.92a1,1,0,0,1-.76.35" transform="translate(-73.29 -90.47)"/><path class="cls-3" d="M108.52,213.36a1,1,0,0,1-.65-.24,1,1,0,0,1-.11-1.41c.1-.11,9.67-11.31,8.94-19.44a1,1,0,0,1,2-.18c.81,9-9,20.44-9.41,20.93a1,1,0,0,1-.76.34" transform="translate(-73.29 -90.47)"/><path class="cls-3" d="M118.13,219.2a1,1,0,0,1-.66-.24,1,1,0,0,1-.1-1.41c.1-.11,9.67-11.31,8.94-19.44a1,1,0,0,1,2-.18c.81,9-9,20.44-9.42,20.93a1,1,0,0,1-.75.34" transform="translate(-73.29 -90.47)"/><path class="cls-3" d="M127.74,225a1,1,0,0,1-.66-.24,1,1,0,0,1-.1-1.41c.1-.12,9.67-11.31,8.94-19.44a1,1,0,1,1,2-.18c.81,9-9,20.44-9.42,20.92a1,1,0,0,1-.75.35" transform="translate(-73.29 -90.47)"/><path class="cls-3" d="M136.74,230.51a1,1,0,0,1-.66-.24,1,1,0,0,1-.1-1.41c.1-.12,9.67-11.31,8.94-19.44a1,1,0,1,1,2-.18c.81,9-9,20.44-9.42,20.92a1,1,0,0,1-.75.35" transform="translate(-73.29 -90.47)"/><path class="cls-3" d="M145.74,236a1,1,0,0,1-.66-.25,1,1,0,0,1-.1-1.41c.1-.11,9.67-11.3,8.94-19.43a1,1,0,1,1,2-.18c.81,9-9,20.44-9.42,20.92a1,1,0,0,1-.75.35" transform="translate(-73.29 -90.47)"/><path class="cls-3" d="M154.74,241.45a1,1,0,0,1-.65-.25,1,1,0,0,1-.11-1.41c.1-.11,9.67-11.3,8.94-19.43a1,1,0,1,1,2-.18c.81,9-9,20.44-9.41,20.92a1,1,0,0,1-.76.35" transform="translate(-73.29 -90.47)"/><path class="cls-3" d="M163.35,245.92a1,1,0,0,1-.66-.25,1,1,0,0,1-.1-1.41c.09-.1,8.84-10.29,8.11-18.42a1,1,0,0,1,2-.18c.8,9-8.2,19.47-8.59,19.91a1,1,0,0,1-.75.35" transform="translate(-73.29 -90.47)"/><path class="cls-3" d="M172,251.16a1,1,0,0,1-.66-.24,1,1,0,0,1-.1-1.41c.09-.11,8.84-10.29,8.11-18.42a1,1,0,1,1,2-.18c.81,9-8.2,19.46-8.59,19.91a1,1,0,0,1-.75.34" transform="translate(-73.29 -90.47)"/><path class="cls-3" d="M179.59,255.78a1,1,0,0,1-.73-1.68c.09-.1,9.29-10,8.56-18.1a1,1,0,0,1,.9-1.08,1,1,0,0,1,1.09.91c.81,9-8.69,19.21-9.1,19.64a1,1,0,0,1-.72.31" transform="translate(-73.29 -90.47)"/><path class="cls-3" d="M188.16,261a1,1,0,0,1-.66-.24,1,1,0,0,1-.1-1.41c.09-.1,8.84-10.29,8.11-18.42a1,1,0,1,1,2-.18c.81,9-8.2,19.47-8.59,19.91a1,1,0,0,1-.75.34" transform="translate(-73.29 -90.47)"/><path class="cls-3" d="M196.25,265.91a1,1,0,0,1-.66-.25,1,1,0,0,1-.1-1.41c.09-.1,8.84-10.29,8.11-18.41a1,1,0,0,1,.9-1.09,1,1,0,0,1,1.09.91c.8,9-8.2,19.46-8.59,19.9a1,1,0,0,1-.75.35" transform="translate(-73.29 -90.47)"/><path class="cls-3" d="M203.61,270.38a1,1,0,0,1-.75-1.65c.09-.1,8.83-10.29,8.1-18.42a1,1,0,1,1,2-.18c.81,9-8.2,19.47-8.58,19.91a1,1,0,0,1-.76.34" transform="translate(-73.29 -90.47)"/><path class="cls-3" d="M211.63,274.85a1,1,0,0,1-.66-.25,1,1,0,0,1-.1-1.41c.09-.1,8.41-9.74,7.68-17.87a1,1,0,0,1,.9-1.08,1,1,0,0,1,1.09.9c.81,9-7.79,18.95-8.16,19.37a1,1,0,0,1-.75.34" transform="translate(-73.29 -90.47)"/><path class="cls-3" d="M217.66,278.18a1,1,0,0,1-.73-.31,1,1,0,0,1,0-1.42c.09-.08,9.12-8.58,8.4-16.64a1,1,0,1,1,2-.18c.81,9-8.62,17.91-9,18.29a1,1,0,0,1-.68.26" transform="translate(-73.29 -90.47)"/><path class="cls-3" d="M224.94,282.94a1,1,0,0,1-.72-.31,1,1,0,0,1,0-1.42c.1-.08,9.43-9.07,8.7-17.13a1,1,0,1,1,2-.18c.81,9-8.9,18.37-9.31,18.76a1,1,0,0,1-.69.28" transform="translate(-73.29 -90.47)"/><path class="cls-3" d="M232.07,286.94a1,1,0,0,1-.69-1.74c.1-.08,9.12-8.58,8.4-16.64a1,1,0,1,1,2-.18c.81,9-8.62,17.91-9,18.29a1,1,0,0,1-.68.27" transform="translate(-73.29 -90.47)"/><path class="cls-3" d="M239,291.17a1,1,0,0,1-.73-.32,1,1,0,0,1,.05-1.41c.09-.08,9.12-8.59,8.39-16.64a1,1,0,0,1,2-.18c.81,9-8.63,17.91-9,18.29a1,1,0,0,1-.68.26" transform="translate(-73.29 -90.47)"/><path class="cls-3" d="M245.87,295.66a1,1,0,0,1-.69-1.73c.09-.09,9.42-9.07,8.7-17.14a1,1,0,0,1,2-.18c.81,9-8.9,18.38-9.31,18.77a1,1,0,0,1-.69.28" transform="translate(-73.29 -90.47)"/><path class="cls-3" d="M252.45,299.32a1,1,0,0,1-.73-.32,1,1,0,0,1,.05-1.41c.09-.08,9.12-8.59,8.4-16.64a1,1,0,1,1,2-.18c.81,9-8.62,17.91-9,18.29a1,1,0,0,1-.68.26" transform="translate(-73.29 -90.47)"/><path class="cls-3" d="M258.89,303.24a1,1,0,0,1-.68-1.74c.09-.08,9.12-8.58,8.4-16.64a1,1,0,0,1,.9-1.09,1,1,0,0,1,1.09.91c.81,9-8.63,17.92-9,18.29a1,1,0,0,1-.68.27" transform="translate(-73.29 -90.47)"/><path class="cls-3" d="M265.33,307.15a1,1,0,0,1-.73-.32,1,1,0,0,1,0-1.42c.09-.08,9.12-8.58,8.39-16.64a1,1,0,1,1,2-.18c.81,9-8.63,17.92-9,18.29a1,1,0,0,1-.68.27" transform="translate(-73.29 -90.47)"/><path class="cls-3" d="M270.52,306.67l-.38-.23L80.4,192.49l9.47-15.59L278.24,294.05l-.07.48c0,.34-1.18,8.34-7.26,11.92ZM82.46,192,270.52,304.92c4.36-2.82,5.76-8.46,6.09-10.12L90.37,179Z" transform="translate(-73.29 -90.47)"/><path class="cls-3" d="M75.45,195.24a2.11,2.11,0,0,1-1.27-.4c-2.51-1.86.69-8.57,4.72-14a38.25,38.25,0,0,1,6.52-7c2.47-1.94,4.33-2.48,5.52-1.6s1.22,2.82.07,5.74a38,38,0,0,1-4.79,8.28c-3.45,4.65-8,9-10.77,9M89.56,173.8c-1,0-4.75,2.41-9,8.22-4.62,6.23-5.7,10.69-5.14,11.21s4.62-1.94,9.24-8.17,5.69-10.69,5.14-11.22a.36.36,0,0,0-.19,0m.19,0h0Z" transform="translate(-73.29 -90.47)"/><path class="cls-3" d="M128.31,368a.81.81,0,0,1-.31-.06.76.76,0,0,1-.43-.57L126.7,362a.75.75,0,1,1,1.48-.24l.68,4.19,12.55-8.11,26.27-55.66-3,.83a.75.75,0,0,1-.92-.52.76.76,0,0,1,.52-.93l4.53-1.27a.75.75,0,0,1,.88,1l-27.06,57.34a.74.74,0,0,1-.27.31l-13.7,8.85a.72.72,0,0,1-.4.12" transform="translate(-73.29 -90.47)"/><path class="cls-3" d="M134.29,368.64a.75.75,0,0,1-.75-.75v-4.54a.75.75,0,0,1,1.5,0v3.18L146.9,359l24.21-52.79-3.26,1.06a.75.75,0,0,1-.94-.48.76.76,0,0,1,.48-.95l4.89-1.59a.76.76,0,0,1,.79.22.75.75,0,0,1,.12.81l-25,54.55a.79.79,0,0,1-.28.32l-13.2,8.35a.71.71,0,0,1-.4.11" transform="translate(-73.29 -90.47)"/><path class="cls-3" d="M140.79,368.1a.88.88,0,0,1-.32-.07.79.79,0,0,1-.42-.54l-.39-2.05a.76.76,0,0,1,.6-.88.77.77,0,0,1,.88.6l.19,1c6-3.27,12.26-6.88,13-7.65,1.08-2.9,15.28-34,20.18-44.71l-4.79-2.91a.74.74,0,0,1-.25-1,.75.75,0,0,1,1-.25l5.36,3.26a.75.75,0,0,1,.29.95c-8,17.5-20.05,44-20.42,45.19,0,.35-.2,1.21-14.56,9a.73.73,0,0,1-.35.09m13.5-9.52a.5.5,0,0,0,0,.16.8.8,0,0,1,0-.16" transform="translate(-73.29 -90.47)"/><path class="cls-3" d="M154.13,370.17H154l-11.46-1.94a.75.75,0,1,1,.25-1.48l11.21,1.9L166.63,362l6.63-16.05-9.92-6a.76.76,0,0,1-.25-1,.74.74,0,0,1,1-.25L174.58,345a.76.76,0,0,1,.31.93l-7,16.89a.84.84,0,0,1-.34.38l-13.09,6.93a.73.73,0,0,1-.35.09" transform="translate(-73.29 -90.47)"/><path class="cls-3" d="M167.22,363.23a.83.83,0,0,1-.22,0l-12.24-3.61-.12,0-5.84-2.93a.74.74,0,0,1-.33-1,.76.76,0,0,1,1-.34l5.77,2.9,12.18,3.59a.75.75,0,0,1-.21,1.47" transform="translate(-73.29 -90.47)"/><path class="cls-3" d="M178.44,334.24a.72.72,0,0,1-.32-.08l-9.93-4.78a.75.75,0,0,1-.35-1,.76.76,0,0,1,1-.35l9.2,4.44,4.52-11.09-8.46-5.14a.76.76,0,0,1-.25-1,.74.74,0,0,1,1-.25l9,5.47a.75.75,0,0,1,.3.92l-5.06,12.42a.77.77,0,0,1-.43.42.76.76,0,0,1-.27.05" transform="translate(-73.29 -90.47)"/><path class="cls-3" d="M167.65,339.81a.79.79,0,0,1-.39-.11l-3-1.83a.75.75,0,1,1,.78-1.28l2.65,1.61,10.42-5.38a.75.75,0,1,1,.69,1.33L168,339.72a.73.73,0,0,1-.35.09" transform="translate(-73.29 -90.47)"/><path class="cls-3" d="M120.24,367.08a.72.72,0,0,1-.35-.08.78.78,0,0,1-.4-.63l-.24-5.24a.74.74,0,0,1,.36-.68l13.75-8.33,25.89-51.72,2.28-3.45a.75.75,0,0,1,.58-.34l.81,0a.73.73,0,0,1,.43.11l2.44,1.48a.75.75,0,0,1,.29,1l-27.43,56.58a.83.83,0,0,1-.28.31l-17.73,11a.71.71,0,0,1-.4.11m.53-5.58.16,3.53,16.47-10.17,27-55.77-1.66-1h-.2l-2,3.06L134.6,353a.76.76,0,0,1-.28.31Z" transform="translate(-73.29 -90.47)"/><path class="cls-3" d="M113.59,365.72a.74.74,0,0,1-.51-.2.73.73,0,0,1-.16-.88l28.3-56.32a.67.67,0,0,1,.23-.27l18.09-13.15a.76.76,0,0,1,.83,0l2,1.2a.73.73,0,0,1,.28,1l-28,56a.76.76,0,0,1-.28.31L114,365.61a.67.67,0,0,1-.38.11m28.88-56.56-27,53.82,17.93-10.86L161,297l-.94-.57Z" transform="translate(-73.29 -90.47)"/><path class="cls-3" d="M166.62,300.42l-10.73-6.52,2.21-3.63,6.84,4.15,7.64-15.53-6.83-4.16,2.38-3.92L178.35,277Zm-8.67-7,8.06,4.89,10.38-20.71-7.76-4.71-.82,1.36,6.72,4.09-9,18.23-7-4.22Z" transform="translate(-73.29 -90.47)"/><path class="cls-3" d="M149.7,300.38a1.85,1.85,0,0,1-.95-.25c-1.89-1.16-.69-4.95.2-7.12l.44-1.06,2.06,2.16c4.51-3.31,4.8-6.91,4.74-8.2l-2.84-.46.89-1c1.44-1.66,4.14-4.26,6-3.16.73.44,1.43,1.59.67,4.55a26.63,26.63,0,0,1-3.07,6.89c-2.47,4.07-5.83,7.66-8.1,7.66m.22-5.7c-.93,2.69-.69,4-.39,4.16.7.42,3.79-1.63,7-6.9a24.86,24.86,0,0,0,2.9-6.48c.47-1.84.26-2.74,0-2.9s-1.36.12-3.11,1.85l1.19.2.11.5c0,.24,1.14,5.86-5.83,10.61l-.53.35Z" transform="translate(-73.29 -90.47)"/><path class="cls-3" d="M151.26,296.07l-12.12-12.68a1,1,0,0,1,.86-1.63l17.5,2.85.11.5c0,.24,1.14,5.86-5.83,10.61Zm-9.94-12.58,10.13,10.62c4.51-3.31,4.8-6.9,4.74-8.19Z" transform="translate(-73.29 -90.47)"/><path class="cls-3" d="M160.4,280.71a1.85,1.85,0,0,1-1-.25c-1.89-1.15-.69-4.95.2-7.11l.44-1.07,2.06,2.16c4.53-3.32,4.81-6.9,4.74-8.19l-2.84-.47.89-1c1.44-1.66,4.14-4.26,6-3.16.73.44,1.43,1.59.67,4.55a26.63,26.63,0,0,1-3.07,6.89c-2.47,4.07-5.83,7.66-8.1,7.66m.22-5.7c-.93,2.69-.69,4-.39,4.16.7.43,3.79-1.63,7-6.9a24.86,24.86,0,0,0,2.9-6.48c.47-1.84.26-2.74,0-2.9s-1.36.13-3.11,1.86l1.19.19.11.5c.05.24,1.14,5.86-5.83,10.61l-.53.36Z" transform="translate(-73.29 -90.47)"/><path class="cls-3" d="M162,276.41l-12.11-12.69a1,1,0,0,1,.86-1.63l17.5,2.85.11.5c.05.24,1.14,5.86-5.83,10.61ZM152,263.83l10.13,10.61c4.53-3.32,4.81-6.9,4.74-8.19Z" transform="translate(-73.29 -90.47)"/><polygon class="cls-3" points="86.97 201.92 86.09 200.71 92.67 195.95 97.47 186.5 98.81 187.18 93.84 196.95 86.97 201.92"/><rect class="cls-3" x="149.87" y="277.99" width="13.36" height="1.5" transform="translate(-235.98 205.35) rotate(-63.74)"/><rect class="cls-3" x="158.3" y="255.03" width="19.72" height="1.5" transform="translate(-208.87 203.32) rotate(-63.81)"/><rect class="cls-3" x="166.16" y="262.77" width="23.14" height="1.5" transform="translate(-210.66 214.83) rotate(-63.55)"/><path class="cls-3" d="M254.64,307.9l-.72-.16-71.51-16a.75.75,0,1,1,.33-1.46l70.8,15.82.37-1.51-75.12-16.19c.08,3.23-2.8,6.48-2.93,6.63a.75.75,0,0,1-1.12-1s3.2-3.62,2.44-6.39l-.33-1.19,78.89,17Z" transform="translate(-73.29 -90.47)"/><path class="cls-3" d="M179.84,297.84a.73.73,0,0,1-.5-.19.75.75,0,0,1-.06-1.06s3.19-3.62,2.44-6.39a.75.75,0,0,1,1.44-.4c1,3.56-2.61,7.62-2.77,7.79a.71.71,0,0,1-.55.25" transform="translate(-73.29 -90.47)"/><path class="cls-3" d="M184.07,300.21a.73.73,0,0,1-.5-.19.75.75,0,0,1-.06-1.06s3.2-3.62,2.44-6.39a.75.75,0,0,1,1.45-.4c1,3.56-2.62,7.62-2.77,7.79a.75.75,0,0,1-.56.25" transform="translate(-73.29 -90.47)"/><path class="cls-3" d="M188.5,302.69a.73.73,0,0,1-.5-.19.75.75,0,0,1-.06-1.06s3.2-3.62,2.44-6.39a.75.75,0,0,1,1.45-.4c1,3.56-2.62,7.62-2.77,7.79a.75.75,0,0,1-.56.25" transform="translate(-73.29 -90.47)"/><path class="cls-3" d="M192.93,305.17a.75.75,0,0,1-.5-.19.76.76,0,0,1-.06-1.06s3.2-3.62,2.44-6.39a.75.75,0,0,1,1.45-.4c1,3.56-2.62,7.62-2.77,7.79a.73.73,0,0,1-.56.25" transform="translate(-73.29 -90.47)"/><path class="cls-3" d="M197.08,307.5a.8.8,0,0,1-.5-.19.76.76,0,0,1-.06-1.06s3.2-3.63,2.44-6.4a.75.75,0,0,1,.53-.92.76.76,0,0,1,.92.53c1,3.56-2.62,7.61-2.77,7.79a.77.77,0,0,1-.56.25" transform="translate(-73.29 -90.47)"/><path class="cls-3" d="M201.23,309.82a.75.75,0,0,1-.5-.19.76.76,0,0,1-.06-1.06s3.2-3.62,2.44-6.39a.75.75,0,0,1,1.45-.4c1,3.56-2.62,7.62-2.77,7.79a.73.73,0,0,1-.56.25" transform="translate(-73.29 -90.47)"/><path class="cls-3" d="M205.38,312.14a.75.75,0,0,1-.56-1.25s3.2-3.62,2.44-6.39a.75.75,0,0,1,1.45-.39c1,3.55-2.61,7.61-2.77,7.78a.73.73,0,0,1-.56.25" transform="translate(-73.29 -90.47)"/><path class="cls-3" d="M209.31,314.09a.78.78,0,0,1-.51-.2.75.75,0,0,1-.05-1.06s2.91-3.27,2.15-6a.75.75,0,0,1,1.45-.4c1,3.56-2.35,7.29-2.49,7.45a.76.76,0,0,1-.55.25" transform="translate(-73.29 -90.47)"/><path class="cls-3" d="M213.29,316.31a.73.73,0,0,1-.5-.19.75.75,0,0,1-.06-1.06s2.91-3.28,2.15-6a.75.75,0,0,1,1.45-.4c1,3.56-2.34,7.29-2.48,7.45a.77.77,0,0,1-.56.24" transform="translate(-73.29 -90.47)"/><path class="cls-3" d="M216.8,318.28a.71.71,0,0,1-.53-.22.75.75,0,0,1,0-1.06s3.1-3.15,2.35-5.9a.75.75,0,1,1,1.45-.39c1,3.59-2.58,7.2-2.73,7.35a.74.74,0,0,1-.53.22" transform="translate(-73.29 -90.47)"/><path class="cls-3" d="M220.75,320.49a.73.73,0,0,1-.5-.19.76.76,0,0,1-.06-1.06s2.91-3.28,2.15-6.05a.75.75,0,0,1,.53-.92.76.76,0,0,1,.92.53c1,3.56-2.34,7.29-2.48,7.44a.75.75,0,0,1-.56.25" transform="translate(-73.29 -90.47)"/><path class="cls-3" d="M224.48,322.58a.73.73,0,0,1-.5-.19.76.76,0,0,1-.06-1.06s2.91-3.28,2.15-6.05a.75.75,0,0,1,.53-.92.76.76,0,0,1,.92.53c1,3.56-2.34,7.29-2.48,7.44a.75.75,0,0,1-.56.25" transform="translate(-73.29 -90.47)"/><path class="cls-3" d="M227.88,324.48a.73.73,0,0,1-.5-.19.75.75,0,0,1-.06-1.06s2.91-3.28,2.15-6.05a.75.75,0,0,1,.53-.92.76.76,0,0,1,.92.53c1,3.56-2.34,7.29-2.49,7.44a.71.71,0,0,1-.55.25" transform="translate(-73.29 -90.47)"/><path class="cls-3" d="M231.55,326.4a.77.77,0,0,1-.51-.19.76.76,0,0,1,0-1.06s2.76-3.1,2-5.86a.76.76,0,0,1,.53-.92.74.74,0,0,1,.92.52c1,3.57-2.2,7.12-2.34,7.27a.75.75,0,0,1-.55.24" transform="translate(-73.29 -90.47)"/><path class="cls-3" d="M233.8,326.5l-64.08-35.58,3.13-6.34,63.92,36.7-.06.49a6.71,6.71,0,0,1-2.53,4.47Zm-62.1-36.2,62,34.42a5.29,5.29,0,0,0,1.43-2.65l-61.65-35.39Z" transform="translate(-73.29 -90.47)"/><path class="cls-3" d="M231.52,335.65a3,3,0,0,1-1.62-.43c-2.41-1.47-1.76-6.56-.13-10.67a.73.73,0,0,1,1-.42.75.75,0,0,1,.42,1c-1.8,4.55-1.65,8.13-.48,8.84.86.52,2.42.05,4.17-1.25a26.66,26.66,0,0,0,9-14.8c.35-2.15,0-3.75-.81-4.27-1.33-.8-4.58.71-8,5.1a.75.75,0,1,1-1.18-.92c3.69-4.75,7.59-6.89,9.94-5.47,1.45.88,2,2.94,1.52,5.81a25.49,25.49,0,0,1-3.46,8.68,25.21,25.21,0,0,1-6.11,7.07,7.51,7.51,0,0,1-4.23,1.76" transform="translate(-73.29 -90.47)"/><path class="cls-3" d="M183.67,307l-15.18-3.6a.75.75,0,0,1,.35-1.46l14.51,3.44,5.86-4.15a.75.75,0,0,1,1,.18.74.74,0,0,1-.18,1Z" transform="translate(-73.29 -90.47)"/><path class="cls-3" d="M184.41,289.61a.85.85,0,0,1-.31-.06.77.77,0,0,1-.37-1l12.51-27.27a.75.75,0,1,1,1.36.63l-12.5,27.27a.76.76,0,0,1-.69.43" transform="translate(-73.29 -90.47)"/><path class="cls-3" d="M194.4,291.77a.72.72,0,0,1-.29-.06.75.75,0,0,1-.41-1l3.39-8.18-6.43-6.47a.75.75,0,0,1,0-1.06.75.75,0,0,1,1.06,0l7.14,7.18-3.77,9.1a.76.76,0,0,1-.69.47" transform="translate(-73.29 -90.47)"/><path class="cls-3" d="M204,275.27l-10.49-6.37a.76.76,0,0,1-.25-1,.74.74,0,0,1,1-.25l9.09,5.52,2.82-5.68a.75.75,0,0,1,1.35.67Z" transform="translate(-73.29 -90.47)"/><path class="cls-3" d="M195.1,280.23a.76.76,0,0,1-.64-.35.77.77,0,0,1,.25-1l8.55-5.27a.75.75,0,0,1,1,.24.74.74,0,0,1-.25,1l-8.54,5.28a.73.73,0,0,1-.4.11" transform="translate(-73.29 -90.47)"/><path class="cls-3" d="M145.84,377.27a.73.73,0,0,1-.52-.21.74.74,0,0,1-.17-.82l3.25-7.95a.74.74,0,0,1,1-.41.75.75,0,0,1,.41,1l-2.57,6.27,19.94-8.46,23.17-53.56-10.5,6.15a.75.75,0,1,1-.76-1.29l12.48-7.31a.77.77,0,0,1,.88.08.76.76,0,0,1,.19.86l-24.2,56a.8.8,0,0,1-.4.39l-21.88,9.28a.8.8,0,0,1-.3.06" transform="translate(-73.29 -90.47)"/><path class="cls-3" d="M177.2,389.22a.58.58,0,0,1-.26-.05l-31.36-11.94a.75.75,0,0,1-.44-1,.76.76,0,0,1,1-.44l31.1,11.85L198,380a.76.76,0,0,1,1,.45.75.75,0,0,1-.45,1l-21,7.74a.75.75,0,0,1-.26,0" transform="translate(-73.29 -90.47)"/><path class="cls-3" d="M198.66,381.74l-31.92-14.12,24.83-57.38,29,16.28-1.6,4-.8-1.14a1.12,1.12,0,0,0-.32-.33c-.84-.51-2.6.23-4.61,1.93a40.31,40.31,0,0,0-11.19,18.42c-.59,2.57-.44,4.47.4,5h0c1,.63,3.76-.57,7.33-4.68l2.89-3.32Zm-29.95-14.89,29.13,12.88,10.45-26.32c-2.71,2.4-5,3.24-6.6,2.29s-1.87-3.19-1.08-6.6a41.7,41.7,0,0,1,11.68-19.23c2.58-2.19,4.72-2.94,6.21-2.16l.21-.53-26.42-14.82Z" transform="translate(-73.29 -90.47)"/><path class="cls-3" d="M234.05,362a1.56,1.56,0,0,1-.79-.21c-.93-.57-1-2-.31-3.93l-18.8-11.42a42.22,42.22,0,0,1-3.22,4.25c-3.83,4.4-7.19,6.22-9.24,5-1.49-.91-1.87-3.19-1.08-6.6a41.7,41.7,0,0,1,11.68-19.23c2.66-2.27,4.86-3,6.36-2.07a2.59,2.59,0,0,1,.77.75c1.87,2.68-.23,9.12-3.22,14.55L235,354.53c1.33-1.52,2.69-2.11,3.62-1.54,1.46.89.73,3.58-.56,5.7a9.65,9.65,0,0,1-2.24,2.61,3,3,0,0,1-1.77.73m-20.36-17.6,21.17,12.87-.28.61c-.74,1.6-.65,2.5-.53,2.64s1.51-.64,2.72-2.64,1.25-3.43,1.06-3.64c-.15,0-1,.3-2.07,1.7l-.41.53-21.18-12.87.37-.63c3.84-6.72,4.75-12,3.65-13.59a1.12,1.12,0,0,0-.32-.33c-.84-.51-2.6.23-4.61,1.93a40.31,40.31,0,0,0-11.19,18.42c-.59,2.57-.44,4.48.4,5,1,.63,3.76-.57,7.33-4.68a41.26,41.26,0,0,0,3.49-4.68Z" transform="translate(-73.29 -90.47)"/><rect class="cls-3" x="213.34" y="343.66" width="2.44" height="1.5" transform="translate(-264.49 258.45) rotate(-58.72)"/><path class="cls-3" d="M207.09,342.11a2,2,0,0,1-1-.29,2.08,2.08,0,0,1-1-1.4,2.41,2.41,0,0,1,.33-1.67,2.13,2.13,0,1,1,3.63,2.21,2.38,2.38,0,0,1-1.33,1.05,2.43,2.43,0,0,1-.64.1m.3-3a.83.83,0,0,0-.68.43.86.86,0,0,0-.13.62.56.56,0,0,0,.25.38.6.6,0,0,0,.46.05,1,1,0,0,0,.49-.4.75.75,0,0,0-.12-1,.5.5,0,0,0-.27-.07" transform="translate(-73.29 -90.47)"/><polygon class="cls-3" points="112.76 289.36 99.87 283.49 88.28 288.99 87.64 287.63 99.86 281.84 113.38 287.99 112.76 289.36"/><path class="cls-3" d="M197.88,240.23a.75.75,0,0,1-.48-1.33c.08-.07,2-1.67,1-3.47a.75.75,0,0,1,1.31-.72c1.28,2.32-.34,4.52-1.37,5.35a.72.72,0,0,1-.47.17" transform="translate(-73.29 -90.47)"/><path class="cls-3" d="M192.44,236.92a.77.77,0,0,1-.5-.18.75.75,0,0,1-.06-1.06c.51-.58,1.77-2.34,1.53-3.57a.74.74,0,0,1,.58-.88.77.77,0,0,1,.89.58c.44,2.18-1.64,4.6-1.88,4.86a.73.73,0,0,1-.56.25" transform="translate(-73.29 -90.47)"/><path class="cls-3" d="M202.07,242.67a.75.75,0,0,1-.48-1.33c.08-.07,2-1.67,1-3.47a.74.74,0,0,1,.29-1,.75.75,0,0,1,1,.29c1.28,2.32-.34,4.52-1.37,5.35a.72.72,0,0,1-.47.17" transform="translate(-73.29 -90.47)"/><path class="cls-3" d="M206.46,245.23a.77.77,0,0,1-.59-.28.75.75,0,0,1,.11-1c.08-.07,2-1.67,1-3.47a.75.75,0,1,1,1.31-.72c1.28,2.32-.34,4.51-1.37,5.35a.78.78,0,0,1-.47.17" transform="translate(-73.29 -90.47)"/><path class="cls-3" d="M210.84,247.79a.77.77,0,0,1-.58-.28.76.76,0,0,1,.11-1.06c.08-.06,2-1.67,1-3.46a.75.75,0,1,1,1.31-.72c1.27,2.32-.34,4.51-1.37,5.35a.78.78,0,0,1-.48.17" transform="translate(-73.29 -90.47)"/><path class="cls-3" d="M215,250.18a.74.74,0,0,1-.58-.28.75.75,0,0,1,.11-1.05c.08-.07,2-1.67,1-3.47a.75.75,0,0,1,1.31-.72c1.27,2.32-.34,4.52-1.37,5.35a.72.72,0,0,1-.48.17" transform="translate(-73.29 -90.47)"/><path class="cls-3" d="M219.06,252.58a.77.77,0,0,1-.58-.28.76.76,0,0,1,.11-1.06c.08-.06,2-1.67,1-3.46a.75.75,0,1,1,1.31-.72c1.27,2.32-.34,4.51-1.37,5.35a.78.78,0,0,1-.48.17" transform="translate(-73.29 -90.47)"/><path class="cls-3" d="M223.17,255a.77.77,0,0,1-.58-.28.75.75,0,0,1,.11-1.05c.08-.07,2-1.67,1-3.47a.75.75,0,1,1,1.31-.72c1.28,2.32-.34,4.52-1.37,5.35a.78.78,0,0,1-.48.17" transform="translate(-73.29 -90.47)"/><path class="cls-3" d="M227,257.06a.77.77,0,0,1-.59-.28.75.75,0,0,1,.12-1.06c.07-.06,1.78-1.49.8-3.28a.74.74,0,0,1,.29-1,.75.75,0,0,1,1,.29,4.12,4.12,0,0,1-1.17,5.17.78.78,0,0,1-.47.17" transform="translate(-73.29 -90.47)"/><path class="cls-3" d="M231,259.35a.71.71,0,0,1-.58-.28.75.75,0,0,1,.11-1.05c.07-.06,1.78-1.49.8-3.28a.75.75,0,1,1,1.31-.72,4.12,4.12,0,0,1-1.17,5.17.76.76,0,0,1-.47.16" transform="translate(-73.29 -90.47)"/><path class="cls-3" d="M234.43,261.38a.76.76,0,0,1-.62-.33.75.75,0,0,1,.2-1c.2-.14,1.92-1.4,1-3.12a.74.74,0,0,1,.3-1,.75.75,0,0,1,1,.29,3.89,3.89,0,0,1-1.45,5.08.7.7,0,0,1-.42.13" transform="translate(-73.29 -90.47)"/><path class="cls-3" d="M237.74,262.58l-50.16-29,2.12-4.3L239.88,259v.44a3.48,3.48,0,0,1-1.77,3Zm-48.19-29.64,48.21,27.92a1.94,1.94,0,0,0,.55-1l-48-28.48Z" transform="translate(-73.29 -90.47)"/><path class="cls-3" d="M263.07,278.91,240.21,265l2.58-4.25,22.79,13.85.07.31c.47,2-1.24,3.37-2.22,3.82Zm-20.8-14.4,20.87,12.68a2.07,2.07,0,0,0,1.09-1.64l-20.94-12.73Z" transform="translate(-73.29 -90.47)"/><path class="cls-3" d="M237.18,268.09a2,2,0,0,1-1.06-.29c-1.46-.89-1.21-3.64-.3-6a.75.75,0,0,1,1.4.54c-.83,2.14-.75,3.89-.32,4.14.69.42,2.84-.88,4.66-3.88a11.33,11.33,0,0,0,1.6-4.05c.14-.94,0-1.67-.3-1.87-.48-.29-2,.3-3.7,2.49a.76.76,0,0,1-1.19-.93c2-2.59,4.25-3.7,5.67-2.84.89.54,1.25,1.74,1,3.37a13.16,13.16,0,0,1-1.81,4.61c-1.51,2.49-3.82,4.68-5.66,4.68" transform="translate(-73.29 -90.47)"/><path class="cls-3" d="M261.45,282.74a1.94,1.94,0,0,1-1.06-.29c-1.46-.89-1.21-3.63-.3-6a.75.75,0,1,1,1.4.54c-.83,2.14-.75,3.88-.32,4.14s1,0,1.8-.59a11.37,11.37,0,0,0,2.86-3.29c1.82-3,2-5.51,1.3-5.92-.48-.29-2,.3-3.71,2.48a.74.74,0,0,1-1.05.13.76.76,0,0,1-.13-1.05c2-2.59,4.25-3.7,5.67-2.85,1.92,1.18,1,5-.8,8a13,13,0,0,1-3.26,3.72,4.21,4.21,0,0,1-2.4.95" transform="translate(-73.29 -90.47)"/><path class="cls-3" d="M187.93,236.26a3.24,3.24,0,0,1-1.68-.53c-1.56-.94-1.62-3.59-.14-6a7,7,0,0,1,2.49-2.5,2.88,2.88,0,0,1,2.93-.15c1.34.82,1.4,2.95.88,4.59a.75.75,0,0,1-.94.49.76.76,0,0,1-.49-.94c.43-1.36.23-2.57-.23-2.85a1.49,1.49,0,0,0-1.43.18,5.49,5.49,0,0,0-1.93,2c-1.06,1.75-1.07,3.54-.36,4s1.26.62,2.26-.54a.75.75,0,0,1,1.14,1,3.33,3.33,0,0,1-2.5,1.38" transform="translate(-73.29 -90.47)"/><path class="cls-3" d="M224.21,314.91a.86.86,0,0,1-.27-.05.77.77,0,0,1-.44-1l4.79-12.75a.75.75,0,0,1,1.41.53l-4.79,12.75a.75.75,0,0,1-.7.49" transform="translate(-73.29 -90.47)"/><path class="cls-3" d="M229.83,299.4a.86.86,0,0,1-.27,0,.75.75,0,0,1-.43-1l5.47-14a.75.75,0,0,1,1-.43.76.76,0,0,1,.43,1l-5.47,14a.75.75,0,0,1-.7.48" transform="translate(-73.29 -90.47)"/><path class="cls-3" d="M260.79,325.77A7.4,7.4,0,0,1,255.7,324c-5.32-5-2.18-17.5,2.12-24.58a.75.75,0,0,1,1-.25.74.74,0,0,1,.25,1c-4.56,7.5-6.66,18.67-2.39,22.7a6.74,6.74,0,0,0,5.61,1.25c7.1-1.06,16.09-8.43,21.86-17.92,4.1-6.75,6.79-13.8,7.57-19.83.76-5.83-.35-10-3.11-11.64-4.68-2.85-15.12,2.91-22.79,12.57a.74.74,0,0,1-1.05.12.75.75,0,0,1-.13-1.05c8.4-10.57,19.27-16.25,24.75-12.93,3.3,2,4.66,6.67,3.82,13.12-.81,6.24-3.57,13.49-7.78,20.42-6,9.85-15.41,17.5-22.92,18.62a11.89,11.89,0,0,1-1.75.14" transform="translate(-73.29 -90.47)"/><path class="cls-3" d="M208.09,382.66l-9-4.31a.75.75,0,1,1,.65-1.35l7.47,3.6,12-31.75a.75.75,0,0,1,1.41.53Z" transform="translate(-73.29 -90.47)"/><path class="cls-3" d="M220.64,346.93a.87.87,0,0,1-.28-.05.75.75,0,0,1-.42-1l8.48-21.69a.75.75,0,1,1,1.4.54l-8.49,21.69a.74.74,0,0,1-.69.48" transform="translate(-73.29 -90.47)"/><path class="cls-3" d="M231.4,319a.71.71,0,0,1-.28-.06.74.74,0,0,1-.41-1L236.78,303a.75.75,0,0,1,1-.41.74.74,0,0,1,.41,1l-6.07,14.94a.76.76,0,0,1-.7.47" transform="translate(-73.29 -90.47)"/><path class="cls-3" d="M238.25,301.22a.85.85,0,0,1-.26-.05.76.76,0,0,1-.44-1l4.15-11.06a.75.75,0,1,1,1.4.53L239,300.73a.77.77,0,0,1-.71.49" transform="translate(-73.29 -90.47)"/><path class="cls-3" d="M173.23,393.92a.71.71,0,0,1-.54-.24.73.73,0,0,1-.14-.81l2.1-4.83a.74.74,0,0,1,1-.39.75.75,0,0,1,.39,1l-1.4,3.23,23.67-8.58,2.61-4.71a.76.76,0,0,1,1-.29.74.74,0,0,1,.29,1l-2.75,4.95a.8.8,0,0,1-.4.35l-25.57,9.26a.75.75,0,0,1-.26.05" transform="translate(-73.29 -90.47)"/><path class="cls-3" d="M193.57,396a.66.66,0,0,1-.27-.06l-7-2.68-5.64,2.14a.77.77,0,0,1-.66-.06l-3.55-2.16a.75.75,0,0,1-.26-1,.76.76,0,0,1,1-.25l3.24,2,5.57-2.11a.7.7,0,0,1,.53,0l7,2.69,7.64-2.24a7.67,7.67,0,0,0,5.49-7l.2-3.62a.75.75,0,0,1,.79-.71.76.76,0,0,1,.71.79l-.2,3.62a9.18,9.18,0,0,1-6.57,8.31l-7.88,2.31a.52.52,0,0,1-.21,0" transform="translate(-73.29 -90.47)"/><path class="cls-3" d="M209.51,377.53a.74.74,0,0,1-.75-.68.75.75,0,0,1,.68-.82l20.28-1.77.81-1.34-19.83,1.6a.76.76,0,0,1-.81-.68.75.75,0,0,1,.69-.81l21.29-1.72a.74.74,0,0,1,.7.35.75.75,0,0,1,0,.78l-1.78,2.92a.73.73,0,0,1-.57.36l-20.66,1.81h-.06" transform="translate(-73.29 -90.47)"/><path class="cls-3" d="M212.73,384.45h0l-5.16-.14a.75.75,0,1,1,0-1.5l5,.13,17.27-8.64a.75.75,0,0,1,1,.34.74.74,0,0,1-.33,1l-17.44,8.73a.76.76,0,0,1-.33.08" transform="translate(-73.29 -90.47)"/><path class="cls-3" d="M212.35,323.16a.74.74,0,0,1-.66-.39.75.75,0,0,1,.3-1l7.45-4a.76.76,0,0,1,1,.3.75.75,0,0,1-.3,1l-7.46,4a.73.73,0,0,1-.35.09" transform="translate(-73.29 -90.47)"/><path class="cls-3" d="M215.18,324.89a.75.75,0,0,1-.4-1.39l7.46-4.69a.74.74,0,0,1,1,.23.76.76,0,0,1-.23,1l-7.46,4.69a.72.72,0,0,1-.4.12" transform="translate(-73.29 -90.47)"/><path class="cls-3" d="M192.67,312.49a.75.75,0,0,1-.36-1.41l7.77-4.16a.75.75,0,0,1,.71,1.33L193,312.41a.72.72,0,0,1-.35.08" transform="translate(-73.29 -90.47)"/><path class="cls-3" d="M175.71,317.08a.71.71,0,0,1-.37-.1.74.74,0,0,1-.29-1l3.6-6.46a.73.73,0,0,1,.85-.35l2,.54,11.87-7.19a.74.74,0,0,1,1,.25.75.75,0,0,1-.26,1L182,311.15a.72.72,0,0,1-.59.08l-1.72-.47-3.31,5.94a.74.74,0,0,1-.65.38" transform="translate(-73.29 -90.47)"/><path class="cls-3" d="M179.3,310.63a.79.79,0,0,1-.39-.11.76.76,0,0,1-.25-1l2.49-4.1a.75.75,0,1,1,1.29.77l-2.5,4.11a.75.75,0,0,1-.64.36" transform="translate(-73.29 -90.47)"/><path class="cls-3" d="M199,292.33a.8.8,0,0,1-.33-.08.75.75,0,0,1-.34-1L209.37,269a.75.75,0,1,1,1.34.67l-11.05,22.28a.75.75,0,0,1-.68.42" transform="translate(-73.29 -90.47)"/><path class="cls-3" d="M195.23,299.26a.74.74,0,0,1-.32-.07.75.75,0,0,1-.36-1L196,295a.76.76,0,0,1,1.37.64l-1.47,3.16a.76.76,0,0,1-.68.43" transform="translate(-73.29 -90.47)"/><path class="cls-3" d="M256.25,270.6a.73.73,0,0,1-.64-.37.75.75,0,0,1,.27-1l42.77-24.87a.73.73,0,0,1,.39-.1l4.8.09a.8.8,0,0,1,.47.18l7.26,6.23a.75.75,0,0,1,.09,1.06.76.76,0,0,1-1.06.08l-7.06-6.05-4.32-.09L256.63,270.5a.75.75,0,0,1-.38.1" transform="translate(-73.29 -90.47)"/><path class="cls-3" d="M222.57,388.22a.59.59,0,0,1-.29-.07l-5.5-2.33a.76.76,0,0,1-.45-.77l.37-3.52a.76.76,0,0,1,.83-.67.74.74,0,0,1,.66.82l-.31,3,4.7,2L261,370.82l5.64-5.4,34.44-44.48,18.23-60.4a.75.75,0,0,1,1.44.43l-18.27,60.54a.8.8,0,0,1-.13.24l-34.56,44.63-.08.08L261.93,372a.51.51,0,0,1-.23.15l-38.84,16a.72.72,0,0,1-.29.06" transform="translate(-73.29 -90.47)"/><path class="cls-3" d="M269.66,347.2l-31.2-17.07,4.25-7.94,30.66,18.43-.23.59a22.83,22.83,0,0,1-3.09,5.51Zm-29.17-17.67,28.78,15.75a21.47,21.47,0,0,0,2.23-4l-28.21-17Z" transform="translate(-73.29 -90.47)"/><path class="cls-3" d="M268.5,356a4.37,4.37,0,0,1-2.31-.62c-2.8-1.69-2.74-7-1.24-11.3a.75.75,0,1,1,1.42.49c-1.48,4.25-1.21,8.43.6,9.53,2.63,1.6,7.69-1.7,11-7.21s3.95-11.51,1.31-13.11c-2.09-1.27-5.91.61-9.09,4.46a.75.75,0,0,1-1.15-.95c3.77-4.58,8.21-6.5,11-4.79,3.45,2.09,3.09,8.76-.81,15.17-3.11,5.14-7.42,8.33-10.78,8.33" transform="translate(-73.29 -90.47)"/><path class="cls-3" d="M254.19,407.33l-.14-.84a27,27,0,0,0-.67-3.07c-1.14-3.91-3.09-6.72-5.8-8.33a11.26,11.26,0,0,0-3.34-1.27l-.68-.14,1.69-12.52,46.87-17.92,38.68,20.94Zm-9-14.81a12.24,12.24,0,0,1,3.12,1.28c3.05,1.82,5.23,4.91,6.47,9.21.21.73.4,1.52.56,2.39l71.54-21.61L292,364.89l-45.39,17.35Z" transform="translate(-73.29 -90.47)"/><path class="cls-3" d="M180.5,521.43a13.21,13.21,0,0,1-6.89-1.79c-6.79-4-9.18-14.41-6.75-29.23,2.4-14.59,9.19-31.82,19.12-48.53,18.62-31.37,43.81-52.66,58.58-49.52a12.54,12.54,0,0,1,3.79,1.44c3.05,1.82,5.23,4.91,6.47,9.21a27.35,27.35,0,0,1,.71,3.24c1.21,7.38.13,17.19-3.1,28.37A162.91,162.91,0,0,1,236,471.57c-9.93,16.72-21.82,30.92-33.48,40-8.34,6.5-15.9,9.85-22,9.85m60.91-127.89c-14.44,0-37,20.23-54.14,49.1-9.84,16.56-16.56,33.61-18.92,48-2.34,14.17-.19,24,6,27.7s15.89.87,27.21-8c11.52-9,23.27-23,33.11-39.59A161.63,161.63,0,0,0,251,434.2c3.17-11,4.23-20.55,3.06-27.71a27,27,0,0,0-.67-3.07c-1.13-3.91-3.08-6.72-5.8-8.33a11.31,11.31,0,0,0-3.33-1.27,13.89,13.89,0,0,0-2.84-.28" transform="translate(-73.29 -90.47)"/><path class="cls-3" d="M297.82,445a.64.64,0,0,1-.31-.07l-22.87-10.38a.75.75,0,0,1-.38-1,.86.86,0,0,1,.45-.43.8.8,0,0,1,.61,0l.11.07c.86.4,2.18,0,3.56-1.09a15.73,15.73,0,0,0,4.1-5.51c2.32-4.92,2-9.28.19-10.12a1.61,1.61,0,0,0-.29-.09.74.74,0,0,1-.47-.41.71.71,0,0,1,0-.62A.82.82,0,0,1,283,415a.76.76,0,0,1,.59,0l22.87,10.38a.7.7,0,0,1,.37.37,14.63,14.63,0,0,1-.22,11.46,15.53,15.53,0,0,1-8.51,7.81.66.66,0,0,1-.23,0M278.06,434.5l19.78,9a14.28,14.28,0,0,0,7.36-6.92,13.39,13.39,0,0,0,.32-10l-19.63-8.91c.74,2.38.28,6-1.44,9.62a17.16,17.16,0,0,1-4.52,6,8.3,8.3,0,0,1-1.87,1.15" transform="translate(-73.29 -90.47)"/><path class="cls-3" d="M276.19,434.92a3.32,3.32,0,0,1-1.43-.31l-.16-.09c-2.75-1.48-2.91-6.65-.37-12,2.42-5.13,6.27-8.28,9.16-7.48a3.35,3.35,0,0,1,.53.19c2.86,1.35,3.09,6.67.53,12.11a17.16,17.16,0,0,1-4.52,6,6.22,6.22,0,0,1-3.74,1.57m6.3-18.53c-1.88,0-4.85,2.39-6.91,6.74-2.3,4.87-2,9.14-.26,10.07l.11.07c.87.4,2.17,0,3.56-1.09a15.73,15.73,0,0,0,4.1-5.51c2.32-4.92,2-9.28.19-10.12h0a1.31,1.31,0,0,0-.28-.09,1.59,1.59,0,0,0-.5-.07" transform="translate(-73.29 -90.47)"/><path class="cls-3" d="M272,447.27a23.44,23.44,0,0,1-21-12.51l-.15-.27.09-.29c3.17-11,4.23-20.55,3.06-27.71l-.11-.65,7.17-2.17,41.13,18.45-.18.62c-.08.28-.17.57-.26.85l-.37,1.15-18.17-8.25-.26,0c-1.82-.5-5.17,1.91-7.42,6.67s-2,9.14-.26,10.07l.62.33h0l14.8,6.72-1,.76A29.35,29.35,0,0,1,272,447.27m-19.53-12.95a22,22,0,0,0,7.88,8.26c8.08,4.91,18.71,4.09,27.41-2L274,434.28l.07-.16c-2.18-1.87-2.15-6.66.2-11.63,2.16-4.59,5.48-7.59,8.22-7.6L261,405.27l-5.38,1.63c1,7.23,0,16.69-3.12,27.42" transform="translate(-73.29 -90.47)"/><path class="cls-3" d="M271.71,447.21c-17-8.06-17.57-28-17.57-28.2l1.5,0c0,.19.53,19.21,16.71,26.87Z" transform="translate(-73.29 -90.47)"/><path class="cls-3" d="M261.33,444.68c-9-7.93-9.06-15-9.06-15.26h1.5c0,.06.1,6.69,8.55,14.12Z" transform="translate(-73.29 -90.47)"/><path class="cls-3" d="M265.93,443.05l-.61-1.38c.05,0,4.7-2.13,9-8.24l1.23.87c-4.59,6.47-9.45,8.66-9.65,8.75" transform="translate(-73.29 -90.47)"/><path class="cls-3" d="M270.68,446.56l-.25-1.48c5-.86,10.77-8.29,10.83-8.37l1.19.91c-.25.33-6.15,8-11.77,8.94" transform="translate(-73.29 -90.47)"/><path class="cls-3" d="M176.28,520.71c-.26,0-.51,0-.77,0l.08-1.49h.68c16.4,0,44.6-28.31,62.08-62.54C252.49,429,255,406.15,245.21,394l1.17-.94c10.16,12.69,7.72,36.14-6.69,64.35-15.79,30.9-44.81,63.35-63.41,63.35" transform="translate(-73.29 -90.47)"/><path class="cls-3" d="M281,255.08h-1.5l0-4a.78.78,0,0,1,.37-.64l12.16-7.1a.72.72,0,0,1,.71,0,.73.73,0,0,1,.41.58l.51,4.58-1.5.16-.37-3.42L281,251.5Z" transform="translate(-73.29 -90.47)"/><rect class="cls-3" x="293.69" y="242.81" width="1.5" height="4.79" transform="translate(-141.29 279.08) rotate(-58.72)"/><path class="cls-3" d="M283.53,248.49l-1.61-5.38-5.63,1.46-36.71-76.64-14-9.86L224,155.75a2.39,2.39,0,0,1,2.76-3.6l2.81,1L243,163.25l36.22,74.56,6.71-1.38,2.72,9.95-1.45.39-2.34-8.59-6.48,1.33-36.57-75.28-13-9.81-2.5-.85a.86.86,0,0,0-1,.3.87.87,0,0,0,0,1l1.4,2.1,14.11,9.92.09.17,36.26,75.71,5.83-1.51,2,6.76Z" transform="translate(-73.29 -90.47)"/><polygon class="cls-3" points="177.11 83.81 172.04 80.72 172.82 79.44 176.43 81.64 178.1 77.84 170.55 75.1 169.91 70.2 165.75 71.31 165.36 69.86 171.17 68.31 171.92 74 180.12 76.98 177.11 83.81"/><path class="cls-3" d="M318.54,261.52a2.45,2.45,0,0,1-1.31-.37l-5.78-3.51a2.51,2.51,0,0,1-1.14-1.56,2.48,2.48,0,0,1,.12-1.57l-.33-.93a3,3,0,0,1,2.42-4l1-.14a2.54,2.54,0,0,1,3.25-.54l5.78,3.52a2.53,2.53,0,0,1,1,3.13l.25.71a3.2,3.2,0,0,1-2.56,4.22l-.75.1a2.5,2.5,0,0,1-1.94.91m-3.11-11.45a1,1,0,0,0-.88.49l-.18.3-1.64.24a1.46,1.46,0,0,0-1.07.71,1.48,1.48,0,0,0-.14,1.28l.55,1.56-.19.3a1,1,0,0,0,.35,1.41l5.78,3.51a1,1,0,0,0,1.41-.34l.18-.3L321,259a1.68,1.68,0,0,0,1.36-2.23l-.47-1.35.19-.3a1,1,0,0,0,.11-.78,1,1,0,0,0-.46-.63L316,250.22a1,1,0,0,0-.53-.15" transform="translate(-73.29 -90.47)"/><path class="cls-3" d="M312.44,257.87l-.6-1.38a7.5,7.5,0,0,0,4.06-6.73h1.5a9.06,9.06,0,0,1-5,8.11" transform="translate(-73.29 -90.47)"/><path class="cls-3" d="M313.59,266.32a7.56,7.56,0,0,1-3.9-1.15,7.42,7.42,0,0,1-3.08-3.51,4.53,4.53,0,0,1,.21-4.12,4.77,4.77,0,0,1,3.54-2,.74.74,0,0,1,.84.64.75.75,0,0,1-.65.84,3.29,3.29,0,0,0-2.45,1.33,3.09,3.09,0,0,0-.1,2.78,6.28,6.28,0,0,0,6.07,3.69,3.06,3.06,0,0,0,2.43-1.37,3,3,0,0,0,.24-2.34.75.75,0,1,1,1.45-.39,4.41,4.41,0,0,1-.41,3.51,4.52,4.52,0,0,1-3.56,2.08,4.35,4.35,0,0,1-.63,0" transform="translate(-73.29 -90.47)"/><path class="cls-3" d="M313.87,263.83a5.07,5.07,0,0,1-2.59-.75c-2.09-1.27-2.93-3.72-1.88-5.46a3.27,3.27,0,0,1,1.78-1.36.75.75,0,0,1,.49,1.42,1.79,1.79,0,0,0-1,.71c-.63,1,0,2.56,1.37,3.4s3,.69,3.64-.35a1.74,1.74,0,0,0,.25-1,.75.75,0,1,1,1.49-.06,3.28,3.28,0,0,1-.45,1.83,3.56,3.56,0,0,1-3.12,1.61" transform="translate(-73.29 -90.47)"/><path class="cls-3" d="M313,260.62a.74.74,0,0,1-.47-.16.76.76,0,0,1-.12-1.06l.91-1.13a.75.75,0,1,1,1.17.93l-.91,1.14a.75.75,0,0,1-.58.28" transform="translate(-73.29 -90.47)"/><path class="cls-3" d="M305.34,277.13a.74.74,0,0,1-.53-.22.75.75,0,0,1-.16-.83l3.58-8.13-3.09-1.88a.75.75,0,0,1-.31-.89l1.61-4.53a.74.74,0,0,1,.95-.46.75.75,0,0,1,.46,1l-1.41,4L316.2,271a.75.75,0,0,1-.08,1.33l-10.47,4.71a.85.85,0,0,1-.31.06m4.18-8.4-2.71,6.17,7.39-3.33Z" transform="translate(-73.29 -90.47)"/><path class="cls-3" d="M353.25,283.23a.69.69,0,0,1-.45-.16L322,259.84a.75.75,0,0,1,.91-1.2l30.75,23.24a.75.75,0,0,1,.15,1.05.78.78,0,0,1-.6.3" transform="translate(-73.29 -90.47)"/><path class="cls-3" d="M352.89,288.23a.75.75,0,0,1-.43-.13l-26.84-18.24a.81.81,0,0,1-.14-.12L319,262.69a.76.76,0,0,1,0-1.06.75.75,0,0,1,1.06.05l6.38,7,26.78,18.19a.75.75,0,0,1,.2,1,.74.74,0,0,1-.62.33" transform="translate(-73.29 -90.47)"/><path class="cls-3" d="M310.13,294.3a.75.75,0,0,1-.33-1.42l30-14.77a.75.75,0,0,1,.66,1.35l-30,14.76a.76.76,0,0,1-.33.08" transform="translate(-73.29 -90.47)"/><path class="cls-3" d="M341.67,341.46a.75.75,0,0,1-.38-.1l-35-20.82a.76.76,0,0,1-.36-.77.77.77,0,0,1,.6-.61l5.52-1,36.73-15.83a.75.75,0,1,1,.59,1.37l-36.8,15.87-.16.05-3.65.69,33.26,19.8a.74.74,0,0,1,.26,1,.75.75,0,0,1-.64.36" transform="translate(-73.29 -90.47)"/><path class="cls-3" d="M316.81,378.21a.75.75,0,0,1-.74-.62l-8.05-47-3.17-8.51a.75.75,0,0,1,1.27-.76l3.47,3.88,30.33,18.43a.75.75,0,1,1-.78,1.28L308.72,326.4a.61.61,0,0,1-.17-.15l-.91-1,1.81,4.86a.74.74,0,0,1,0,.14l8.06,47.09a.75.75,0,0,1-.61.87h-.13" transform="translate(-73.29 -90.47)"/><path class="cls-3" d="M312.13,375.68a.75.75,0,0,1-.73-.6L302.85,332a.34.34,0,0,1,0-.1l-.49-8.5-1.8.39a.75.75,0,0,1-.9-.57.76.76,0,0,1,.58-.89l2.66-.59a.76.76,0,0,1,.91.69l.53,9.33,8.54,43a.75.75,0,0,1-.59.89h-.15" transform="translate(-73.29 -90.47)"/><path class="cls-3" d="M305.73,318.82a.73.73,0,0,1-.35-.09.74.74,0,0,1-.4-.64l-.28-9a.75.75,0,0,1,1.5,0l.24,7.68,5.89-3.86.13-.07L350,297.93a.75.75,0,1,1,.56,1.39l-37.42,14.82-6.95,4.55a.71.71,0,0,1-.41.13" transform="translate(-73.29 -90.47)"/><path class="cls-3" d="M342.8,330.88a.79.79,0,0,1-.39-.11L330,323.24a.79.79,0,0,1-.36-.68.77.77,0,0,1,.43-.64l13.77-6.65a.74.74,0,0,1,.72,0l2.05,1.25a.75.75,0,0,1,.26,1,.74.74,0,0,1-1,.25l-1.71-1L332,322.67l11.22,6.82a.75.75,0,0,1,.25,1,.75.75,0,0,1-.64.36" transform="translate(-73.29 -90.47)"/><path class="cls-3" d="M330.4,323.35l-.14,0a.74.74,0,0,1-.59-.88l2-10.3a.74.74,0,0,1,.46-.54l12.64-5.2a.75.75,0,0,1,.67,0l2.36,1.43a.76.76,0,0,1,.25,1,.74.74,0,0,1-1,.25l-2-1.23-11.92,4.9-2,9.9a.76.76,0,0,1-.74.61" transform="translate(-73.29 -90.47)"/><path class="cls-3" d="M344.18,316.69h-.08a.75.75,0,0,1-.67-.82l.91-8.84a.74.74,0,0,1,.82-.67.75.75,0,0,1,.67.82l-.91,8.84a.74.74,0,0,1-.74.67" transform="translate(-73.29 -90.47)"/><path class="cls-3" d="M292.57,365.09l-.19,0a.75.75,0,0,1-.53-.92l2.87-10.81a.76.76,0,0,1,.44-.5l10.72-4.37a.75.75,0,0,1,.56,1.39l-10.37,4.23-2.77,10.44a.75.75,0,0,1-.73.56" transform="translate(-73.29 -90.47)"/><path class="cls-3" d="M326.36,357.86a.72.72,0,0,1-.39-.11l-14.55-8.84a.75.75,0,1,1,.78-1.28l14.55,8.84a.75.75,0,0,1-.39,1.39" transform="translate(-73.29 -90.47)"/><path class="cls-3" d="M324.72,365.94A.74.74,0,0,1,324,365l2.34-9.22a.75.75,0,0,1,.46-.52l9.06-3.35a.76.76,0,0,1,1,.92l-3,10.3a.77.77,0,0,1-.53.52l-8.37,2.25a.63.63,0,0,1-.19,0m3-9.4-1.92,7.59,6.73-1.81,2.48-8.47Z" transform="translate(-73.29 -90.47)"/><path class="cls-3" d="M329.83,369.05a.77.77,0,0,1-.39-.11l-5.11-3.11a.74.74,0,0,1-.25-1,.75.75,0,0,1,1-.25l5.11,3.1a.77.77,0,0,1,.25,1,.75.75,0,0,1-.64.36" transform="translate(-73.29 -90.47)"/><path class="cls-3" d="M336.6,365.82a.79.79,0,0,1-.39-.11l-3.51-2.14a.74.74,0,0,1-.25-1,.75.75,0,0,1,1-.25l3.51,2.14a.74.74,0,0,1,.25,1,.75.75,0,0,1-.64.36" transform="translate(-73.29 -90.47)"/><path class="cls-3" d="M338.48,354.81a.68.68,0,0,1-.39-.11l-2.37-1.43a.75.75,0,0,1,.78-1.29l2.37,1.44a.76.76,0,0,1,.25,1,.73.73,0,0,1-.64.36" transform="translate(-73.29 -90.47)"/><path class="cls-3" d="M312.86,347.3a.71.71,0,0,1-.54-.24.73.73,0,0,1-.16-.77l2.81-7.55a.77.77,0,0,1,.45-.45l7.53-2.66a.75.75,0,0,1,.77.15.79.79,0,0,1,.21.76l-2.15,7.65a.73.73,0,0,1-.5.51l-8.19,2.56a.62.62,0,0,1-.23,0m3.39-7.71-2.15,5.79,6.34-2,1.65-5.87Z" transform="translate(-73.29 -90.47)"/><path class="cls-3" d="M321.24,352.39a.79.79,0,0,1-.39-.11l-8.38-5.09a.76.76,0,0,1-.25-1,.74.74,0,0,1,1-.25l8.1,4.92,7.24-2.17,1.52-7.25-7.3-4.44a.75.75,0,1,1,.78-1.28l7.75,4.71a.76.76,0,0,1,.35.8L330,349.41a.76.76,0,0,1-.52.56l-8,2.39a.83.83,0,0,1-.22,0" transform="translate(-73.29 -90.47)"/><path class="cls-3" d="M329.24,350a.77.77,0,0,1-.41-.11l-8.18-5.27a.76.76,0,0,1-.23-1,.75.75,0,0,1,1-.22l8.18,5.26a.76.76,0,0,1,.23,1,.77.77,0,0,1-.63.34" transform="translate(-73.29 -90.47)"/><path class="cls-3" d="M315,397.47h0l-22.08-.9a.76.76,0,0,1-.72-.78.73.73,0,0,1,.78-.72L315,396a.75.75,0,0,1,0,1.5" transform="translate(-73.29 -90.47)"/><path class="cls-3" d="M315.77,396.15l-.17,0-14.13-3.19a.75.75,0,1,1,.33-1.46l14.13,3.19a.75.75,0,0,1-.16,1.48" transform="translate(-73.29 -90.47)"/><path class="cls-3" d="M316.66,394.68a.78.78,0,0,1-.5-.19l-5.19-4.7a.75.75,0,0,1,1-1.11l3.8,3.44L315.5,388a.75.75,0,1,1,1.5-.1l.41,5.95a.75.75,0,0,1-.42.72.67.67,0,0,1-.33.08" transform="translate(-73.29 -90.47)"/><path class="cls-3" d="M318.88,393.2a.74.74,0,0,1-.54-.23.72.72,0,0,1-.2-.59l.57-5.63a.75.75,0,0,1,.82-.67.74.74,0,0,1,.67.82l-.48,4.75.69,0a33.53,33.53,0,0,1,2.8-6.5.74.74,0,0,1,1-.25.75.75,0,0,1,.25,1,34.62,34.62,0,0,0-2.8,6.65.75.75,0,0,1-.67.53l-2.09.13Z" transform="translate(-73.29 -90.47)"/><path class="cls-3" d="M319,379.38h-.1a.75.75,0,0,1-.64-.85l1-7.13a.76.76,0,0,1,.49-.61l16.16-5.6a.75.75,0,0,1,.95.47.74.74,0,0,1-.46,1l-15.72,5.45-.93,6.68a.75.75,0,0,1-.74.65" transform="translate(-73.29 -90.47)"/><path class="cls-3" d="M315.25,429.64a.85.85,0,0,1-.31-.06L301,423.22a.75.75,0,0,1,.62-1.37l13.74,6.28a41.68,41.68,0,0,0,9.33-2,.75.75,0,0,1,.5,1.41,41.6,41.6,0,0,1-9.91,2.12h-.06" transform="translate(-73.29 -90.47)"/><path class="cls-3" d="M318.61,424.19a3.27,3.27,0,0,1-1.42-.31l-.16-.09c-2.74-1.48-2.91-6.65-.37-12,2.42-5.13,6.27-8.27,9.17-7.48a3.63,3.63,0,0,1,.52.19c1.46.68,2.28,2.38,2.32,4.79a17.15,17.15,0,0,1-1.79,7.32c-2.17,4.6-5.55,7.61-8.27,7.61m6.32-18.53c-1.89,0-4.86,2.39-6.91,6.74-2.3,4.87-2,9.14-.26,10.07l.1.07c1.75.82,5.34-1.68,7.66-6.6a15.66,15.66,0,0,0,1.65-6.66c0-1.77-.56-3-1.46-3.46h0a1.31,1.31,0,0,0-.28-.09,1.63,1.63,0,0,0-.5-.07" transform="translate(-73.29 -90.47)"/><path class="cls-3" d="M340.21,434.36l-23.82-10.81.63-1.41.84.4c1.75.82,5.34-1.68,7.66-6.6a15.66,15.66,0,0,0,1.65-6.66c0-1.77-.56-3-1.46-3.46a1.31,1.31,0,0,0-.28-.09l-.85-.23.67-1.49.72.23,10.66,4.84.11.28A25.2,25.2,0,0,0,347,421.59a24.86,24.86,0,0,0,2.45,1.31l.55.26-.13.59a13.1,13.1,0,0,1-.92,2.71,15.53,15.53,0,0,1-8.51,7.81Zm-19.73-10.6,19.8,9a14.31,14.31,0,0,0,7.35-6.92,12.18,12.18,0,0,0,.67-1.84c-.7-.34-1.39-.72-2-1.12a26.56,26.56,0,0,1-10.79-12.67L328.33,407a8.37,8.37,0,0,1,.34,2.3,17.15,17.15,0,0,1-1.79,7.32c-1.69,3.59-4.12,6.21-6.4,7.18" transform="translate(-73.29 -90.47)"/><path class="cls-3" d="M360.16,426.75a26.82,26.82,0,0,1-11.3-2.49,24.77,24.77,0,0,1-2.6-1.39,26.63,26.63,0,0,1-10.91-12.95,30.93,30.93,0,0,1,2.55-27.42,32.84,32.84,0,0,1,4-5.23l.42-.45,12.41,7.55,2.89-16.22.5-.1a27,27,0,0,1,19.51,3.27c13.24,8.05,17,26.16,8.35,40.37a30.53,30.53,0,0,1-25.78,15.06m-17.61-48a30.79,30.79,0,0,0-3.36,4.54,29.39,29.39,0,0,0-2.45,26.08A25.2,25.2,0,0,0,347,421.59a27.17,27.17,0,0,0,2.45,1.31c12.4,5.76,27.52.6,35.17-12,8.21-13.51,4.69-30.69-7.85-38.31a25.49,25.49,0,0,0-17.93-3.18l-3.09,17.37Z" transform="translate(-73.29 -90.47)"/><path class="cls-3" d="M355.79,386.79l-21.37-13,.11-.52,25.26-124.14,18.27,12.62ZM336.1,373.07l18.59,11.3,21.72-121.91-15.6-10.78Z" transform="translate(-73.29 -90.47)"/><polygon class="cls-3" points="254.86 331.35 254.68 326.8 263.04 320.59 263.94 321.79 256.21 327.53 256.25 328.57 264.12 323.12 264.98 324.36 254.86 331.35"/><path class="cls-3" d="M351.77,425.39l-.18-.05a19.92,19.92,0,0,1-7.22-3.73l-2-1.68,2.55.37c2.51.35,6.2-.73,10.23-3-16.06-13.51-16.43-35.4-16.43-35.62v-.25l3.46-4.66,5,3,0,.45a42,42,0,0,0,15.09,32.09c16.06-13.5,18.3-29.31,15-39.66l-.6-1.91,1.71,1a24.93,24.93,0,0,1,8,8.19l.1.18v.21c-.71,18.79-9.94,30-17.94,36.3a54.75,54.75,0,0,0,7.66,3.71l1.57.62-8.31,4.13-.29-.1a44.16,44.16,0,0,1-8-3.57,44.58,44.58,0,0,1-9.22,3.84Zm-4.59-3.59a19.92,19.92,0,0,0,4.59,2,46.06,46.06,0,0,0,9.06-3.86l.37-.2.37.21a43.18,43.18,0,0,0,7.75,3.56l4.76-2.36a55.69,55.69,0,0,1-7.29-3.77l-.94-.57.88-.66c7.89-5.9,17.43-16.85,18.21-35.61a24.71,24.71,0,0,0-5.66-6.32,33.11,33.11,0,0,1-2.43,21.66,51.86,51.86,0,0,1-14.09,18l-.48.39-.47-.38a43.63,43.63,0,0,1-16.14-33.28l-3.07-1.86-2.34,3.15c.1,2.46,1.32,22.66,16.71,34.91l.85.67-.93.56a25.35,25.35,0,0,1-9.71,3.73" transform="translate(-73.29 -90.47)"/><rect class="cls-3" x="317.88" y="397.16" width="1.5" height="10.74" transform="translate(-264.13 375.39) rotate(-58.72)"/><path class="cls-3" d="M276,412a.75.75,0,0,1-.22-1.46l37.67-11.38c.5-1.47,2.56-6.28,8.18-6.73a.79.79,0,0,1,.45.1l10.09,6.13a.79.79,0,0,1,.36.64.75.75,0,0,1-.35.64c-5.43,3.49-5.79,5.13-5.8,5.15a.71.71,0,0,1-.73.72.8.8,0,0,1-.76-.77c0-.48.38-2.25,5.49-5.71l-8.87-5.39c-5.34.59-6.72,5.95-6.74,6a.72.72,0,0,1-.51.53L276.2,412a.76.76,0,0,1-.21,0" transform="translate(-73.29 -90.47)"/><path class="cls-3" d="M331.77,400a.76.76,0,0,1-.57-.26.75.75,0,0,1,.08-1.06l2.27-2a.75.75,0,0,1,1.06.08.76.76,0,0,1-.07,1.06l-2.28,2a.77.77,0,0,1-.49.19" transform="translate(-73.29 -90.47)"/><path class="cls-3" d="M326.12,383.07a.66.66,0,0,1-.27-.06.73.73,0,0,1-.43-1c.05-.13,1.31-3.26,8.88-9.49a.75.75,0,0,1,1.05.11.74.74,0,0,1-.1,1.05c-7.17,5.9-8.42,8.85-8.43,8.88a.76.76,0,0,1-.7.47" transform="translate(-73.29 -90.47)"/><path class="cls-3" d="M391.12,377.41a.83.83,0,0,1-.4-.11l-30.83-19.41a.75.75,0,1,1,.8-1.27l29.86,18.8,8.62-56.48-28.82-20a.75.75,0,1,1,.86-1.23L400.41,318a.74.74,0,0,1,.31.73l-8.86,58.07a.7.7,0,0,1-.42.56.71.71,0,0,1-.32.07" transform="translate(-73.29 -90.47)"/><path class="cls-3" d="M385.7,381.14a.75.75,0,0,1-.62-.33.74.74,0,0,1,.19-1l5.43-3.72a.75.75,0,0,1,.85,1.23L386.12,381a.75.75,0,0,1-.42.14" transform="translate(-73.29 -90.47)"/><path class="cls-3" d="M306.16,345.59a.82.82,0,0,1-.39-.11l-15.39-9.36a.74.74,0,0,1-.25-1,.75.75,0,0,1,1-.25l15.39,9.36a.75.75,0,0,1-.39,1.39" transform="translate(-73.29 -90.47)"/><path class="cls-3" d="M329.17,307.72a.79.79,0,0,1-.39-.11l-19.48-12a.75.75,0,0,1-.24-1,.74.74,0,0,1,1-.25l19.48,12a.75.75,0,0,1-.4,1.39" transform="translate(-73.29 -90.47)"/><path class="cls-3" d="M322.8,310.24a.7.7,0,0,1-.39-.11l-14.77-9a.75.75,0,1,1,.78-1.28l14.77,9a.76.76,0,0,1,.25,1,.73.73,0,0,1-.64.36" transform="translate(-73.29 -90.47)"/><path class="cls-3" d="M330.57,266.09a.75.75,0,0,1-.66-.4.76.76,0,0,1,.32-1L355,251.84l-24.89-21.15-25.95,15a.75.75,0,1,1-.75-1.3l26.4-15.29a.75.75,0,0,1,.86.07l26.15,22.22a.73.73,0,0,1,.26.65.75.75,0,0,1-.4.58L330.92,266a.85.85,0,0,1-.35.08" transform="translate(-73.29 -90.47)"/><path class="cls-3" d="M316.31,273.83a.75.75,0,0,1-.42-1.37l8.24-5.48a.75.75,0,0,1,.83,1.25l-8.24,5.48a.75.75,0,0,1-.41.12" transform="translate(-73.29 -90.47)"/><path class="cls-3" d="M123,431.41a.74.74,0,0,1-.71-.49.75.75,0,0,1,.45-1l103.73-38.25a.74.74,0,0,1,.95.41l1.82,4.31a.75.75,0,1,1-1.38.58l-1.54-3.64-103.07,38a.73.73,0,0,1-.25,0" transform="translate(-73.29 -90.47)"/><path class="cls-3" d="M129.64,443.89l-.2,0a.75.75,0,0,1-.48-.41l-1.71-3.58-6.7-4.43-2,4.08a.76.76,0,0,1-.48.39.74.74,0,0,1-.61-.11l-3.24-2.17a.74.74,0,0,1-.32-.7l.38-3.81-19.52-8.59a.74.74,0,0,1-.28-.22,5.61,5.61,0,0,1,3.31-9l2.13-.41a.69.69,0,0,1,.4,0l25.33,9,103.48-38.15a.75.75,0,0,1,.95.41l3.47,8.21a.76.76,0,0,1-1.39.59l-3.19-7.56-103.06,38a.81.81,0,0,1-.51,0l-25.39-9-1.93.37a4.11,4.11,0,0,0-2.54,6.47L115.34,432a.75.75,0,0,1,.45.76l-.4,3.9,2.16,1.45,2-4.07a.76.76,0,0,1,.47-.39.77.77,0,0,1,.61.1l7.58,5a.74.74,0,0,1,.27.31l1.4,2.94a11.27,11.27,0,0,0,4.26-9.25l-3,1.6a.74.74,0,0,1-.51.07l-9.45-2a.73.73,0,0,1-.51-.38.79.79,0,0,1,0-.62l1.38-3.57-2.63-.71-1.74,2.61a.78.78,0,0,1-.88.29l-19.33-6.92a.75.75,0,0,1-.45-.95l1.15-3.32a.73.73,0,0,1,.4-.44.71.71,0,0,1,.59,0l19,7.64a.51.51,0,0,1,.16.09l.17-.27a.75.75,0,0,1,.82-.3l4,1.06a.74.74,0,0,1,.47.38.72.72,0,0,1,0,.61l-1.36,3.52,8.33,1.76,3.75-2a.72.72,0,0,1,.67,0,.79.79,0,0,1,.42.54,12.75,12.75,0,0,1-5.51,12.36.77.77,0,0,1-.42.13M98.69,422l18.07,6.47.71-1.05-18.13-7.3Z" transform="translate(-73.29 -90.47)"/><path class="cls-3" d="M214.48,407.81a.87.87,0,0,1-.31-.07L202,402.09a.75.75,0,0,1-.37-1,.76.76,0,0,1,1-.36l12.15,5.65a.74.74,0,0,1,.36,1,.73.73,0,0,1-.68.44" transform="translate(-73.29 -90.47)"/><path class="cls-3" d="M201.11,397.64a.8.8,0,0,1-.3-.06.75.75,0,0,1-.38-1l1.45-3.31c-4.25.23-10.2-5.44-10.95-6.18a.75.75,0,0,1,0-1.06.75.75,0,0,1,1.06,0c2,1.93,8.14,7.05,10.84,5.46a.75.75,0,0,1,.88.09.74.74,0,0,1,.19.86l-2.09,4.75a.74.74,0,0,1-.69.45" transform="translate(-73.29 -90.47)"/><path class="cls-3" d="M393,431.43a.78.78,0,0,1-.39-.1l-6.45-3.92a.93.93,0,0,1-.18-.16l-7.17-8.37a.76.76,0,0,1,.08-1.06.75.75,0,0,1,1.06.09l7.09,8.28,5.86,3.56,7.14-6.81-5.58-5.41L384.92,412a.77.77,0,0,1-.27-1,.76.76,0,0,1,1-.27l9.66,5.63.14.11,6.21,6a.76.76,0,0,1,.23.54.75.75,0,0,1-.24.54l-8.12,7.74a.77.77,0,0,1-.52.2" transform="translate(-73.29 -90.47)"/><path class="cls-3" d="M388.77,428.84a.75.75,0,0,1-.53-1.29l4.25-4.16L389.72,421l-4.35,4.26a.74.74,0,0,1-1.06,0,.75.75,0,0,1,0-1.06l4.84-4.74a.74.74,0,0,1,1,0l3.92,3.36a.72.72,0,0,1,.26.54.76.76,0,0,1-.22.57l-4.84,4.73a.7.7,0,0,1-.52.22" transform="translate(-73.29 -90.47)"/><path class="cls-3" d="M386.59,427.51a.75.75,0,0,1-.53-1.28l4.84-4.74a.75.75,0,1,1,1.05,1.07l-4.84,4.74a.73.73,0,0,1-.52.21" transform="translate(-73.29 -90.47)"/><path class="cls-3" d="M256.06,459.67a.77.77,0,0,1-.39-.11l-3.38-2.05-3.34-.18a.77.77,0,0,1-.56-.29.76.76,0,0,1-.13-.62l1.22-5.64a.74.74,0,0,1,.65-.58l3.58-.38a.74.74,0,0,1,.39.07l3.81,1.75a.75.75,0,0,1,.42.85l-1.54,6.6a.75.75,0,0,1-.44.52.79.79,0,0,1-.29.06m-6.15-3.79,2.65.14a.8.8,0,0,1,.35.11l2.65,1.61,1.17-5-3.07-1.41-2.83.29Z" transform="translate(-73.29 -90.47)"/><path class="cls-3" d="M252.52,457.52h-.15a.74.74,0,0,1-.58-.89l1.26-6.2a.76.76,0,0,1,.89-.59.74.74,0,0,1,.58.89l-1.26,6.2a.76.76,0,0,1-.74.6" transform="translate(-73.29 -90.47)"/><path class="cls-3" d="M264,454.86a.76.76,0,0,1-.75-.65l-1-6.93-3.9,5.19a.75.75,0,1,1-1.2-.9l5-6.63a.77.77,0,0,1,.79-.28.75.75,0,0,1,.55.62l1.27,8.72a.75.75,0,0,1-.64.85H264" transform="translate(-73.29 -90.47)"/><path class="cls-3" d="M259.77,466.17c-.47,0-1.64-.38-5.81-2.22a.75.75,0,0,1-.41-.46.77.77,0,0,1,.07-.61l1.92-3.16h0l3.28-5.35a.75.75,0,0,1,1-.29l5.27,2.46a.75.75,0,0,1,.4.47.77.77,0,0,1-.08.61c-1.78,2.86-4.67,7.55-4.91,8.05a.76.76,0,0,1-.38.41.55.55,0,0,1-.32.09m-.64-1.16a.66.66,0,0,0-.09.19,1.2,1.2,0,0,1,.09-.19m-3.78-2.09c1.62.7,3.25,1.38,4,1.64.46-.8,1.57-2.64,4.28-7l-3.9-1.82Z" transform="translate(-73.29 -90.47)"/><path class="cls-3" d="M262.84,456.81a.75.75,0,0,1-.65-1.14l1.2-2a.71.71,0,0,1,.51-.34l5.82-1,.27-5.88a.74.74,0,0,1,.79-.71.75.75,0,0,1,.71.79l-.3,6.47a.75.75,0,0,1-.62.7l-6.08,1.08-1,1.66a.73.73,0,0,1-.64.36" transform="translate(-73.29 -90.47)"/><path class="cls-3" d="M251.42,464.55a.48.48,0,0,1-.23-.05.5.5,0,0,1-.24-.61l.73-2.12-1.08,1.79a.5.5,0,0,1-.92-.35l.52-3-1.13,2.37a.5.5,0,0,1-.93-.33l1.2-5.26a.5.5,0,0,1,.6-.38.49.49,0,0,1,.37.6l-.19.84.74-1.55a.51.51,0,0,1,.6-.26.49.49,0,0,1,.34.56l-.69,4,2.16-3.55a.5.5,0,0,1,.64-.19.49.49,0,0,1,.26.62l-1.1,3.16,1.84-2.63a.5.5,0,0,1,.7-.12.49.49,0,0,1,.12.69l-3.9,5.58a.49.49,0,0,1-.41.21" transform="translate(-73.29 -90.47)"/><path class="cls-3" d="M384.2,308.51a.75.75,0,0,1-.11-1.5A24.05,24.05,0,0,0,401,295.65,23.71,23.71,0,0,0,393.39,263a23.27,23.27,0,0,0-18.85-2.33.75.75,0,0,1-.43-1.44,24.79,24.79,0,0,1,20.06,2.49c11.76,7.14,15.4,22.7,8.11,34.69a25.57,25.57,0,0,1-18,12.07h-.12" transform="translate(-73.29 -90.47)"/><path class="cls-3" d="M375.39,301.91a.76.76,0,0,1-.5-1.32c.23-.19,22.08-19.63,20.75-36.31a.75.75,0,0,1,.69-.81.76.76,0,0,1,.81.69c.58,7.34-2.83,15.91-10.14,25.45a95.06,95.06,0,0,1-11.11,12.11.8.8,0,0,1-.5.19" transform="translate(-73.29 -90.47)"/><path class="cls-3" d="M390.3,324.39c-1.86,0-4-1.68-5.34-4.34a9.1,9.1,0,0,1-1-4.5,3.23,3.23,0,0,1,5.4-2.7,9.06,9.06,0,0,1,3,3.54c1.65,3.29,1.32,6.68-.73,7.7a2.79,2.79,0,0,1-1.27.3M387,313.55a1.32,1.32,0,0,0-.6.13,2.23,2.23,0,0,0-.95,2,7.7,7.7,0,0,0,.88,3.74c1.34,2.67,3.49,3.92,4.6,3.37s1.4-3,.06-5.69a7.56,7.56,0,0,0-2.46-3,2.92,2.92,0,0,0-1.53-.55" transform="translate(-73.29 -90.47)"/><path class="cls-3" d="M387.62,325.62a4.25,4.25,0,0,1-2.42-.87,9.2,9.2,0,0,1-2.88-3.61c-1.56-3.33-1.15-6.71.94-7.68l2-1,.68,1.34s-1.68.85-2.08,1c-1.11.53-1.47,3-.21,5.7a7.69,7.69,0,0,0,2.38,3,2.25,2.25,0,0,0,2.13.47l.43-.19c.44-.19,1.78-.76,2-.9a.7.7,0,0,1,1,0,.78.78,0,0,1-.05,1.09,9.87,9.87,0,0,1-2.38,1.15l-.39.17a2.88,2.88,0,0,1-1.2.26" transform="translate(-73.29 -90.47)"/><path class="cls-3" d="M375.81,330.23a5.6,5.6,0,0,1-4.66-3.49c-1.27-2.72-.63-5.71,1.42-6.67l8.8-4.33a.75.75,0,0,1,.66,1.34c-.34.17-8.43,4.17-8.83,4.35-1.27.6-1.59,2.74-.69,4.68s2.75,3.06,4,2.46c.4-.19,8.6-4.1,9.21-4.44a.75.75,0,0,1,.91,1.18c-.3.27-9.39,4.58-9.48,4.62a3.29,3.29,0,0,1-1.37.3" transform="translate(-73.29 -90.47)"/><path class="cls-3" d="M374.41,332.27c-1.87,0-4-1.67-5.35-4.33-1.64-3.3-1.32-6.69.74-7.71a3.31,3.31,0,0,1,3,.13.75.75,0,1,1-.65,1.35,1.87,1.87,0,0,0-1.64-.14c-1.1.55-1.4,3-.07,5.7s3.49,3.92,4.6,3.37a1.88,1.88,0,0,0,.85-1.27.75.75,0,0,1,1.45.35,3.21,3.21,0,0,1-1.63,2.26,2.77,2.77,0,0,1-1.26.29" transform="translate(-73.29 -90.47)"/><path class="cls-3" d="M347.92,279h-.11a.75.75,0,0,1-.63-.85A16.24,16.24,0,0,1,352.87,268l3.59-3a.75.75,0,0,1,1,1.16l-3.59,3a14.76,14.76,0,0,0-5.17,9.22.74.74,0,0,1-.74.64" transform="translate(-73.29 -90.47)"/><path class="cls-3" d="M373.17,260.06a.73.73,0,0,1-.55-.25.75.75,0,0,1,.05-1.06l17-15.46-1.71-3-17.69,17.2a.75.75,0,1,1-1-1.08l18.39-17.87a.76.76,0,0,1,.63-.2.74.74,0,0,1,.54.37l2.5,4.37a.76.76,0,0,1-.15.93l-17.45,15.86a.76.76,0,0,1-.51.2" transform="translate(-73.29 -90.47)"/><path class="cls-3" d="M395.65,316.71a.68.68,0,0,1-.34-.08.75.75,0,0,1-.33-1l17-33.16-7.7-12.86-1.06,2.34a60.47,60.47,0,0,1-13.48,25.74,43.24,43.24,0,0,1-9.07,7.91.75.75,0,1,1-.77-1.29c.17-.1,16.12-9.77,21.88-32.79a.69.69,0,0,1,.05-.13l1.67-3.7a.75.75,0,0,1,1.33-.08L413.48,282a.76.76,0,0,1,0,.73L396.32,316.3a.76.76,0,0,1-.67.41" transform="translate(-73.29 -90.47)"/><path class="cls-3" d="M443.74,337.93l-.19,0-45-11.95A.75.75,0,0,1,398,325a.74.74,0,0,1,.91-.53l45.05,11.95a.75.75,0,0,1-.2,1.48" transform="translate(-73.29 -90.47)"/><path class="cls-3" d="M441,333l-.19,0-41.42-10.72a.75.75,0,1,1,.38-1.45l41.42,10.72a.75.75,0,0,1,.54.91.77.77,0,0,1-.73.57" transform="translate(-73.29 -90.47)"/><rect class="cls-3" x="379.13" y="215.39" width="59.58" height="1.5" transform="translate(-123.2 67.31) rotate(-20.61)"/><rect class="cls-3" x="382.46" y="221.35" width="59.44" height="1.5" transform="translate(-124.45 64.24) rotate(-20.04)"/><rect class="cls-3" x="385.76" y="227.25" width="59.32" height="1.5" transform="translate(-125.54 61.07) rotate(-19.47)"/><rect class="cls-3" x="389.03" y="233.12" width="59.19" height="1.5" transform="translate(-126.43 57.5) rotate(-18.87)"/><rect class="cls-3" x="392.28" y="238.94" width="59.07" height="1.5" transform="translate(-127.23 54.12) rotate(-18.3)"/><rect class="cls-3" x="395.49" y="244.72" width="58.96" height="1.5" transform="translate(-127.87 50.65) rotate(-17.73)"/><rect class="cls-3" x="398.68" y="250.45" width="58.85" height="1.5" transform="matrix(0.96, -0.3, 0.3, 0.96, -128.39, 47.19)"/><rect class="cls-3" x="401.85" y="256.14" width="58.75" height="1.5" transform="translate(-128.84 43.94) rotate(-16.66)"/><rect class="cls-3" x="404.99" y="261.79" width="58.66" height="1.5" transform="translate(-129.07 40.3) rotate(-16.1)"/><rect class="cls-3" x="408.1" y="267.4" width="58.56" height="1.5" transform="translate(-129.16 36.57) rotate(-15.55)"/><rect class="cls-3" x="411.19" y="272.96" width="58.48" height="1.5" transform="translate(-129.23 33.17) rotate(-15.04)"/><rect class="cls-3" x="414.25" y="278.48" width="58.4" height="1.5" transform="translate(-129.11 29.53) rotate(-14.51)"/><rect class="cls-3" x="417.29" y="283.97" width="58.32" height="1.5" transform="translate(-128.83 25.75) rotate(-13.97)"/><rect class="cls-3" x="420.31" y="289.41" width="58.25" height="1.5" transform="translate(-128.58 22.38) rotate(-13.49)"/><rect class="cls-3" x="423.3" y="294.82" width="58.18" height="1.5" transform="translate(-128.15 18.77) rotate(-12.99)"/><rect class="cls-3" x="426.27" y="300.18" width="58.11" height="1.5" transform="translate(-127.53 14.95) rotate(-12.47)"/><path class="cls-3" d="M449.35,348.53l-72.91-128L434,198.23l.42.79,74,140.54Zm-70-126.94,71.09,124.76,55-8.34-72.3-137.27Z" transform="translate(-73.29 -90.47)"/><rect class="cls-3" x="416.24" y="210.38" width="1.5" height="146.1" transform="translate(-158.85 152.23) rotate(-29.57)"/><rect class="cls-3" x="419.32" y="209.23" width="1.5" height="146.75" transform="translate(-157.97 152.73) rotate(-29.47)"/><rect class="cls-3" x="422.42" y="208.06" width="1.5" height="147.42" transform="translate(-157.09 153.23) rotate(-29.36)"/><rect class="cls-3" x="425.56" y="206.89" width="1.5" height="148.08" transform="translate(-156.21 153.73) rotate(-29.26)"/><rect class="cls-3" x="428.73" y="205.7" width="1.5" height="148.76" transform="translate(-155.32 154.22) rotate(-29.15)"/><rect class="cls-3" x="431.93" y="204.5" width="1.5" height="149.45" transform="translate(-154.44 154.71) rotate(-29.04)"/><rect class="cls-3" x="435.17" y="203.29" width="1.5" height="150.14" transform="matrix(0.88, -0.48, 0.48, 0.88, -153.55, 155.19)"/><rect class="cls-3" x="438.43" y="202.06" width="1.5" height="150.83" transform="translate(-152.66 155.66) rotate(-28.83)"/><rect class="cls-3" x="441.73" y="200.82" width="1.5" height="151.53" transform="translate(-151.76 156.14) rotate(-28.72)"/><rect class="cls-3" x="445.07" y="199.57" width="1.5" height="152.25" transform="translate(-150.87 156.6) rotate(-28.6)"/><rect class="cls-3" x="448.44" y="198.31" width="1.5" height="152.96" transform="translate(-149.97 157.06) rotate(-28.49)"/><rect class="cls-3" x="451.85" y="197.03" width="1.5" height="153.69" transform="translate(-149.07 157.52) rotate(-28.37)"/><rect class="cls-3" x="455.29" y="195.74" width="1.5" height="154.42" transform="translate(-148.17 157.96) rotate(-28.26)"/><rect class="cls-3" x="458.76" y="194.44" width="1.5" height="155.16" transform="translate(-147.27 158.4) rotate(-28.14)"/><rect class="cls-3" x="462.28" y="193.12" width="1.5" height="155.91" transform="translate(-146.36 158.83) rotate(-28.02)"/><rect class="cls-3" x="465.83" y="191.79" width="1.5" height="156.67" transform="translate(-145.46 159.26) rotate(-27.9)"/><rect class="cls-3" x="428.95" y="305.57" width="58" height="1.5" transform="translate(-126.86 11.17) rotate(-11.97)"/><rect class="cls-3" x="431.87" y="310.85" width="57.94" height="1.5" transform="translate(-126.13 7.57) rotate(-11.49)"/><rect class="cls-3" x="434.77" y="316.1" width="57.89" height="1.5" transform="translate(-125.33 4.07) rotate(-11.03)"/><rect class="cls-3" x="437.65" y="321.31" width="57.84" height="1.5" transform="translate(-124.12 -0.17) rotate(-10.49)"/><rect class="cls-3" x="440.51" y="326.48" width="57.79" height="1.5" transform="translate(-123.24 -3.45) rotate(-10.06)"/><rect class="cls-3" x="443.34" y="331.62" width="57.75" height="1.5" transform="translate(-122.08 -7.12) rotate(-9.59)"/><rect class="cls-3" x="446.15" y="336.72" width="57.7" height="1.5" transform="matrix(0.99, -0.16, 0.16, 0.99, -120.85, -10.77)"/><rect class="cls-3" x="448.94" y="341.78" width="57.66" height="1.5" transform="translate(-119.65 -14.18) rotate(-8.71)"/><rect class="cls-3" x="437.93" y="190.75" width="72.98" height="1.5" transform="translate(-110.33 88.46) rotate(-20.57)"/><rect class="cls-3" x="441.37" y="197.44" width="72.75" height="1.5" transform="translate(-112.28 85.26) rotate(-20.04)"/><rect class="cls-3" x="444.78" y="204.08" width="72.53" height="1.5" transform="translate(-114.06 81.62) rotate(-19.47)"/><rect class="cls-3" x="448.15" y="210.66" width="72.32" height="1.5" transform="translate(-115.61 77.2) rotate(-18.83)"/><rect class="cls-3" x="451.5" y="217.19" width="72.12" height="1.5" transform="translate(-117.07 73.66) rotate(-18.3)"/><rect class="cls-3" x="454.81" y="223.66" width="71.93" height="1.5" transform="translate(-118.33 69.69) rotate(-17.73)"/><rect class="cls-3" x="458.1" y="230.08" width="71.74" height="1.5" transform="matrix(0.96, -0.3, 0.3, 0.96, -119.43, 65.73)"/><rect class="cls-3" x="461.35" y="236.45" width="71.56" height="1.5" transform="translate(-120.43 62.01) rotate(-16.66)"/><rect class="cls-3" x="464.57" y="242.76" width="71.39" height="1.5" transform="translate(-121.21 57.85) rotate(-16.1)"/><rect class="cls-3" x="467.77" y="249.02" width="71.22" height="1.5" transform="translate(-121.82 53.59) rotate(-15.55)"/><rect class="cls-3" x="470.94" y="255.23" width="71.06" height="1.5" transform="translate(-122.36 49.7) rotate(-15.04)"/><rect class="cls-3" x="474.08" y="261.39" width="70.91" height="1.5" transform="translate(-122.66 45.27) rotate(-14.48)"/><rect class="cls-3" x="477.19" y="267.5" width="70.76" height="1.5" transform="translate(-122.98 41.59) rotate(-14.01)"/><rect class="cls-3" x="480.27" y="273.56" width="70.62" height="1.5" transform="translate(-123.06 37.37) rotate(-13.49)"/><rect class="cls-3" x="483.33" y="279.58" width="70.49" height="1.5" transform="translate(-122.93 32.9) rotate(-12.95)"/><rect class="cls-3" x="486.36" y="285.54" width="70.36" height="1.5" transform="translate(-122.81 28.91) rotate(-12.47)"/><path class="cls-3" d="M509.89,339.35,435.61,197.62l70.16-27.22.4.84L580.6,328.62ZM438.42,198.67,511,337.16l66.65-10.11L504.76,172.94Z" transform="translate(-73.29 -90.47)"/><rect class="cls-3" x="476.72" y="187.7" width="1.5" height="158.98" transform="translate(-142.73 160.49) rotate(-27.53)"/><rect class="cls-3" x="480.43" y="186.31" width="1.5" height="159.77" transform="translate(-141.82 160.88) rotate(-27.4)"/><rect class="cls-3" x="484.18" y="184.9" width="1.5" height="160.57" transform="translate(-140.9 161.26) rotate(-27.28)"/><rect class="cls-3" x="487.97" y="183.48" width="1.5" height="161.37" transform="translate(-139.99 161.63) rotate(-27.15)"/><rect class="cls-3" x="491.8" y="182.04" width="1.5" height="162.19" transform="translate(-139.07 161.99) rotate(-27.02)"/><rect class="cls-3" x="495.68" y="180.58" width="1.5" height="163.02" transform="translate(-138.15 162.34) rotate(-26.88)"/><rect class="cls-3" x="499.6" y="179.11" width="1.5" height="163.85" transform="translate(-137.24 162.68) rotate(-26.75)"/><rect class="cls-3" x="503.56" y="177.62" width="1.5" height="164.69" transform="translate(-136.32 163) rotate(-26.61)"/><rect class="cls-3" x="507.57" y="176.12" width="1.5" height="165.55" transform="translate(-135.4 163.31) rotate(-26.48)"/><rect class="cls-3" x="511.62" y="174.59" width="1.5" height="166.41" transform="translate(-134.48 163.62) rotate(-26.34)"/><rect class="cls-3" x="515.72" y="173.05" width="1.5" height="167.28" transform="translate(-133.56 163.91) rotate(-26.2)"/><rect class="cls-3" x="519.87" y="171.49" width="1.5" height="168.16" transform="translate(-132.64 164.18) rotate(-26.05)"/><rect class="cls-3" x="524.07" y="169.91" width="1.5" height="169.05" transform="translate(-131.72 164.43) rotate(-25.91)"/><rect class="cls-3" x="528.31" y="168.32" width="1.5" height="169.96" transform="translate(-130.8 164.68) rotate(-25.76)"/><rect class="cls-3" x="532.61" y="166.7" width="1.5" height="170.87" transform="translate(-129.88 164.91) rotate(-25.62)"/><rect class="cls-3" x="536.95" y="165.07" width="1.5" height="171.8" transform="translate(-128.96 165.12) rotate(-25.47)"/><rect class="cls-3" x="489.05" y="291.53" width="70.16" height="1.5" transform="translate(-122.54 24.67) rotate(-11.98)"/><rect class="cls-3" x="492.03" y="297.4" width="70.04" height="1.5" transform="translate(-122.12 20.49) rotate(-11.49)"/><rect class="cls-3" x="494.99" y="303.22" width="69.93" height="1.5" transform="translate(-121.65 16.5) rotate(-11.03)"/><rect class="cls-3" x="497.91" y="309" width="69.82" height="1.5" transform="translate(-120.77 11.68) rotate(-10.49)"/><rect class="cls-3" x="500.82" y="314.73" width="69.71" height="1.5" transform="translate(-120.16 7.95) rotate(-10.06)"/><rect class="cls-3" x="503.7" y="320.42" width="69.61" height="1.5" transform="translate(-119.29 3.77) rotate(-9.59)"/><rect class="cls-3" x="506.55" y="326.06" width="69.51" height="1.5" transform="translate(-118.32 -0.38) rotate(-9.14)"/><rect class="cls-3" x="509.39" y="331.65" width="69.42" height="1.5" transform="translate(-117.35 -4.25) rotate(-8.71)"/><rect class="cls-3" x="509.91" y="160.18" width="91.46" height="1.5" transform="translate(-94.41 115.07) rotate(-20.58)"/><rect class="cls-3" x="513.44" y="167.82" width="91.09" height="1.5" transform="translate(-97.21 111.32) rotate(-20.04)"/><rect class="cls-3" x="516.93" y="175.38" width="90.72" height="1.5" transform="translate(-99.85 107.06) rotate(-19.47)"/><rect class="cls-3" x="520.38" y="182.88" width="90.37" height="1.5" transform="translate(-102.29 101.94) rotate(-18.83)"/><rect class="cls-3" x="523.79" y="190.3" width="90.03" height="1.5" transform="translate(-104.52 97.82) rotate(-18.3)"/><rect class="cls-3" x="527.17" y="197.66" width="89.7" height="1.5" transform="translate(-106.55 93.21) rotate(-17.74)"/><rect class="cls-3" x="530.52" y="204.95" width="89.38" height="1.5" transform="translate(-108.39 88.62) rotate(-17.18)"/><rect class="cls-3" x="533.83" y="212.17" width="89.07" height="1.5" transform="translate(-110.06 84.29) rotate(-16.66)"/><rect class="cls-3" x="537.1" y="219.32" width="88.77" height="1.5" transform="translate(-111.52 79.45) rotate(-16.1)"/><rect class="cls-3" x="540.35" y="226.41" width="88.48" height="1.5" transform="translate(-112.79 74.54) rotate(-15.55)"/><rect class="cls-3" x="543.56" y="233.44" width="88.2" height="1.5" transform="matrix(0.97, -0.26, 0.26, 0.97, -113.93, 70.03)"/><rect class="cls-3" x="546.73" y="240.4" width="87.93" height="1.5" transform="translate(-114.83 64.9) rotate(-14.48)"/><rect class="cls-3" x="549.88" y="247.3" width="87.67" height="1.5" transform="translate(-115.68 60.64) rotate(-14.01)"/><rect class="cls-3" x="553" y="254.13" width="87.41" height="1.5" transform="translate(-116.29 55.77) rotate(-13.49)"/><rect class="cls-3" x="556.08" y="260.91" width="87.17" height="1.5" transform="translate(-116.67 50.52) rotate(-12.95)"/><rect class="cls-3" x="559.14" y="267.62" width="86.93" height="1.5" transform="translate(-117.03 46) rotate(-12.47)"/><path class="cls-3" d="M582.8,328.29,508.18,169.46l87.54-34,73.34,179.7ZM510.9,170.55,584,326.09l82.28-12.48L594.62,138.08Z" transform="translate(-73.29 -90.47)"/><rect class="cls-3" x="550.31" y="160.04" width="1.5" height="174.64" transform="translate(-126.2 165.64) rotate(-25)"/><rect class="cls-3" x="554.87" y="158.32" width="1.5" height="175.61" transform="translate(-125.28 165.78) rotate(-24.85)"/><rect class="cls-3" x="559.48" y="156.58" width="1.5" height="176.6" transform="translate(-124.37 165.9) rotate(-24.69)"/><rect class="cls-3" x="564.15" y="154.82" width="1.5" height="177.59" transform="translate(-123.45 165.99) rotate(-24.52)"/><rect class="cls-3" x="568.88" y="153.04" width="1.5" height="178.6" transform="translate(-122.54 166.06) rotate(-24.36)"/><rect class="cls-3" x="573.67" y="151.23" width="1.5" height="179.62" transform="translate(-121.62 166.11) rotate(-24.19)"/><rect class="cls-3" x="578.52" y="149.4" width="1.5" height="180.66" transform="translate(-120.71 166.14) rotate(-24.03)"/><rect class="cls-3" x="583.43" y="147.55" width="1.5" height="181.71" transform="translate(-119.8 166.14) rotate(-23.85)"/><rect class="cls-3" x="588.4" y="145.67" width="1.5" height="182.77" transform="translate(-118.9 166.12) rotate(-23.68)"/><rect class="cls-3" x="593.43" y="143.77" width="1.5" height="183.85" transform="translate(-117.99 166.06) rotate(-23.51)"/><rect class="cls-3" x="598.53" y="141.84" width="1.5" height="184.94" transform="translate(-117.09 165.98) rotate(-23.33)"/><rect class="cls-3" x="603.69" y="139.89" width="1.5" height="186.04" transform="translate(-116.19 165.87) rotate(-23.15)"/><rect class="cls-3" x="608.92" y="137.91" width="1.5" height="187.17" transform="translate(-115.3 165.73) rotate(-22.96)"/><rect class="cls-3" x="614.22" y="135.91" width="1.5" height="188.3" transform="translate(-114.4 165.56) rotate(-22.78)"/><rect class="cls-3" x="619.59" y="133.88" width="1.5" height="189.46" transform="translate(-113.51 165.35) rotate(-22.59)"/><rect class="cls-3" x="625.03" y="131.82" width="1.5" height="190.63" transform="translate(-112.63 165.11) rotate(-22.4)"/><rect class="cls-3" x="561.78" y="274.37" width="86.61" height="1.5" transform="translate(-117.2 41.01) rotate(-11.97)"/><rect class="cls-3" x="564.78" y="280.96" width="86.38" height="1.5" transform="translate(-117.23 36.28) rotate(-11.49)"/><rect class="cls-3" x="567.75" y="287.5" width="86.16" height="1.5" transform="matrix(0.98, -0.19, 0.19, 0.98, -117.15, 31.69)"/><rect class="cls-3" x="570.69" y="293.98" width="85.95" height="1.5" transform="translate(-116.68 26.14) rotate(-10.49)"/><rect class="cls-3" x="573.6" y="300.4" width="85.75" height="1.5" transform="translate(-116.42 21.84) rotate(-10.06)"/><rect class="cls-3" x="576.48" y="306.77" width="85.55" height="1.5" transform="translate(-115.89 17.04) rotate(-9.59)"/><rect class="cls-3" x="579.34" y="313.08" width="85.36" height="1.5" transform="matrix(0.99, -0.16, 0.16, 0.99, -115.24, 12.29)"/><rect class="cls-3" x="582.17" y="319.34" width="85.17" height="1.5" transform="translate(-114.56 7.83) rotate(-8.71)"/><rect class="cls-3" x="600.1" y="121.25" width="117.99" height="1.5" transform="translate(-74.13 148.94) rotate(-20.58)"/><rect class="cls-3" x="603.64" y="130.14" width="117.35" height="1.5" transform="translate(-78.04 144.45) rotate(-20.04)"/><rect class="cls-3" x="607.15" y="138.93" width="116.73" height="1.5" transform="translate(-81.79 139.39) rotate(-19.47)"/><rect class="cls-3" x="610.61" y="147.62" width="116.13" height="1.5" transform="translate(-85.39 133.34) rotate(-18.83)"/><rect class="cls-3" x="614.03" y="156.23" width="115.55" height="1.5" transform="translate(-88.6 128.44) rotate(-18.3)"/><rect class="cls-3" x="617.4" y="164.74" width="114.98" height="1.5" transform="translate(-91.63 122.99) rotate(-17.74)"/><rect class="cls-3" x="620.74" y="173.16" width="114.43" height="1.5" transform="translate(-94.41 117.55) rotate(-17.18)"/><rect class="cls-3" x="624.04" y="181.5" width="113.9" height="1.5" transform="translate(-96.96 112.43) rotate(-16.66)"/><rect class="cls-3" x="627.3" y="189.75" width="113.38" height="1.5" transform="translate(-99.29 106.73) rotate(-16.1)"/><rect class="cls-3" x="630.52" y="197.91" width="112.88" height="1.5" transform="translate(-101.4 100.94) rotate(-15.55)"/><rect class="cls-3" x="633.7" y="205.99" width="112.39" height="1.5" transform="matrix(0.97, -0.26, 0.26, 0.97, -103.31, 95.62)"/><rect class="cls-3" x="636.85" y="213.99" width="111.91" height="1.5" transform="translate(-104.98 89.59) rotate(-14.48)"/><rect class="cls-3" x="639.96" y="221.91" width="111.45" height="1.5" transform="translate(-106.5 84.57) rotate(-14.01)"/><rect class="cls-3" x="643.03" y="229.74" width="111" height="1.5" transform="translate(-107.79 78.86) rotate(-13.49)"/><rect class="cls-3" x="646.07" y="237.5" width="110.56" height="1.5" transform="translate(-108.84 72.71) rotate(-12.95)"/><rect class="cls-3" x="649.08" y="245.18" width="110.13" height="1.5" transform="translate(-109.79 67.4) rotate(-12.47)"/><path class="cls-3" d="M672.3,314.71l-73-180.59L711.83,90.47l68.26,207.9ZM601.91,135.25,673.57,312.5l103.89-15.76L710.58,93.1Z" transform="translate(-73.29 -90.47)"/><rect class="cls-3" x="641.8" y="125.46" width="1.5" height="194.23" transform="translate(-109.99 164.17) rotate(-21.81)"/><rect class="cls-3" x="647.54" y="123.28" width="1.5" height="195.47" transform="translate(-109.13 163.78) rotate(-21.61)"/><rect class="cls-3" x="653.36" y="121.07" width="1.5" height="196.73" transform="translate(-108.26 163.34) rotate(-21.4)"/><rect class="cls-3" x="659.26" y="118.83" width="1.5" height="198.01" transform="translate(-107.4 162.86) rotate(-21.19)"/><rect class="cls-3" x="665.24" y="116.56" width="1.5" height="199.3" transform="translate(-106.55 162.34) rotate(-20.98)"/><rect class="cls-3" x="671.3" y="114.25" width="1.5" height="200.62" transform="translate(-105.7 161.76) rotate(-20.77)"/><rect class="cls-3" x="677.45" y="111.91" width="1.5" height="201.95" transform="translate(-104.86 161.14) rotate(-20.55)"/><rect class="cls-3" x="683.69" y="109.53" width="1.5" height="203.31" transform="translate(-104.03 160.47) rotate(-20.33)"/><rect class="cls-3" x="690.02" y="107.12" width="1.5" height="204.68" transform="translate(-103.2 159.74) rotate(-20.11)"/><rect class="cls-3" x="696.43" y="104.67" width="1.5" height="206.08" transform="translate(-102.38 158.95) rotate(-19.88)"/><rect class="cls-3" x="702.95" y="102.19" width="1.5" height="207.5" transform="translate(-101.57 158.12) rotate(-19.65)"/><rect class="cls-3" x="709.55" y="99.66" width="1.5" height="208.95" transform="translate(-100.76 157.21) rotate(-19.41)"/><rect class="cls-3" x="716.26" y="97.1" width="1.5" height="210.42" transform="translate(-99.96 156.25) rotate(-19.17)"/><rect class="cls-3" x="723.06" y="94.5" width="1.5" height="211.91" transform="translate(-99.17 155.22) rotate(-18.93)"/><rect class="cls-3" x="729.96" y="91.85" width="1.5" height="213.43" transform="translate(-98.39 154.12) rotate(-18.69)"/><rect class="cls-3" x="736.97" y="89.17" width="1.5" height="214.98" transform="translate(-97.62 152.95) rotate(-18.44)"/><rect class="cls-3" x="651.58" y="252.9" width="109.59" height="1.5" transform="translate(-110.53 61.45) rotate(-11.96)"/><rect class="cls-3" x="654.52" y="260.42" width="109.19" height="1.5" transform="translate(-111.12 56.12) rotate(-11.5)"/><rect class="cls-3" x="657.43" y="267.87" width="108.79" height="1.5" transform="matrix(0.98, -0.19, 0.19, 0.98, -111.53, 50.64)"/><rect class="cls-3" x="660.31" y="275.24" width="108.41" height="1.5" transform="translate(-111.59 44.18) rotate(-10.49)"/><rect class="cls-3" x="663.16" y="282.55" width="108.04" height="1.5" transform="translate(-111.75 39.16) rotate(-10.06)"/><rect class="cls-3" x="665.97" y="289.78" width="107.67" height="1.5" transform="translate(-111.65 33.56) rotate(-9.59)"/><rect class="cls-3" x="668.76" y="296.94" width="107.32" height="1.5" transform="matrix(0.99, -0.16, 0.16, 0.99, -111.4, 28.02)"/><rect class="cls-3" x="671.52" y="304.04" width="106.97" height="1.5" transform="translate(-111.09 22.84) rotate(-8.71)"/><polygon class="cls-3" points="366.32 113.34 363.18 114.53 360.27 109.01 363.41 107.79 366.32 113.34"/><polygon class="cls-3" points="438.44 86.12 434.55 87.58 431.6 81.34 435.49 79.83 438.44 86.12"/><polygon class="cls-3" points="530.58 52.31 525.63 54.17 522.7 46.99 527.65 45.07 530.58 52.31"/><polygon class="cls-3" points="435.07 244.45 431.87 244.96 429.43 240.31 432.62 239.79 435.07 244.45"/><polygon class="cls-3" points="507.57 232.43 503.69 233.04 501.25 227.89 505.13 227.25 507.57 232.43"/><polygon class="cls-3" points="597.23 219.03 592.42 219.78 590.05 213.99 594.87 213.2 597.23 219.03"/><path class="cls-3" d="M279,246.78a36,36,0,0,0,3.93-2.21l-.44-1.56c-4.08,2.69-7.79,4.19-10.74,4.12a7.27,7.27,0,0,0,2.77.52,13.61,13.61,0,0,0,4.48-.87" transform="translate(-73.29 -90.47)"/><path class="cls-3" d="M313.85,209.14c8.74-15.55,11.48-28.88,7.83-37.36a6.09,6.09,0,0,0-1.29-1.15A6.45,6.45,0,0,0,319,170c5.29,7.7,2.95,21.66-6.47,38.4-7.32,13-17.32,24.8-26.25,31.87l.43,1.62c9.69-7.54,20.12-20.3,27.13-32.75" transform="translate(-73.29 -90.47)"/><path class="cls-3" d="M271.26,248.62h.26l-.26-.1Z" transform="translate(-73.29 -90.47)"/><path class="cls-3" d="M325.32,177.53a17.62,17.62,0,0,0-.32-2.08,9.32,9.32,0,0,0-3.79-6.08,7.64,7.64,0,0,0-2.39-1c-9.28-2.26-25.43,10.52-38.39,30.38a110.47,110.47,0,0,0-10.77,20.83l.89,1.93a107.08,107.08,0,0,1,11.14-21.94c11.53-17.68,26-30,34.84-30a8.67,8.67,0,0,1,1.94.22c.19.05.36.12.54.18-.05-.07-.08-.14-.13-.21l1.22-.87a15.25,15.25,0,0,1,1.58,2.86,9.13,9.13,0,0,1,1.86,4,16.69,16.69,0,0,1,.29,1.9c.46,4.49-.55,10.46-2.92,17.27a105.83,105.83,0,0,1-11.41,22.73c-7.06,10.82-15.3,19.6-22.62,24.8l.44,1.64c7.56-5.22,16-14.18,23.43-25.62a107.48,107.48,0,0,0,11.58-23.05c2.43-7,3.47-13.22,3-17.92" transform="translate(-73.29 -90.47)"/><path class="cls-3" d="M271.78,247.13a5.69,5.69,0,0,1-1-.51c-3.55-2.31-4.49-8.58-2.57-17.21q.21-1,.48-2l-1-2.05c-.36,1.26-.68,2.5-.95,3.7-2.09,9.41-.95,16.09,3.22,18.8a7.7,7.7,0,0,0,1.28.65l.11-1.41h.41" transform="translate(-73.29 -90.47)"/><path class="cls-3" d="M279,246.78a16.82,16.82,0,0,1-7,1.86h-.46a9,9,0,0,0,3.08.53,19.46,19.46,0,0,0,8.89-2.69l-.44-1.55a27.33,27.33,0,0,1-4,1.86" transform="translate(-73.29 -90.47)"/><path class="cls-3" d="M321.68,171.78a15.25,15.25,0,0,0-1.58-2.86l-1.22.87c.05.07.08.15.13.21a6.45,6.45,0,0,1,1.38.63,5.85,5.85,0,0,1,1.29,1.15" transform="translate(-73.29 -90.47)"/><path class="cls-3" d="M279,246.78a13.61,13.61,0,0,1-4.48.87,7.27,7.27,0,0,1-2.77-.52h-.41l-.11,1.41.27.1H272a16.82,16.82,0,0,0,7-1.86" transform="translate(-73.29 -90.47)"/></g></g></g></svg>