<svg xmlns="http://www.w3.org/2000/svg" xmlns:xlink="http://www.w3.org/1999/xlink" viewBox="0 0 567.34 517.12"><defs><style>.cls-1{fill:none;}.cls-2{clip-path:url(#clip-path);}.cls-3{fill:#fff;}</style><clipPath id="clip-path" transform="translate(-125.85 -35.56)"><rect class="cls-1" width="841.89" height="595.28"/></clipPath></defs><title>Спектр Р ц</title><g id="Слой_2" data-name="Слой 2"><g id="Слой_1-2" data-name="Слой 1"><g class="cls-2"><path class="cls-3" d="M260,387.14l-12.67-9.63A131.43,131.43,0,0,0,260,387.14" transform="translate(-125.85 -35.56)"/><path class="cls-3" d="M303.85,406.32l11.83,3.84a138.35,138.35,0,0,1-30.87-17.51L280.45,391a123.72,123.72,0,0,0,23.4,15.28" transform="translate(-125.85 -35.56)"/><path class="cls-3" d="M568.71,380.27l-12.79,9.09a140.91,140.91,0,0,0,12.79-9.09" transform="translate(-125.85 -35.56)"/><path class="cls-3" d="M238.7,368.09l1.19,1.86,8.36,6.34c-1.58-1.36-3.11-2.75-4.56-4.15Z" transform="translate(-125.85 -35.56)"/><path class="cls-3" d="M568.29,378.73l0-.06L568,379Z" transform="translate(-125.85 -35.56)"/><path class="cls-3" d="M263.42,387.82l1.86.92c-1.45-.9-2.88-1.81-4.26-2.74Z" transform="translate(-125.85 -35.56)"/><path class="cls-3" d="M549.74,391.93l5.42-3.85q-5.58,3.54-11.77,6.79Z" transform="translate(-125.85 -35.56)"/><path class="cls-3" d="M468.71,273.22l.44-1.42A261.78,261.78,0,0,0,441,267.29l-.22,1.48a263.17,263.17,0,0,1,27.95,4.45" transform="translate(-125.85 -35.56)"/><path class="cls-3" d="M400.05,267.42l-.07-1.49a279.9,279.9,0,0,0-32.22,3l.36,1.45a280,280,0,0,1,31.93-3" transform="translate(-125.85 -35.56)"/><path class="cls-3" d="M410.83,267.22q12.53,0,24.52,1l.21-1.48c-8.05-.69-16.31-1.06-24.73-1.06-1.89,0-3.78,0-5.66.06,0,.5.05,1,.07,1.5,1.86,0,3.72-.06,5.59-.06" transform="translate(-125.85 -35.56)"/><path class="cls-3" d="M529,296.72l.91-1.11a151.68,151.68,0,0,0-22.38-11.76l-.58,1.33A149.08,149.08,0,0,1,529,296.72" transform="translate(-125.85 -35.56)"/><path class="cls-3" d="M501.56,283l.71-1.27a213.37,213.37,0,0,0-27.65-8.65l-.45,1.41A213,213,0,0,1,501.56,283" transform="translate(-125.85 -35.56)"/><path class="cls-3" d="M301.6,291.48l-.81-1.19a125.5,125.5,0,0,0-17.56,11.36l.94,1.07a123.84,123.84,0,0,1,17.43-11.24" transform="translate(-125.85 -35.56)"/><path class="cls-3" d="M363,271.26l-.36-1.44a239.19,239.19,0,0,0-27.8,6.55c.2.45.4.9.61,1.35A238,238,0,0,1,363,271.26" transform="translate(-125.85 -35.56)"/><path class="cls-3" d="M329.87,279.47c-.21-.44-.41-.89-.62-1.33a182.92,182.92,0,0,0-23.73,9.69l.82,1.2a181.21,181.21,0,0,1,23.53-9.56" transform="translate(-125.85 -35.56)"/><path class="cls-3" d="M271.22,314.89l-.92-1a68.64,68.64,0,0,0-5.49,7.37l1.15.92a67,67,0,0,1,5.81-7.79Z" transform="translate(-125.85 -35.56)"/><path class="cls-3" d="M279.52,306.59l-.94-1.07a82.91,82.91,0,0,0-7.28,7.23l1,1.07a83.88,83.88,0,0,1,7.25-7.23" transform="translate(-125.85 -35.56)"/><path class="cls-3" d="M564,357l-1.87,1.37a48.08,48.08,0,0,1-3.17,8.69l2.34-1.55A48,48,0,0,0,564,357" transform="translate(-125.85 -35.56)"/><path class="cls-3" d="M262.8,327.87l-1.19-.93a47.79,47.79,0,0,0-4.51,14.51l1.41.87a46.15,46.15,0,0,1,4.29-14.45" transform="translate(-125.85 -35.56)"/><path class="cls-3" d="M565,347.46a44.67,44.67,0,0,0-1.38-10.93c-.22.21-.35.33-.36.35l-.1.07-.83.58a43,43,0,0,1,1.17,9.93c0,1.13-.06,2.25-.15,3.37l1.6-1.28c0-.7.05-1.39.05-2.09" transform="translate(-125.85 -35.56)"/><path class="cls-3" d="M534.77,298.91l-.9,1.12a93,93,0,0,1,14.61,12.76l1-1a94.94,94.94,0,0,0-14.76-12.91" transform="translate(-125.85 -35.56)"/><path class="cls-3" d="M553.69,316.77l-1.08,1a56.36,56.36,0,0,1,7.7,13.42l1.23-.88a58.22,58.22,0,0,0-7.85-13.5" transform="translate(-125.85 -35.56)"/><path class="cls-3" d="M230.45,293.2l-.82-1.41a65.46,65.46,0,0,0-8.23,17.75l1.13,1.56a63,63,0,0,1,7.92-17.9" transform="translate(-125.85 -35.56)"/><path class="cls-3" d="M220.77,324.63a54.05,54.05,0,0,1,.37-6.12l-.48-.44-.1-.11-.74-1a54.7,54.7,0,0,0-.55,7.69c0,1.34.06,2.67.16,4l1.71,2.22a53.63,53.63,0,0,1-.37-6.21" transform="translate(-125.85 -35.56)"/><path class="cls-3" d="M553.34,260.07l.53-1.36a194.21,194.21,0,0,0-28.39-14.19l-.66,1.29a191.55,191.55,0,0,1,28.52,14.26" transform="translate(-125.85 -35.56)"/><path class="cls-3" d="M595.25,305.66a55.35,55.35,0,0,1,3.35,15.73l1.37-1.81a56.67,56.67,0,0,0-3.58-15.11l0,0-1.11,1.14" transform="translate(-125.85 -35.56)"/><path class="cls-3" d="M536.08,395.1l-8.4,4a146.31,146.31,0,0,1-14.4,7.83l8.11-2.44a127.35,127.35,0,0,0,15.15-9.6l-.46.24" transform="translate(-125.85 -35.56)"/><path class="cls-3" d="M240.12,280.83l0,0,.61-.56a108.22,108.22,0,0,1,9.19-8.56l-.79-1.21a101.75,101.75,0,0,0-16,16.41l.77,1.36a90,90,0,0,1,6.24-7.4" transform="translate(-125.85 -35.56)"/><path class="cls-3" d="M235.42,365.43l.84,1,.23-.14Z" transform="translate(-125.85 -35.56)"/><path class="cls-3" d="M486.94,233.87a265,265,0,0,1,32.7,9.91l.61-1.32a267,267,0,0,0-32.93-10l-.1.54Z" transform="translate(-125.85 -35.56)"/><path class="cls-3" d="M558.32,263.25a123.8,123.8,0,0,1,18.61,15.08l.08-.1.65-1.2A126.54,126.54,0,0,0,558.93,262l-.37.93Z" transform="translate(-125.85 -35.56)"/><path class="cls-3" d="M576.12,371.76c1-.56,1.8-1,2.37-1.4l4.26-3.43q2.73-3.14,5-6.36l-4.48,3.35a96.31,96.31,0,0,1-7.19,7.84" transform="translate(-125.85 -35.56)"/><path class="cls-3" d="M276.85,254l-.09-.15-.6-1.11a160.66,160.66,0,0,0-22.57,14.15l.76,1.21a158.18,158.18,0,0,1,22.5-14.1" transform="translate(-125.85 -35.56)"/><path class="cls-3" d="M264.47,390c15.66,9.77,35,18,57.24,24.18l.14-.44-27.7-9Z" transform="translate(-125.85 -35.56)"/><path class="cls-3" d="M598.38,330.27a54.77,54.77,0,0,1-2.5,11.43l2.57-3.38a55.4,55.4,0,0,0,1.62-10l-1.2,1.51-.49.45" transform="translate(-125.85 -35.56)"/><path class="cls-3" d="M548.81,384l-4.73,2.61a99.66,99.66,0,0,1-8.34,6.95l7-3.72c2.18-1.9,4.19-3.85,6.07-5.84" transform="translate(-125.85 -35.56)"/><path class="cls-3" d="M557,373.52l-3.24,2.12a70.43,70.43,0,0,1-5.91,7.18l3.9-2.15a66,66,0,0,0,5.25-7.15" transform="translate(-125.85 -35.56)"/><path class="cls-3" d="M594.63,345.13c-.3.75-.6,1.5-.94,2.25l2.28-1.57c.47-1.15.89-2.31,1.28-3.47l-1.64,2.14Z" transform="translate(-125.85 -35.56)"/><path class="cls-3" d="M581.29,283a77.12,77.12,0,0,1,11.36,16.65l.5-.5.49-.78A79.35,79.35,0,0,0,582.1,281.7l-.31.63c-.15.2-.32.41-.5.63" transform="translate(-125.85 -35.56)"/><path class="cls-3" d="M397.89,225.39l-.08-1.46v0a345.79,345.79,0,0,0-39.48,3.54l.25,1.46a345,345,0,0,1,39.31-3.5" transform="translate(-125.85 -35.56)"/><path class="cls-3" d="M586.69,359.52l2.39-1.79.23.62a71.48,71.48,0,0,0,5.56-10c-.73.51-1.56,1.07-2.46,1.68a73.17,73.17,0,0,1-5.72,9.45" transform="translate(-125.85 -35.56)"/><path class="cls-3" d="M505.82,410.71l.36,1a225.16,225.16,0,0,0,38-15.54l-18.64,8.62Z" transform="translate(-125.85 -35.56)"/><path class="cls-3" d="M269.71,380.3l4.46,2.79A68,68,0,0,1,265,371.14l-2.39-1.21a64.07,64.07,0,0,0,7.06,10.37" transform="translate(-125.85 -35.56)"/><path class="cls-3" d="M352.54,229.85l-.24-1.47a298.74,298.74,0,0,0-34.86,8l.55,1.36a296.92,296.92,0,0,1,34.55-7.87" transform="translate(-125.85 -35.56)"/><path class="cls-3" d="M281.93,251.45a229.39,229.39,0,0,1,30.18-11.93l-.57-1.35a231.17,231.17,0,0,0-30.35,12c.14.24.28.48.43.72l.31.52" transform="translate(-125.85 -35.56)"/><path class="cls-3" d="M229.21,354a63.68,63.68,0,0,1-5.49-11.91c-.83-.68-1.56-1.3-2.17-1.84a61.94,61.94,0,0,0,3.82,9.79l.41-.26Z" transform="translate(-125.85 -35.56)"/><path class="cls-3" d="M256.72,348.68a44.75,44.75,0,0,0,2.1,12.29l.07,0,1.85,1a43.46,43.46,0,0,1-2.49-12.38Z" transform="translate(-125.85 -35.56)"/><path class="cls-3" d="M446.9,227.12a323.71,323.71,0,0,1,34.59,5.52l.41-1.29,0-.13a323.46,323.46,0,0,0-35-5.59v1.27Z" transform="translate(-125.85 -35.56)"/><path class="cls-3" d="M403.93,225.24c1.93,0,3.87-.05,5.81-.05,10.68,0,21.16.47,31.36,1.37,0-.13,0-.26,0-.4l0-1.09c-10.23-.9-20.72-1.38-31.43-1.38-1.94,0-3.88,0-5.81.05v1.5" transform="translate(-125.85 -35.56)"/><path class="cls-3" d="M569.51,379.62c1.61-1.31,3.19-2.64,4.69-4,1-.89,1.92-1.78,2.84-2.68-1.5.87-3.42,1.94-5.63,3.16Z" transform="translate(-125.85 -35.56)"/><path class="cls-3" d="M377.31,310.64l1.43-.42,0,.07c-1.24-4.4-5.79-20.62-10.64-39.87l-1.49.23c4.87,19.34,9.43,35.61,10.68,40" transform="translate(-125.85 -35.56)"/><path class="cls-3" d="M364.46,271l-1.48.25,10.69,42.31c.07.36,6.25,33.89,8.44,45.58l1.47-.29c-2.19-11.69-8.37-45.2-8.44-45.61Z" transform="translate(-125.85 -35.56)"/><path class="cls-3" d="M385.55,350.64l-.67-1.35.89-.44-4.34-24.3-4.06-13.67.27.93,8.32,46.6c.49-.09,1-.16,1.48-.24l-1.39-7.78Z" transform="translate(-125.85 -35.56)"/><path class="cls-3" d="M362.62,269.82l1.48-.25-10-39.66-.05-.31-1.48.25.07.37Z" transform="translate(-125.85 -35.56)"/><path class="cls-3" d="M350.6,209.14l3-1,3.29,19.49,1.48-.22-3.58-21.24-5.84,1.93,3.39,20.26,1.48-.24Z" transform="translate(-125.85 -35.56)"/><path class="cls-3" d="M366.27,269.21l1.49-.24c-3.26-13-6.61-27.19-9.18-40v0l-1.49.23,0,.08c2.56,12.85,5.91,27.05,9.16,40" transform="translate(-125.85 -35.56)"/><path class="cls-3" d="M354,229.6l-.24-1.46-1.48.24.24,1.47,1.48-.25" transform="translate(-125.85 -35.56)"/><path class="cls-3" d="M364.46,271l-.36-1.44-1.48.25.36,1.44,1.48-.25" transform="translate(-125.85 -35.56)"/><path class="cls-3" d="M368.12,270.42l-.36-1.45-1.49.24.36,1.45,1.49-.24" transform="translate(-125.85 -35.56)"/><path class="cls-3" d="M357.09,229.12l1.49-.23-.25-1.46-1.48.22Z" transform="translate(-125.85 -35.56)"/><path class="cls-3" d="M377.3,310.64l.07.24q0-.11-.06-.24Z" transform="translate(-125.85 -35.56)"/><path class="cls-3" d="M381.43,324.55l6.85,23.06-2.51,1.24.28,1.54,4-2-11.32-38.11c.21.73.32,1.14.34,1.18Z" transform="translate(-125.85 -35.56)"/><polygon class="cls-3" points="259.02 313.74 259.69 315.08 260.19 314.83 259.92 313.3 259.02 313.74"/><path class="cls-3" d="M377.31,310.64q0,.14.06.24l4.06,13.67-2.33-13.08s-.13-.45-.34-1.18l0-.07Z" transform="translate(-125.85 -35.56)"/><path class="cls-3" d="M401.55,267.37l-1.5.05,2.19,42.37c0,.37-.49,35.35-.61,46.8l1.5-.07c.12-11.54.6-46.34.61-46.76Z" transform="translate(-125.85 -35.56)"/><path class="cls-3" d="M405.17,265.78c-.66-13.11-1.19-27.5-1.24-40.54l-1.5,0c.05,13,.58,27.43,1.24,40.54l1.5,0" transform="translate(-125.85 -35.56)"/><path class="cls-3" d="M400,202.86l3.1-.38-.62,21.29,1.5,0,.66-23-6.1.75-.68,22.36,1.5,0Z" transform="translate(-125.85 -35.56)"/><path class="cls-3" d="M406.8,348.4l-.67-1.34,1.11-.56.24-12.27-1-24.55-.9,46.73,1.5,0,.16-8.18Z" transform="translate(-125.85 -35.56)"/><path class="cls-3" d="M406.37,307.59l1.49-.06.09,2.07,0-.82c0-.3-1.56-18.8-2.73-41.5l-1.5,0c1,19.42,2.27,35.76,2.63,40.28" transform="translate(-125.85 -35.56)"/><path class="cls-3" d="M401.47,265.88l-2.09-40.54-1.49,0L400,265.93l1.49-.05" transform="translate(-125.85 -35.56)"/><path class="cls-3" d="M402.43,223.8v1.47l1.5,0v-1.5l-1.5,0Z" transform="translate(-125.85 -35.56)"/><path class="cls-3" d="M405.24,267.28c0-.5-.05-1-.07-1.5l-1.5,0c0,.5.05,1,.07,1.5l1.5,0" transform="translate(-125.85 -35.56)"/><path class="cls-3" d="M401.55,267.37l-.08-1.49-1.49.05.07,1.49,1.5-.05" transform="translate(-125.85 -35.56)"/><path class="cls-3" d="M397.89,225.39l1.5,0-.08-1.43v-.07l-1.5,0v0Z" transform="translate(-125.85 -35.56)"/><polygon class="cls-3" points="282.12 310.57 281.38 310.95 281.35 312.64 283.66 311.48 282.1 274.05 281.62 298.68 282.12 310.57"/><path class="cls-3" d="M406.37,307.59h0l.08,2.1,0-.86s0-.47-.1-1.24" transform="translate(-125.85 -35.56)"/><path class="cls-3" d="M406.37,307.59c.06.77.1,1.2.1,1.24l0,.86,1,24.54L408,309.6l-.09-2.07Z" transform="translate(-125.85 -35.56)"/><polygon class="cls-3" points="280.27 311.51 280.95 312.85 281.35 312.64 281.38 310.95 280.27 311.51"/><path class="cls-3" d="M330.69,277.66c-6.14-13.31-12.48-27.39-17.15-38.59l-1.44.45c4.68,11.21,11,25.3,17.15,38.62l1.44-.48" transform="translate(-125.85 -35.56)"/><path class="cls-3" d="M331.3,279l-1.43.47c10.16,22,19.6,41.58,19.78,41.93s11.25,31,15.67,42.6l1.41-.51c-4.4-11.55-15.56-42.27-15.7-42.67s-9.6-19.88-19.73-41.82" transform="translate(-125.85 -35.56)"/><path class="cls-3" d="M367.45,355.1l-.9-1.2.81-.6-8.74-23.9L353,318.56l.18.37,16,43.71,1.43-.47-2.71-7.4Z" transform="translate(-125.85 -35.56)"/><path class="cls-3" d="M307.44,223.15l2.74-1.52c1.66,4.63,3.63,9.76,5.82,15.16l1.44-.43c-2.33-5.76-4.42-11.2-6.14-16.07l-.3-.83-5.36,3,.18.58c1.1,3.6,3.13,8.88,5.72,15.16.48-.16,1-.3,1.44-.45-2.46-5.95-4.41-11-5.54-14.57" transform="translate(-125.85 -35.56)"/><path class="cls-3" d="M352.68,317.85l1.32-.68.29.56c-1.63-3.34-9.75-20.08-18.86-40l-1.45.45c8.77,19.2,16.64,35.46,18.7,39.69" transform="translate(-125.85 -35.56)"/><path class="cls-3" d="M334.82,276.37C329.09,263.81,323,250.1,318,237.72l-1.44.43c5,12.38,11.09,26.1,16.82,38.67l1.45-.45" transform="translate(-125.85 -35.56)"/><path class="cls-3" d="M335.43,277.72c-.21-.45-.41-.9-.61-1.35l-1.45.45c.2.44.41.89.61,1.34l1.45-.44" transform="translate(-125.85 -35.56)"/><path class="cls-3" d="M313.54,239.07l-.56-1.35c-.48.15-1,.29-1.44.45.19.44.37.89.56,1.35l1.44-.45" transform="translate(-125.85 -35.56)"/><path class="cls-3" d="M316.55,238.15l1.44-.43-.55-1.36-1.44.43.55,1.36" transform="translate(-125.85 -35.56)"/><path class="cls-3" d="M331.3,279c-.2-.45-.41-.89-.61-1.34l-1.44.48c.21.44.41.89.62,1.33l1.43-.47" transform="translate(-125.85 -35.56)"/><path class="cls-3" d="M352.67,317.86l.36.69-.35-.7Z" transform="translate(-125.85 -35.56)"/><path class="cls-3" d="M358.62,329.4l11.34,22-2.61,1.95.54,1.47,4-3-17.59-34.06c.18.36.28.58.3.61Z" transform="translate(-125.85 -35.56)"/><path class="cls-3" d="M352.68,317.85l.35.7,5.59,10.85-4-11.06s-.12-.25-.3-.61l-.29-.56Z" transform="translate(-125.85 -35.56)"/><polygon class="cls-3" points="240.69 318.34 241.59 319.54 242.04 319.21 241.5 317.74 240.69 318.34"/><path class="cls-3" d="M305.52,287.83c-8-11.78-16.56-24.72-23.59-36.38l-1.35.67c7,11.65,15.55,24.59,23.59,36.39l1.35-.68" transform="translate(-125.85 -35.56)"/><path class="cls-3" d="M302.12,289.57c-9-13.18-18.11-26.89-23.94-36.25-.44.23-.89.45-1.33.69,5.82,9.36,15,23.08,23.94,36.27l1.33-.71" transform="translate(-125.85 -35.56)"/><path class="cls-3" d="M270.47,239.09l1.95-1.29c2.15,4.06,4.53,8.26,7.42,13.08l1.35-.67c-3.08-5.13-5.58-9.55-7.83-13.84l-.38-.73-4.48,3,7.66,14.16,1.33-.69Z" transform="translate(-125.85 -35.56)"/><path class="cls-3" d="M340.91,345.94l1.23-.85,0,0-5.91-11.6-5.89-7.88,1.18-.88c-2.87-3.93-13.42-18.47-25.21-35.74l-1.36.67c13.46,19.71,25.33,35.92,26.09,37l22,43,1.32-.71-7.13-14Z" transform="translate(-125.85 -35.56)"/><path class="cls-3" d="M329.15,328.79c-.22-.31-12.88-18.41-26.23-38l-1.32.71c13.1,19.26,25.55,37.08,26.29,38.13.72,1.44,16.28,32.51,21.63,42.23.42-.27.84-.54,1.27-.8-5.46-9.94-21.42-41.81-21.58-42.15Z" transform="translate(-125.85 -35.56)"/><path class="cls-3" d="M302.93,290.76l-.81-1.19-1.33.71.81,1.2,1.33-.72" transform="translate(-125.85 -35.56)"/><path class="cls-3" d="M280.33,251.7l.25.42,1.35-.67-.32-.52-.42-.72-1.35.67c.16.28.32.54.49.82" transform="translate(-125.85 -35.56)"/><path class="cls-3" d="M276.85,254c.44-.24.89-.46,1.33-.69a2.39,2.39,0,0,0-.13-.21l-.56-1.05-1.33.69.6,1.11.09.15" transform="translate(-125.85 -35.56)"/><path class="cls-3" d="M306.34,289l-.82-1.2-1.35.68.81,1.19,1.36-.67" transform="translate(-125.85 -35.56)"/><path class="cls-3" d="M332.38,325.92l3.88,7.61L354,357.27l-1.71,2.42-10.12-14.56,5.05,9.9,5.06,7.27,3.57-5.06-24.28-32.49,0,0c.47.65.74,1,.76,1.05Z" transform="translate(-125.85 -35.56)"/><polygon class="cls-3" points="216.29 309.53 215.06 310.38 221.37 319.47 216.32 309.57 216.29 309.53"/><path class="cls-3" d="M336.26,333.53l-3.88-7.61-.07-.1s-.29-.4-.76-1.05l-1.18.88Z" transform="translate(-125.85 -35.56)"/><path class="cls-3" d="M313.56,338.56l1-1.08.24.22-30.62-35-1.17.94Z" transform="translate(-125.85 -35.56)"/><path class="cls-3" d="M324.88,354.68l1-1.11.06.05-6.84-9.89-5.37-5,.56.63,26.85,38.82,1.13-1-12.49-18.05Z" transform="translate(-125.85 -35.56)"/><path class="cls-3" d="M311.57,342.8c.62.91,10.64,15.68,18.62,27.14l3.43,2.29c-8.37-11.93-20.67-30.07-20.84-30.31l-.06-.08c-.25-.29-15.87-17.75-32.07-36.24l-1.13,1c15.9,18.14,31.2,35.26,32.05,36.21" transform="translate(-125.85 -35.56)"/><path class="cls-3" d="M339.25,380.1c-1.33-1.79-3.23-4.45-5.42-7.56v2.6c1.77,2.5,3.29,4.62,4.38,6.08.34-.38.68-.76,1-1.12" transform="translate(-125.85 -35.56)"/><path class="cls-3" d="M243.37,258.93l2.48-1.41,6.54,10.3c.39-.31.79-.61,1.2-.92l-7.24-11.38-5.11,2.89,7.85,12c.38-.32.78-.63,1.17-.95Z" transform="translate(-125.85 -35.56)"/><path class="cls-3" d="M282.06,302.58l1.17-.93L255.62,270.1l-1.27-2-1.2.91,1.23,1.94Z" transform="translate(-125.85 -35.56)"/><path class="cls-3" d="M278.58,305.52l1.13-1c-10.32-11.79-20.77-23.87-27.53-32.07L251,270.71l-1.16,1,1.09,1.68c6.79,8.24,17.27,20.35,27.61,32.17" transform="translate(-125.85 -35.56)"/><path class="cls-3" d="M280.65,305.6l-.94-1.07-1.13,1,.94,1.08,1.13-1" transform="translate(-125.85 -35.56)"/><path class="cls-3" d="M253.15,269l1.2-.91-.76-1.21c-.41.31-.81.61-1.2.92Z" transform="translate(-125.85 -35.56)"/><path class="cls-3" d="M284.17,302.72l-.94-1.07-1.17.93.94,1.08,1.17-.94" transform="translate(-125.85 -35.56)"/><path class="cls-3" d="M251,270.71l-.78-1.2c-.39.32-.79.63-1.17.95l.79,1.21,1.16-1" transform="translate(-125.85 -35.56)"/><polygon class="cls-3" points="193.25 308.18 215.92 329.12 214.91 331.64 200.09 318.06 203.94 323.62 215.49 334.21 217.69 328.72 188.93 302.15 189.63 302.94 193.25 308.18"/><polygon class="cls-3" points="187.68 303.03 187.89 303.22 187.7 303.01 187.68 303.03"/><polygon class="cls-3" points="200.04 318.02 199.03 319.12 203.94 323.62 200.09 318.06 200.04 318.02"/><polygon class="cls-3" points="187.7 303.01 187.89 303.22 193.25 308.18 189.63 302.94 188.93 302.15 188.7 301.93 187.7 303.01"/><path class="cls-3" d="M301.32,350.68h0l1.16.94,3.18,3.75,26.67,17.8v2.94l-19.28-12,3.19,3.76,17.59,11v-3.69c-1.13-1.6-2.36-3.35-3.64-5.2Z" transform="translate(-125.85 -35.56)"/><path class="cls-3" d="M333.62,372.23l.21.31v-.16Z" transform="translate(-125.85 -35.56)"/><path class="cls-3" d="M330.19,369.94c1.28,1.85,2.51,3.6,3.64,5.2v-2.6l-.21-.31Z" transform="translate(-125.85 -35.56)"/><polygon class="cls-3" points="184.13 341.92 174.64 333.85 191.84 342.88 189.29 339.85 168.81 329.09 170.59 330.19 185.61 344.32 198.49 350.79 196.06 347.9 184.13 341.92"/><polygon class="cls-3" points="192.8 341.69 192.8 341.69 201.89 352.5 201.89 352.5 192.8 341.69"/><polygon class="cls-3" points="168.73 330.78 171.94 333.52 169.62 331.33 168.73 330.78"/><path class="cls-3" d="M224.17,279.46l2.12-1.48,5.84,10.2c.32-.44.65-.87,1-1.31l-6.34-11.06L222.18,279l7.45,12.77.92-1.39Z" transform="translate(-125.85 -35.56)"/><polygon class="cls-3" points="196.06 347.9 191.84 342.88 191.84 342.88 196.06 347.9"/><path class="cls-3" d="M231.12,294.32c7.15,8,29.57,31.83,29.79,32.07l.7.55c.22-.46.46-.91.69-1.35l-.33-.27c-1.06-1.12-22.63-24.05-29.68-31.94l-.92-1.58c-.31.46-.62.93-.92,1.4l.58,1Z" transform="translate(-125.85 -35.56)"/><path class="cls-3" d="M299.15,356.38l16,19,3.51,1.85-18.41-21.9-36.77-28.84c-.24.45-.47.9-.68,1.36Z" transform="translate(-125.85 -35.56)"/><path class="cls-3" d="M263.3,322l.73.58c.26-.43.51-.85.78-1.28l-.5-.41-28.67-29.55-1.76-3.06c-.33.44-.64.89-1,1.33l1.47,2.56Z" transform="translate(-125.85 -35.56)"/><path class="cls-3" d="M312.15,365.29,313,364l.1.06-7.39-8.7-5.17-3.45.83-1.24L266,322.17c-.27.43-.54.86-.79,1.28l36.21,29.21,30.75,36.23-1.69,2.37-2.7-3.21-3.39-1.7,5.16,6.14,1.31.45-.28.75.28-.38a30.62,30.62,0,0,1,2.46-5.39l-17-20.08Zm16.3,18.1-.23-.28.21.12Z" transform="translate(-125.85 -35.56)"/><path class="cls-3" d="M263.48,326.51l-1.18-.92c-.23.44-.47.9-.69,1.35l1.19.93c.22-.46.44-.91.68-1.36" transform="translate(-125.85 -35.56)"/><path class="cls-3" d="M231.37,291.8l-.81-1.4c-.32.46-.63.93-.93,1.39l.82,1.41c.3-.47.61-.94.92-1.4" transform="translate(-125.85 -35.56)"/><path class="cls-3" d="M264,322.53l1.14.92c.25-.43.52-.85.79-1.28l-1.15-.92c-.27.43-.53.85-.78,1.28" transform="translate(-125.85 -35.56)"/><path class="cls-3" d="M232.92,289.56c.32-.44.63-.89,1-1.33l-.77-1.36c-.33.44-.66.87-1,1.31Z" transform="translate(-125.85 -35.56)"/><polygon class="cls-3" points="187.09 328.46 186.3 329.73 190.38 332.28 187.19 328.52 187.09 328.46"/><polygon class="cls-3" points="175.46 315.13 174.64 316.37 179.81 319.82 176.63 316.07 175.46 315.13"/><polygon class="cls-3" points="189.29 339.85 191.84 342.88 191.84 342.88 196.06 347.9 198.49 350.79 201.89 352.5 192.8 341.69 189.29 339.85"/><polygon class="cls-3" points="202.59 347.83 202.57 347.67 202.36 347.56 202.59 347.83"/><path class="cls-3" d="M212.38,326.81l2.73-1.32,4.59,5.94c-.11-.93-.21-1.87-.28-2.81l-3.87-5L210,326.29,221.24,340l.08.08.23.21c-.33-1.11-.62-2.23-.87-3.35Z" transform="translate(-125.85 -35.56)"/><path class="cls-3" d="M258,362.25l1.5.78c-.26-.68-.49-1.37-.71-2.06l-35.11-26.82-2.57-3.31c.12,1,.27,2,.45,3l1,1.36Z" transform="translate(-125.85 -35.56)"/><path class="cls-3" d="M296.07,380.85l2.93,1L260.74,362c.24.7.5,1.39.78,2.09L299.91,384l26,20.3.26,3.82-26.48-21.09-36-18.25c.42.79.85,1.57,1.31,2.34l33.77,17.13L316,402l11.8,7.79-.43-6.2-14.06-11-3.9-1.6Z" transform="translate(-125.85 -35.56)"/><path class="cls-3" d="M262.65,369.93q-.63-1.17-1.2-2.37c-3.74-2.57-30.55-21.09-38.56-28.09.25.89.53,1.78.83,2.66,10.31,8.42,36.13,26.16,37.4,27Z" transform="translate(-125.85 -35.56)"/><path class="cls-3" d="M261.45,367.56c.38.8.78,1.58,1.2,2.37l2.39,1.21c-.45-.77-.89-1.55-1.31-2.34l-1.85-.94-.43-.3" transform="translate(-125.85 -35.56)"/><path class="cls-3" d="M221.59,333.87q-.27-1.51-.45-3l-1.72-2.22c.07.94.17,1.88.28,2.81Z" transform="translate(-125.85 -35.56)"/><path class="cls-3" d="M258.82,361c.22.69.45,1.38.71,2.06l2,1c-.28-.7-.54-1.39-.78-2.09l-1.85-1Z" transform="translate(-125.85 -35.56)"/><path class="cls-3" d="M222.89,339.47l-.52-.46-1.69-2.07c.25,1.12.54,2.24.87,3.35.61.54,1.34,1.16,2.17,1.84-.3-.88-.58-1.77-.83-2.66" transform="translate(-125.85 -35.56)"/><polygon class="cls-3" points="204.68 358.15 203.66 356.93 196.3 354.37 200.76 358.57 198.98 356.89 203.03 358.3 202.38 360.09 203.56 361.21 204.69 358.14 204.68 358.15"/><polygon class="cls-3" points="198.12 358.15 202.55 362.31 202.55 362.31 198.12 358.15"/><polygon class="cls-3" points="204.69 358.14 204.96 357.38 203.66 356.93 204.68 358.15 204.69 358.14"/><polygon class="cls-3" points="184.37 354.16 178.66 349.82 186.16 352.43 187.85 354.01 183.48 349.91 173.15 346.31 174.93 347.24 187.45 357.01 193.81 359.63 190.78 356.77 184.37 354.16"/><polygon class="cls-3" points="193.86 357.61 197.7 361.22 197.7 361.22 193.86 357.61"/><polygon class="cls-3" points="186.96 351.12 187.02 351.18 186.96 351.12 186.96 351.12"/><polygon class="cls-3" points="173.15 346.31 170.22 345.29 183.54 355.41 187.45 357.01 174.93 347.24 173.15 346.31"/><path class="cls-3" d="M258.2,347.83c0,.59,0,1.18.05,1.77l35.44,21.15,15.64,14.72,3.48,1.21L294.65,369.6Z" transform="translate(-125.85 -35.56)"/><path class="cls-3" d="M255.77,342.38l1.14.71c0-.55.12-1.09.19-1.64l-.4-.24-33.2-28.75-1-1.35c-.17.64-.32,1.28-.46,1.92l.27.38Z" transform="translate(-125.85 -35.56)"/><path class="cls-3" d="M256.72,348.68c0-.41,0-.81,0-1.22,0-.18,0-.36,0-.54-1.85-1.55-27.38-23-35-29.9l-.33-.46c-.1.65-.18,1.3-.26,1.95,8.35,7.52,34.45,29.43,34.72,29.66Z" transform="translate(-125.85 -35.56)"/><path class="cls-3" d="M294.67,364.65l-36.16-22.33c-.07.55-.12,1.1-.17,1.65l36.24,22.37-5.33-4.54Z" transform="translate(-125.85 -35.56)"/><polygon class="cls-3" points="187.07 351.23 193.86 357.61 187.02 351.18 187.07 351.23"/><polygon class="cls-3" points="190.78 356.77 187.85 354.02 190.78 356.77 190.78 356.77"/><path class="cls-3" d="M212.26,303.91l2.22-1.45,6.43,9c.15-.63.32-1.26.49-1.88l-6.54-9.12-4.73,3.09,9.69,13.43c.1-.7.22-1.39.35-2.08Z" transform="translate(-125.85 -35.56)"/><path class="cls-3" d="M329.42,396.76l-.56,1.53-.45-.42-.73,2.79-4.13-3.88-3.88-1.6,8.82,8.3.93-3.56a26.17,26.17,0,0,1,.38-2.8Z" transform="translate(-125.85 -35.56)"/><path class="cls-3" d="M328.23,395.64l-1.62-1.52Z" transform="translate(-125.85 -35.56)"/><polygon class="cls-3" points="183.22 343.12 171.94 333.52 198.12 358.14 192.82 353.16 196.3 354.37 185.61 344.32 183.22 343.12"/><path class="cls-3" d="M222.07,313c.14-.64.29-1.28.46-1.93l-1.13-1.56c-.17.62-.34,1.25-.49,1.88Z" transform="translate(-125.85 -35.56)"/><path class="cls-3" d="M256.7,346.92c0,.18,0,.36,0,.54,0,.41,0,.81,0,1.22l1.53.92c0-.59-.05-1.18-.05-1.77l-1.42-.85-.08-.06" transform="translate(-125.85 -35.56)"/><path class="cls-3" d="M220.66,318.07l.48.44c.08-.65.16-1.3.26-1.95l-1.23-1.7c-.13.69-.25,1.38-.35,2.08l.74,1Z" transform="translate(-125.85 -35.56)"/><path class="cls-3" d="M257.1,341.45c-.07.55-.14,1.09-.19,1.64l1.43.88c.05-.55.1-1.1.17-1.65Z" transform="translate(-125.85 -35.56)"/><polygon class="cls-3" points="185.61 344.32 170.59 330.19 168.81 329.09 163.4 326.25 168.73 330.78 169.62 331.33 171.94 333.52 183.22 343.12 185.61 344.32"/><polygon class="cls-3" points="202.38 360.09 200.76 358.57 196.3 354.37 192.82 353.16 198.12 358.15 202.55 362.31 202.55 362.31 203 362.74 203.56 361.2 202.38 360.09"/><polygon class="cls-3" points="193.86 357.61 187.07 351.23 187.02 351.18 186.96 351.12 183.48 349.91 187.85 354.01 190.78 356.77 190.78 356.77 193.81 359.63 197.7 361.22 193.86 357.61"/><path class="cls-3" d="M269.71,380.3,230.8,356l-1.59-2c.89,1.52,1.83,3,2.85,4.52l41.17,25.71c-1.24-1.3-2.41-2.63-3.52-4" transform="translate(-125.85 -35.56)"/><path class="cls-3" d="M230.82,359.37l-1.55-1-5-5.79,1.16-.74,2.49,3.06q-1.39-2.37-2.58-4.79L222,352.21l6.15,7.18.15.13c.84.58,2.15,1.43,3.79,2.48l.3-.37c-.55-.75-1.09-1.5-1.61-2.26" transform="translate(-125.85 -35.56)"/><path class="cls-3" d="M316,402l-15.28-10.09-26-8.47-.49-.3c.8.84,1.62,1.67,2.47,2.5L300,393.16l27.1,17.9,3.37,4.7L307.72,399.5l-26.49-9.75c1.15,1,2.35,1.94,3.58,2.9l22.12,8.12,16.74,12,3.6,1.16-.37,1.15,10.07,7.2L328.12,410l-.33-.22.11,1.69Z" transform="translate(-125.85 -35.56)"/><path class="cls-3" d="M234.26,361.59c.69.9,1.4,1.81,2.14,2.7l2.39,1.94c11.31,7.13,27.78,17.31,34.43,21.42l4.17,2.27,3.06,1.12c-1.07-.89-2.1-1.8-3.1-2.72l-.45-.16c-1.56-1-29.88-18.43-42.64-26.57" transform="translate(-125.85 -35.56)"/><path class="cls-3" d="M280.45,391l4.36,1.61c-1.23-1-2.43-1.92-3.58-2.9l-3.88-1.43c1,.92,2,1.83,3.1,2.72" transform="translate(-125.85 -35.56)"/><path class="cls-3" d="M273.23,384.27l.71.44,2.7.88c-.85-.83-1.68-1.66-2.47-2.5l-4.46-2.79c1.11,1.34,2.28,2.67,3.52,4" transform="translate(-125.85 -35.56)"/><path class="cls-3" d="M236.4,364.29c-.74-.89-1.45-1.8-2.14-2.7l-3.44-2.22c.52.76,1.06,1.51,1.61,2.26l.27-.34Z" transform="translate(-125.85 -35.56)"/><path class="cls-3" d="M229.79,357.14l2.27,1.42c-1-1.49-2-3-2.85-4.52l-3.43-4.22-.41.26q1.19,2.42,2.58,4.79Z" transform="translate(-125.85 -35.56)"/><polygon class="cls-3" points="202.05 375.87 201.93 374.18 190.13 366.39 202.05 375.87"/><path class="cls-3" d="M261,386l-12.77-9.71A128.33,128.33,0,0,0,261,386" transform="translate(-125.85 -35.56)"/><path class="cls-3" d="M265.28,388.74a203.72,203.72,0,0,0,43,19.79c-1.52-.72-3-1.46-4.47-2.21l-9.08-2.95Z" transform="translate(-125.85 -35.56)"/><path class="cls-3" d="M262.57,389.06l1.9.94q-2.27-1.41-4.43-2.86Z" transform="translate(-125.85 -35.56)"/><path class="cls-3" d="M236.26,366.44l-.29.18,2.8,4.36,8.6,6.53a104.67,104.67,0,0,1-11.11-11.07" transform="translate(-125.85 -35.56)"/><path class="cls-3" d="M315.68,410.16c2.12.89,4.28,1.76,6.5,2.59l-.33,1,5,1.61.09-.28-3.23-2.31Z" transform="translate(-125.85 -35.56)"/><path class="cls-3" d="M315.68,410.16l-11.83-3.84c1.47.75,2.95,1.49,4.47,2.21a204,204,0,0,1-43-19.79l-1.86-.92L261,386a128.33,128.33,0,0,1-12.77-9.71L239.89,370l-1.19-1.86-2.21-1.79-.23.14a104.67,104.67,0,0,0,11.11,11.07L260,387.14q2.16,1.46,4.43,2.86l29.68,14.74,27.7,9,.33-1c-2.22-.83-4.38-1.7-6.5-2.59" transform="translate(-125.85 -35.56)"/><polygon class="cls-3" points="197.82 377.2 201.04 379.51 201.41 378.37 197.82 377.2"/><path class="cls-3" d="M232.13,362l-.37.46,3.66,3c-.74-.89-1.46-1.79-2.15-2.7l-1.14-.73" transform="translate(-125.85 -35.56)"/><path class="cls-3" d="M280.17,393.14l.72-1.32-3.5-1.9-1.22-.45-2.95-1.82-24.39-13.27-10-8.14-1.58-1c2,2.34,4.15,4.65,6.48,6.9l4.25,3.45Z" transform="translate(-125.85 -35.56)"/><path class="cls-3" d="M237.24,365.81l1.46,2.28,5,4.05c-2.33-2.25-4.49-4.56-6.48-6.9l-3.94-2.51c.69.91,1.41,1.81,2.15,2.7l1.07.87Z" transform="translate(-125.85 -35.56)"/><path class="cls-3" d="M232.43,361.63l-.3.37,1.14.73c-.28-.36-.57-.73-.84-1.1" transform="translate(-125.85 -35.56)"/><path class="cls-3" d="M236.4,364.29c.26.32.54.63.81.95l1.58,1Z" transform="translate(-125.85 -35.56)"/><path class="cls-3" d="M276.17,389.47l1.22.45-4.17-2.27,2.95,1.82" transform="translate(-125.85 -35.56)"/><path class="cls-3" d="M232.7,361.29l-.27.34c.27.37.56.74.84,1.1,1.19.76,2.51,1.61,3.94,2.51-.27-.32-.55-.63-.81-.95Z" transform="translate(-125.85 -35.56)"/><polygon class="cls-3" points="110.63 330.74 112.84 332.53 111.38 330.26 110.63 330.74"/><path class="cls-3" d="M443,207l2.51.19,0,18.26,1.5.15,0-19.8-5.48-.42-.32,19.67,1.49.13Z" transform="translate(-125.85 -35.56)"/><path class="cls-3" d="M437.05,266.91c1.86-13,3.84-27.26,5.54-40.22l-1.49-.13c-1.7,12.94-3.69,27.21-5.54,40.22l1.49.13" transform="translate(-125.85 -35.56)"/><path class="cls-3" d="M441,267.29l5.92-40.17-1.49-.15-5.93,40.17,1.5.15" transform="translate(-125.85 -35.56)"/><path class="cls-3" d="M440.76,268.77l-1.5-.15-6.36,43.14c-.06.36-5.76,32.65-7.63,45.42l1.49.17c1.87-12.75,7.56-45,7.62-45.35Z" transform="translate(-125.85 -35.56)"/><path class="cls-3" d="M436.84,268.39l-1.49-.13c-3.23,22.65-6,41.11-6,41.4l-.14.8v0l1.45.37-4.54,17.9-3.33,19.75,1,2.63-1.4.52-.07-.19-.91,5.4,1.5.12,7.94-47c0-.29,2.82-18.79,6-41.5" transform="translate(-125.85 -35.56)"/><path class="cls-3" d="M445.44,226.74l0,.23,1.49.15,0-.22v-1.28l-1.5-.15Z" transform="translate(-125.85 -35.56)"/><path class="cls-3" d="M441.1,226.56l1.49.13.06-.42V225.2l-1.49-.13,0,1.09c0,.14,0,.27,0,.4" transform="translate(-125.85 -35.56)"/><path class="cls-3" d="M436.84,268.39l.21-1.48-1.49-.13-.21,1.48,1.49.13" transform="translate(-125.85 -35.56)"/><path class="cls-3" d="M440.76,268.77l.22-1.48-1.5-.15-.22,1.48,1.5.15" transform="translate(-125.85 -35.56)"/><polygon class="cls-3" points="296.4 315.86 296.9 312.89 295.91 310.2 300.24 293.14 303.31 274.91 294.34 310.29 296.4 315.86"/><polygon class="cls-3" points="296.47 316.04 297.88 315.52 296.9 312.89 296.4 315.86 296.47 316.04"/><polygon class="cls-3" points="304.78 275.24 303.32 274.87 303.31 274.91 300.24 293.14 304.78 275.24"/><path class="cls-3" d="M470.63,272.12,483,233l-1.48-.32L469.15,271.8l1.48.32" transform="translate(-125.85 -35.56)"/><path class="cls-3" d="M470.18,273.53l-1.47-.31-13.42,42.59-.36.94,0,0,1.33.69-6.35,12.3-8.36,21.69.67,1.58-1.39.58-.06-.14-2.27,5.91,1.47.33L456.7,316.3Z" transform="translate(-125.85 -35.56)"/><path class="cls-3" d="M474.17,274.46l-1.46-.34-13.56,43.12c-.14.33-12.41,30.71-16.79,43l1.46.38c4.4-12.28,16.58-42.46,16.74-42.85Z" transform="translate(-125.85 -35.56)"/><path class="cls-3" d="M474.62,273.05l12.32-39.18-1.46-.34-12.32,39.18,1.46.34" transform="translate(-125.85 -35.56)"/><path class="cls-3" d="M486.53,212.48l2.84,1-3.5,18.68,1.45.34,3.77-20-5.75-1.92-3.42,20.72,1.46.32Z" transform="translate(-125.85 -35.56)"/><path class="cls-3" d="M485.77,232.62l-.29.91,1.46.34.28-.88.1-.54-1.45-.34Z" transform="translate(-125.85 -35.56)"/><path class="cls-3" d="M474.17,274.46l.45-1.41-1.46-.34-.45,1.41,1.46.34" transform="translate(-125.85 -35.56)"/><path class="cls-3" d="M470.18,273.53l.45-1.41-1.47-.32-.45,1.42,1.47.31" transform="translate(-125.85 -35.56)"/><path class="cls-3" d="M481.49,232.64,483,233l.38-1.21,0-.21-1.46-.32,0,.13Z" transform="translate(-125.85 -35.56)"/><polygon class="cls-3" points="314.94 317.85 315.72 315.83 314.45 312.81 324.08 294.14 329.07 281.19 312.79 312.75 314.94 317.85"/><polygon class="cls-3" points="315 317.99 316.38 317.41 315.72 315.83 314.94 317.85 315 317.99"/><polygon class="cls-3" points="330.43 281.84 329.09 281.15 329.07 281.19 324.08 294.14 330.43 281.84"/><path class="cls-3" d="M481.09,319.68l1.11.81-7.21,10-12.87,22.7,1.13-1.39.95.77,16.66-29.42L503,283.53l-1.4-.56Z" transform="translate(-125.85 -35.56)"/><path class="cls-3" d="M506.2,286.05v.87l.75-1.74-1.59-.68c-.61,1-1.47,2.6-2.79,5-2.19,3.93-5.08,9.17-8,14.41-5.77,10.47-11.52,21-11.52,21-.19.32-18,31.06-23.28,41.33l1.37.62c5.26-10.27,23-40.88,23.22-41.22,7.44-13.57,18.08-32.91,21.81-39.51" transform="translate(-125.85 -35.56)"/><path class="cls-3" d="M502.27,281.7l1.4.55.12-.21L521,244.32l-1.4-.54-17.19,37.58Z" transform="translate(-125.85 -35.56)"/><path class="cls-3" d="M506.29,283l-.16.23,1.4.6.11-.25c.12-.27,11.43-26.32,17.18-37.79l-1.39-.56c-5.8,11.58-17,37.48-17.17,37.76Z" transform="translate(-125.85 -35.56)"/><path class="cls-3" d="M459.12,359.31l-.18-.48-3.19,5.63,1.4.57,6.22-11Z" transform="translate(-125.85 -35.56)"/><path class="cls-3" d="M522.27,241.62l5.61-17.13,2.17,1L524.58,243l-.5.95,1.4.57.46-.88,5.93-18.89L527,222.39l-6.11,18.69-.63,1.38,1.39.54Z" transform="translate(-125.85 -35.56)"/><path class="cls-3" d="M521,244.32l.6-1.32-1.39-.54-.61,1.32,1.4.54" transform="translate(-125.85 -35.56)"/><path class="cls-3" d="M503,283.53l.71-1.28-1.4-.55-.71,1.27,1.4.56" transform="translate(-125.85 -35.56)"/><path class="cls-3" d="M507,285.18l.58-1.33-1.4-.6c-.2.29-.45.7-.77,1.25l1.59.68" transform="translate(-125.85 -35.56)"/><path class="cls-3" d="M523.42,245.25l1.4.56.66-1.29-1.4-.57-.66,1.3" transform="translate(-125.85 -35.56)"/><polygon class="cls-3" points="338.56 317.19 338.35 317.02 337.51 318.5 338.56 317.19"/><polygon class="cls-3" points="333.75 320.77 332.63 317.81 349.13 294.94 353.7 286.87 355.23 284.13 355.13 284.06 330.94 317.59 333.08 323.27 336.27 317.65 333.75 320.77"/><polygon class="cls-3" points="336.27 317.65 333.08 323.27 333.27 323.75 337.51 318.5 338.35 317.02 337.4 316.25 336.27 317.65"/><polygon class="cls-3" points="349.13 294.94 356.35 284.93 355.23 284.13 353.7 286.87 349.13 294.94"/><path class="cls-3" d="M533.87,300l-1.22-.87-31,38.41c-.23.29-21.15,27.15-27.79,36.65.41.3.81.6,1.2.91,6.55-9.39,27.55-36.35,27.76-36.62Z" transform="translate(-125.85 -35.56)"/><path class="cls-3" d="M560.89,244.74l2.79,1.18-6,15.2c.43.27.85.55,1.27.83l6.69-16.85-5.57-2.34-6.18,15.95,1.28.8Z" transform="translate(-125.85 -35.56)"/><path class="cls-3" d="M529.94,295.57l0,0,1.25.82,23.33-35.2.14-.36c-.43-.27-.85-.54-1.29-.8l-.15.4Z" transform="translate(-125.85 -35.56)"/><path class="cls-3" d="M533.54,298.05l1.23.87.12-.15,23.43-35.52-1.26-.82-23.38,35.45Z" transform="translate(-125.85 -35.56)"/><path class="cls-3" d="M530.26,297.55l-1.26-.83-31.48,38.76,1,1.09-5.61,5-8.06,10.65.05-.05,1,1.12-5.61,4.95-10.17,13.43c.43.27.84.55,1.26.83l26.41-34.89Z" transform="translate(-125.85 -35.56)"/><path class="cls-3" d="M530.26,297.55l.89-1.09v0l-1.25-.82-.91,1.11,1.26.83" transform="translate(-125.85 -35.56)"/><path class="cls-3" d="M533.54,298.05l-.89,1.11,1.22.87.9-1.11-1.23-.87" transform="translate(-125.85 -35.56)"/><path class="cls-3" d="M554.63,260.87l.52-1.36-1.28-.8-.53,1.36,1.29.8" transform="translate(-125.85 -35.56)"/><path class="cls-3" d="M557.27,262.12l-.21.31,1.26.82.24-.37.37-.93c-.42-.28-.84-.56-1.27-.83Z" transform="translate(-125.85 -35.56)"/><polygon class="cls-3" points="344.04 324.33 345.73 330.3 354.4 322.65 358.95 316.63 346.52 327.6 345.74 324.83 367.01 305.98 370.71 301.1 371.66 299.93 371.63 299.89 344.04 324.33"/><polygon class="cls-3" points="360 317.7 359.01 316.58 358.95 316.63 354.4 322.65 360 317.7"/><polygon class="cls-3" points="367.01 305.98 372.62 301.01 371.66 299.93 370.71 301.1 367.01 305.98"/><polygon class="cls-3" points="356.44 338.19 373.06 326.71 376.91 322.22 357.34 335.75 356.64 333.17 384.1 313.85 388.08 309.22 354.92 332.54 356.44 338.19"/><polygon class="cls-3" points="372.92 337.27 387.81 330.35 381.77 335.54 369.63 341.4 372.76 337.47 367.46 344.11 377.36 339.33 392.02 326.73 375.02 334.64 372.92 337.27"/><polygon class="cls-3" points="371.97 336.06 364.33 345.62 364.33 345.62 371.98 336.06 371.97 336.06"/><polygon class="cls-3" points="355.74 344.56 355.95 344.28 355.75 344.4 355.74 344.56"/><path class="cls-3" d="M585.5,265.68l2.24,1.35L581,280.52c.37.39.72.79,1.07,1.18l7.6-15.24-4.77-2.87L577.66,277l1.1,1.1Z" transform="translate(-125.85 -35.56)"/><path class="cls-3" d="M490.19,381.17l-4,5-2.53-3.83,31.85-37.1,34-31.3c-.33-.38-.66-.75-1-1.12l-34,31.35-.54.64.06,0,.86,1.23-4.9,3.45-7.19,8.37.06,0,.86,1.24-4.77,3.29-16.75,19.5a38,38,0,0,1,4.48,6.23l6.66-8.32Z" transform="translate(-125.85 -35.56)"/><path class="cls-3" d="M498.62,373l.16-.2Z" transform="translate(-125.85 -35.56)"/><path class="cls-3" d="M552.77,315.58l.92,1.18.43-.38.07-.08c.21-.25,20-24.32,27.1-33.34-.33-.38-.66-.76-1-1.14-6.77,8.65-26.24,32.3-27.21,33.48Z" transform="translate(-125.85 -35.56)"/><path class="cls-3" d="M517,347.69l-19.14,23.93,3.05-1.42L518,348.77l34.6-31c-.3-.4-.61-.79-.92-1.19Z" transform="translate(-125.85 -35.56)"/><path class="cls-3" d="M549.53,311.82l1,1.11,1-.91L578,279.39l-1.07-1.06L550.46,311Z" transform="translate(-125.85 -35.56)"/><path class="cls-3" d="M552.61,317.73l1.08-1-.92-1.18-1.08,1c.31.4.62.79.92,1.19" transform="translate(-125.85 -35.56)"/><path class="cls-3" d="M576.93,278.33l1.07,1.06.22-.27.54-1-1.1-1.1-.65,1.2Z" transform="translate(-125.85 -35.56)"/><path class="cls-3" d="M549.53,311.82l-1,1c.34.37.67.74,1,1.12l1-1-1-1.11" transform="translate(-125.85 -35.56)"/><path class="cls-3" d="M580.56,281.46l-.28.36c.35.38.68.76,1,1.14.18-.22.35-.43.5-.63l.31-.63c-.35-.39-.7-.79-1.07-1.18Z" transform="translate(-125.85 -35.56)"/><polygon class="cls-3" points="389 310.4 388.14 309.17 388.08 309.22 384.1 313.85 389 310.4"/><polygon class="cls-3" points="377.83 323.41 376.98 322.18 376.91 322.22 373.06 326.71 377.83 323.41"/><polygon class="cls-3" points="372.92 337.27 372.92 337.27 375.02 334.64 371.98 336.06 364.33 345.62 367.46 344.11 372.76 337.47 372.92 337.27"/><path class="cls-3" d="M490.52,406.18l6.05-4.7,3.91-2.34,22.74-19.05,36.83-20.28,2-1.49c.19-.74.37-1.49.52-2.24l-3.35,2.46-36.82,20.27-30.52,25.55v-3l29.57-24.67,41.46-23.64.18-.14c.09-.69.16-1.39.21-2.09l-1.18,1L520.74,375.4l4.07-1.48-11.66,9.68-4.44,1.81-18,15-.19.16c0,.47.07.94.07,1.42a24.83,24.83,0,0,1-.15,2.59v1.91Z" transform="translate(-125.85 -35.56)"/><path class="cls-3" d="M564.93,349.55c0,.67-.08,1.35-.14,2l32.79-26.38,1.11-1.46c0-.78,0-1.56-.09-2.34l-2,2.69Z" transform="translate(-125.85 -35.56)"/><path class="cls-3" d="M605.07,315.31l2.55,1.14-7.45,9.35c0,.84,0,1.68-.1,2.52L610,315.88l-5.4-2.43L600,319.58c.07.75.12,1.5.16,2.25Z" transform="translate(-125.85 -35.56)"/><path class="cls-3" d="M564.36,354.78c-.12.73-.26,1.45-.41,2.17,8.39-6.17,27.82-20.6,34.43-26.68.09-.84.18-1.68.23-2.52l-.81,1c-5.72,5.41-24.33,19.29-33.44,26" transform="translate(-125.85 -35.56)"/><path class="cls-3" d="M598.69,323.73l1.44-1.9c0-.76-.09-1.51-.16-2.25l-1.37,1.81c0,.78.07,1.56.09,2.34" transform="translate(-125.85 -35.56)"/><path class="cls-3" d="M564.93,349.55l-1.6,1.28c-.05.7-.12,1.4-.21,2.09l1.67-1.35c.06-.67.11-1.35.14-2" transform="translate(-125.85 -35.56)"/><path class="cls-3" d="M598.61,327.75c-.05.85-.14,1.68-.23,2.52l.49-.45,1.2-1.5c.06-.84.09-1.68.1-2.52Z" transform="translate(-125.85 -35.56)"/><path class="cls-3" d="M564.36,354.78l-1.76,1.3c-.15.75-.33,1.49-.52,2.24L564,357c.15-.72.29-1.44.41-2.17" transform="translate(-125.85 -35.56)"/><path class="cls-3" d="M495.2,390.91l13.51-5.5,12-10,.06,0-14.15,5.12Zm17.28-8.66L498.41,388l5.29-4.83,13.59-4.92Z" transform="translate(-125.85 -35.56)"/><polygon class="cls-3" points="377.05 346.3 365.32 357 365.33 356.99 377.06 346.3 377.05 346.3"/><polygon class="cls-3" points="382.85 349.86 387.3 348.04 398.96 338.36 394.88 339.84 394.83 339.87 382.85 349.86"/><path class="cls-3" d="M495.2,390.91l-4,1.64-.69.63-1.75-3.88,36.17-31.09,35.94-25.61c-.18-.48-.35-1-.54-1.45L524,357l-6.13,5.28,5-2.33L508.37,372.4l-5.16,2.49-16.13,13.86a29.54,29.54,0,0,1,2.39,5.84l.5,1.1Z" transform="translate(-125.85 -35.56)"/><path class="cls-3" d="M526.07,360.73l-23.16,21.12,3.68-1.33L527,361.93l35.35-24.4c-.12-.52-.26-1-.4-1.55Z" transform="translate(-125.85 -35.56)"/><path class="cls-3" d="M563.15,334.88q.24.83.45,1.65c3-2.87,23.75-22.83,31.65-30.87-.19-.51-.39-1-.59-1.54-7.09,7.27-26.92,26.35-31.51,30.76" transform="translate(-125.85 -35.56)"/><path class="cls-3" d="M561.54,330.27c.19.48.38,1,.56,1.44l.75-.53,30.48-30.13c-.23-.48-.45-1-.68-1.44L561.93,330Z" transform="translate(-125.85 -35.56)"/><path class="cls-3" d="M601.49,288.53l2.31,1.29-8.1,12.95c.24.57.47,1.13.69,1.7l9.51-15.18L601,286.51l-7.34,11.82c.26.51.52,1,.77,1.55Z" transform="translate(-125.85 -35.56)"/><path class="cls-3" d="M592.65,299.61c.23.47.45.95.68,1.43l.94-.93.14-.23c-.25-.52-.51-1-.77-1.55l-.49.78Z" transform="translate(-125.85 -35.56)"/><path class="cls-3" d="M561.54,330.27l-1.23.88c.19.48.36,1,.54,1.46l1.25-.9c-.18-.48-.37-1-.56-1.44" transform="translate(-125.85 -35.56)"/><path class="cls-3" d="M595.23,303.53l-.57.59c.2.51.4,1,.59,1.54l1.11-1.14,0,0c-.22-.57-.45-1.13-.69-1.7Z" transform="translate(-125.85 -35.56)"/><path class="cls-3" d="M561.91,336c.14.52.28,1,.4,1.55l.83-.58.1-.07s.14-.14.36-.35q-.21-.82-.45-1.65l-.91.87Z" transform="translate(-125.85 -35.56)"/><polygon class="cls-3" points="382.51 336.84 397.03 324.4 392.02 326.73 377.36 339.33 382.51 336.84"/><polygon class="cls-3" points="377.06 346.3 365.33 356.99 369.35 355.36 380.74 344.96 377.06 346.3"/><path class="cls-3" d="M561.25,365.46c-.36.86-.75,1.71-1.16,2.56l34.54-22.89c.45-1.14.88-2.28,1.25-3.43l-1.21,1.6Z" transform="translate(-125.85 -35.56)"/><path class="cls-3" d="M557,373.52c9.83-6.46,26.4-17.37,35.37-23.45.45-.89.88-1.79,1.29-2.69-7.58,5.19-24.08,16.07-35,23.22-.54,1-1.11,1.95-1.71,2.92" transform="translate(-125.85 -35.56)"/><path class="cls-3" d="M549.12,378.71l4.68-3.07c.75-1.05,1.46-2.11,2.13-3.19l-7.57,5-30.49,15.73-27.18,17.56,1.12-3.63,5.6-4.37,19.22-11.47L551,374l6.52-4.32c.49-.9,1-1.8,1.38-2.71l-8.65,5.74-34.33,17.16-15.45,9.23-10.07,8.43v-1.05l-2.12,6.86L493,411l25.59-16.54Z" transform="translate(-125.85 -35.56)"/><path class="cls-3" d="M598.45,338.32c-.34,1.35-.75,2.69-1.2,4l2.6-3.38,1.39.63-4.66,5.78-.61.44c-.35.86-.71,1.72-1.1,2.58,1.12-.76,2-1.4,2.67-1.86l6.08-7.5-4.24-1.93Z" transform="translate(-125.85 -35.56)"/><path class="cls-3" d="M553.79,375.64l3.24-2.12c.61-1,1.18-1.94,1.72-2.92l-2.82,1.85c-.67,1.08-1.38,2.14-2.14,3.19" transform="translate(-125.85 -35.56)"/><path class="cls-3" d="M593.7,347.38c-.41.9-.84,1.8-1.29,2.69.9-.61,1.73-1.17,2.46-1.68.39-.86.75-1.72,1.1-2.58l-2.27,1.57" transform="translate(-125.85 -35.56)"/><path class="cls-3" d="M558.91,367c-.43.91-.89,1.81-1.38,2.71l2.56-1.7c.41-.85.8-1.7,1.16-2.56Z" transform="translate(-125.85 -35.56)"/><path class="cls-3" d="M594.63,345.13l1-.65,1.64-2.14c.45-1.33.86-2.67,1.2-4l-2.57,3.38c-.37,1.15-.8,2.29-1.25,3.43" transform="translate(-125.85 -35.56)"/><polygon class="cls-3" points="364.66 370.62 364.56 370.96 364.56 372.02 374.63 363.58 370.71 365.92 364.66 370.62"/><path class="cls-3" d="M568.32,378.67q1.51-1.23,3-2.49L569,377.45Z" transform="translate(-125.85 -35.56)"/><path class="cls-3" d="M570.37,374.89l-.07.13.16-.08Z" transform="translate(-125.85 -35.56)"/><path class="cls-3" d="M568,379l-12.83,9.13A141.86,141.86,0,0,0,568,379" transform="translate(-125.85 -35.56)"/><path class="cls-3" d="M521.39,404.46c-.8.44-1.6.87-2.42,1.29a211.17,211.17,0,0,0,24.42-10.88L525,403.37Z" transform="translate(-125.85 -35.56)"/><path class="cls-3" d="M550.44,393.26l5.48-3.9q-5.59,3.56-11.77,6.81Z" transform="translate(-125.85 -35.56)"/><path class="cls-3" d="M569.44,379.75l.07-.13-.8.65Z" transform="translate(-125.85 -35.56)"/><path class="cls-3" d="M513.28,406.9l-5.23,1.57-8.13,4,5.9-1.77-.15-.41c2.62-1.09,5.15-2.23,7.61-3.4" transform="translate(-125.85 -35.56)"/><path class="cls-3" d="M571.29,376.18q-1.45,1.26-3,2.49l0,.06-.3.22a141.86,141.86,0,0,1-12.83,9.13l-5.42,3.85-6.35,2.94A211.17,211.17,0,0,1,519,405.75c.82-.42,1.62-.85,2.42-1.29l-8.11,2.44c-2.46,1.17-5,2.31-7.61,3.4l.15.41,19.69-5.92,18.64-8.62q6.18-3.26,11.78-6.81l12.78-9.09.8-.65,1.9-3.51-.12.07" transform="translate(-125.85 -35.56)"/><path class="cls-3" d="M551.79,380.67c-.94,1.14-1.94,2.26-3,3.36l28.84-15.88,5.66-4.23c1.19-1.46,2.32-2.92,3.38-4.4l-9.81,7.34Z" transform="translate(-125.85 -35.56)"/><path class="cls-3" d="M571.69,375.6l-.23.44,1.73-1.52c1-.91,2-1.83,2.93-2.76-1.51.87-3.45,1.95-5.66,3.17Z" transform="translate(-125.85 -35.56)"/><path class="cls-3" d="M499.43,411.06l8.62-2.59,5.89-2.9,13.74-6.5q4.27-2.65,8.06-5.48l-.33.17-22.13,10.46-25.8,12.72,1.32-2.14L512.09,403l19.23-9.35,12.76-7q2-1.89,3.81-3.82l-17.26,9.51-19.2,9.33L493,411l-5,3.23.26-.83-.35.18h0a32.62,32.62,0,0,1-2.45,4.42l-.21-.3-1.81,2.91,16.46-8.11-.05,0Z" transform="translate(-125.85 -35.56)"/><path class="cls-3" d="M588.37,360.14l.65,1.74-6.27,5.05c-1.77,2-3.68,4.05-5.71,6,1-.54,1.75-1,2.32-1.37l11.45-9.21-1.5-4c-.5.74-1,1.48-1.52,2.22Z" transform="translate(-125.85 -35.56)"/><path class="cls-3" d="M569,377.45,570.3,375c-8.19,4.51-20,10.83-27.56,14.85q-2.93,2.55-6.2,5c3-1.6,20.48-10.85,32.44-17.41" transform="translate(-125.85 -35.56)"/><path class="cls-3" d="M551.79,380.67l-3.9,2.15q-1.8,1.94-3.81,3.82l4.73-2.61c1-1.1,2-2.22,3-3.36" transform="translate(-125.85 -35.56)"/><path class="cls-3" d="M536.54,394.86q3.27-2.44,6.2-5l-7,3.72q-3.79,2.82-8.06,5.48l8.4-4,.46-.24" transform="translate(-125.85 -35.56)"/><path class="cls-3" d="M586.69,359.52c-1.06,1.48-2.19,2.94-3.38,4.4l4.48-3.35c.53-.74,1-1.48,1.52-2.22l-.23-.62Z" transform="translate(-125.85 -35.56)"/><path class="cls-3" d="M582.75,366.93l-4.26,3.43c-.58.36-1.39.84-2.37,1.4-1,.93-1.93,1.85-2.93,2.76L571.46,376l-.05.07c2.21-1.21,4.13-2.29,5.63-3.16,2-2,3.94-4,5.71-6" transform="translate(-125.85 -35.56)"/><polygon class="cls-3" points="362.17 378.65 367.17 375.42 362.43 377.82 362.17 378.65"/><polygon class="cls-3" points="373.57 375.5 374 376.94 374.06 376.92 382.2 372.91 373.57 375.5"/><path class="cls-3" d="M570.46,374.93l-.16.09L569,377.45l2.31-1.27.17-.14.23-.44Z" transform="translate(-125.85 -35.56)"/><path class="cls-3" d="M571.41,376.11l.05-.07-.17.14.12-.07" transform="translate(-125.85 -35.56)"/><path class="cls-3" d="M272.33,313.87l-.06-.05-.5.56Z" transform="translate(-125.85 -35.56)"/><path class="cls-3" d="M240.08,280.79l0,0,.57-.6Z" transform="translate(-125.85 -35.56)"/><path class="cls-3" d="M271.77,314.38l.5-.56-1-1.07-1,1.13.92,1Z" transform="translate(-125.85 -35.56)"/><path class="cls-3" d="M487.92,413.56a27.45,27.45,0,0,0,2.49-8.95v-3.95l.08-.06a26.62,26.62,0,0,0-1-6l-2.56-5.7.17-.14-.43-.76-.55.7-4.3-6.5.37-.43a51.05,51.05,0,0,0-7.12-6.63c-.31.44-.59.85-.83,1.21,9.33,7.24,14.84,16.1,14.84,25.68a27.18,27.18,0,0,1-4.51,14.65c.24.34.48.67.71,1l2.49-4Z" transform="translate(-125.85 -35.56)"/><path class="cls-3" d="M349.52,371.83a61.39,61.39,0,0,0-7.24,5.4l.84,1.21a58.68,58.68,0,0,1,7.12-5.33l0-.07-.68-1.21" transform="translate(-125.85 -35.56)"/><path class="cls-3" d="M443.82,360.59c-.19.51-.35,1-.51,1.43A108.9,108.9,0,0,1,455,365.77l.75-1.31a109,109,0,0,0-11.93-3.87" transform="translate(-125.85 -35.56)"/><path class="cls-3" d="M387.44,358.17l.27,1.5a136.12,136.12,0,0,1,13.9-1.54c0-.44,0-1,0-1.54a133.25,133.25,0,0,0-14.19,1.58" transform="translate(-125.85 -35.56)"/><path class="cls-3" d="M426.76,357.35c-.08.55-.15,1-.22,1.52,3.92.47,7.74,1.1,11.42,1.89l.56-1.44q-5.7-1.23-11.76-2" transform="translate(-125.85 -35.56)"/><path class="cls-3" d="M370.6,362.17l.51,1.42c3.6-1.13,7.36-2.12,11.28-2.94-.08-.45-.18-.94-.28-1.5-4,.84-7.84,1.86-11.51,3" transform="translate(-125.85 -35.56)"/><path class="cls-3" d="M456.69,365.85l2.71,1.1.4-.79c-.87-.38-1.75-.76-2.65-1.13Z" transform="translate(-125.85 -35.56)"/><path class="cls-3" d="M351.13,371.64l2.23-1.29-.33-.65c-.77.44-1.5.88-2.23,1.33l.33.61" transform="translate(-125.85 -35.56)"/><path class="cls-3" d="M461.17,366.78c-.25.48-.48.93-.67,1.32a78.38,78.38,0,0,1,8.69,4.72l.89-1.18a79.87,79.87,0,0,0-8.91-4.86" transform="translate(-125.85 -35.56)"/><path class="cls-3" d="M367.27,364.89c.79-.29,1.6-.57,2.42-.84l-.52-1.41c-.82.27-1.63.56-2.44.85.19.5.37,1,.54,1.4" transform="translate(-125.85 -35.56)"/><path class="cls-3" d="M383.82,360.12a12.34,12.34,0,0,1,2.41-.21l-.27-1.5c-.8.14-1.59.3-2.38.45.08.45.17.88.24,1.26" transform="translate(-125.85 -35.56)"/><path class="cls-3" d="M403.12,357.43a12,12,0,0,1,2.4.25l0-1.27-2.42.11c0,.32,0,.62,0,.91" transform="translate(-125.85 -35.56)"/><path class="cls-3" d="M422.59,358.46c.83.07,1.65.16,2.46.24.07-.47.14-1,.22-1.52-.8-.09-1.61-.17-2.42-.24Z" transform="translate(-125.85 -35.56)"/><path class="cls-3" d="M354.35,369l.67,1.31a89.24,89.24,0,0,1,10.83-4.91l-.53-1.39a90.74,90.74,0,0,0-11,5" transform="translate(-125.85 -35.56)"/><path class="cls-3" d="M339.42,380.33l2.19-1.44-.46-.66c-.66.61-1.29,1.24-1.91,1.87l.18.23" transform="translate(-125.85 -35.56)"/><path class="cls-3" d="M470.82,373.16l2.49,1.85.54-.79c-.81-.59-1.65-1.18-2.51-1.75Z" transform="translate(-125.85 -35.56)"/><path class="cls-3" d="M409.94,356.34c-1,0-1.93,0-2.89,0l0,1.55c1,0,1.94,0,2.92,0,3.79,0,7.51.16,11.15.44l.26-1.52c-3.73-.3-7.53-.47-11.41-.47" transform="translate(-125.85 -35.56)"/><path class="cls-3" d="M339.27,382.22l-.2.13-.42-.55-.44-.58a38.67,38.67,0,0,0-4.93,6.7l.75.89-3.21,4.5a26.78,26.78,0,0,0-1,3.81l.29.27-.67,2.53c-.05.69-.09,1.39-.09,2.1,0,6.7,2.58,13.07,7.19,18.81.26-.44.54-.87.82-1.3-4.18-5.38-6.51-11.29-6.51-17.51,0-7.12,3.05-13.84,8.44-19.8" transform="translate(-125.85 -35.56)"/><path class="cls-3" d="M439.44,361.08c.81.18,1.62.37,2.41.57.16-.44.33-.93.51-1.44l-2.36-.56Z" transform="translate(-125.85 -35.56)"/><path class="cls-3" d="M386,358.41l.27,1.5a12.34,12.34,0,0,0-2.41.21c-.07-.38-.16-.81-.24-1.26l-1.47.29c.1.56.2,1.05.28,1.5,1.74-.36,3.52-.68,5.32-1l-.27-1.5c-.49.08-1,.15-1.48.24" transform="translate(-125.85 -35.56)"/><path class="cls-3" d="M405.55,356.41l0,1.27a12,12,0,0,0-2.4-.25c0-.29,0-.59,0-.91l-1.5.07c0,.57,0,1.1,0,1.54,1.79-.1,3.59-.16,5.41-.2l0-1.55-1.5,0" transform="translate(-125.85 -35.56)"/><path class="cls-3" d="M366.73,363.49l-1.41.51c.19.5.37,1,.54,1.39l1.41-.5c-.17-.43-.35-.9-.54-1.4" transform="translate(-125.85 -35.56)"/><path class="cls-3" d="M369.17,362.64l.52,1.41,1.42-.46-.51-1.42-1.43.47" transform="translate(-125.85 -35.56)"/><path class="cls-3" d="M353,369.7l.33.65-2.23,1.29-.33-.61c-.44.26-.86.53-1.28.8l.68,1.21,0,.07q2.28-1.46,4.78-2.81l-.67-1.31-1.32.71" transform="translate(-125.85 -35.56)"/><path class="cls-3" d="M341.15,378.23l.46.66-2.19,1.44-.18-.24c-.35.37-.69.75-1,1.13l.44.58.42.55.2-.13a46,46,0,0,1,3.85-3.78l-.84-1.21c-.38.34-.77.67-1.13,1" transform="translate(-125.85 -35.56)"/><path class="cls-3" d="M334,388.81l-.75-.89a30.62,30.62,0,0,0-2.46,5.39Z" transform="translate(-125.85 -35.56)"/><path class="cls-3" d="M329.8,397.12a26.17,26.17,0,0,0-.38,2.8l.66-2.53Z" transform="translate(-125.85 -35.56)"/><path class="cls-3" d="M422.85,356.93l-1.5-.12-.26,1.52,1.5.13Z" transform="translate(-125.85 -35.56)"/><path class="cls-3" d="M425.27,357.18c-.08.55-.15,1.05-.22,1.52l1.49.17c.07-.47.14-1,.22-1.52l-1.49-.17" transform="translate(-125.85 -35.56)"/><path class="cls-3" d="M440,359.65l-1.48-.33-.56,1.43,1.48.33Z" transform="translate(-125.85 -35.56)"/><path class="cls-3" d="M442.36,360.21c-.18.51-.35,1-.51,1.44l1.46.37c.16-.45.32-.92.51-1.43l-1.46-.38" transform="translate(-125.85 -35.56)"/><path class="cls-3" d="M459.8,366.16l-.4.79-2.71-1.1.46-.82-1.4-.57-.75,1.31c1.9.74,3.74,1.51,5.5,2.33.19-.39.42-.83.67-1.32l-1.37-.62" transform="translate(-125.85 -35.56)"/><path class="cls-3" d="M473.31,375l-2.49-1.85.52-.69c-.42-.28-.83-.56-1.26-.83l-.89,1.18c1.78,1.12,3.46,2.3,5,3.52.24-.36.52-.77.83-1.21q-.58-.47-1.2-.9l-.54.78" transform="translate(-125.85 -35.56)"/><path class="cls-3" d="M481.8,382.19l4.3,6.5.55-.7a38,38,0,0,0-4.48-6.23Z" transform="translate(-125.85 -35.56)"/><path class="cls-3" d="M490.49,400.6l-.08.06v3.95a24.83,24.83,0,0,0,.15-2.59c0-.48,0-.95-.07-1.42" transform="translate(-125.85 -35.56)"/><path class="cls-3" d="M486.92,388.89l2.56,5.7a30.2,30.2,0,0,0-2.4-5.84Z" transform="translate(-125.85 -35.56)"/><path class="cls-3" d="M487.92,413.56l-.17.09-2.49,4,.21.3a33.23,33.23,0,0,0,2.45-4.42" transform="translate(-125.85 -35.56)"/><path class="cls-3" d="M425.56,521.24l-33.18,0-21.71-6.36-.15-.2c-.07-.09-6.77-9.14-14.59-13l-.42-.21v-8.12L373.9,480l18.32-23.65,33.44,0,26.74,8.3,18,14.85V498l-17,14.53Zm-32.86-1.5h32.63l27.33-8.51,16.21-13.88V480.22L451.68,466l-26.35-8.18H393l-18.09,23.3-17.86,13v6.42c7.39,3.8,13.5,11.61,14.56,13Z" transform="translate(-125.85 -35.56)"/><rect class="cls-3" x="275.56" y="256.85" width="1.5" height="44.95" transform="translate(-237.11 179.26) rotate(-35.86)"/><rect class="cls-3" x="255.45" y="274.29" width="1.5" height="46.06" transform="translate(-260.66 227.72) rotate(-44.27)"/><rect class="cls-3" x="240.93" y="295" width="1.5" height="47.91" transform="translate(-281.89 239.06) rotate(-46.49)"/><rect class="cls-3" x="238.81" y="315.99" width="1.5" height="49.46" transform="translate(-300.91 265.45) rotate(-49.42)"/><rect class="cls-3" x="245.21" y="337.28" width="1.5" height="49.24" transform="translate(-317.41 333.61) rotate(-56.75)"/><rect class="cls-3" x="305.71" y="242.2" width="1.5" height="43.94" transform="translate(-214.34 140.73) rotate(-28.22)"/><rect class="cls-3" x="340.08" y="231.63" width="1.5" height="43.23" transform="translate(-192.34 97.71) rotate(-20.2)"/><rect class="cls-3" x="378.06" y="225.33" width="1.5" height="43.59" transform="translate(-161.45 30.36) rotate(-9.5)"/><rect class="cls-3" x="422.17" y="224.61" width="1.5" height="42.38" transform="translate(-126.72 -34.07) rotate(-0.2)"/><rect class="cls-3" x="438.62" y="248.65" width="41.87" height="1.5" transform="matrix(0.18, -0.98, 0.98, 0.18, 5.11, 620.55)"/><rect class="cls-3" x="475.16" y="257.07" width="42.59" height="1.5" transform="matrix(0.34, -0.94, 0.94, 0.34, -41.41, 600.65)"/><rect class="cls-3" x="507.5" y="270.42" width="43.31" height="1.5" transform="translate(-84.95 574.96) rotate(-61.93)"/><rect class="cls-3" x="532.39" y="286.7" width="43.86" height="1.5" transform="translate(-125.54 539.94) rotate(-54.88)"/><rect class="cls-3" x="549.89" y="305.37" width="44.75" height="1.5" transform="translate(-167.16 482.05) rotate(-47.16)"/><rect class="cls-3" x="557.79" y="327.1" width="46.43" height="1.5" transform="translate(-193.43 448.48) rotate(-42.98)"/><path class="cls-3" d="M327.81,383.75c-.72-.46-1.51-2.2,1.37-8.66l1.37.61c-2.52,5.65-1.81,6.88-1.81,6.89a.41.41,0,0,0-.12-.11Z" transform="translate(-125.85 -35.56)"/><rect class="cls-3" x="334.13" y="366.57" width="4.76" height="1.5" transform="translate(-286.85 306.23) rotate(-44.57)"/><rect class="cls-3" x="340.92" y="361.41" width="3.45" height="1.5" transform="translate(-261.37 185.44) rotate(-30.14)"/><rect class="cls-3" x="353.92" y="353.1" width="8.26" height="1.5" transform="translate(-240.24 144.48) rotate(-24.46)"/><path class="cls-3" d="M370.36,350.31l-.44-1.43c.28-.09,6.91-2.1,9.76-2.7l.3,1.47c-2.78.58-9.55,2.64-9.62,2.66" transform="translate(-125.85 -35.56)"/><path class="cls-3" d="M389.4,346.55l-.18-1.49c3.64-.42,12.2-1.37,13.27-1l-.5,1.41c-.74-.16-7,.41-12.59,1.07" transform="translate(-125.85 -35.56)"/><path class="cls-3" d="M421.57,346.49a42,42,0,0,0-13.14-1l-.15-1.49A42.87,42.87,0,0,1,422,345Z" transform="translate(-125.85 -35.56)"/><path class="cls-3" d="M439.73,349.15c-3.48-1.32-11.41-2.59-11.49-2.6l.24-1.48c.33.05,8.16,1.31,11.78,2.68Z" transform="translate(-125.85 -35.56)"/><path class="cls-3" d="M456.35,353.75c-1.72-1.26-7.48-2.9-9.56-3.43l.37-1.45c.31.08,7.77,2,10.08,3.67Z" transform="translate(-125.85 -35.56)"/><rect class="cls-3" x="467.57" y="354.63" width="1.5" height="6.64" transform="translate(-176.47 601.97) rotate(-65.71)"/><rect class="cls-3" x="475.1" y="361.16" width="1.5" height="2.16" transform="matrix(0.61, -0.8, 0.8, 0.61, -226.47, 485.86)"/><rect class="cls-3" x="480.28" y="365.99" width="1.5" height="2.07" transform="translate(-238.28 449.42) rotate(-48.59)"/><rect class="cls-3" x="486.02" y="370.53" width="1.5" height="5.56" transform="translate(-250.62 289.53) rotate(-32.98)"/><rect class="cls-3" x="489.8" y="382.32" width="1.5" height="3.87" transform="translate(-151.6 -0.21) rotate(-4.02)"/><rect class="cls-3" x="338.62" y="414" width="1.5" height="25.93" transform="translate(-280.15 159.53) rotate(-26.36)"/><polygon class="cls-3" points="222.22 404.26 205.29 369.95 237.69 395.39 236.77 396.57 209.56 375.21 223.56 403.6 222.22 404.26"/><polygon class="cls-3" points="239.74 394.58 237.57 340.82 265.31 387.07 264.02 387.84 239.31 346.63 241.24 394.51 239.74 394.58"/><polygon class="cls-3" points="269 386.92 267.56 386.52 282.49 332.25 297.71 385.98 296.27 386.39 282.51 337.83 269 386.92"/><polygon class="cls-3" points="323.33 391.45 320.38 344.63 302.59 387.01 301.21 386.43 321.48 338.14 324.83 391.36 323.33 391.45"/><polygon class="cls-3" points="341.27 408.02 339.83 407.62 350.97 367.88 328.62 396.92 327.43 396 354.51 360.83 341.27 408.02"/><path class="cls-3" d="M470,447.68l-18.53-16.79L424.94,423h-31.8l-28.32,8.31-12.6,10.19-.94-1.17L364.11,430,393,421.52h32.13l.6.18L408.4,362.43l-15.53,59L362,371.24l1.94,58.09L330.09,404l.9-1.19,31.29,23.49-2-60.61,32.05,52,16-60.81L426,417.31l23.43-54.75L453.42,425,485.78,386Zm-44.25-26,26.47,7.83L469.2,444.9l13.48-52.85L452.16,428.9l-3.79-60Z" transform="translate(-125.85 -35.56)"/><polygon class="cls-3" points="344.5 444.43 343.01 444.31 343.01 410.73 344.51 410.73 344.51 442.74 344.78 442.78 344.5 444.43"/><path class="cls-3" d="M449.23,429.9l-6.42-16.82a6,6,0,0,0-5.55-3.82h-.05l-57.41.53a5.94,5.94,0,0,0-5.59,4.09l-5,15.25-1.42-.47,5-15.24a7.44,7.44,0,0,1,7-5.13l57.42-.53h.06a7.46,7.46,0,0,1,6.95,4.79l6.42,16.82Z" transform="translate(-125.85 -35.56)"/><rect class="cls-3" x="424.5" y="422.27" width="1.5" height="34.8" transform="translate(-130.76 -30.76) rotate(-0.64)"/><rect class="cls-3" x="451.74" y="430.2" width="1.5" height="36.02" transform="translate(-140.8 -19.95) rotate(-1.94)"/><rect class="cls-3" x="475.16" y="490.14" width="1.5" height="20.41" transform="translate(-333.12 364.23) rotate(-38.06)"/><rect class="cls-3" x="478.28" y="489.13" width="1.5" height="19.7" transform="translate(-333.42 379.5) rotate(-39.2)"/><path class="cls-3" d="M478.43,516.4l-3.25-4.93,17.57-11.59,3.25,4.93Zm-1.18-4.51,1.6,2.43,15.08-9.94-1.6-2.42Z" transform="translate(-125.85 -35.56)"/><polygon class="cls-3" points="376.58 491.79 357.15 477.23 358.05 476.02 372.68 486.99 365.36 471.38 366.72 470.74 376.58 491.79"/><rect class="cls-3" x="492.95" y="507.19" width="1.5" height="18.88" transform="translate(-343.94 417.69) rotate(-41.21)"/><polygon class="cls-3" points="371.97 449.68 356.63 430.65 371.98 412.18 373.13 413.14 358.57 430.67 373.14 448.74 371.97 449.68"/><polygon class="cls-3" points="356.29 428.27 343.76 428.27 343.76 426.77 355.61 426.77 371.41 408.55 372.54 409.53 356.29 428.27"/><polygon class="cls-3" points="371.97 454.26 355.59 433.99 343.76 433.99 343.76 432.49 356.31 432.49 373.13 453.32 371.97 454.26"/><path class="cls-3" d="M478.86,493.42a18.12,18.12,0,0,1-9.67-2.87l.86-1.23a16.65,16.65,0,0,0,12,2.25c6.65-1.45,10.94-8.38,11-8.45l1.28.79c-.19.3-4.68,7.54-11.95,9.13a16.4,16.4,0,0,1-3.53.38" transform="translate(-125.85 -35.56)"/><path class="cls-3" d="M494.76,479.32l-1.5,0c.17-9.29-8-15-8.09-15L486,463c.37.25,8.94,6.21,8.75,16.3" transform="translate(-125.85 -35.56)"/><path class="cls-3" d="M532.28,494.57H497.41V436.92h34.87Zm-32.87-2h30.87V438.92H499.41Z" transform="translate(-125.85 -35.56)"/><rect class="cls-3" x="377.97" y="402.83" width="1.5" height="55.65"/><rect class="cls-3" x="383.05" y="402.83" width="1.5" height="55.65"/><rect class="cls-3" x="388.13" y="402.83" width="1.5" height="55.65"/><rect class="cls-3" x="393.22" y="402.83" width="1.5" height="55.65"/><rect class="cls-3" x="398.3" y="402.83" width="1.5" height="55.65"/><rect class="cls-3" x="372.5" y="411.91" width="32.77" height="1.5"/><rect class="cls-3" x="372.5" y="420.73" width="32.77" height="1.5"/><rect class="cls-3" x="372.5" y="429.56" width="32.77" height="1.5"/><rect class="cls-3" x="372.5" y="438.38" width="32.77" height="1.5"/><rect class="cls-3" x="372.5" y="447.21" width="32.77" height="1.5"/><path class="cls-3" d="M564.47,494.57H529.59V436.92h34.88Zm-32.88-2h30.88V438.92H531.59Z" transform="translate(-125.85 -35.56)"/><rect class="cls-3" x="410.15" y="402.83" width="1.5" height="55.65"/><rect class="cls-3" x="415.23" y="402.83" width="1.5" height="55.65"/><rect class="cls-3" x="420.32" y="402.83" width="1.5" height="55.65"/><rect class="cls-3" x="425.4" y="402.83" width="1.5" height="55.65"/><rect class="cls-3" x="430.49" y="402.83" width="1.5" height="55.65"/><rect class="cls-3" x="404.68" y="411.91" width="32.77" height="1.5"/><rect class="cls-3" x="404.68" y="420.73" width="32.77" height="1.5"/><rect class="cls-3" x="404.68" y="429.56" width="32.77" height="1.5"/><rect class="cls-3" x="404.68" y="438.38" width="32.77" height="1.5"/><rect class="cls-3" x="404.68" y="447.21" width="32.77" height="1.5"/><path class="cls-3" d="M596.65,494.57H561.77V436.92h34.88Zm-32.88-2h30.88V438.92H563.77Z" transform="translate(-125.85 -35.56)"/><rect class="cls-3" x="442.33" y="402.83" width="1.5" height="55.65"/><rect class="cls-3" x="447.42" y="402.83" width="1.5" height="55.65"/><rect class="cls-3" x="452.5" y="402.83" width="1.5" height="55.65"/><rect class="cls-3" x="457.58" y="402.83" width="1.5" height="55.65"/><rect class="cls-3" x="462.67" y="402.83" width="1.5" height="55.65"/><rect class="cls-3" x="436.86" y="411.91" width="32.77" height="1.5"/><rect class="cls-3" x="436.86" y="420.73" width="32.77" height="1.5"/><rect class="cls-3" x="436.86" y="429.56" width="32.77" height="1.5"/><rect class="cls-3" x="436.86" y="438.38" width="32.77" height="1.5"/><rect class="cls-3" x="436.86" y="447.21" width="32.77" height="1.5"/><path class="cls-3" d="M628.83,494.57H594V436.92h34.87Zm-32.87-2h30.87V438.92H596Z" transform="translate(-125.85 -35.56)"/><rect class="cls-3" x="474.51" y="402.83" width="1.5" height="55.65"/><rect class="cls-3" x="479.6" y="402.83" width="1.5" height="55.65"/><rect class="cls-3" x="484.68" y="402.83" width="1.5" height="55.65"/><rect class="cls-3" x="489.77" y="402.83" width="1.5" height="55.65"/><rect class="cls-3" x="494.85" y="402.83" width="1.5" height="55.65"/><rect class="cls-3" x="469.05" y="411.91" width="32.77" height="1.5"/><rect class="cls-3" x="469.05" y="420.73" width="32.77" height="1.5"/><rect class="cls-3" x="469.05" y="429.56" width="32.77" height="1.5"/><rect class="cls-3" x="469.05" y="438.38" width="32.77" height="1.5"/><rect class="cls-3" x="469.05" y="447.21" width="32.77" height="1.5"/><path class="cls-3" d="M661,494.57H626.14V436.92H661Zm-32.88-2H659V438.92H628.14Z" transform="translate(-125.85 -35.56)"/><rect class="cls-3" x="506.7" y="402.83" width="1.5" height="55.65"/><rect class="cls-3" x="511.78" y="402.83" width="1.5" height="55.65"/><rect class="cls-3" x="516.87" y="402.83" width="1.5" height="55.65"/><rect class="cls-3" x="521.95" y="402.83" width="1.5" height="55.65"/><rect class="cls-3" x="527.03" y="402.83" width="1.5" height="55.65"/><rect class="cls-3" x="501.23" y="411.91" width="32.77" height="1.5"/><rect class="cls-3" x="501.23" y="420.73" width="32.77" height="1.5"/><rect class="cls-3" x="501.23" y="429.56" width="32.77" height="1.5"/><rect class="cls-3" x="501.23" y="438.38" width="32.77" height="1.5"/><rect class="cls-3" x="501.23" y="447.21" width="32.77" height="1.5"/><path class="cls-3" d="M693.2,494.57H658.32V436.92H693.2Zm-32.88-2H691.2V438.92H660.32Z" transform="translate(-125.85 -35.56)"/><rect class="cls-3" x="538.88" y="402.83" width="1.5" height="55.65"/><rect class="cls-3" x="543.96" y="402.83" width="1.5" height="55.65"/><rect class="cls-3" x="549.05" y="402.83" width="1.5" height="55.65"/><rect class="cls-3" x="554.13" y="402.83" width="1.5" height="55.65"/><rect class="cls-3" x="559.22" y="402.83" width="1.5" height="55.65"/><rect class="cls-3" x="533.41" y="411.91" width="32.77" height="1.5"/><rect class="cls-3" x="533.41" y="420.73" width="32.77" height="1.5"/><rect class="cls-3" x="533.41" y="429.56" width="32.77" height="1.5"/><rect class="cls-3" x="533.41" y="438.38" width="32.77" height="1.5"/><rect class="cls-3" x="533.41" y="447.21" width="32.77" height="1.5"/><path class="cls-3" d="M160.73,495.67H125.85V438h34.88Zm-32.87-2h30.87V440H127.86Z" transform="translate(-125.85 -35.56)"/><rect class="cls-3" x="6.42" y="403.93" width="1.5" height="55.65"/><rect class="cls-3" x="11.5" y="403.93" width="1.5" height="55.65"/><rect class="cls-3" x="16.58" y="403.93" width="1.5" height="55.65"/><rect class="cls-3" x="21.67" y="403.93" width="1.5" height="55.65"/><rect class="cls-3" x="26.75" y="403.93" width="1.5" height="55.65"/><rect class="cls-3" x="0.95" y="413.01" width="32.77" height="1.5"/><rect class="cls-3" x="0.95" y="421.83" width="32.77" height="1.5"/><rect class="cls-3" x="0.95" y="430.66" width="32.77" height="1.5"/><rect class="cls-3" x="0.95" y="439.48" width="32.77" height="1.5"/><rect class="cls-3" x="0.95" y="448.31" width="32.77" height="1.5"/><path class="cls-3" d="M192.91,495.67H158V438h34.87Zm-32.87-2h30.87V440H160Z" transform="translate(-125.85 -35.56)"/><rect class="cls-3" x="38.6" y="403.93" width="1.5" height="55.65"/><rect class="cls-3" x="43.68" y="403.93" width="1.5" height="55.65"/><rect class="cls-3" x="48.76" y="403.93" width="1.5" height="55.65"/><rect class="cls-3" x="53.85" y="403.93" width="1.5" height="55.65"/><rect class="cls-3" x="58.93" y="403.93" width="1.5" height="55.65"/><rect class="cls-3" x="33.13" y="413.01" width="32.77" height="1.5"/><rect class="cls-3" x="33.13" y="421.83" width="32.77" height="1.5"/><rect class="cls-3" x="33.13" y="430.66" width="32.77" height="1.5"/><rect class="cls-3" x="33.13" y="439.48" width="32.77" height="1.5"/><rect class="cls-3" x="33.13" y="448.31" width="32.77" height="1.5"/><path class="cls-3" d="M225.1,495.67H190.22V438H225.1Zm-32.88-2H223.1V440H192.22Z" transform="translate(-125.85 -35.56)"/><rect class="cls-3" x="70.78" y="403.93" width="1.5" height="55.65"/><rect class="cls-3" x="75.86" y="403.93" width="1.5" height="55.65"/><rect class="cls-3" x="80.95" y="403.93" width="1.5" height="55.65"/><rect class="cls-3" x="86.03" y="403.93" width="1.5" height="55.65"/><rect class="cls-3" x="91.12" y="403.93" width="1.5" height="55.65"/><rect class="cls-3" x="65.31" y="413.01" width="32.77" height="1.5"/><rect class="cls-3" x="65.31" y="421.83" width="32.77" height="1.5"/><rect class="cls-3" x="65.31" y="430.66" width="32.77" height="1.5"/><rect class="cls-3" x="65.31" y="439.48" width="32.77" height="1.5"/><rect class="cls-3" x="65.31" y="448.31" width="32.77" height="1.5"/><path class="cls-3" d="M257.28,495.67H222.4V438h34.88Zm-32.88-2h30.88V440H224.4Z" transform="translate(-125.85 -35.56)"/><rect class="cls-3" x="102.96" y="403.93" width="1.5" height="55.65"/><rect class="cls-3" x="108.05" y="403.93" width="1.5" height="55.65"/><rect class="cls-3" x="113.13" y="403.93" width="1.5" height="55.65"/><rect class="cls-3" x="118.21" y="403.93" width="1.5" height="55.65"/><rect class="cls-3" x="123.3" y="403.93" width="1.5" height="55.65"/><rect class="cls-3" x="97.49" y="413.01" width="32.77" height="1.5"/><rect class="cls-3" x="97.49" y="421.83" width="32.77" height="1.5"/><rect class="cls-3" x="97.49" y="430.66" width="32.77" height="1.5"/><rect class="cls-3" x="97.49" y="439.48" width="32.77" height="1.5"/><rect class="cls-3" x="97.49" y="448.31" width="32.77" height="1.5"/><path class="cls-3" d="M289.46,495.67H254.58V438h34.88Zm-32.88-2h30.88V440H256.58Z" transform="translate(-125.85 -35.56)"/><rect class="cls-3" x="135.15" y="403.93" width="1.5" height="55.65"/><rect class="cls-3" x="140.23" y="403.93" width="1.5" height="55.65"/><rect class="cls-3" x="145.31" y="403.93" width="1.5" height="55.65"/><rect class="cls-3" x="150.4" y="403.93" width="1.5" height="55.65"/><rect class="cls-3" x="155.48" y="403.93" width="1.5" height="55.65"/><rect class="cls-3" x="129.68" y="413.01" width="32.77" height="1.5"/><rect class="cls-3" x="129.68" y="421.83" width="32.77" height="1.5"/><rect class="cls-3" x="129.68" y="430.66" width="32.77" height="1.5"/><rect class="cls-3" x="129.68" y="439.48" width="32.77" height="1.5"/><rect class="cls-3" x="129.68" y="448.31" width="32.77" height="1.5"/><path class="cls-3" d="M321.64,495.67H286.77V438h34.87Zm-32.87-2h30.87V440H288.77Z" transform="translate(-125.85 -35.56)"/><rect class="cls-3" x="167.33" y="403.93" width="1.5" height="55.65"/><rect class="cls-3" x="172.41" y="403.93" width="1.5" height="55.65"/><rect class="cls-3" x="177.5" y="403.93" width="1.5" height="55.65"/><rect class="cls-3" x="182.58" y="403.93" width="1.5" height="55.65"/><rect class="cls-3" x="187.66" y="403.93" width="1.5" height="55.65"/><rect class="cls-3" x="161.86" y="413.01" width="32.77" height="1.5"/><rect class="cls-3" x="161.86" y="421.83" width="32.77" height="1.5"/><rect class="cls-3" x="161.86" y="430.66" width="32.77" height="1.5"/><rect class="cls-3" x="161.86" y="439.48" width="32.77" height="1.5"/><rect class="cls-3" x="161.86" y="448.31" width="32.77" height="1.5"/><path class="cls-3" d="M344.11,472.23a17,17,0,1,1,17-17,17,17,0,0,1-17,17m0-32.46a15.48,15.48,0,1,0,15.48,15.48,15.5,15.5,0,0,0-15.48-15.48" transform="translate(-125.85 -35.56)"/><rect class="cls-3" x="323.51" y="445.01" width="1.5" height="11.52" transform="translate(-337.09 268.3) rotate(-38.93)"/><rect class="cls-3" x="323.68" y="441.94" width="1.5" height="11.45" transform="translate(-340.86 291.01) rotate(-41.42)"/><rect class="cls-3" x="315.62" y="480.11" width="27.47" height="1.5" transform="translate(-376.35 386.33) rotate(-49.78)"/><rect class="cls-3" x="316.42" y="477.46" width="23.57" height="1.5" transform="translate(-375 387.27) rotate(-50.06)"/><rect class="cls-3" x="349.59" y="422.44" width="1.5" height="17.88" transform="translate(-323.57 487.76) rotate(-60.44)"/><rect class="cls-3" x="221.58" y="435.92" width="1.5" height="26.68"/><polygon class="cls-3" points="233.84 425.71 233.34 424.3 258.06 415.58 265.96 420.2 265.32 386.73 266.82 386.7 267.51 422.84 257.9 417.23 233.84 425.71"/><polygon class="cls-3" points="234.75 420.39 234.21 418.99 260.04 409.05 266.31 408.29 266.5 409.78 260.31 410.53 234.75 420.39"/><polygon class="cls-3" points="230.95 458.69 229.86 457.67 244.64 441.89 257.29 416.12 259.42 409.56 260.84 410.03 258.66 416.73 245.81 442.84 230.95 458.69"/><polygon class="cls-3" points="236.7 447.02 232.22 426.74 233.68 426.42 237.76 444.9 244.96 441.64 245.58 443.01 236.7 447.02"/><polygon class="cls-3" points="226.2 464.71 223.59 458.96 236.69 445.44 237.77 446.48 225.38 459.27 227.57 464.1 226.2 464.71"/><path class="cls-3" d="M356.3,552.68c-7.28,0-15.68-2.28-23.68-6.9s-14.63-11-18.33-17.93-4.21-13.68-1.22-18.85,9-8.13,16.93-8.36,16.58,2.23,24.69,6.91c16.87,9.74,25.65,26.24,19.56,36.78-3.2,5.54-9.88,8.35-17.95,8.35M331,502.12l-1,0c-7.39.21-13,2.91-15.68,7.61s-2.27,10.88,1.25,17.39,9.88,12.79,17.76,17.34c16.16,9.33,33.91,8.92,39.58-.9s-2.85-25.4-19-34.73c-7.54-4.36-15.65-6.73-22.94-6.73" transform="translate(-125.85 -35.56)"/><path class="cls-3" d="M374.28,544.27l-1.36-.63c.46-1,10.92-24.44-15.19-40.18-10.84-6.53-21.31-8.08-30.29-4.46a26.14,26.14,0,0,0-10.36,7.45l-1.2-.9c.15-.2,15.34-19.82,42.63-3.37,14.23,8.58,17.77,19.57,18.23,27.27a33.37,33.37,0,0,1-2.46,14.82" transform="translate(-125.85 -35.56)"/><path class="cls-3" d="M333,534.63l.11.06a2.31,2.31,0,0,1,.27-.7Z" transform="translate(-125.85 -35.56)"/><path class="cls-3" d="M348.25,518.71c-2.55-1.48-5.34-1.29-6.33.42L333.35,534a2.47,2.47,0,0,0-.27.71c-.38,1.65.84,3.71,3.06,5a7,7,0,0,0,3.42,1,3.52,3.52,0,0,0,2.43-.84l.11.06.37-.65,8.58-14.85c1-1.71-.24-4.22-2.8-5.69m-11.36,19.67a4.53,4.53,0,0,1-2.36-2.84,1.26,1.26,0,0,1,.12-.81,1.19,1.19,0,0,1,.63-.49,2.66,2.66,0,0,1,1-.17,5.47,5.47,0,0,1,2.66.79,4.53,4.53,0,0,1,2.36,2.84,1.22,1.22,0,0,1-.12.8,1.16,1.16,0,0,1-.63.5,4.47,4.47,0,0,1-3.65-.62m12.86-14.73-7.33,12.7a7.32,7.32,0,0,0-6.53-3.77l7.33-12.7c.48-.83,2.36-1,4.28.13s2.73,2.81,2.25,3.64" transform="translate(-125.85 -35.56)"/><rect class="cls-3" x="342.12" y="511.89" width="12.67" height="1.5" transform="translate(-393.13 548.5) rotate(-62.41)"/><rect class="cls-3" x="346.49" y="514.39" width="13.17" height="1.5" transform="translate(-394.5 538.74) rotate(-61.01)"/><path class="cls-3" d="M347.64,513.76c-5.56-5.36-5.51-10.34-5.5-10.55l1.5,0-.75,0h.75c0,.05,0,4.57,5,9.45Z" transform="translate(-125.85 -35.56)"/><path class="cls-3" d="M357.31,517.34a11.42,11.42,0,0,1-4.56-.88l.64-1.35-.32.67.32-.68a11,11,0,0,0,9.35-.63l.69,1.33a13.07,13.07,0,0,1-6.12,1.54" transform="translate(-125.85 -35.56)"/><rect class="cls-3" x="371.53" y="477.01" width="1.5" height="4.54" transform="translate(-318.45 221.87) rotate(-30.72)"/><rect class="cls-3" x="346.44" y="474.59" width="15.92" height="1.5" transform="translate(-345.09 289.82) rotate(-38.64)"/><rect class="cls-3" x="363.96" y="430.65" width="1.5" height="22.81" transform="translate(-135.49 -27.42) rotate(-1.26)"/><rect class="cls-3" x="458.17" y="432.88" width="12.35" height="1.5" transform="translate(-277.38 242.01) rotate(-28.82)"/><rect class="cls-3" x="473.15" y="422" width="14.1" height="1.5" transform="translate(-283.3 335) rotate(-36.68)"/><path class="cls-3" d="M389.3,174.39l-10.2,51.09,1.47.29,10-49.94a11.11,11.11,0,0,1-1.25-1.44" transform="translate(-125.85 -35.56)"/><path class="cls-3" d="M398.57,207.73l1.48-.24-4.54-28.39c-.58-.26-1.13-.53-1.65-.82Z" transform="translate(-125.85 -35.56)"/><path class="cls-3" d="M392.19,166.53a1.53,1.53,0,0,0-1.57,1.26l-.88,4.4a7.66,7.66,0,0,0,1.15,1.89l1.2-6-.73-.15.86.15,1.34,8.33a16.56,16.56,0,0,0,1.67,1l-1.52-9.51a1.57,1.57,0,0,0-1.52-1.33" transform="translate(-125.85 -35.56)"/><path class="cls-3" d="M391.91,180.08a1,1,0,0,0-1,.77l-8.11,44,1.48.27,7.4-40.14L396,224.7l1.49-.17-4.73-43.6a.93.93,0,0,0-.88-.85m-.61,1v0" transform="translate(-125.85 -35.56)"/><path class="cls-3" d="M416,220.23l.54,3.39-.83.13,0,.61,1.49.12L421,178.79c-.52.25-1,.49-1.61.72Z" transform="translate(-125.85 -35.56)"/><path class="cls-3" d="M425.47,175.61a13,13,0,0,1-1.28,1.15l10.64,48.79,1.46-.32Z" transform="translate(-125.85 -35.56)"/><path class="cls-3" d="M421.81,165.07a1.52,1.52,0,0,0-1.39,1.43l-.94,11.38q.86-.37,1.62-.78l.87-10.52,1.87,8.59a9.63,9.63,0,0,0,1.25-1.32l-1.66-7.62a1.53,1.53,0,0,0-1.62-1.16" transform="translate(-125.85 -35.56)"/><path class="cls-3" d="M423,178.57a.91.91,0,0,0-.86.87L419.23,224l1.5.1L423.36,184l7.92,41.09,1.47-.28L424,179.32a1,1,0,0,0-1-.75" transform="translate(-125.85 -35.56)"/><path class="cls-3" d="M409.84,181.52c-.64,0-1.29.06-1.94.06-.35,0-.69,0-1,0l-3.81,24.53,1.48.23,3.82-24.58,6.7,42.13.65-.11.29-3.52Z" transform="translate(-125.85 -35.56)"/><path class="cls-3" d="M408.34,179a1.26,1.26,0,0,0-1.22,1l.78,0c.56,0,1.12,0,1.68,0a1.33,1.33,0,0,0-1.24-1" transform="translate(-125.85 -35.56)"/><polygon class="cls-3" points="290.14 184.68 289.86 188.19 290.68 188.06 290.14 184.68"/><path class="cls-3" d="M408.45,189.4h0a.88.88,0,0,0-.87.77l-4.44,33.77,1.48.19,3.8-28.81,3.47,28.87,1.49-.18L409.3,190.2a.88.88,0,0,0-.85-.8m-.64,1h0" transform="translate(-125.85 -35.56)"/><path class="cls-3" d="M408,163.48c-6.94,0-12.37,2.87-12.37,6.55s5.43,6.54,12.37,6.54,12.36-2.87,12.36-6.54-5.43-6.55-12.36-6.55m0,11.59c-5.89,0-10.87-2.31-10.87-5s5-5.05,10.87-5.05,10.86,2.31,10.86,5.05-5,5-10.86,5" transform="translate(-125.85 -35.56)"/><path class="cls-3" d="M409.63,180.18l.21,1.35a30.49,30.49,0,0,0,9.51-2l.13-1.63a29.1,29.1,0,0,1-9.9,2.16c0,.05,0,.09.05.14" transform="translate(-125.85 -35.56)"/><path class="cls-3" d="M407.12,180.06a28.18,28.18,0,0,1-11.89-2.69l.28,1.73a29.7,29.7,0,0,0,11.36,2.45l.21-1.36c0-.05,0-.09,0-.13" transform="translate(-125.85 -35.56)"/><path class="cls-3" d="M389.34,170c0-5.55,8.35-10.07,18.61-10.07s18.6,4.52,18.6,10.07a6.34,6.34,0,0,1-1.41,3.84l.38,1.76a8.06,8.06,0,0,0,2.53-5.6c0-6.38-9-11.57-20.1-11.57s-20.11,5.19-20.11,11.57a7.53,7.53,0,0,0,1.51,4.38l.44-2.2a5.9,5.9,0,0,1-.45-2.18" transform="translate(-125.85 -35.56)"/><path class="cls-3" d="M389.74,172.19l-.44,2.2a11.83,11.83,0,0,0,1.24,1.44l.35-1.75a7.66,7.66,0,0,1-1.15-1.89" transform="translate(-125.85 -35.56)"/><path class="cls-3" d="M393.56,176.42l.29,1.86c.53.29,1.08.56,1.66.82l-.28-1.74a14.79,14.79,0,0,1-1.67-.94" transform="translate(-125.85 -35.56)"/><path class="cls-3" d="M419.48,177.88l-.13,1.63c.56-.23,1.09-.47,1.61-.72l.14-1.69q-.77.41-1.62.78" transform="translate(-125.85 -35.56)"/><path class="cls-3" d="M425.09,173.85a9.63,9.63,0,0,1-1.25,1.32l.35,1.59a13,13,0,0,0,1.28-1.15Z" transform="translate(-125.85 -35.56)"/><path class="cls-3" d="M409.84,181.52l-.21-1.34c0-.05,0-.1-.05-.15-.56,0-1.12.05-1.68.05l-.78,0s0,.08,0,.13l-.21,1.36c.34,0,.68,0,1,0,.65,0,1.3,0,1.94-.06" transform="translate(-125.85 -35.56)"/><path class="cls-3" d="M431.79,143.05v0a6.43,6.43,0,0,0,.14-1.32c0-6.7-10.5-11.95-23.91-11.95-12.91,0-23.12,4.86-23.87,11.2h0v11.77a8.18,8.18,0,0,0-.14,1.49,8.26,8.26,0,0,0,.14,1.49v.49h1.41s-.05-1.31-.05-2a7,7,0,0,1,.14-1.37,8.86,8.86,0,0,1,2.44-4.38,13.44,13.44,0,0,1,1.16-1.08,25.78,25.78,0,0,1,11.7-4.93,40.34,40.34,0,0,1,14.09,0,25.87,25.87,0,0,1,11.71,4.93,14.91,14.91,0,0,1,1.15,1.08,8.86,8.86,0,0,1,2.44,4.38,7,7,0,0,1,.14,1.37c0,.67-.05,2-.05,2h1.41v-.49a8.26,8.26,0,0,0,.14-1.49,8.37,8.37,0,0,0-.14-1.5ZM429,147.57a12.45,12.45,0,0,0-1.11-1.06,23.17,23.17,0,0,0-7.18-4,34.19,34.19,0,0,0-5.6-1.5,41.31,41.31,0,0,0-14.26,0,34,34,0,0,0-5.61,1.5,23,23,0,0,0-7.17,4,12.59,12.59,0,0,0-1.12,1.06,12.4,12.4,0,0,0-1.32,1.63v-6.34a9.41,9.41,0,0,1-.07-1.88h.13c.86-5.33,10.74-9.7,22.36-9.7s21.49,4.37,22.35,9.7h0a9.46,9.46,0,0,1-.08,1.88v6.34a12.4,12.4,0,0,0-1.32-1.63" transform="translate(-125.85 -35.56)"/><path class="cls-3" d="M408,144.72c-10.71,0-19.19,3.9-19.95,9h-.22V169.3h.46l1.1-3.07v-11a4.27,4.27,0,0,0,.13-.75,3.84,3.84,0,0,1,.09-.75c.88-4.14,8.94-7.51,18.39-7.51s17.52,3.37,18.4,7.51a3.82,3.82,0,0,1,.08.75c0,.33-.14,4-.14,4v7.06l1.55,3.77V155.65a5.14,5.14,0,0,0,.15-1.17c0-5.47-8.8-9.76-20-9.76" transform="translate(-125.85 -35.56)"/><path class="cls-3" d="M387.7,162.67a21.33,21.33,0,0,1-3.6-6.78l1.45-.38a20.13,20.13,0,0,0,3.35,6.26Z" transform="translate(-125.85 -35.56)"/><path class="cls-3" d="M427.7,162.15l-.69-1.33a6,6,0,0,0,3.31-5.11l1.5,0a7.47,7.47,0,0,1-4.12,6.47" transform="translate(-125.85 -35.56)"/><path class="cls-3" d="M430.4,118.64l-15-29.36,6.42,26.11-1.46.36L412.69,84.5a.89.89,0,0,1,1.65-.62L431.74,118Z" transform="translate(-125.85 -35.56)"/><polygon class="cls-3" points="325.87 90.76 294.73 80.17 295.21 78.75 322.21 87.93 298.75 52.25 286.77 48.52 287.22 47.09 299.71 50.98 325.87 90.76"/><path class="cls-3" d="M367.49,92.64l-6.33-12.39,3.91-2,6.33,12.4ZM363.18,80.9l5,9.73,1.24-.64-5-9.72Z" transform="translate(-125.85 -35.56)"/><path class="cls-3" d="M355.77,90.78a1.28,1.28,0,0,1-1.2-.84,1.27,1.27,0,0,1,.44-1.47l7.63-5.71.89,1.2-7,5.27,10.09-.66.1,1.5-10.82.7h-.09" transform="translate(-125.85 -35.56)"/><rect class="cls-3" x="355.23" y="86.84" width="9.98" height="1.5" transform="translate(-135.62 75.22) rotate(-17.25)"/><rect class="cls-3" x="366.14" y="78.3" width="24.71" height="1.5" transform="translate(-124.68 127.95) rotate(-24.41)"/><rect class="cls-3" x="367.28" y="80.79" width="22.88" height="1.5" transform="translate(-126.9 122.49) rotate(-23.54)"/><path class="cls-3" d="M379.91,51.66l-1.48-4,12-4.85,1.47,4Zm.43-3.14.44,1.17L390,46l-.44-1.18Z" transform="translate(-125.85 -35.56)"/><path class="cls-3" d="M382.36,47.22l-1.5,0,.39-10.4a1.25,1.25,0,0,1,.95-1.18,1.23,1.23,0,0,1,1.36.59L388,44l-1.31.75-4-7Z" transform="translate(-125.85 -35.56)"/><rect class="cls-3" x="383.06" y="36.47" width="1.5" height="9.56" transform="translate(-126.79 37.1) rotate(-10.8)"/><rect class="cls-3" x="389.18" y="47.68" width="1.5" height="22.6" transform="translate(-123.91 94.05) rotate(-18.92)"/><rect class="cls-3" x="387.13" y="48.49" width="1.5" height="22.59" transform="translate(-125.34 87.29) rotate(-18.01)"/><path class="cls-3" d="M389.05,135.73l-1.5,0,1-62.57a4.18,4.18,0,0,1,2.07-3.52,33.13,33.13,0,0,1,34.7.48,4.09,4.09,0,0,1,2,3.55V89.07h-1.5V73.65a2.63,2.63,0,0,0-1.28-2.27,33.82,33.82,0,0,0-16.85-4.93,33.43,33.43,0,0,0-16.33,4.47A2.64,2.64,0,0,0,390,73.17Z" transform="translate(-125.85 -35.56)"/><rect class="cls-3" x="426.2" y="116.96" width="1.5" height="18.77" transform="translate(-130.88 -17.13) rotate(-2.46)"/></g></g></g></svg>